<svg xmlns="http://www.w3.org/2000/svg" width="39.214" height="40.235" viewBox="0 0 39.214 40.235">
  <g id="affiliate-marketing" transform="translate(-12 -13)">
    <g id="Group_1036" data-name="Group 1036" transform="translate(12 13)">
      <g id="Group_1035" data-name="Group 1035">
        <path id="Path_509" data-name="Path 509" d="M161.784,105.625c-2.77,0-4.3,1.435-4.275,4.2.041,3.788,1.65,6.086,4.275,6.046,0,0,4.273.173,4.273-6.046C166.056,107.06,164.613,105.625,161.784,105.625Z" transform="translate(-142.175 -95)" fill="#000a1c"/>
        <path id="Path_510" data-name="Path 510" d="M39.537,30.729A4.747,4.747,0,0,0,37.955,31L35.886,28.93a14.232,14.232,0,0,0,0-17.626l2.069-2.069a4.752,4.752,0,1,0-2.9-2.9L32.912,8.478a14.233,14.233,0,0,0-16.458,0L14.312,6.335a4.752,4.752,0,1,0-2.9,2.9L13.48,11.3a14.232,14.232,0,0,0,0,17.626L11.411,31a4.753,4.753,0,1,0,2.9,2.9l2.142-2.143a14.233,14.233,0,0,0,16.458,0L35.055,33.9a4.753,4.753,0,1,0,4.482-3.171Zm-5.986-3.262c-.159-1.543-.491-3.395-1.309-3.72l-4.269-1.7-1-.843a.665.665,0,0,0-.9.037l-1.39,1.382L23.29,21.239a.666.666,0,0,0-.9-.036l-1,.843-4.27,1.7c-.817.325-1.148,2.177-1.307,3.719a11.517,11.517,0,1,1,17.736,0Z" transform="translate(-5.076)" fill="#000a1c"/>
      </g>
    </g>
  </g>
</svg>
