<svg xmlns="http://www.w3.org/2000/svg" width="45.42" height="29.452" viewBox="0 0 45.42 29.452">
  <g id="peace-talks" transform="translate(0)">
    <path id="Path_511" data-name="Path 511" d="M11.332,19.179a5.2,5.2,0,1,1-5.194-5.2A5.2,5.2,0,0,1,11.332,19.179Zm22.757,0a5.2,5.2,0,1,0,5.193-5.2A5.2,5.2,0,0,0,34.088,19.179ZM19.836,37.046a3.581,3.581,0,0,1,1.03-2.874,11.772,11.772,0,0,1-7.773-4.927,11.379,11.379,0,0,0-2.453-2.5c-.031-.018-.063-.018-.089-.042A4.729,4.729,0,0,0,7.54,25.6H4.73A4.74,4.74,0,0,0,0,30.321V43.433H12.273V34.958a16,16,0,0,0,8.215,3.708A3.552,3.552,0,0,1,19.836,37.046ZM40.695,25.6H37.877a4.688,4.688,0,0,0-3,1.112c-.033.024-.065.024-.089.042a11.374,11.374,0,0,0-2.461,2.5,11.839,11.839,0,0,1-9.131,5.163,2.254,2.254,0,0,0,.249,4.494c.081,0,.166-.006.254-.012a16.3,16.3,0,0,0,9.457-3.9v8.445H45.42V30.321A4.739,4.739,0,0,0,40.695,25.6Z" transform="translate(0 -13.981)" fill="#000a1c"/>
  </g>
</svg>
