<?xml version="1.0" encoding="utf-8"?>
<?xml-stylesheet type="text/css" href="../../css/animate.css"?>
<?xml-stylesheet type="text/css" href="../../css/ani.html"?>
<!-- Generator: Adobe Illustrator 21.0.0, SVG Export Plug-In . SVG Version: 6.00 Build 0)  -->
<svg version="1.1" id="Layer_1" xmlns="http://www.w3.org/2000/svg" xmlns:xlink="http://www.w3.org/1999/xlink" x="0px" y="0px"
	 viewBox="0 0 318.7 525.5" style="enable-background:new 0 0 318.7 525.5;" xml:space="preserve">
<style type="text/css">
	.st0{fill:url(#SVGID_1_);}
	.st1{fill:url(#SVGID_2_);}
	.st2{fill:url(#SVGID_3_);}
	.st3{fill:url(#SVGID_4_);}
	.st4{fill:#283353;}
	.st5{fill:#1B1A31;}
	.st6{fill:url(#SVGID_5_);}
	.st7{fill:#FFFFFF;}
	.st8{opacity:0.3;fill:url(#SVGID_6_);}
	.st9{opacity:0.58;fill:url(#SVGID_7_);}
	.st10{fill:url(#SVGID_8_);}
	.st11{opacity:0.32;fill:#D02E4F;}
	.st12{opacity:0.2;fill:#FFFFFF;}
	.st13{fill:url(#SVGID_9_);}
	.st14{fill:url(#SVGID_10_);}
	.st15{fill:url(#SVGID_11_);}
	.st16{fill:url(#SVGID_12_);}
	.st17{fill:url(#SVGID_13_);}
	.st18{fill:url(#SVGID_14_);}
	.st19{fill:#FFE800;}
	.st20{fill:url(#SVGID_15_);}
	.st21{opacity:0.5;fill:#FFFFFF;}
	.st22{fill:url(#SVGID_16_);}
	.st23{fill:#4E074F;}
	.st24{fill:url(#SVGID_17_);}
	.st25{opacity:0.16;fill:#DB2E4F;}
	.st26{fill:url(#SVGID_18_);}
	.st27{fill:url(#SVGID_19_);}
	.st28{fill:url(#SVGID_20_);}
	.st29{fill:url(#SVGID_21_);}
	.st30{fill:url(#SVGID_22_);}
	.st31{opacity:0.3;fill:url(#SVGID_23_);}
	.st32{fill:#3F004A;}
	.st33{fill:#390300;}
	.st34{fill:url(#SVGID_24_);}
	.st35{fill:url(#SVGID_25_);}
	.st36{fill:url(#SVGID_26_);}
	.st37{fill:url(#SVGID_27_);}
	.st38{fill:url(#SVGID_28_);}
	.st39{fill:url(#SVGID_29_);}
	.st40{fill:url(#SVGID_30_);}
	.st41{fill:url(#SVGID_31_);}
	.st42{opacity:0.35;fill:#562E4F;}
	.st43{fill:url(#SVGID_32_);}
	.st44{fill:url(#SVGID_33_);}
	.st45{fill:url(#SVGID_34_);}
	.st46{fill:url(#SVGID_35_);}
	.st47{fill:url(#SVGID_36_);}
	.st48{fill:url(#SVGID_37_);}
	.st49{opacity:0.64;fill:#FFFFFF;}
	.st50{fill:url(#SVGID_38_);}
	.st51{fill:url(#SVGID_39_);}
	.st52{opacity:0.3;fill:url(#SVGID_40_);}
	.st53{fill:url(#SVGID_41_);}
	.st54{fill:url(#SVGID_42_);}
	.st55{fill:url(#SVGID_43_);}
	.st56{opacity:0.58;fill:url(#SVGID_44_);}
	.st57{opacity:0.58;fill:url(#SVGID_45_);}
	.st58{fill:url(#SVGID_46_);}
	.st59{fill:url(#SVGID_47_);}
	.st60{fill:url(#SVGID_48_);}
	.st61{fill:url(#SVGID_49_);}
	.st62{fill:url(#SVGID_50_);}
	.st63{opacity:0.58;fill:url(#SVGID_51_);}
	.st64{fill:url(#SVGID_52_);}
	.st65{opacity:0.58;fill:url(#SVGID_53_);}
	.st66{opacity:0.58;fill:url(#SVGID_54_);}
	.st67{fill:url(#SVGID_55_);}
	.st68{fill:url(#SVGID_56_);}
	.st69{fill:url(#SVGID_57_);}
	.st70{fill:url(#SVGID_58_);}
	.st71{fill:url(#SVGID_59_);}
	.st72{fill:url(#SVGID_60_);}
	.st73{fill:url(#SVGID_61_);}
</style>
<g id="Robot">
	<g id="body">
		<g>
			<linearGradient id="SVGID_1_" gradientUnits="userSpaceOnUse" x1="252.305" y1="525.4716" x2="252.305" y2="479.2514">
				<stop  offset="0" style="stop-color:#861878"/>
				<stop  offset="1" style="stop-color:#BD3992"/>
			</linearGradient>
			<path class="st0" d="M264.8,480.5c-10.2,0-14.8-6.8-14.8,11.6c0,0.9,0,1.7,0.1,2.5l-24.8,4.2l-7.5,26.7h50.6
				c10.2,0,18.4-14.9,18.4-33.4C286.8,473.7,275,480.5,264.8,480.5z"/>
			<linearGradient id="SVGID_2_" gradientUnits="userSpaceOnUse" x1="216.2436" y1="525.4716" x2="216.2436" y2="458.7516">
				<stop  offset="0" style="stop-color:#5A185B"/>
				<stop  offset="1" style="stop-color:#7F237C"/>
			</linearGradient>
			<ellipse class="st1" cx="216.2" cy="492.1" rx="18.4" ry="33.4"/>
		</g>
		<g>
			<linearGradient id="SVGID_3_" gradientUnits="userSpaceOnUse" x1="120.2812" y1="525.4716" x2="120.2812" y2="480.8766">
				<stop  offset="0" style="stop-color:#861878"/>
				<stop  offset="1" style="stop-color:#BD3992"/>
			</linearGradient>
			<path class="st2" d="M126.5,483.5c-10.2,0-8.6-9.8-8.6,8.6c0,0.9,0,1.7,0.1,2.5l-24.8,4.2l-7.5,26.7h50.6
				c10.2,0,18.4-14.9,18.4-33.4C154.8,479.3,136.7,483.5,126.5,483.5z"/>
			<linearGradient id="SVGID_4_" gradientUnits="userSpaceOnUse" x1="84.2198" y1="525.4716" x2="84.2198" y2="458.7516">
				<stop  offset="0" style="stop-color:#5A185B"/>
				<stop  offset="1" style="stop-color:#7F237C"/>
			</linearGradient>
			<ellipse class="st3" cx="84.2" cy="492.1" rx="18.4" ry="33.4"/>
		</g>
		<g>
			<polygon class="st4" points="299.7,396 288.4,403.1 287.2,361.3 299.7,360.5 			"/>
			<polygon class="st4" points="262.2,400.8 273.4,400.8 274.6,366 264.3,366.9 			"/>
			<path class="st5" d="M288.4,403.1h-17.8c0,0,4.1-32.4,4.1-43.3l12.6,1.5L288.4,403.1z"/>
			<path class="st5" d="M262.2,400.8l-16.7-1.7c0,0,3.7-26.5,3.7-38.5l15,6.4C264.3,366.9,266.4,392,262.2,400.8z"/>
			<linearGradient id="SVGID_5_" gradientUnits="userSpaceOnUse" x1="297.24" y1="367.9603" x2="297.24" y2="258.0361">
				<stop  offset="0" style="stop-color:#FFA031"/>
				<stop  offset="1" style="stop-color:#FFD638"/>
			</linearGradient>
			<path class="st6" d="M318.7,352.1C312.9,361.9,293,368,293,368l-3-19.5l-3.4-21.6L275.8,258h8.8c13.2,18.6,22.1,44.8,27.5,64.9
				c1.6,5.9,2.9,11.2,3.8,15.7C317.8,346.8,318.7,352.1,318.7,352.1z"/>
			<path class="st4" d="M242.3,209.1c0,0,20.4,30,27.7,50.3l-7.5,2.3l-29.8-48.2L242.3,209.1z"/>
			<path class="st5" d="M225.4,222.7c0,0,15.1,21.2,20.5,46.5c0,0,8,8.4,12.5,8.4c4.4,0,4.2-15.8,4.2-15.8s-18.8-35.2-26.4-47.4
				L225.4,222.7z"/>
			<polygon class="st5" points="305.8,378.5 297.2,378.5 294.7,367.4 299.9,363.6 			"/>
			
				<ellipse transform="matrix(0.9808 -0.1948 0.1948 0.9808 -52.7488 61.8974)" class="st7" cx="288.4" cy="299.2" rx="1.2" ry="3.8"/>
			<linearGradient id="SVGID_6_" gradientUnits="userSpaceOnUse" x1="275.8115" y1="292.4644" x2="312.1406" y2="292.4644">
				<stop  offset="3.968250e-03" style="stop-color:#CEBDA2"/>
				<stop  offset="1" style="stop-color:#000000"/>
			</linearGradient>
			<path class="st8" d="M312.1,322.9c-8.7,1.7-17.2,3-25.5,4L275.8,258h8.8C297.9,276.6,306.8,302.9,312.1,322.9z"/>
			<linearGradient id="SVGID_7_" gradientUnits="userSpaceOnUse" x1="275.8068" y1="312.998" x2="294.4958" y2="312.998">
				<stop  offset="0" style="stop-color:#000000"/>
				<stop  offset="0.996" style="stop-color:#CEBDA2"/>
			</linearGradient>
			<path class="st9" d="M275.8,258h3.7c0,0,20.6,57.3,13.6,109.9L275.8,258z"/>
			<linearGradient id="SVGID_8_" gradientUnits="userSpaceOnUse" x1="264.6661" y1="373.613" x2="264.6661" y2="258.0361">
				<stop  offset="0" style="stop-color:#F17038"/>
				<stop  offset="1" style="stop-color:#FFA031"/>
			</linearGradient>
			<path class="st10" d="M293,368c0,0-18.2,8.4-52.2,4.7c0,0,0.2-5.1,0.3-12.9c0.3-16.2,0.4-44.1-1.8-63.7c-0.8-7.4-2-13.6-3.6-17.5
				c0,0,17.7-20.5,40.1-20.5c0,0,5.8,14.6,10.7,36.5c3.3,14.6,6.3,32.4,6.9,51.1C293.7,353,293.6,360.5,293,368z"/>
			<path class="st11" d="M318.7,352.1C312.9,361.9,293,368,293,368s-18.2,8.4-52.2,4.7c0,0,0.2-5.1,0.3-12.9c0,0,33.2-0.5,48.8-11.3
				c1.3-0.9,2.4-1.8,3.5-2.8h0l22.5-7.1C317.8,346.8,318.7,352.1,318.7,352.1z"/>
			<path class="st4" d="M305.8,378.5l12.9-4.9c0,0-5.5-29.5-10.8-31.1c-5.2-1.6-8,21.1-8,21.1L305.8,378.5z"/>
			<path class="st12" d="M286.5,294.5c-12.4,0.2-28.7,0.7-47.2,1.5c-0.8-7.4-2-13.6-3.6-17.5c0,0,17.7-20.5,40.1-20.5
				C275.8,258,281.6,272.7,286.5,294.5z"/>
		</g>
		
			<linearGradient id="SVGID_9_" gradientUnits="userSpaceOnUse" x1="211.2395" y1="369.1716" x2="211.2395" y2="282.3673" gradientTransform="matrix(0.9964 -8.460000e-02 8.460000e-02 0.9964 -38.9171 40.3376)">
			<stop  offset="3.968250e-03" style="stop-color:#3C3341"/>
			<stop  offset="1" style="stop-color:#46667A"/>
		</linearGradient>
		<path class="st13" d="M194.1,303.9l-8,4.5c0,0,12.8,53,13.7,81.7l11.9-0.6C212,354,201.2,333.7,194.1,303.9z"/>
		
			<linearGradient id="SVGID_10_" gradientUnits="userSpaceOnUse" x1="221.8813" y1="369.3523" x2="221.8813" y2="282.8939" gradientTransform="matrix(0.9964 -8.460000e-02 8.460000e-02 0.9964 -38.9171 40.3376)">
			<stop  offset="3.968250e-03" style="stop-color:#54546F"/>
			<stop  offset="1" style="stop-color:#7DCCC0"/>
		</linearGradient>
		<path class="st14" d="M194.1,304.5l13.3-1.1c0,0,15.5,35.3,17.9,85.3l-13.5,1C211.7,389.6,205,339.3,194.1,304.5z"/>
		<g>
			<linearGradient id="SVGID_11_" gradientUnits="userSpaceOnUse" x1="206.5237" y1="499.3275" x2="206.5237" y2="371.9724">
				<stop  offset="0" style="stop-color:#F17038"/>
				<stop  offset="1" style="stop-color:#FFA031"/>
			</linearGradient>
			<path class="st15" d="M225.2,461.6l-31.2,37.7c-5.7-31.7-6.4-83.3-6.3-110c0-10.6,0.2-17.3,0.2-17.3s0,0,0,0
				c0.6,0.2,13.7,5.1,14,9c0,0.5,0.5,2.3,1.2,5c4.6,17.1,20.8,71.6,22,75.4C225.2,461.5,225.2,461.6,225.2,461.6z"/>
			<linearGradient id="SVGID_12_" gradientUnits="userSpaceOnUse" x1="225.4823" y1="461.6144" x2="225.4823" y2="368.1144">
				<stop  offset="0" style="stop-color:#FFA031"/>
				<stop  offset="1" style="stop-color:#FFD638"/>
			</linearGradient>
			<path class="st16" d="M263,461l-37.7,0.6c0,0,0-0.1-0.1-0.2c-1.4-4.2-22.6-66.5-27.2-77.7c-0.3-0.7-0.5-1.2-0.7-1.5
				c-2.4-4.2-8.9-9.9-9.3-10.2c0,0,0,0,0,0l9.8-3.9c0,0,7.3,5.2,8.8,7.3c1.3,1.9,5,13.3,5.2,14.1l0,0l13.5-1.5l-1.7-19.9
				c0,0,6.8,15.4,8.7,20C233.3,390.9,263,461,263,461z"/>
		</g>
		
			<linearGradient id="SVGID_13_" gradientUnits="userSpaceOnUse" x1="213.1083" y1="495.3423" x2="213.1083" y2="458.1416" gradientTransform="matrix(0.9999 -1.660000e-02 1.660000e-02 0.9999 -5.5161 7.2188)">
			<stop  offset="0" style="stop-color:#F17038"/>
			<stop  offset="1" style="stop-color:#FFA031"/>
		</linearGradient>
		<polygon class="st17" points="225.2,461.6 237.2,483.5 236.2,498.6 194.1,499.3 		"/>
		
			<linearGradient id="SVGID_14_" gradientUnits="userSpaceOnUse" x1="262.1503" y1="495.344" x2="262.1503" y2="480.2" gradientTransform="matrix(0.9999 -1.660000e-02 1.660000e-02 0.9999 -5.5161 7.2188)">
			<stop  offset="0" style="stop-color:#FFA031"/>
			<stop  offset="1" style="stop-color:#FFD638"/>
		</linearGradient>
		<polygon class="st18" points="237.2,483.5 290.6,485.6 293.5,497.7 236.2,498.6 		"/>
		<path class="st19" d="M290.6,485.6L263,461l-37.7,0.6l12,21.9C237.2,483.5,260.2,489.2,290.6,485.6z"/>
		<linearGradient id="SVGID_15_" gradientUnits="userSpaceOnUse" x1="193.3257" y1="329.6186" x2="193.3257" y2="292.7583">
			<stop  offset="3.968250e-03" style="stop-color:#54546F"/>
			<stop  offset="1" style="stop-color:#7DCCC0"/>
		</linearGradient>
		<path class="st20" d="M206,310.8c-1.5,6.4-4.8,14.5-12,18.8l-14.5-1.4c0,0,9.9-7.4,11.9-21.2c0.6-4.2,0.5-8.9-0.9-14.2
			c0,0,12.5,3.9,16.8,8.2C207.2,301,207.3,305.3,206,310.8z"/>
		<path class="st21" d="M206,310.8l-14.7-3.8c0.6-4.2,0.5-8.9-0.9-14.2c0,0,12.5,3.9,16.8,8.2C207.2,301,207.3,305.3,206,310.8z"/>
		<linearGradient id="SVGID_16_" gradientUnits="userSpaceOnUse" x1="183.7717" y1="328.305" x2="183.7717" y2="292.1808">
			<stop  offset="3.968250e-03" style="stop-color:#3C3341"/>
			<stop  offset="1" style="stop-color:#46667A"/>
		</linearGradient>
		<path class="st22" d="M190.4,292.8c-3-3-14.3,6.1-16.1,15.6c-1.7,9.4-0.5,18.2,5.1,19.9C185,330,200.9,303.2,190.4,292.8z"/>
		<path class="st23" d="M228.4,284.9c0,0-35.5,13.9-43.1,13.9c0,0-80.7,3.2-111,0l45.6-27.9L228.4,284.9z"/>
		<linearGradient id="SVGID_17_" gradientUnits="userSpaceOnUse" x1="255.3449" y1="256.0806" x2="255.3449" y2="159.5075">
			<stop  offset="3.968250e-03" style="stop-color:#54546F"/>
			<stop  offset="1" style="stop-color:#7DCCC0"/>
		</linearGradient>
		<path class="st24" d="M281.8,196.8c0,0-2.8,9.2-9.7,21.4c-6.1,10.7-15.5,23.7-29,34.7c-4.5,3.6-7.7,3.9-9.9,1.8
			c-12.1-11.5,5.7-95.2,5.7-95.2S267.1,177.4,281.8,196.8z"/>
		<path class="st25" d="M272,218.3c-6.1,10.7-15.5,23.7-29,34.7c-4.5,3.6-7.7,3.9-9.9,1.8l12.1-61.7L272,218.3z"/>
		<linearGradient id="SVGID_18_" gradientUnits="userSpaceOnUse" x1="171.2243" y1="284.8717" x2="171.2243" y2="141.4922">
			<stop  offset="0" style="stop-color:#861878"/>
			<stop  offset="1" style="stop-color:#BD3992"/>
		</linearGradient>
		<path class="st26" d="M228.4,284.9c0,0-70.3-7-108.7-7c0,0,4.8-77.7-22.8-134.5c0,0,79.2-7.9,142,9.3
			C238.9,152.6,259.6,219.1,228.4,284.9z"/>
		<path class="st7" d="M119.6,277.8c0,0,1.8-82.3-22.8-134.5c0,0,29,45.7,26.8,134.5L119.6,277.8z"/>
		<linearGradient id="SVGID_19_" gradientUnits="userSpaceOnUse" x1="77.7777" y1="298.7913" x2="77.7777" y2="143.3149">
			<stop  offset="0" style="stop-color:#5A185B"/>
			<stop  offset="1" style="stop-color:#7F237C"/>
		</linearGradient>
		<path class="st27" d="M96.8,143.3c0,0-37.3,3.4-61.8,81.9c0,0,15,49.4,39.2,73.6l45.4-21C119.6,277.8,127.3,203.9,96.8,143.3z"/>
		<linearGradient id="SVGID_20_" gradientUnits="userSpaceOnUse" x1="51.418" y1="270.9221" x2="51.418" y2="155.6991">
			<stop  offset="3.968250e-03" style="stop-color:#54546F"/>
			<stop  offset="1" style="stop-color:#7DCCC0"/>
		</linearGradient>
		<path class="st28" d="M93.9,270.9c0,0-12-34.4-34.9-53.1c-14.3-11.8-32.9-17.4-55.5-4.6c0.2-0.6,4.1-10.7,16-23.2c0,0,0,0,0,0
			c10.8-11.3,28.1-24.6,55.2-34.4c0,0,5.4,5.6,11.1,16.5c3.5,6.7,7.2,15.5,9.8,26.3C100.2,216.9,101.6,241.2,93.9,270.9z"/>
		<path class="st25" d="M93.9,270.9c0,0-12-34.4-34.9-53.1l-0.8-2.9l37.5-16.5C100.2,216.9,101.6,241.2,93.9,270.9z"/>
		<linearGradient id="SVGID_21_" gradientUnits="userSpaceOnUse" x1="48.5407" y1="273.5933" x2="48.5407" y2="195.1609">
			<stop  offset="3.968250e-03" style="stop-color:#66667E"/>
			<stop  offset="1" style="stop-color:#7DCCC0"/>
		</linearGradient>
		<path class="st29" d="M3.5,213.2c-11.6,38.4,81.2,69.9,90.5,57.7C102.8,259.3,21.4,153.7,3.5,213.2z"/>
		<linearGradient id="SVGID_22_" gradientUnits="userSpaceOnUse" x1="48.5338" y1="270.6894" x2="48.5338" y2="198.0746">
			<stop  offset="0" style="stop-color:#46667A"/>
			<stop  offset="0.996" style="stop-color:#3C3341"/>
		</linearGradient>
		<path class="st30" d="M90.6,268.2c-0.9,1.2-2.7,1.9-5.1,2.3c-4.9,0.7-12.5-0.3-21.1-2.7c-3.3-0.9-6.8-2-10.3-3.3
			c-0.1,0-0.1,0-0.2-0.1c-0.3-0.1-0.6-0.2-1-0.4c-2.5-0.9-5-2-7.5-3.1c-0.9-0.4-1.8-0.8-2.7-1.2c-0.6-0.3-1.1-0.5-1.7-0.8
			c-1.6-0.8-3.2-1.6-4.8-2.5c-2.4-1.3-4.8-2.7-7-4.2c-1.2-0.7-2.3-1.5-3.4-2.3c-0.3-0.2-0.5-0.3-0.7-0.5c-4.8-3.5-9-7.3-12.3-11.3
			c-3.7-4.6-6.2-9.5-6.8-14.6c-0.4-2.9-0.2-5.9,0.8-8.9c4.7-15.6,14.2-19,25.1-15.4c2.5,0.8,5.2,2,7.9,3.5c0.4,0.3,0.9,0.5,1.3,0.7
			c2.9,1.7,5.9,3.8,8.8,6.2c0.8,0.6,1.6,1.3,2.4,2c2,1.6,3.9,3.4,5.9,5.3c0.3,0.2,0.5,0.4,0.7,0.7c2.2,2.1,4.4,4.4,6.5,6.7
			c0.3,0.3,0.7,0.7,1,1.1c0.8,0.8,1.5,1.7,2.2,2.5l0.1,0.2c1.5,1.7,3,3.5,4.4,5.3C85.4,248.8,93.5,264.3,90.6,268.2z"/>
		
			<ellipse transform="matrix(0.7334 -0.6798 0.6798 0.7334 -127.5657 90.1259)" class="st7" cx="51.1" cy="207.7" rx="1.6" ry="3.4"/>
		<linearGradient id="SVGID_23_" gradientUnits="userSpaceOnUse" x1="19.5506" y1="172.8761" x2="85.8627" y2="172.8761">
			<stop  offset="3.968250e-03" style="stop-color:#CEBDA2"/>
			<stop  offset="1" style="stop-color:#000000"/>
		</linearGradient>
		<path class="st31" d="M85.9,172.2c-0.2,0.1-0.3,0.2-0.4,0.4c-16.3,11.9-64.6,17.4-65.9,17.5c10.8-11.3,28.1-24.6,55.2-34.4
			C74.8,155.7,80.2,161.3,85.9,172.2z"/>
		<path class="st32" d="M176.3,285.1c0,6.7-40,6.4-40.8,1.1c0-0.3,0.4-0.6,1.1-1c5.9-2.4,34-3.4,38.9-1
			C176.1,284.5,176.3,284.8,176.3,285.1z"/>
		<path class="st33" d="M175.6,284.3c-4.8,4.6-32.9,4.6-38.9,1C142.6,282.9,170.7,281.9,175.6,284.3z"/>
		<linearGradient id="SVGID_24_" gradientUnits="userSpaceOnUse" x1="157.9218" y1="294.2023" x2="157.9218" y2="282.8676">
			<stop  offset="0" style="stop-color:#7DCCC0"/>
			<stop  offset="0.996" style="stop-color:#54546F"/>
		</linearGradient>
		<path class="st34" d="M144.7,283.7l1.5,10.5h23.9l1-10.9C171.1,283.3,162,282.1,144.7,283.7z"/>
		<linearGradient id="SVGID_25_" gradientUnits="userSpaceOnUse" x1="142.1151" y1="294.3961" x2="142.1151" y2="283.7252">
			<stop  offset="3.968250e-03" style="stop-color:#3C3341"/>
			<stop  offset="1" style="stop-color:#46667A"/>
		</linearGradient>
		<polygon class="st35" points="144.7,283.7 138,285.1 138.7,294.4 146.2,294.2 		"/>
		<linearGradient id="SVGID_26_" gradientUnits="userSpaceOnUse" x1="164.7591" y1="322.5316" x2="164.7591" y2="281.9797">
			<stop  offset="0" style="stop-color:#861878"/>
			<stop  offset="1" style="stop-color:#BD3992"/>
		</linearGradient>
		<path class="st36" d="M188.1,300.8c-1.8,6.6-5,14.3-10.7,21.7h-27c0,0-1.3-28.7-11.3-40.5c0,0,0,0,0,0s26.8-0.5,51.3,2.3
			C190.4,284.3,190.7,291.3,188.1,300.8z"/>
		<linearGradient id="SVGID_27_" gradientUnits="userSpaceOnUse" x1="133.0709" y1="322.534" x2="133.0709" y2="282.0044">
			<stop  offset="0" style="stop-color:#5A185B"/>
			<stop  offset="1" style="stop-color:#7F237C"/>
		</linearGradient>
		<path class="st37" d="M139.1,282c0,0-10.8,3-23.5,10.7c0,0,8.6,21.5,19.3,29.8h15.5C150.4,322.5,152.9,293.5,139.1,282z"/>
		<linearGradient id="SVGID_28_" gradientUnits="userSpaceOnUse" x1="127.8725" y1="336.412" x2="127.8725" y2="289.6411">
			<stop  offset="3.968250e-03" style="stop-color:#54546F"/>
			<stop  offset="1" style="stop-color:#7DCCC0"/>
		</linearGradient>
		<path class="st38" d="M142.1,331.7l-11.5,4.8c-1-14-4.2-23.9-7.7-30.7c-5.3-10.3-11.2-13.6-11.2-13.6l20.6-2.5
			c4.3,4.7,7.1,9.6,8.9,14.2C146.9,318.7,142.1,331.7,142.1,331.7z"/>
		<path class="st21" d="M132.3,289.6c4.3,4.7,7.1,9.6,8.9,14.2l-17.8,0l-0.5,1.9c-5.3-10.3-11.2-13.6-11.2-13.6L132.3,289.6z"/>
		<linearGradient id="SVGID_29_" gradientUnits="userSpaceOnUse" x1="117.0366" y1="336.8362" x2="117.0366" y2="292.0955">
			<stop  offset="3.968250e-03" style="stop-color:#3C3341"/>
			<stop  offset="1" style="stop-color:#46667A"/>
		</linearGradient>
		<path class="st39" d="M113.6,292.4c-6.3-2.1-13.8,8.8-11.4,22.3c2.4,13.5,21.8,24.5,28.5,21.8
			C137.3,333.7,122.9,295.5,113.6,292.4z"/>
		<linearGradient id="SVGID_30_" gradientUnits="userSpaceOnUse" x1="99.5902" y1="391.5189" x2="99.5902" y2="300.642">
			<stop  offset="3.968250e-03" style="stop-color:#3C3341"/>
			<stop  offset="1" style="stop-color:#46667A"/>
		</linearGradient>
		<path class="st40" d="M100.4,300.6l-8.3,3.8c0,0,8.3,53.9,6.8,82.6l6.8,4.5C109,356.1,106.3,331,100.4,300.6z"/>
		<path class="st5" d="M118.8,328.3h4.6c0,0,1.6-18.1-8.3-23.1L118.8,328.3z"/>
		<linearGradient id="SVGID_31_" gradientUnits="userSpaceOnUse" x1="111.1489" y1="391.5139" x2="111.1489" y2="300.642">
			<stop  offset="3.968250e-03" style="stop-color:#54546F"/>
			<stop  offset="1" style="stop-color:#7DCCC0"/>
		</linearGradient>
		<path class="st41" d="M119.7,390.2l-11.4,1l-2.6,0.2l-1,0.1c0,0,0.2-3.5,0.4-9.4v0c0.5-13.5,0.9-39.2-1.7-62.6
			c-0.7-6.6-1.7-13-3-18.9h13.3c0,0,2.3,6.8,4.5,18.4C121.2,335.3,124,360.9,119.7,390.2z"/>
		<path class="st42" d="M90.6,268.2c-0.9,1.2-2.7,1.9-5.1,2.3c-4.4-7.6-11.9-17.6-24.8-27.8C39.5,225.9,15,223.8,6,223.6
			c-0.4-2.9-0.1-5.8,0.8-8.8c4.7-15.6,14.2-19,25.1-15.5c2.6,0.8,5.2,2,7.9,3.5c0.4,0.2,0.9,0.5,1.3,0.7c3.7,2.2,7.5,5,11.3,8.2
			C74.5,230.4,95,262.3,90.6,268.2z"/>
		<linearGradient id="SVGID_32_" gradientUnits="userSpaceOnUse" x1="80.4852" y1="502.0391" x2="80.4852" y2="373.3004">
			<stop  offset="0" style="stop-color:#F17038"/>
			<stop  offset="1" style="stop-color:#FFA031"/>
		</linearGradient>
		<path class="st43" d="M98.5,389.5c-1,20-4.5,75.4-4.5,75.4L62.3,502c4.4-36.3,15.5-93.3,20.3-117.4l0-0.1c1.4-7,2.3-11.2,2.3-11.2
			s0,0,0,0c0.6,0.2,13.6,5.3,13.9,9.2C98.7,383.2,98.7,385.7,98.5,389.5z"/>
		<linearGradient id="SVGID_33_" gradientUnits="userSpaceOnUse" x1="108.2895" y1="464.8433" x2="108.2895" y2="368.3801">
			<stop  offset="0" style="stop-color:#FFA031"/>
			<stop  offset="1" style="stop-color:#FFD638"/>
		</linearGradient>
		<path class="st44" d="M94,464.8c0,0,1.8-58.9,0.6-76.4c-0.2-2.5-0.4-4.1-0.7-4.7c-2.3-4.3-8.7-10.1-9.1-10.4c0,0,0,0,0,0l13.1-4.9
			c0,0,6.9,8.1,7,10.4c0.1,2.3,0.7,12.7,0.7,12.7l14-1.3l1.5-13.1c0,0,7.5,10.1,7.5,13.1c0,3,3,74.6,3,74.6H94z"/>
		<linearGradient id="SVGID_34_" gradientUnits="userSpaceOnUse" x1="83.9594" y1="502.044" x2="83.9594" y2="464.842">
			<stop  offset="0" style="stop-color:#F17038"/>
			<stop  offset="1" style="stop-color:#FFA031"/>
		</linearGradient>
		<polygon class="st45" points="94,464.8 105.7,486.9 104.4,502 62.3,502 		"/>
		<linearGradient id="SVGID_35_" gradientUnits="userSpaceOnUse" x1="134.568" y1="502.044" x2="134.568" y2="486.9009">
			<stop  offset="0" style="stop-color:#FFA031"/>
			<stop  offset="1" style="stop-color:#FFD638"/>
		</linearGradient>
		<polygon class="st46" points="105.7,486.9 159,489.9 164.8,502 104.4,502 		"/>
		<path class="st19" d="M159,489.9l-27.3-25.1H94l11.6,22.1C105.7,486.9,128.5,493,159,489.9z"/>
		<path class="st23" d="M119.6,277.8c0,0,27.9-42.5,65-42.5s43.7,49.5,43.7,49.5s-5.8-51.7-43.7-51.7S119.6,277.8,119.6,277.8z"/>
		<path class="st7" d="M120.5,276.6c0,0,27-39.2,64.2-39.2s43.7,47.5,43.7,47.5s-5.8-49.6-43.7-49.6S120.5,276.6,120.5,276.6z"/>
		<ellipse class="st7" cx="185.8" cy="236.6" rx="3.8" ry="1.2"/>
		<ellipse class="st7" cx="121.2" cy="240.2" rx="1.2" ry="3.8"/>
		<polygon class="st11" points="159.7,190.1 107.3,170.2 96.8,143.3 135.9,141.4 		"/>
		<linearGradient id="SVGID_36_" gradientUnits="userSpaceOnUse" x1="137.7251" y1="157.7626" x2="137.7251" y2="103.9257">
			<stop  offset="0" style="stop-color:#5A185B"/>
			<stop  offset="1" style="stop-color:#7F237C"/>
		</linearGradient>
		<path class="st47" d="M144.5,103.9c0,0-14.8,1-19.1,2.2l-9.9,36.3l20.4-1l6.7-4.9l17.3,21.3l-4-47.4L144.5,103.9z"/>
		<linearGradient id="SVGID_37_" gradientUnits="userSpaceOnUse" x1="180.0521" y1="160.8936" x2="180.0521" y2="103.4716">
			<stop  offset="0" style="stop-color:#861878"/>
			<stop  offset="1" style="stop-color:#BD3992"/>
		</linearGradient>
		<path class="st48" d="M215.6,148.7c-0.1,4.8-0.4,7.8-0.4,7.8l-54.8,4.4c-4.7-25.2-15.9-57-15.9-57c8.7-0.4,16.4-0.5,23.1-0.4
			c28.6,0.4,41.2,4.3,41.2,4.3C215,120.6,215.7,138.5,215.6,148.7z"/>
		<polygon class="st49" points="220.6,159.1 157.5,159.1 142.7,134 144.5,134 159.9,157.8 215.2,156.5 		"/>
		<radialGradient id="SVGID_38_" cx="165.3293" cy="130.3272" r="11.7377" gradientUnits="userSpaceOnUse">
			<stop  offset="0" style="stop-color:#00E0A1"/>
			<stop  offset="1" style="stop-color:#40FFB3"/>
		</radialGradient>
		<polygon class="st50" points="150.6,122.7 178.8,128.2 180.1,138 155,138 		"/>
		<radialGradient id="SVGID_39_" cx="206.3224" cy="131.1879" r="7.998" gradientUnits="userSpaceOnUse">
			<stop  offset="0" style="stop-color:#00E0A1"/>
			<stop  offset="1" style="stop-color:#40FFB3"/>
		</radialGradient>
		<polygon class="st51" points="197.3,128.9 213.8,124.4 215.4,138 197.3,138 		"/>
		<linearGradient id="SVGID_40_" gradientUnits="userSpaceOnUse" x1="167.6711" y1="126.0949" x2="215.581" y2="126.0949">
			<stop  offset="0" style="stop-color:#000000"/>
			<stop  offset="0.996" style="stop-color:#CEBDA2"/>
		</linearGradient>
		<path class="st52" d="M215.6,148.7c-19.9-5.5-38.4-30.5-47.9-45.2c28.6,0.4,41.2,4.3,41.2,4.3C215,120.6,215.7,138.5,215.6,148.7z
			"/>
		<radialGradient id="SVGID_41_" cx="154.3825" cy="145.9262" r="22.8603" gradientUnits="userSpaceOnUse">
			<stop  offset="0" style="stop-color:#CEBDA2"/>
			<stop  offset="1" style="stop-color:#000000"/>
		</radialGradient>
		<path class="st53" d="M144.5,103.9l3.5,0c0,0,9.8,28.5,13.1,53.8h-1.2C159.9,157.8,148.7,110.9,144.5,103.9z"/>
		<polygon class="st23" points="123.2,198.1 126.4,216.3 151.6,236.4 151.3,221.1 		"/>
		<radialGradient id="SVGID_42_" cx="135.9509" cy="218.8898" r="13.0043" gradientUnits="userSpaceOnUse">
			<stop  offset="0" style="stop-color:#00E0A1"/>
			<stop  offset="1" style="stop-color:#40FFB3"/>
		</radialGradient>
		<polygon class="st54" points="124.4,204.6 147,224.6 147.5,233.2 126.4,216.3 		"/>
		<polygon class="st23" points="215.4,223 240.8,201.8 240.8,213.3 215.4,235.4 		"/>
		<radialGradient id="SVGID_43_" cx="226.3398" cy="222.4454" r="11.991" gradientUnits="userSpaceOnUse">
			<stop  offset="0" style="stop-color:#00E0A1"/>
			<stop  offset="1" style="stop-color:#40FFB3"/>
		</radialGradient>
		<polygon class="st55" points="215.4,227.3 237.3,209.5 237.3,216.3 215.4,235.4 		"/>
		<polygon class="st42" points="237.3,209.5 240.8,201.8 215.4,223 215.4,227.3 		"/>
		<polygon class="st42" points="147,224.6 151.3,221.1 123.2,198.1 124.4,204.6 		"/>
		<linearGradient id="SVGID_44_" gradientUnits="userSpaceOnUse" x1="195.0131" y1="438.8452" x2="240.5469" y2="438.8452">
			<stop  offset="0" style="stop-color:#000000"/>
			<stop  offset="0.996" style="stop-color:#CEBDA2"/>
		</linearGradient>
		<polygon class="st56" points="195,379.1 225.2,461.6 237.2,483.5 236.2,498.6 240.5,484.2 228.9,461 199.2,380.7 		"/>
		<linearGradient id="SVGID_45_" gradientUnits="userSpaceOnUse" x1="84.8149" y1="437.6715" x2="108.2879" y2="437.6715">
			<stop  offset="0" style="stop-color:#000000"/>
			<stop  offset="0.996" style="stop-color:#CEBDA2"/>
		</linearGradient>
		<path class="st57" d="M84.8,373.3c0,0,8.6,7.7,9.1,10.4c0.5,2.7,0.1,81.1,0.1,81.1l11.6,22.1l-1.3,15.1l3.9-14.5l-11.7-22.7
			c0,0-0.3-79.9-1.3-82.3C94.3,380.1,84.8,373.3,84.8,373.3z"/>
		
			<ellipse transform="matrix(9.949967e-02 -0.995 0.995 9.949967e-02 -388.2431 544.7997)" class="st7" cx="106.9" cy="486.9" rx="3.8" ry="1.2"/>
		
			<ellipse transform="matrix(9.949967e-02 -0.995 0.995 9.949967e-02 -267.9694 674.2057)" class="st7" cx="238.5" cy="485.2" rx="3.8" ry="1.2"/>
		<path class="st11" d="M211.7,389.6l-8.5-3.6l-5.2-2.2l-10.1,5.6c0-10.6,0.2-17.3,0.2-17.3l9.8-3.9c0,0,7.3,5.2,8.8,7.3
			C207.8,377.3,211.5,388.8,211.7,389.6L211.7,389.6z"/>
		<path class="st11" d="M105.7,391.5l-7.2-2l-3.8-1.1l-0.5-0.2l-11.6-3.6l0-0.1c1.4-7,2.3-11.2,2.3-11.2l13.1-4.9
			c0,0,6.9,8.1,7,10.4C105.1,381.1,105.7,391.5,105.7,391.5z"/>
		<linearGradient id="SVGID_46_" gradientUnits="userSpaceOnUse" x1="112.5604" y1="461.6144" x2="112.5604" y2="411.4187">
			<stop  offset="0" style="stop-color:#F17038"/>
			<stop  offset="1" style="stop-color:#FFA031"/>
		</linearGradient>
		<polygon class="st58" points="100.4,445.1 126.4,411.4 126.4,423.3 98.7,461.6 		"/>
		<radialGradient id="SVGID_47_" cx="110.5572" cy="440.0112" r="17.4193" gradientUnits="userSpaceOnUse">
			<stop  offset="0" style="stop-color:#00E0A1"/>
			<stop  offset="1" style="stop-color:#40FFB3"/>
		</radialGradient>
		<polygon class="st59" points="122.4,418.4 122.4,428.8 98.7,461.6 100.2,446.8 		"/>
		<linearGradient id="SVGID_48_" gradientUnits="userSpaceOnUse" x1="235.6196" y1="458.0128" x2="235.6196" y2="408.1752">
			<stop  offset="0" style="stop-color:#F17038"/>
			<stop  offset="1" style="stop-color:#FFA031"/>
		</linearGradient>
		<polygon class="st60" points="213.3,408.2 253.6,445.2 257.9,458 217.8,425.2 		"/>
		<radialGradient id="SVGID_49_" cx="233.2771" cy="432.4498" r="20.099" gradientUnits="userSpaceOnUse">
			<stop  offset="0" style="stop-color:#00E0A1"/>
			<stop  offset="1" style="stop-color:#40FFB3"/>
		</radialGradient>
		<polygon class="st61" points="214.2,411.4 249.9,443.6 252.4,453.5 217.8,425.2 		"/>
		<g>
			<polygon class="st4" points="5.1,375.7 3,403.9 18,407.3 19.7,379.1 			"/>
			<path class="st4" d="M66.3,225.4l-7.1,22.7l-5.1,16.4l-2.8,8.8l-14.4,1.8c0,0,1.2-6.5,4.2-16.3c1.5-5,3.5-11,5.9-17.3
				c2.9-7.7,6.6-16.2,11.2-24.5c0.3,0.2,0.5,0.4,0.7,0.7c2.2,2.1,4.4,4.4,6.5,6.7C65.7,224.7,66,225.1,66.3,225.4z"/>
			<path class="st5" d="M73.1,233.4c-4,12.3-7.2,27.1-8.7,34.4c-0.6,2.8-0.9,4.5-0.9,4.5l-12.2,1c0.5-3.2,1-6.2,1.6-9.3
				c3.4-16.7,8.7-31,12.4-39.7c0.3,0.3,0.7,0.7,1,1.1c0.8,0.8,1.5,1.7,2.2,2.5l0.1,0.2C70.2,229.9,71.7,231.6,73.1,233.4z"/>
			<polygon class="st5" points="18,407.3 31.9,401.9 32.5,372 19.7,379.1 			"/>
			<polygon class="st4" points="24,381.4 25.5,409.1 42.7,410.2 39.7,383.7 			"/>
			<polygon class="st5" points="42.7,410.2 53.1,403.2 47.5,373.9 39.7,383.7 			"/>
			<path class="st5" d="M53.7,375.4l-6.3,6.7l3,17.8l9.4,1.4C59.8,401.4,58.8,383.5,53.7,375.4z"/>
			<linearGradient id="SVGID_50_" gradientUnits="userSpaceOnUse" x1="62.5554" y1="384.6886" x2="62.5554" y2="268.3483">
				<stop  offset="0" style="stop-color:#FFA031"/>
				<stop  offset="1" style="stop-color:#FFD638"/>
			</linearGradient>
			<path class="st62" d="M68.1,351.6c-0.1,16.6,0.6,26.9,0.6,26.9L53,384.7c-0.3-2.5-0.6-5-0.8-7.5v-0.1c-0.3-3.1-0.5-6.1-0.6-9.1
				c-1.5-31.1,2.8-58.6,6.9-76.8c3-13.3,5.9-21.7,6.2-22.7c0-0.1,0-0.1,0-0.1l9.1,3.2c-1.3,9.2-2.3,18.2-3.1,26.7
				C68.8,319.1,68.2,337.6,68.1,351.6z"/>
			<linearGradient id="SVGID_51_" gradientUnits="userSpaceOnUse" x1="32.3897" y1="326.5142" x2="66.9658" y2="326.5142">
				<stop  offset="0" style="stop-color:#000000"/>
				<stop  offset="0.996" style="stop-color:#CEBDA2"/>
			</linearGradient>
			<path class="st63" d="M64.8,268.3l2.2,1.5c0,0-16.2,59-14,114.9l-20.6-62.5L64.8,268.3z"/>
			<linearGradient id="SVGID_52_" gradientUnits="userSpaceOnUse" x1="32.3879" y1="385.4326" x2="32.3879" y2="267.3232">
				<stop  offset="0" style="stop-color:#F17038"/>
				<stop  offset="1" style="stop-color:#FFA031"/>
			</linearGradient>
			<path class="st64" d="M64.8,268.3c0,0,0,0,0,0.1c-0.5,1.6-6.5,21.5-9.9,48.7c-0.8,6.4-1.5,13.2-1.9,20.3c-0.8,13.3-1,23.1-1,30.1
				c0,3.9,0.1,7,0.2,9.4v0.1c0.3,5.7,0.8,7.5,0.8,7.5S17.4,390.2,0,371.2c0,0-0.9-23,5.2-50.8c3.6-16.8,9.8-35.3,20.1-51.6
				C25.4,268.7,46.6,265.8,64.8,268.3z"/>
			
				<ellipse transform="matrix(9.951830e-02 -0.995 0.995 9.951830e-02 -266.3453 342.1376)" class="st7" cx="55.9" cy="318.2" rx="3.8" ry="1.2"/>
			<path class="st11" d="M68.7,378.5L53,384.7c0,0-35.6,5.5-52.9-13.5c0,0,37.8,0.9,51.6-3.2c0,0,0.1,0,0.1,0l0.3-0.3l16.1-16.1
				l0,0.1C68,368.3,68.7,378.5,68.7,378.5z"/>
			<path class="st4" d="M54.6,384l5.2,17.3l12-5.5c0,0-0.3-16.7-3.9-22.5C61.2,362.6,54.6,384,54.6,384z"/>
			<path class="st12" d="M64.8,268.3c0,0,0,0,0,0.1c-0.5,1.6-6.5,21.5-9.9,48.7c-23.1,1.4-41.2,2.6-49.6,3.2
				c3.6-16.8,9.8-35.3,20.1-51.6C25.4,268.7,46.6,265.8,64.8,268.3z"/>
			<path class="st5" d="M50,304.4L50,304.4c-0.1-0.1-0.2-0.2-0.3-0.3c-0.4-0.3-1.3-1.3-1.2-1.4c0.1-0.2,1.3,0.6,1.7,0.9
				c0,0,0.1,0.1,0.1,0.1l0.7-2l-1.2-1.2c-0.1,0.2-0.8,0.3-1,0.1c-0.2-0.2,0-0.7,0.1-0.8c0,0,0,0,0.1-0.1l-7.6-7.6
				c-0.1,1.9-1.3,0.4-1.5,0c-0.1-0.4,0-0.9,0.2-1.3L27,277.6l-1.5,5.7l14.7,16.3c0-0.1,0.1-0.1,0.2,0c0.7,0.3,2.9,1.7,1.8,2.2
				l1.7,1.8c-0.4-1.1,0.6-2.8,0.9-2.7c1.7,0.4,0.2,2.6-0.1,3.6l3.8,4.2L50,304.4z M28.7,280.8c0.2-0.2,0.8,0,1.4,0.5
				c0.6,0.4,0.9,1,0.7,1.3c-0.2,0.2-0.8,0-1.4-0.5C28.8,281.6,28.5,281,28.7,280.8z M27.7,284.2c0.2-0.4,2.8,2.5,2.7,2.8
				C30.3,287.3,27.5,284.8,27.7,284.2z M33.2,288.8c-0.1-0.1-0.2-0.2-0.1-0.3c0.1-0.1,0.2-0.2,0.3-0.1c0.1,0.1,0.9,1,0.9,1.1
				C34.2,289.7,33.3,288.9,33.2,288.8z M38.3,295.5c-0.7-0.6-1.1-1.2-0.9-1.4c0.2-0.2,0.8,0.1,1.5,0.7c0.7,0.6,1.4,1.3,1.2,1.5
				C39.9,296.5,39,296.1,38.3,295.5z M40,299c-0.3-0.3-0.6-0.6-0.5-0.7c0.1-0.1,0.4,0.1,0.8,0.4c0.3,0.3,0.3,0.5,0.2,0.5
				S40.4,299.3,40,299z M45.4,304c-0.1-0.1-0.2-0.2-0.1-0.3c0.1-0.1,0.2-0.2,0.3-0.1s0.2,0.2,0.2,0.3C45.7,304,45.5,304,45.4,304z
				 M47.9,305.5c-0.1-0.1-0.2-0.2-0.1-0.3c0.1-0.1,0.2-0.2,0.3-0.1c0.1,0.1,0.2,0.2,0.2,0.3S48.1,305.5,47.9,305.5z M47.8,302.4
				c-0.1-0.1-0.2-0.2-0.1-0.3c0.1-0.1,0.2-0.2,0.3-0.1c0.1,0.1,0.2,0.2,0.2,0.3C48.1,302.4,47.9,302.5,47.8,302.4z M35.8,290.6
				c-0.1-0.1-0.2-0.2-0.1-0.3c0.1-0.1,0.2-0.2,0.3-0.1c0.1,0.1,0.2,0.2,0.2,0.3C36.1,290.5,35.9,290.6,35.8,290.6z M36.6,288.8
				c-0.1-0.1-0.2-0.2-0.1-0.3s0.2-0.2,0.3-0.1c0.1,0.1,0.2,0.2,0.2,0.3C36.9,288.7,36.7,288.8,36.6,288.8z M30.3,283.7
				c-0.1-0.1-0.2-0.2-0.1-0.3c0.1-0.1,0.2-0.2,0.3-0.1s0.2,0.2,0.2,0.3C30.6,283.7,30.4,283.7,30.3,283.7z M38,290.7
				c-0.2-0.2-0.4-0.4-0.3-0.5c0.1-0.1,0.3,0,0.5,0.2c0.2,0.2,1.2,1.4,1.2,1.6C39.3,292.1,38.2,290.9,38,290.7z M44.4,297.5
				c-0.1-0.1-0.2-0.2-0.1-0.3c0.1-0.1,0.2-0.2,0.3-0.1c0.1,0.1,1.5,1.4,1.4,1.6C45.9,298.7,44.5,297.5,44.4,297.5z"/>
			<path class="st5" d="M43.4,324.9l1.6-4.4l0,0c-0.1-0.1-0.2-0.1-0.4-0.2c-0.4-0.3-2-1.8-1.9-1.9c0.1-0.2,1.9,1.1,2.3,1.4
				c0,0,0.1,0.1,0.1,0.1l0.7-2l-1.2-1.2c-0.1,0.2-1.5,0.5-1.7,0.3c-1-1.3,0.7-0.9,0.8-1c0,0,0,0,0.1-0.1l-7.6-7.6
				c-0.6,0.4-2,1-2.4-0.6c-0.1-0.4,0.9-0.2,1.2-0.7l-12.9-14.4l-1.5,5.9l6.7,7.9c0.6,0.1,1.4,0.2,1.7,0.5c0.3,0.3-0.4,0.3-1.1,0.2
				l7.2,8.6c0-0.1,0.1-0.1,0.2,0c0.7,0.3,2.9,1.7,1.8,2.2L43.4,324.9z M23.3,296.2c-0.1-0.1-0.7-0.7-0.6-0.8
				c0.1-0.1,0.7,0.3,0.8,0.4s0.2,0.2,0.1,0.3C23.5,296.2,23.4,296.3,23.3,296.2z M23.3,300.4c0.2-0.4,1.5,1.6,1.3,1.9
				C24.5,302.6,23,301,23.3,300.4z M28.2,305c-0.1-0.1-0.2-0.2-0.1-0.3c0.1-0.1,0.2-0.2,0.3-0.1s0.2,0.2,0.1,0.3
				C28.5,305,28.3,305,28.2,305z M22.1,298.2c-0.1-0.1-0.2-0.2-0.1-0.3c0.1-0.1,0.2-0.2,0.3-0.1c0.1,0.1,0.8,0.8,0.8,0.9
				C23,298.7,22.2,298.2,22.1,298.2z M32,307.3c-0.1-0.1-1.2-1.2-1.2-1.3c-0.8-1.2,1.3,0.8,1.4,0.8c0.1,0.1,0.7,0.9,0.7,1
				C32.8,308,32.1,307.3,32,307.3z M34,312.2c0.2-0.4,1.6,1.4,1.5,1.6C35.3,314.1,33.7,312.8,34,312.2z M26.6,298.7
				c0.2-0.4,1.6,1.4,1.5,1.6C27.9,300.6,26.3,299.3,26.6,298.7z M41.3,320.3c0.2,0.2,1.5,1.8,1.5,1.9c-0.1,0.1-1.5-1.5-1.8-1.7
				c-0.2-0.2-0.4-0.4-0.3-0.5C40.8,320,41.1,320.1,41.3,320.3z M40.5,317.1c0.1,0.1,0.2,0.2,0.1,0.3c-0.1,0.1-0.2,0.2-0.3,0.1
				c-0.1-0.1-0.7-0.7-0.6-0.8C39.7,316.6,40.4,317,40.5,317.1z M39.3,313.3c0.1-0.1,0.2-0.2,0.3-0.1c0.1,0.1,0.6,0.6,0.5,0.7
				c-0.1,0.1-0.6-0.3-0.7-0.3S39.2,313.4,39.3,313.3z M31.6,308.5c0.2-0.5,0.5-0.5,0.8-0.4c0.3,0.1,1.3,1.8,1.1,2.3
				c-0.2,0.5-1.5-0.7-1.8-0.8C31.4,309.4,31.4,308.9,31.6,308.5z M35.9,309c0.1-0.1,0.6,0.3,0.8,0.4c0.1,0.1,0.6,0.6,0.5,0.7
				c-0.1,0.1-0.6-0.3-0.7-0.3C36.3,309.7,35.8,309.1,35.9,309z"/>
		</g>
		<linearGradient id="SVGID_53_" gradientUnits="userSpaceOnUse" x1="104.3497" y1="391.5139" x2="104.3497" y2="300.642">
			<stop  offset="0" style="stop-color:#000000"/>
			<stop  offset="0.996" style="stop-color:#CEBDA2"/>
		</linearGradient>
		<path class="st65" d="M108.3,391.2C108.3,391.2,108.3,391.2,108.3,391.2l-2.6,0.3v-0.1l-0.5-9.3v0c0.6-17.3,1.2-54.8-4.7-81.4
			C109,335.2,108.3,390.2,108.3,391.2z"/>
		<ellipse class="st7" cx="106.9" cy="355.9" rx="1.2" ry="3.8"/>
		<ellipse class="st7" cx="207.7" cy="358.3" rx="1.2" ry="3.8"/>
		<linearGradient id="SVGID_54_" gradientUnits="userSpaceOnUse" x1="207.7138" y1="389.5569" x2="207.7138" y2="331.7372">
			<stop  offset="0" style="stop-color:#000000"/>
			<stop  offset="0.996" style="stop-color:#CEBDA2"/>
		</linearGradient>
		<path class="st66" d="M211.7,389.6c0,0-6.1-40.5-10.4-57.8c0,0,10.8,36,12.9,57.6L211.7,389.6z"/>
		<path class="st21" d="M113.7,300.6c0,0,2.3,6.8,4.5,18.4l-14.7,0.5c-0.7-6.6-1.7-13-3-18.9H113.7z"/>
		<path class="st42" d="M188.1,300.8c-3.1,0.7-6.6,0.8-10.5,0.1c-16.3-3-37.8-18.4-38.5-18.9c0,0,0,0,0,0s26.8-0.5,51.3,2.3
			C190.4,284.3,190.7,291.3,188.1,300.8z"/>
		<polygon class="st42" points="68,507.8 152.7,507.8 154,502 66.7,502.4 		"/>
		<polygon class="st42" points="198.3,499.3 199.2,504.7 285.4,504.9 286.6,497.8 		"/>
	</g>
	<g id="Mouth">
		<linearGradient id="SVGID_55_" gradientUnits="userSpaceOnUse" x1="174.0522" y1="190.066" x2="174.0522" y2="134.0368">
			<stop  offset="0" style="stop-color:#F17038"/>
			<stop  offset="1" style="stop-color:#FFA031"/>
		</linearGradient>
		<path class="st67" d="M212.7,180.3l-9.8,8.4c0,0-29.4,1.4-43.2,1.4l-24.3-49.7l7.3-6.3l19.1,31.4L212.7,180.3z"/>
		<linearGradient id="SVGID_56_" gradientUnits="userSpaceOnUse" x1="181.6527" y1="180.2813" x2="181.6527" y2="134.0368">
			<stop  offset="0" style="stop-color:#FFA031"/>
			<stop  offset="1" style="stop-color:#FFD638"/>
		</linearGradient>
		<polygon class="st68" points="142.7,134 142.7,134 144.5,134 159.9,157.8 215.2,156.5 220.6,159.1 212.7,180.3 162.1,180.3 
			157.5,159.1 		"/>
	</g>
</g>
<g id="Bitcoins">
	<g id="_x35_">
		<linearGradient id="SVGID_57_" gradientUnits="userSpaceOnUse" x1="172.5413" y1="18.7294" x2="210" y2="18.7294">
			<stop  offset="0" style="stop-color:#F17038"/>
			<stop  offset="1" style="stop-color:#FFA031"/>
		</linearGradient>
		<circle class="st69" cx="191.3" cy="18.7" r="18.7"/>
		<g id="bitcoin-logo_1_" transform="translate(-65.893)">
			<path id="Path_3423" class="st7" d="M264.5,19.3c-0.6-0.7-1.4-1.2-2.3-1.4c1.3-0.6,2-2,1.7-3.4c0-0.5-0.2-1.1-0.5-1.5
				c-0.3-0.4-0.6-0.8-1.1-1c-0.5-0.3-1-0.5-1.5-0.6c-0.6-0.1-1.2-0.2-1.8-0.3V7.7h-2V11c-0.4,0-0.9,0-1.6,0V7.7h-2v3.3
				c-0.3,0-0.7,0-1.3,0l-2.8,0v2.2h1.5c0.6-0.1,1.1,0.3,1.2,0.9v3.8c0.1,0,0.1,0,0.2,0h-0.2v5.3c0,0.4-0.3,0.7-0.7,0.7c0,0,0,0,0,0
				h-1.5l-0.4,2.4h2.6h0.7h0.7v3.4h2v-3.3c0.4,0,0.9,0,1.6,0v3.3h2v-3.4c0.6,0,1.3-0.1,1.9-0.2c0.5-0.1,1.1-0.2,1.6-0.5
				c0.5-0.2,0.9-0.4,1.3-0.8c0.4-0.3,0.6-0.7,0.9-1.2c0.2-0.5,0.4-1.1,0.4-1.7C265.2,21.1,265,20.1,264.5,19.3z M255.4,13.4h0.5
				l0.7,0c0.2,0,0.4,0,0.8,0c0.3,0,0.5,0.1,0.8,0.1c0.2,0.1,0.5,0.1,0.7,0.2c0.2,0.1,0.4,0.2,0.6,0.4c0.2,0.2,0.3,0.3,0.4,0.6
				c0.1,0.2,0.2,0.5,0.2,0.8c0,0.2,0,0.5-0.1,0.7c-0.1,0.2-0.2,0.4-0.4,0.5c-0.2,0.1-0.3,0.3-0.5,0.4c-0.2,0.1-0.4,0.2-0.6,0.2
				c-0.3,0.1-0.5,0.1-0.7,0.1c-0.2,0-0.5,0.1-0.7,0.1c-0.3,0-0.5,0-0.7,0c-0.1,0-0.4,0-0.6,0h-0.5L255.4,13.4L255.4,13.4L255.4,13.4
				z M260.9,22.4c-0.1,0.2-0.2,0.4-0.3,0.5c-0.1,0.2-0.3,0.3-0.5,0.4c-0.2,0.1-0.4,0.2-0.6,0.3c-0.2,0.1-0.5,0.1-0.7,0.2
				c-0.3,0.1-0.5,0.1-0.8,0.1c-0.2,0-0.5,0-0.8,0.1c-0.3,0-0.5,0-0.7,0c-0.2,0-0.4,0-0.6,0h-0.5v-4.5l0.6,0c0.3,0,0.6,0,0.9,0
				c0.2,0,0.5,0,0.9,0c0.3,0,0.7,0.1,1,0.1c0.3,0.1,0.6,0.1,0.9,0.2c0.3,0.1,0.5,0.2,0.8,0.4c0.2,0.2,0.4,0.4,0.5,0.6
				C261.1,21.3,261.1,21.9,260.9,22.4L260.9,22.4z"/>
		</g>
	</g>
	<g id="_x34_">
		<linearGradient id="SVGID_58_" gradientUnits="userSpaceOnUse" x1="159.5413" y1="74.7294" x2="183" y2="74.7294">
			<stop  offset="0" style="stop-color:#F17038"/>
			<stop  offset="1" style="stop-color:#FFA031"/>
		</linearGradient>
		<circle class="st70" cx="171.3" cy="74.7" r="11.7"/>
		<g id="bitcoin-logo_2_" transform="translate(-65.893)">
			<path id="Path_3423_1_" class="st7" d="M241.7,75.1c-0.4-0.4-0.9-0.7-1.4-0.9c0.8-0.4,1.2-1.3,1.1-2.1c0-0.3-0.1-0.7-0.3-0.9
				c-0.2-0.3-0.4-0.5-0.7-0.6c-0.3-0.2-0.6-0.3-0.9-0.4c-0.4-0.1-0.8-0.2-1.2-0.2v-2.1H237v2c-0.2,0-0.6,0-1,0v-2h-1.3v2.1
				c-0.2,0-0.4,0-0.8,0l-1.8,0v1.4h0.9c0.4,0,0.7,0.2,0.7,0.6v2.4c0,0,0.1,0,0.1,0h-0.1v3.3c0,0.2-0.2,0.4-0.5,0.4c0,0,0,0,0,0h-0.9
				l-0.3,1.5h1.7h0.5h0.4v2.1h1.3v-2.1c0.2,0,0.6,0,1,0v2.1h1.3v-2.1c0.4,0,0.8-0.1,1.2-0.1c0.3-0.1,0.7-0.2,1-0.3
				c0.3-0.1,0.6-0.3,0.8-0.5c0.2-0.2,0.4-0.5,0.5-0.7c0.1-0.3,0.2-0.7,0.3-1C242.2,76.2,242.1,75.6,241.7,75.1z M236,71.4h0.3l0.4,0
				c0.1,0,0.3,0,0.5,0c0.2,0,0.3,0,0.5,0.1c0.2,0,0.3,0.1,0.5,0.1c0.1,0.1,0.3,0.1,0.4,0.2c0.1,0.1,0.2,0.2,0.3,0.3
				c0.1,0.2,0.1,0.3,0.1,0.5c0,0.1,0,0.3-0.1,0.4c0,0.1-0.1,0.2-0.2,0.3c-0.1,0.1-0.2,0.2-0.3,0.2c-0.1,0.1-0.3,0.1-0.4,0.2
				c-0.2,0-0.3,0.1-0.4,0.1c-0.2,0-0.3,0-0.5,0c-0.2,0-0.3,0-0.4,0c-0.1,0-0.2,0-0.4,0H236L236,71.4L236,71.4L236,71.4z M239.5,77
				c0,0.1-0.1,0.2-0.2,0.3c-0.1,0.1-0.2,0.2-0.3,0.2c-0.1,0.1-0.3,0.1-0.4,0.2c-0.1,0.1-0.3,0.1-0.5,0.1c-0.2,0-0.3,0.1-0.5,0.1
				c-0.1,0-0.3,0-0.5,0c-0.2,0-0.3,0-0.4,0s-0.2,0-0.4,0H236v-2.8l0.4,0c0.2,0,0.4,0,0.5,0s0.3,0,0.6,0c0.2,0,0.4,0,0.6,0.1
				c0.2,0,0.4,0.1,0.5,0.2c0.2,0.1,0.3,0.1,0.5,0.3c0.1,0.1,0.2,0.2,0.3,0.4C239.6,76.4,239.6,76.7,239.5,77L239.5,77z"/>
		</g>
	</g>
	<g id="_x33_">
		<linearGradient id="SVGID_59_" gradientUnits="userSpaceOnUse" x1="193.5413" y1="103.2294" x2="210" y2="103.2294">
			<stop  offset="0" style="stop-color:#F17038"/>
			<stop  offset="1" style="stop-color:#FFA031"/>
		</linearGradient>
		<circle class="st71" cx="201.8" cy="103.2" r="8.2"/>
		<g id="bitcoin-logo_3_" transform="translate(-65.893)">
			<path id="Path_3423_2_" class="st7" d="M270.9,103.5c-0.3-0.3-0.6-0.5-1-0.6c0.6-0.3,0.9-0.9,0.8-1.5c0-0.2-0.1-0.5-0.2-0.7
				c-0.1-0.2-0.3-0.3-0.5-0.5c-0.2-0.1-0.4-0.2-0.7-0.3c-0.3-0.1-0.5-0.1-0.8-0.1v-1.5h-0.9v1.4c-0.2,0-0.4,0-0.7,0v-1.4H266v1.5
				c-0.1,0-0.3,0-0.6,0l-1.2,0v1h0.6c0.3,0,0.5,0.1,0.5,0.4v1.7c0,0,0.1,0,0.1,0h-0.1v2.3c0,0.2-0.2,0.3-0.3,0.3c0,0,0,0,0,0h-0.6
				l-0.2,1.1h1.2h0.3h0.3v1.5h0.9v-1.5c0.2,0,0.4,0,0.7,0v1.5h0.9v-1.5c0.3,0,0.6,0,0.8-0.1c0.2,0,0.5-0.1,0.7-0.2
				c0.2-0.1,0.4-0.2,0.6-0.3c0.2-0.1,0.3-0.3,0.4-0.5c0.1-0.2,0.2-0.5,0.2-0.7C271.2,104.3,271.1,103.8,270.9,103.5z M266.9,100.9
				h0.2l0.3,0c0.1,0,0.2,0,0.3,0c0.1,0,0.2,0,0.4,0c0.1,0,0.2,0.1,0.3,0.1c0.1,0,0.2,0.1,0.3,0.2c0.1,0.1,0.1,0.2,0.2,0.2
				c0,0.1,0.1,0.2,0.1,0.3c0,0.1,0,0.2-0.1,0.3c0,0.1-0.1,0.2-0.2,0.2c-0.1,0.1-0.1,0.1-0.2,0.2c-0.1,0-0.2,0.1-0.3,0.1
				c-0.1,0-0.2,0-0.3,0.1c-0.1,0-0.2,0-0.3,0c-0.1,0-0.2,0-0.3,0c-0.1,0-0.2,0-0.3,0h-0.2L266.9,100.9L266.9,100.9L266.9,100.9z
				 M269.3,104.8c0,0.1-0.1,0.2-0.1,0.2c-0.1,0.1-0.1,0.1-0.2,0.2c-0.1,0-0.2,0.1-0.3,0.1c-0.1,0-0.2,0.1-0.3,0.1
				c-0.1,0-0.2,0-0.3,0c-0.1,0-0.2,0-0.3,0c-0.1,0-0.2,0-0.3,0c-0.1,0-0.2,0-0.3,0h-0.2v-2l0.3,0c0.2,0,0.3,0,0.4,0s0.2,0,0.4,0
				c0.1,0,0.3,0,0.4,0.1c0.1,0,0.3,0.1,0.4,0.1c0.1,0,0.2,0.1,0.3,0.2c0.1,0.1,0.2,0.2,0.2,0.3C269.4,104.4,269.4,104.6,269.3,104.8
				L269.3,104.8z"/>
		</g>
	</g>
	<g id="_x32__1_">
		<linearGradient id="SVGID_60_" gradientUnits="userSpaceOnUse" x1="164.5413" y1="122.7294" x2="178" y2="122.7294">
			<stop  offset="0" style="stop-color:#F17038"/>
			<stop  offset="1" style="stop-color:#FFA031"/>
		</linearGradient>
		<circle class="st72" cx="171.3" cy="122.7" r="6.7"/>
		<g id="bitcoin-logo_4_" transform="translate(-65.893)">
			<path id="Path_3423_3_" class="st7" d="M239.8,122.9c-0.2-0.3-0.5-0.4-0.8-0.5c0.5-0.2,0.7-0.7,0.6-1.2c0-0.2-0.1-0.4-0.2-0.5
				c-0.1-0.2-0.2-0.3-0.4-0.4c-0.2-0.1-0.3-0.2-0.5-0.2c-0.2-0.1-0.4-0.1-0.7-0.1v-1.2h-0.7v1.2c-0.1,0-0.3,0-0.6,0v-1.2h-0.7v1.2
				c-0.1,0-0.3,0-0.5,0l-1,0v0.8h0.5c0.2,0,0.4,0.1,0.4,0.3v1.4c0,0,0.1,0,0.1,0h-0.1v1.9c0,0.1-0.1,0.2-0.3,0.2c0,0,0,0,0,0h-0.5
				l-0.1,0.9h0.9h0.3h0.3v1.2h0.7v-1.2c0.1,0,0.3,0,0.6,0v1.2h0.7v-1.2c0.2,0,0.5,0,0.7-0.1c0.2,0,0.4-0.1,0.6-0.2
				c0.2-0.1,0.3-0.2,0.5-0.3c0.1-0.1,0.2-0.3,0.3-0.4c0.1-0.2,0.1-0.4,0.2-0.6C240.1,123.6,240,123.2,239.8,122.9z M236.5,120.8h0.2
				l0.3,0c0.1,0,0.2,0,0.3,0c0.1,0,0.2,0,0.3,0c0.1,0,0.2,0,0.3,0.1c0.1,0,0.2,0.1,0.2,0.1c0.1,0.1,0.1,0.1,0.1,0.2
				c0,0.1,0.1,0.2,0.1,0.3c0,0.1,0,0.2,0,0.2c0,0.1-0.1,0.1-0.1,0.2c-0.1,0-0.1,0.1-0.2,0.1c-0.1,0-0.1,0.1-0.2,0.1
				c-0.1,0-0.2,0-0.2,0.1c-0.1,0-0.2,0-0.3,0c-0.1,0-0.2,0-0.2,0s-0.1,0-0.2,0h-0.2L236.5,120.8L236.5,120.8L236.5,120.8z
				 M238.5,124c0,0.1-0.1,0.1-0.1,0.2c-0.1,0.1-0.1,0.1-0.2,0.1c-0.1,0-0.1,0.1-0.2,0.1c-0.1,0-0.2,0.1-0.3,0.1c-0.1,0-0.2,0-0.3,0
				c-0.1,0-0.2,0-0.3,0c-0.1,0-0.2,0-0.3,0c-0.1,0-0.1,0-0.2,0h-0.2V123l0.2,0c0.1,0,0.2,0,0.3,0c0.1,0,0.2,0,0.3,0
				c0.1,0,0.2,0,0.4,0c0.1,0,0.2,0.1,0.3,0.1c0.1,0,0.2,0.1,0.3,0.1c0.1,0.1,0.1,0.1,0.2,0.2C238.6,123.7,238.6,123.9,238.5,124
				L238.5,124z"/>
		</g>
	</g>
	<g id="_x31__1_">
		<linearGradient id="SVGID_61_" gradientUnits="userSpaceOnUse" x1="182.5413" y1="145.7294" x2="194" y2="145.7294">
			<stop  offset="0" style="stop-color:#F17038"/>
			<stop  offset="1" style="stop-color:#FFA031"/>
		</linearGradient>
		<circle class="st73" cx="188.3" cy="145.7" r="5.7"/>
		<g id="bitcoin-logo_5_" transform="translate(-65.893)">
			<path id="Path_3423_4_" class="st7" d="M256.4,145.9c-0.2-0.2-0.4-0.4-0.7-0.4c0.4-0.2,0.6-0.6,0.5-1c0-0.2-0.1-0.3-0.1-0.5
				c-0.1-0.1-0.2-0.2-0.3-0.3c-0.1-0.1-0.3-0.1-0.5-0.2c-0.2,0-0.4-0.1-0.6-0.1v-1h-0.6v1c-0.1,0-0.3,0-0.5,0v-1H253v1
				c-0.1,0-0.2,0-0.4,0l-0.9,0v0.7h0.4c0.2,0,0.3,0.1,0.4,0.3v1.2c0,0,0,0,0.1,0h-0.1v1.6c0,0.1-0.1,0.2-0.2,0.2c0,0,0,0,0,0h-0.4
				l-0.1,0.7h0.8h0.2h0.2v1h0.6v-1c0.1,0,0.3,0,0.5,0v1h0.6v-1c0.2,0,0.4,0,0.6-0.1c0.2,0,0.3-0.1,0.5-0.1c0.1-0.1,0.3-0.1,0.4-0.2
				c0.1-0.1,0.2-0.2,0.3-0.4c0.1-0.2,0.1-0.3,0.1-0.5C256.6,146.5,256.6,146.2,256.4,145.9z M253.6,144.1h0.2l0.2,0
				c0.1,0,0.1,0,0.2,0c0.1,0,0.2,0,0.2,0c0.1,0,0.2,0,0.2,0.1c0.1,0,0.1,0.1,0.2,0.1c0.1,0,0.1,0.1,0.1,0.2c0,0.1,0.1,0.2,0,0.2
				c0,0.1,0,0.1,0,0.2c0,0.1-0.1,0.1-0.1,0.2c0,0-0.1,0.1-0.1,0.1c-0.1,0-0.1,0.1-0.2,0.1c-0.1,0-0.1,0-0.2,0c-0.1,0-0.1,0-0.2,0
				c-0.1,0-0.2,0-0.2,0c0,0-0.1,0-0.2,0h-0.1L253.6,144.1L253.6,144.1L253.6,144.1z M255.3,146.8c0,0.1-0.1,0.1-0.1,0.2
				c0,0-0.1,0.1-0.2,0.1c-0.1,0-0.1,0.1-0.2,0.1c-0.1,0-0.1,0-0.2,0.1c-0.1,0-0.2,0-0.2,0c-0.1,0-0.1,0-0.2,0c-0.1,0-0.2,0-0.2,0
				s-0.1,0-0.2,0h-0.1V146l0.2,0c0.1,0,0.2,0,0.3,0s0.2,0,0.3,0c0.1,0,0.2,0,0.3,0c0.1,0,0.2,0,0.3,0.1c0.1,0,0.2,0.1,0.2,0.1
				c0.1,0.1,0.1,0.1,0.1,0.2C255.4,146.5,255.4,146.7,255.3,146.8L255.3,146.8z"/>
		</g>
	</g>
</g>
</svg>
