<svg xmlns="http://www.w3.org/2000/svg" width="17.072" height="13.413" viewBox="0 0 17.072 13.413">
    <defs>
        <style>
            .cls-1{fill:#fec401}
        </style>
    </defs>
    <g id="envelope_1_" data-name="envelope (1)" transform="translate(0 -54.82)">
        <g id="Group_1023" data-name="Group 1023" transform="translate(0 54.82)">
            <path id="Path_503" d="M1.639 58.955q.324.229 1.953 1.358t2.5 1.738q.1.067.4.291t.514.362q.2.138.5.31a2.875 2.875 0 0 0 .548.257 1.51 1.51 0 0 0 .476.086h.019a1.511 1.511 0 0 0 .476-.086 2.877 2.877 0 0 0 .548-.257q.29-.172.5-.31t.514-.362q.31-.224.4-.291l4.458-3.1a4.526 4.526 0 0 0 1.155-1.168 2.516 2.516 0 0 0 .467-1.438 1.537 1.537 0 0 0-1.524-1.524H1.524a1.36 1.36 0 0 0-1.129.5A1.923 1.923 0 0 0 0 56.554a2.225 2.225 0 0 0 .524 1.3 4.729 4.729 0 0 0 1.115 1.101z" class="cls-1" data-name="Path 503" transform="translate(0 -54.82)"/>
            <path id="Path_504" d="M16.119 185.266q-3.124 2.115-4.744 3.287-.543.4-.881.624a5.439 5.439 0 0 1-.9.457 2.742 2.742 0 0 1-1.048.233h-.02a2.743 2.743 0 0 1-1.048-.233 5.441 5.441 0 0 1-.9-.457q-.338-.224-.881-.624-1.286-.943-4.735-3.287a5.045 5.045 0 0 1-.962-.829V192a1.467 1.467 0 0 0 .448 1.077 1.468 1.468 0 0 0 1.077.448h14.022A1.529 1.529 0 0 0 17.072 192v-7.564a5.253 5.253 0 0 1-.953.83z" class="cls-1" data-name="Path 504" transform="translate(0 -180.112)"/>
        </g>
    </g>
</svg>
