<?xml version="1.0" encoding="utf-8"?>
<?xml-stylesheet type="text/css" href="../../css/animate.css"?>
<?xml-stylesheet type="text/css" href="../../css/ani.html"?>
<!-- Generator: Adobe Illustrator 21.0.0, SVG Export Plug-In . SVG Version: 6.00 Build 0)  -->
<svg version="1.1" id="Layer_1" xmlns="http://www.w3.org/2000/svg" xmlns:xlink="http://www.w3.org/1999/xlink" x="0px" y="0px"
	 viewBox="0 0 326 377.3" style="enable-background:new 0 0 326 377.3;" xml:space="preserve">
<style type="text/css">
	.st0{fill:#D2EDE1;}
	.st1{fill:#FEC401;}
	.st2{fill:#00C196;}
	.st3{fill:#BDD5CB;}
	.st4{fill:#000618;}
	.st5{clip-path:url(#SVGID_2_);}
	.st6{fill:#000B17;}
	.st7{fill:none;stroke:#FDFCE6;stroke-width:0.999;stroke-miterlimit:10;}
	.st8{fill:#FDFCE6;}
	.st9{fill:#18333E;}
	.st10{opacity:0.5;fill:#FFFFFF;}
	.st11{opacity:0.5;fill:#B8212A;}
	.st12{fill:none;stroke:#FEC401;stroke-miterlimit:10;}
	.st13{fill:none;stroke:#AEADB2;stroke-width:1.332;stroke-linecap:round;stroke-linejoin:round;stroke-dasharray:5.2539,7.8808;}
</style>
<g id="Head_1_">
	<g id="Dots">
		<circle class="st0" cx="244.2" cy="265.3" r="3.6"/>
		<circle class="st0" cx="173.3" cy="268.9" r="3.6"/>
		<circle class="st0" cx="209.7" cy="280.3" r="9.4"/>
		<circle class="st0" cx="170.1" cy="301.7" r="3.6"/>
		<circle class="st0" cx="258.6" cy="312.9" r="3.6"/>
		<circle class="st0" cx="250.2" cy="366.3" r="3.6"/>
		<circle class="st0" cx="218.2" cy="367.5" r="3.6"/>
		<circle class="st0" cx="189.2" cy="358.2" r="3.6"/>
		<circle class="st0" cx="199.3" cy="355.4" r="2.6"/>
		<circle class="st1" cx="223.8" cy="316.5" r="2.6"/>
		<circle class="st0" cx="196.7" cy="313.9" r="2.6"/>
		<circle class="st1" cx="170.1" cy="334.7" r="2.6"/>
		<circle class="st0" cx="186.3" cy="368.6" r="2.6"/>
		<circle class="st1" cx="175.8" cy="292.1" r="2.6"/>
		<circle class="st1" cx="163.2" cy="276.5" r="2.6"/>
		<circle class="st1" cx="267.8" cy="347.5" r="2.6"/>
		<circle class="st0" cx="207.2" cy="225.2" r="2.6"/>
		<circle class="st0" cx="229.5" cy="207.6" r="2.5"/>
		<circle class="st2" cx="219.1" cy="228.6" r="2.5"/>
		<circle class="st0" cx="212.8" cy="234.5" r="3.9"/>
		<circle class="st2" cx="293.4" cy="202.1" r="2.5"/>
		<circle class="st2" cx="273.8" cy="234.3" r="1.5"/>
		<circle class="st2" cx="239.1" cy="209" r="1.5"/>
		<circle class="st2" cx="223.4" cy="202.1" r="1.5"/>
		<circle class="st0" cx="267.8" cy="240.7" r="1.5"/>
		<circle class="st0" cx="280" cy="166.3" r="2.5"/>
	</g>
	<g id="Gears">
		<g id="gear_14">
			<path class="st0" d="M237.6,232.7c0.6-0.2,1.1-0.4,1.6-0.7l1.2,1.2l2.7-2.7l-1.2-1.2c0.3-0.5,0.5-1.1,0.7-1.6h1.7v-3.8h-1.7
				c-0.2-0.6-0.4-1.1-0.7-1.6l1.2-1.2l-2.7-2.7l-1.2,1.2c-0.5-0.3-1.1-0.5-1.6-0.7v-1.7h-3.8v1.7c-0.6,0.2-1.1,0.4-1.7,0.7l-1.2-1.2
				l-2.7,2.7l1.2,1.2c-0.3,0.5-0.5,1.1-0.7,1.6H227v3.8h1.7c0.2,0.6,0.4,1.1,0.7,1.6l-1.2,1.2l2.7,2.7l1.2-1.2
				c0.5,0.3,1.1,0.5,1.6,0.7v1.7h3.8V232.7z M235.7,229.2c-1.9,0-3.4-1.5-3.4-3.4c0-1.9,1.5-3.4,3.4-3.4c1.9,0,3.4,1.5,3.4,3.4
				C239.1,227.7,237.6,229.2,235.7,229.2z"/>
		</g>
		<g id="gear_13">
			<path class="st0" d="M198.6,244.2c0.6-0.2,1.1-0.4,1.6-0.7l1.2,1.2l2.7-2.7l-1.2-1.2c0.3-0.5,0.5-1.1,0.7-1.6h1.7v-3.8h-1.7
				c-0.2-0.6-0.4-1.1-0.7-1.6l1.2-1.2l-2.7-2.7l-1.2,1.2c-0.5-0.3-1.1-0.5-1.6-0.7v-1.7h-3.8v1.7c-0.6,0.2-1.1,0.4-1.6,0.7l-1.2-1.2
				l-2.7,2.7l1.2,1.2c-0.3,0.5-0.5,1.1-0.7,1.6h-1.7v3.8h1.7c0.2,0.6,0.4,1.1,0.7,1.6l-1.2,1.2l2.7,2.7l1.2-1.2
				c0.5,0.3,1.1,0.5,1.6,0.7v1.7h3.8V244.2z M196.7,240.6c-1.9,0-3.4-1.5-3.4-3.4c0-1.9,1.5-3.4,3.4-3.4s3.4,1.5,3.4,3.4
				C200.1,239.1,198.6,240.6,196.7,240.6z"/>
		</g>
		<g id="gear_6">
			<path class="st1" d="M252.8,254c0.8-0.2,1.5-0.5,2.2-0.9l1.7,1.7l3.6-3.6l-1.7-1.7c0.4-0.7,0.7-1.5,0.9-2.2h2.4V242h-2.4
				c-0.2-0.8-0.5-1.5-0.9-2.2l1.7-1.7l-3.6-3.6l-1.7,1.7c-0.7-0.4-1.5-0.7-2.2-0.9v-2.4h-5.2v2.4c-0.8,0.2-1.5,0.5-2.2,0.9l-1.7-1.7
				l-3.6,3.6l1.7,1.7c-0.4,0.7-0.7,1.4-0.9,2.2h-2.4v5.2h2.4c0.2,0.8,0.5,1.5,0.9,2.2l-1.7,1.7l3.6,3.6l1.7-1.7
				c0.7,0.4,1.4,0.7,2.2,0.9v2.4h5.2V254z M250.2,249.1c-2.5,0-4.6-2.1-4.6-4.6c0-2.5,2.1-4.6,4.6-4.6c2.5,0,4.6,2.1,4.6,4.6
				C254.8,247.1,252.7,249.1,250.2,249.1z"/>
		</g>
		<g id="gear_7">
			<path class="st2" d="M228,215.4h-1.1c-0.1-0.4-0.3-0.7-0.4-1.1l0.8-0.8l-1.8-1.8l-0.8,0.8c-0.3-0.2-0.7-0.3-1.1-0.4V211h-2.5v1.1
				c-0.4,0.1-0.7,0.3-1.1,0.4l-0.8-0.8l-1.8,1.8l0.8,0.8c-0.2,0.3-0.3,0.7-0.5,1.1h-1.1v2.5h1.1c0.1,0.4,0.3,0.7,0.5,1.1l-0.8,0.8
				l1.8,1.8l0.8-0.8c0.3,0.2,0.7,0.3,1.1,0.4v1.1h2.5v-1.1c0.4-0.1,0.7-0.3,1.1-0.4l0.8,0.8l1.8-1.8l-0.8-0.8
				c0.2-0.3,0.3-0.7,0.4-1.1h1.1V215.4z M224.6,216.7c0,1.2-1,2.2-2.2,2.2c-1.2,0-2.2-1-2.2-2.2c0-1.2,1-2.2,2.2-2.2
				C223.6,214.5,224.6,215.5,224.6,216.7z"/>
		</g>
		<g id="gear_8">
			<path class="st0" d="M229.5,239.5h-1.1c-0.1-0.4-0.3-0.7-0.4-1.1l0.8-0.8l-1.8-1.8l-0.8,0.8c-0.3-0.2-0.7-0.3-1.1-0.4V235h-2.5
				v1.1c-0.4,0.1-0.7,0.3-1.1,0.4l-0.8-0.8l-1.8,1.8l0.8,0.8c-0.2,0.3-0.3,0.7-0.4,1.1h-1.1v2.5h1.1c0.1,0.4,0.3,0.7,0.4,1.1
				l-0.8,0.8l1.8,1.8l0.8-0.8c0.3,0.2,0.7,0.3,1.1,0.4v1.1h2.5v-1.1c0.4-0.1,0.7-0.3,1.1-0.4l0.8,0.8l1.8-1.8l-0.8-0.8
				c0.2-0.3,0.3-0.7,0.4-1.1h1.1V239.5z M226,240.7c0,1.2-1,2.2-2.2,2.2c-1.2,0-2.2-1-2.2-2.2c0-1.2,1-2.2,2.2-2.2
				C225.1,238.5,226,239.5,226,240.7z"/>
		</g>
		<g id="gear_9">
			<path class="st0" d="M257.4,300.5h-1.1c-0.1-0.4-0.3-0.7-0.4-1.1l0.8-0.8l-1.8-1.8l-0.8,0.8c-0.3-0.2-0.7-0.3-1.1-0.4v-1.1h-2.5
				v1.1c-0.4,0.1-0.7,0.3-1.1,0.4l-0.8-0.8l-1.8,1.8l0.8,0.8c-0.2,0.3-0.3,0.7-0.5,1.1h-1.1v2.5h1.1c0.1,0.4,0.3,0.7,0.5,1.1
				l-0.8,0.8l1.8,1.8l0.8-0.8c0.3,0.2,0.7,0.3,1.1,0.4v1.1h2.5v-1.1c0.4-0.1,0.7-0.3,1.1-0.4l0.8,0.8l1.8-1.8l-0.8-0.8
				c0.2-0.3,0.3-0.7,0.4-1.1h1.1V300.5z M254,301.7c0,1.2-1,2.2-2.2,2.2c-1.2,0-2.2-1-2.2-2.2c0-1.2,1-2.2,2.2-2.2
				C253,299.5,254,300.5,254,301.7z"/>
		</g>
		<g id="gear_10">
			<path class="st0" d="M220.2,327.8h-1.1c-0.1-0.4-0.3-0.7-0.4-1.1l0.8-0.8l-1.8-1.8l-0.8,0.8c-0.3-0.2-0.7-0.3-1.1-0.4v-1.1h-2.5
				v1.1c-0.4,0.1-0.7,0.3-1.1,0.4l-0.8-0.8l-1.8,1.8l0.8,0.8c-0.2,0.3-0.3,0.7-0.5,1.1h-1.1v2.5h1.1c0.1,0.4,0.3,0.7,0.5,1.1
				l-0.8,0.8l1.8,1.8l0.8-0.8c0.3,0.2,0.7,0.3,1.1,0.4v1.1h2.5v-1.1c0.4-0.1,0.7-0.3,1.1-0.4l0.8,0.8l1.8-1.8l-0.8-0.8
				c0.2-0.3,0.3-0.7,0.4-1.1h1.1V327.8z M216.8,329c0,1.2-1,2.2-2.2,2.2c-1.2,0-2.2-1-2.2-2.2c0-1.2,1-2.2,2.2-2.2
				C215.8,326.8,216.8,327.8,216.8,329z"/>
		</g>
		<g id="gear_11">
			<path class="st0" d="M241,362.6h-1.1c-0.1-0.4-0.3-0.7-0.4-1.1l0.8-0.8l-1.8-1.8l-0.8,0.8c-0.3-0.2-0.7-0.3-1.1-0.4v-1.1h-2.5
				v1.1c-0.4,0.1-0.7,0.3-1.1,0.4l-0.8-0.8l-1.8,1.8l0.8,0.8c-0.2,0.3-0.3,0.7-0.4,1.1h-1.1v2.5h1.1c0.1,0.4,0.3,0.7,0.4,1.1
				l-0.8,0.8l1.8,1.8l0.8-0.8c0.3,0.2,0.7,0.3,1.1,0.4v1.1h2.5v-1.1c0.4-0.1,0.7-0.3,1.1-0.4l0.8,0.8l1.8-1.8l-0.8-0.8
				c0.2-0.3,0.3-0.7,0.4-1.1h1.1V362.6z M237.6,363.9c0,1.2-1,2.2-2.2,2.2c-1.2,0-2.2-1-2.2-2.2c0-1.2,1-2.2,2.2-2.2
				C236.6,361.6,237.6,362.6,237.6,363.9z"/>
		</g>
		<g id="gear_12">
			<path class="st1" d="M205.4,365.1h-1.1c-0.1-0.4-0.3-0.7-0.4-1.1l0.8-0.8l-1.8-1.8l-0.8,0.8c-0.3-0.2-0.7-0.3-1.1-0.4v-1.1h-2.5
				v1.1c-0.4,0.1-0.7,0.3-1.1,0.4l-0.8-0.8l-1.8,1.8l0.8,0.8c-0.2,0.3-0.3,0.7-0.4,1.1h-1.1v2.5h1.1c0.1,0.4,0.3,0.7,0.4,1.1
				l-0.8,0.8l1.8,1.8l0.8-0.8c0.3,0.2,0.7,0.3,1.1,0.4v1.1h2.5v-1.1c0.4-0.1,0.7-0.3,1.1-0.4l0.8,0.8l1.8-1.8l-0.8-0.8
				c0.2-0.3,0.3-0.7,0.4-1.1h1.1V365.1z M201.9,366.3c0,1.2-1,2.2-2.2,2.2c-1.2,0-2.2-1-2.2-2.2c0-1.2,1-2.2,2.2-2.2
				C201,364.1,201.9,365.1,201.9,366.3z"/>
		</g>
		<g id="gear_16">
			<path class="st0" d="M181.5,285.5c0.7,4.1,2.3,7.8,4.6,11.1l-7,9.1l5.2,5.2l9.1-7c3.3,2.3,7,3.9,11.1,4.6l1.5,11.4h7.4l1.5-11.4
				c4.1-0.7,7.8-2.3,11.1-4.6l9.1,7l5.2-5.2l-7-9.1c2.3-3.3,3.9-7,4.6-11.1l11.4-1.5v-7.4l-11.4-1.5c-0.7-4.1-2.3-7.8-4.6-11.1
				l7-9.1l-5.2-5.2l-9.1,7c-3.3-2.3-7-3.9-11.1-4.6l-1.5-11.4H206l-1.5,11.4c-4.1,0.7-7.8,2.3-11.1,4.6l-9.1-7l-5.2,5.2l7,9.1
				c-2.3,3.3-3.9,7-4.6,11.1l-11.4,1.5v7.4L181.5,285.5z M209.7,257.8c12.4,0,22.5,10.1,22.5,22.5c0,12.4-10.1,22.5-22.5,22.5
				c-12.4,0-22.5-10.1-22.5-22.5C187.2,267.9,197.3,257.8,209.7,257.8z"/>
			<path class="st0" d="M190.5,280.3c0,10.6,8.6,19.2,19.2,19.2c10.6,0,19.2-8.6,19.2-19.2c0-10.6-8.6-19.2-19.2-19.2
				C199.1,261.1,190.5,269.7,190.5,280.3z M192.9,280.3c0-9.2,7.5-16.8,16.8-16.8c9.2,0,16.8,7.5,16.8,16.8
				c0,9.2-7.5,16.8-16.8,16.8C200.5,297.1,192.9,289.5,192.9,280.3z"/>
		</g>
		<g id="gear_15">
			<path class="st1" d="M230.6,340.1c0.4,2.1,1.2,4.1,2.4,5.8l-3.7,4.8l2.7,2.7l4.8-3.7c1.7,1.2,3.7,2,5.8,2.4l0.8,6h3.9l0.8-6
				c2.1-0.4,4.1-1.2,5.8-2.4l4.8,3.7l2.8-2.7l-3.7-4.8c1.2-1.7,2-3.7,2.4-5.8l6-0.8v-3.9l-6-0.8c-0.4-2.1-1.2-4.1-2.4-5.8l3.7-4.8
				l-2.8-2.7l-4.8,3.7c-1.7-1.2-3.7-2-5.8-2.4l-0.8-6h-3.9l-0.8,6c-2.1,0.4-4.1,1.2-5.8,2.4l-4.8-3.7l-2.7,2.7l3.7,4.8
				c-1.2,1.7-2,3.7-2.4,5.8l-6,0.8v3.9L230.6,340.1z M245.5,325.5c6.5,0,11.9,5.3,11.9,11.9c0,6.5-5.3,11.9-11.9,11.9
				c-6.5,0-11.9-5.3-11.9-11.9C233.6,330.8,238.9,325.5,245.5,325.5z"/>
			<path class="st1" d="M235.3,337.3c0,5.6,4.5,10.1,10.1,10.1c5.6,0,10.1-4.5,10.1-10.1c0-5.6-4.5-10.1-10.1-10.1
				C239.9,327.2,235.3,331.8,235.3,337.3z M236.6,337.3c0-4.9,4-8.8,8.8-8.8c4.9,0,8.8,4,8.8,8.8c0,4.9-4,8.8-8.8,8.8
				C240.6,346.2,236.6,342.2,236.6,337.3z"/>
		</g>
		<g id="gear_17">
			<path class="st1" d="M154,301.5c0.8-0.2,1.5-0.5,2.2-0.9l1.7,1.7l3.6-3.6l-1.7-1.7c0.4-0.7,0.7-1.5,0.9-2.2h2.4v-5.2h-2.4
				c-0.2-0.8-0.5-1.5-0.9-2.2l1.7-1.7l-3.6-3.6l-1.7,1.7c-0.7-0.4-1.5-0.7-2.2-0.9v-2.4h-5.2v2.4c-0.8,0.2-1.5,0.5-2.2,0.9l-1.7-1.7
				l-3.6,3.6l1.7,1.7c-0.4,0.7-0.7,1.4-0.9,2.2h-2.4v5.2h2.4c0.2,0.8,0.5,1.5,0.9,2.2l-1.7,1.7l3.6,3.6l1.7-1.7
				c0.7,0.4,1.5,0.7,2.2,0.9v2.4h5.2V301.5z M151.4,296.6c-2.5,0-4.6-2.1-4.6-4.6s2.1-4.6,4.6-4.6c2.5,0,4.6,2.1,4.6,4.6
				S153.9,296.6,151.4,296.6z"/>
		</g>
		<g id="gear_18">
			<path class="st1" d="M192.9,346.4c0.9-0.3,1.8-0.6,2.6-1.1l1.9,1.9l4.2-4.2l-1.9-1.9c0.5-0.8,0.8-1.7,1.1-2.6h2.7v-6h-2.7
				c-0.3-0.9-0.6-1.8-1.1-2.6l1.9-1.9l-4.2-4.2l-1.9,1.9c-0.8-0.5-1.7-0.8-2.6-1.1V322h-6v2.7c-0.9,0.3-1.8,0.6-2.6,1.1l-1.9-1.9
				l-4.2,4.2l1.9,1.9c-0.5,0.8-0.8,1.7-1.1,2.6h-2.7v6h2.7c0.3,0.9,0.6,1.8,1.1,2.6l-1.9,1.9l4.2,4.2l1.9-1.9
				c0.8,0.5,1.7,0.8,2.6,1.1v2.7h6V346.4z M189.9,340.8c-2.9,0-5.3-2.4-5.3-5.3c0-2.9,2.4-5.3,5.3-5.3c2.9,0,5.3,2.4,5.3,5.3
				C195.2,338.5,192.8,340.8,189.9,340.8z"/>
		</g>
		<g id="gear_19">
			<path class="st0" d="M271.9,375.1c0.7-0.2,1.4-0.5,2.1-0.9l1.5,1.5l3.4-3.4l-1.5-1.5c0.4-0.6,0.7-1.3,0.9-2.1h2.2v-4.8h-2.2
				c-0.2-0.7-0.5-1.4-0.9-2.1l1.5-1.5l-3.4-3.4l-1.5,1.5c-0.6-0.4-1.3-0.7-2.1-0.9v-2.2h-4.8v2.2c-0.7,0.2-1.4,0.5-2.1,0.9l-1.5-1.5
				l-3.4,3.4l1.5,1.5c-0.4,0.6-0.7,1.3-0.9,2.1h-2.2v4.8h2.2c0.2,0.7,0.5,1.4,0.9,2.1l-1.5,1.5l3.4,3.4l1.5-1.5
				c0.6,0.4,1.3,0.7,2.1,0.9v2.2h4.8V375.1z M269.5,370.6c-2.4,0-4.3-1.9-4.3-4.3c0-2.4,1.9-4.3,4.3-4.3c2.4,0,4.3,1.9,4.3,4.3
				C273.8,368.7,271.9,370.6,269.5,370.6z"/>
		</g>
		<g id="gear_20">
			<path class="st0" d="M165.3,327.2c0.6-0.2,1.2-0.4,1.7-0.7l1.3,1.3l2.8-2.8l-1.3-1.3c0.3-0.5,0.5-1.1,0.7-1.7h1.8v-3.9h-1.8
				c-0.2-0.6-0.4-1.2-0.7-1.7l1.3-1.3l-2.8-2.8l-1.3,1.3c-0.5-0.3-1.1-0.5-1.7-0.7v-1.8h-3.9v1.8c-0.6,0.2-1.2,0.4-1.7,0.7l-1.3-1.3
				l-2.8,2.8l1.3,1.3c-0.3,0.5-0.5,1.1-0.7,1.7h-1.8v3.9h1.8c0.2,0.6,0.4,1.2,0.7,1.7l-1.3,1.3l2.8,2.8l1.3-1.3
				c0.5,0.3,1.1,0.5,1.7,0.7v1.8h3.9V327.2z M163.4,323.6c-1.9,0-3.5-1.6-3.5-3.5c0-1.9,1.6-3.5,3.5-3.5c1.9,0,3.5,1.6,3.5,3.5
				C166.8,322.1,165.3,323.6,163.4,323.6z"/>
		</g>
		<g id="gear_21">
			<path class="st0" d="M216.9,356.2c0.6-0.2,1.2-0.4,1.7-0.7l1.3,1.3l2.8-2.8l-1.3-1.3c0.3-0.5,0.5-1.1,0.7-1.7h1.8v-3.9h-1.8
				c-0.2-0.6-0.4-1.2-0.7-1.7l1.3-1.3l-2.8-2.8l-1.3,1.3c-0.5-0.3-1.1-0.5-1.7-0.7v-1.8H213v1.8c-0.6,0.2-1.2,0.4-1.7,0.7l-1.3-1.3
				l-2.8,2.8l1.3,1.3c-0.3,0.5-0.5,1.1-0.7,1.7h-1.8v3.9h1.8c0.2,0.6,0.4,1.2,0.7,1.7l-1.3,1.3l2.8,2.8l1.3-1.3
				c0.5,0.3,1.1,0.5,1.7,0.7v1.8h3.9V356.2z M215,352.6c-1.9,0-3.5-1.6-3.5-3.5c0-1.9,1.6-3.5,3.5-3.5c1.9,0,3.5,1.6,3.5,3.5
				C218.4,351,216.9,352.6,215,352.6z"/>
		</g>
		<g id="gear_24">
			<g>
				<g>
					<g>
						<polygon class="st0" points="264.1,191.8 268.2,191.8 269.3,199.8 263.1,199.8 						"/>
					</g>
					<g>
						<polygon class="st0" points="268.2,235.4 264.1,235.4 263.1,227.4 269.3,227.4 						"/>
					</g>
				</g>
				<g>
					<g>
						<polygon class="st0" points="244.3,215.6 244.3,211.6 252.4,210.5 252.4,216.7 						"/>
					</g>
					<g>
						<polygon class="st0" points="288,211.6 288,215.6 280,216.7 280,210.5 						"/>
					</g>
				</g>
			</g>
			<g id="gear_22">
				<circle class="st0" cx="266.3" cy="213.6" r="4.8"/>
				<g>
					<path class="st0" d="M249.7,213.6c0-9.1,7.4-16.4,16.4-16.4c9.1,0,16.4,7.4,16.4,16.4c0,9.1-7.4,16.4-16.4,16.4
						C257.1,230,249.7,222.7,249.7,213.6z M254.4,213.6c0,6.5,5.3,11.8,11.8,11.8c6.5,0,11.8-5.3,11.8-11.8
						c0-6.5-5.3-11.8-11.8-11.8C259.7,201.8,254.4,207.1,254.4,213.6z"/>
				</g>
				<g id="gear_3">
					<g>
						<g>
							<polygon class="st0" points="249.3,199.6 252.2,196.7 258.6,201.6 254.2,206 							"/>
						</g>
						<g>
							<polygon class="st0" points="283.1,227.6 280.2,230.5 273.8,225.6 278.1,221.2 							"/>
						</g>
					</g>
					<g>
						<g>
							<polygon class="st0" points="252.2,230.5 249.3,227.6 254.2,221.2 258.6,225.6 							"/>
						</g>
						<g>
							<polygon class="st0" points="280.2,196.7 283.1,199.6 278.1,206 273.8,201.6 							"/>
						</g>
					</g>
				</g>
				<g>
					<path class="st0" d="M256.9,213.6c0-5.1,4.2-9.3,9.3-9.3c5.1,0,9.3,4.2,9.3,9.3c0,5.1-4.2,9.3-9.3,9.3
						C261.1,222.9,256.9,218.7,256.9,213.6z M258.7,213.6c0,4.1,3.3,7.4,7.4,7.4c4.1,0,7.4-3.3,7.4-7.4c0-4.1-3.3-7.4-7.4-7.4
						C262.1,206.2,258.7,209.5,258.7,213.6z"/>
				</g>
			</g>
		</g>
		<g id="gear_23">
			<g>
				<g>
					<polygon class="st0" points="207.8,176.3 207.8,170.8 218.7,169.3 218.7,177.8 					"/>
				</g>
				<g>
					<polygon class="st0" points="267.4,170.8 267.4,176.3 256.5,177.8 256.5,169.3 					"/>
				</g>
			</g>
			<g id="gear_2">
				<g>
					<path class="st0" d="M216,173.5c0-11.9,9.7-21.6,21.6-21.6c11.9,0,21.6,9.7,21.6,21.6c0,11.9-9.7,21.6-21.6,21.6
						C225.7,195.1,216,185.4,216,173.5z M220.6,173.5c0,9.4,7.6,17,17,17c9.4,0,17-7.6,17-17c0-9.4-7.6-17-17-17
						C228.2,156.6,220.6,164.2,220.6,173.5z"/>
				</g>
				<g>
					<g>
						<polygon class="st0" points="234.8,143.7 240.4,143.7 241.8,154.7 233.4,154.7 						"/>
					</g>
					<g>
						<polygon class="st0" points="240.4,203.3 234.8,203.3 233.4,192.4 241.8,192.4 						"/>
					</g>
				</g>
				<g>
					<g>
						<polygon class="st0" points="214.6,154.4 218.5,150.5 227.2,157.2 221.3,163.2 						"/>
					</g>
					<g>
						<polygon class="st0" points="260.6,192.7 256.7,196.6 248,189.9 253.9,183.9 						"/>
					</g>
				</g>
				<g>
					<g>
						<polygon class="st0" points="218.5,196.6 214.6,192.6 221.3,183.9 227.2,189.9 						"/>
					</g>
					<g>
						<polygon class="st0" points="256.7,150.5 260.6,154.4 253.9,163.2 248,157.2 						"/>
					</g>
				</g>
				<g>
					<path class="st0" d="M223.1,173.5c0-8,6.5-14.5,14.5-14.5c8,0,14.5,6.5,14.5,14.5c0,8-6.5,14.5-14.5,14.5
						C229.6,188,223.1,181.5,223.1,173.5z M225,173.5c0,7,5.7,12.6,12.6,12.6s12.6-5.7,12.6-12.6c0-7-5.7-12.6-12.6-12.6
						S225,166.6,225,173.5z"/>
				</g>
				<circle class="st0" cx="237.6" cy="173.5" r="8.4"/>
			</g>
		</g>
		<g id="gear_5">
			<path class="st2" d="M180.4,205.2c0.4,2.1,1.2,4.1,2.4,5.8l-4.4,5.7l3,3l5.7-4.4c1.7,1.2,3.7,2,5.8,2.4l0.9,7.1h4.2l0.9-7.1
				c2.1-0.4,4.1-1.2,5.8-2.4l5.7,4.4l3-3l-4.4-5.7c1.2-1.7,2-3.7,2.4-5.8l7.1-0.9V200l-7.1-0.9c-0.4-2.1-1.2-4.1-2.4-5.8l4.4-5.7
				l-3-3l-5.7,4.4c-1.7-1.2-3.7-2-5.8-2.4l-0.9-7.1h-4.2l-0.9,7.1c-2.1,0.4-4.1,1.2-5.8,2.4l-5.7-4.4l-3,3l4.4,5.7
				c-1.2,1.7-2,3.7-2.4,5.8l-7.1,0.9v4.2L180.4,205.2z M182.5,202.1c0-7.4,6-13.5,13.5-13.5c7.4,0,13.5,6,13.5,13.5
				c0,7.4-6,13.5-13.5,13.5C188.6,215.6,182.5,209.5,182.5,202.1z"/>
			<path class="st2" d="M184.7,202.1c0,6.2,5,11.3,11.2,11.3c6.2,0,11.3-5,11.3-11.3c0-6.2-5-11.3-11.3-11.3
				C189.8,190.9,184.7,195.9,184.7,202.1z M186.6,202.1c0-5.2,4.2-9.4,9.4-9.4c5.2,0,9.4,4.2,9.4,9.4c0,5.2-4.2,9.4-9.4,9.4
				C190.8,211.5,186.6,207.3,186.6,202.1z"/>
			<circle class="st2" cx="196" cy="202.1" r="6.9"/>
		</g>
		<g id="gear_4">
			<path class="st2" d="M275.5,186.5c0.3,1.6,0.9,3.1,1.8,4.3l-2.7,3.5l2,2l3.5-2.7c1.3,0.9,2.7,1.5,4.3,1.8l0.6,4.4h2.9l0.6-4.4
				c1.6-0.3,3.1-0.9,4.3-1.8l3.5,2.7l2-2l-2.7-3.5c0.9-1.3,1.5-2.7,1.8-4.3l4.4-0.6v-2.9l-4.4-0.6c-0.3-1.6-0.9-3.1-1.8-4.3l2.7-3.5
				l-2-2l-3.5,2.7c-1.3-0.9-2.7-1.5-4.3-1.8l-0.6-4.4H285l-0.6,4.4c-1.6,0.3-3.1,0.9-4.3,1.8l-3.5-2.7l-2,2l2.7,3.5
				c-0.9,1.3-1.5,2.7-1.8,4.3l-4.4,0.6v2.9L275.5,186.5z M286.5,175.9c4.8,0,8.7,3.9,8.7,8.7c0,4.8-3.9,8.7-8.7,8.7
				c-4.8,0-8.7-3.9-8.7-8.7C277.8,179.8,281.7,175.9,286.5,175.9z"/>
			<path class="st2" d="M279.2,184.5c0,4,3.3,7.3,7.3,7.3c4,0,7.3-3.3,7.3-7.3c0-4-3.3-7.3-7.3-7.3
				C282.5,177.3,279.2,180.5,279.2,184.5z M281.1,184.5c0-3,2.4-5.4,5.4-5.4c3,0,5.4,2.4,5.4,5.4c0,3-2.4,5.4-5.4,5.4
				C283.5,189.9,281.1,187.5,281.1,184.5z"/>
			<circle class="st2" cx="286.5" cy="184.5" r="3.2"/>
		</g>
	</g>
	<g id="Head">
		<path class="st3" d="M322.4,102.9c1.2,9.4,1.4,19.2,0.6,29.3c-1.3,17.2-5.1,33.8-11.1,49.2c0,0,2.2,16.3-8.8,24.3
			c-9,6.5-3,47.3-34.6,47.3c0,0-21.5,3.6-31.8-11.7c-10.3-15.3-45.6-10.3-54.3,7c-8.7,17.3-26.7,27.6-47.1,14.5l-30.5-180l30.6-56.1
			l61.9-18.8L270,26.6l36.6,44.8L322.4,102.9z"/>
		<path class="st4" d="M97.2,139c0-62.6,41.9-107.5,104.8-104.8c70.3,3,106.6,46.9,106.6,104.8S259.9,243.8,202,243.8
			C144.1,243.8,97.2,196.9,97.2,139z"/>
		<g>
			<defs>
				<circle id="SVGID_1_" cx="204.6" cy="137.5" r="96.6"/>
			</defs>
			<clipPath id="SVGID_2_">
				<use xlink:href="#SVGID_1_"  style="overflow:visible;"/>
			</clipPath>
			<g class="st5">
				<path class="st1" d="M337.4,167.2c1.8-15.5-6.9-27.6-10.2-31.5c-0.1-15.2-10.5-23.5-15.1-26.5c-1-12.7-8.3-18.7-13.7-20.8
					C290.9,66,272.5,63.3,266.6,63C257,49.7,242.6,48.4,237,48.5c-4.1-4.3-8.9-5.2-12.3-5.2c-1.9,0-3.6,0.3-4.8,0.6
					c-4-1.9-8.3-2.8-12.8-2.8c-7.2,0-13.3,2.5-16.2,4c-4.6-1.9-9.5-2.9-14.4-2.9c-5.3,0-9.4,1.1-11.5,1.9c-3.1-0.8-6.3-1.3-9.6-1.3
					c-9.9,0-17.6,3.9-20.3,5.6c-19.4,0-29.5,11.5-32.7,16C89,66.3,80.3,78.8,77.2,84c-6.2,0.4-9.3,4.5-10.4,7.7
					c-13.2,9.5-15.2,26.7-15.5,32.4c-3.2,3.3-3.1,7.7-2.2,10.7c-8.2,17.6-2.5,31.1,2.9,37.2c-1.1,6.9,0,12.5,3.2,16.8
					c3.7,5,9.3,6.5,11.9,6.9c7.8,6.1,16.5,9.2,26,9.2c7.4,0,13.4-2,16.6-3.2c0.5,0.2,1,0.4,1.5,0.6c-2.5,4.9-3.1,9.6-2,13.8
					c1.2,4.7,4.3,7.7,6.5,9.3c0,5.5,1.7,10.2,5.1,14c7.3,8.1,20,8.8,23.3,8.8c8.2,2.1,15.8,3.2,22.7,3.2c18.6,0,27.6-7.7,30.9-11.6
					c0.8,0,1.7,0.1,2.5,0.1c10.3,0,17.1-3.5,20.2-5.5c2.4,0.6,4.8,0.9,7.3,0.9c10.4,0,17.9-5.8,20.9-8.7c3.3,0.1,7.3-0.8,9.5-1.4
					c2.4,1.3,5.2,2,8.2,2c3.1,0,5.7-0.7,7.4-1.2c4.8,1.8,9.5,2.8,14.2,2.8c9.7,0,16.4-4,19.1-5.9c8.3-0.2,14.6-2.8,18.8-7.5
					c4.5-5,5.2-11.1,5.3-14.3c6.3-6.4,5.5-16.3,4.7-20.7C339,175.9,338.6,170.5,337.4,167.2z"/>
				<g>
					<circle class="st6" cx="66.4" cy="179.6" r="2.8"/>
					<circle class="st6" cx="70" cy="112.3" r="2.8"/>
					<circle class="st6" cx="122.6" cy="146.3" r="2.8"/>
					<circle class="st6" cx="307.6" cy="212" r="2.8"/>
					<circle class="st6" cx="283.3" cy="184.4" r="2.8"/>
					<circle class="st6" cx="324.5" cy="157.8" r="2.8"/>
					<circle class="st6" cx="246.4" cy="207.2" r="2.8"/>
					<circle class="st6" cx="227.5" cy="172" r="2.8"/>
					<circle class="st6" cx="263.3" cy="102.6" r="2.8"/>
					<circle class="st6" cx="187.8" cy="194.8" r="2.8"/>
					<circle class="st6" cx="187.8" cy="107.4" r="2.8"/>
					<circle class="st6" cx="147.5" cy="55.7" r="2.8"/>
					<circle class="st6" cx="190.6" cy="62.6" r="2.8"/>
					<circle class="st6" cx="263.3" cy="170" r="2.8"/>
					<circle class="st6" cx="283.3" cy="126.9" r="2.8"/>
					<path class="st6" d="M324.5,195.7c-1.3,0-2.4,0.4-3.4,1.2l-12.9-12.9v-13.2h17v-7.3c2.7-0.3,4.8-2.7,4.8-5.5
						c0-3-2.5-5.5-5.5-5.5c-3,0-5.5,2.5-5.5,5.5c0,2.8,2.1,5.1,4.8,5.5v6h-15.6V162h-14.2v-10h19v-20.8c2.7-0.3,4.8-2.7,4.8-5.5
						c0-3-2.5-5.5-5.5-5.5c-2.8,0-5.1,2.1-5.5,4.8h-14.2v25.5h-3.9l-4.9-4.9v-13.4c2.7-0.3,4.8-2.7,4.8-5.5c0-3-2.5-5.5-5.5-5.5
						c-3,0-5.5,2.5-5.5,5.5c0,2.8,2.1,5.1,4.8,5.5v12l-9.6-9.6v-19h25.9v-7.7c2.7-0.3,4.8-2.7,4.8-5.5c0-3-2.5-5.5-5.5-5.5
						c-3,0-5.5,2.5-5.5,5.5c0,2.8,2.1,5.1,4.8,5.5v6.3H273v-30h-9v-6.9h-14.1v-9.4c2.7-0.3,4.8-2.7,4.8-5.5c0-3-2.5-5.5-5.5-5.5
						c-3,0-5.5,2.5-5.5,5.5c0,2.8,2.1,5.1,4.8,5.5v9.4H233v-1.7c2.8-0.2,5.1-2.6,5.1-5.5c0-3-2.5-5.5-5.5-5.5c-3,0-5.5,2.5-5.5,5.5
						c0,2.7,2,5,4.6,5.4v3.2h16.9v6.9h14.1v11.4c-2.5,0.3-4.4,2.3-4.8,4.8h-12.1v12.4h-9.6V98.5c2.7-0.3,4.8-2.7,4.8-5.5
						c0-3-2.5-5.5-5.5-5.5c-3,0-5.5,2.5-5.5,5.5c0,2.8,2.1,5.1,4.8,5.5v17.3h11v8.1h-9.1L224.7,112V82.6h-10.4V58.3
						c2.7-0.3,4.8-2.7,4.8-5.5c0-3-2.5-5.5-5.5-5.5c-3,0-5.5,2.5-5.5,5.5c0,1,0.3,2,0.8,2.8l-21,34.7l-9-9v-3.9h12.4v-9.4
						c2.7-0.3,4.8-2.7,4.8-5.5c0-3-2.5-5.5-5.5-5.5c-3,0-5.5,2.5-5.5,5.5c0,2.8,2.1,5.1,4.8,5.5v8h-11.1V58.3
						c2.7-0.3,4.8-2.7,4.8-5.5c0-3-2.5-5.5-5.5-5.5c-3,0-5.5,2.5-5.5,5.5c0,2.8,2.1,5.1,4.8,5.5v17.8H158v-9.8l-6.7-6.7
						c1-1,1.7-2.4,1.7-3.9c0-3-2.5-5.5-5.5-5.5c-3,0-5.5,2.5-5.5,5.5c0,2.8,2.1,5.1,4.8,5.5v16.4h9.9v34.1h-8.6V88.2l-16.9-16.9
						c1-1,1.7-2.4,1.7-3.9c0-3-2.5-5.5-5.5-5.5c-3,0-5.5,2.5-5.5,5.5c0,0.5,0.1,0.9,0.2,1.4l-0.2-0.2l-13.5,13.5h-7.6
						c-0.3-2.7-2.7-4.8-5.5-4.8c-3,0-5.5,2.5-5.5,5.5c0,3,2.5,5.5,5.5,5.5c2.8,0,5.1-2.1,5.5-4.8h6.2L92.9,97.5v7.4h-2.6l-6-6
						c1-1,1.7-2.4,1.7-3.9c0-3-2.5-5.5-5.5-5.5c-3,0-5.5,2.5-5.5,5.5c0,3,2.5,5.5,5.5,5.5c1,0,1.9-0.3,2.7-0.7l6.6,6.6h3.2v22.2
						h-5.6l-12.9-12.9c0.7-0.9,1.2-2.1,1.2-3.4c0-3-2.5-5.5-5.5-5.5c-3,0-5.5,2.5-5.5,5.5c0,3,2.5,5.5,5.5,5.5
						c1.3,0,2.4-0.4,3.4-1.2l13.3,13.3h6.2v9.3h6.6v21.7h-9.5V138h-9.8c-0.3-2.7-2.7-4.8-5.5-4.8c-3,0-5.5,2.5-5.5,5.5
						c0,3,2.5,5.5,5.5,5.5c2.8,0,5.1-2.1,5.5-4.8h8.4v21.5H73.2l-10.7-10.7c1-1,1.7-2.4,1.7-3.9c0-3-2.5-5.5-5.5-5.5
						c-3,0-5.5,2.5-5.5,5.5c0,3,2.5,5.5,5.5,5.5c1,0,1.9-0.3,2.7-0.7l11.2,11.2h16v9h10.8v2.9c-2.5,0.3-4.5,2.3-4.8,4.8h-23
						c-0.3-2.7-2.7-4.8-5.5-4.8c-3,0-5.5,2.5-5.5,5.5c0,3,2.5,5.5,5.5,5.5c2.8,0,5.1-2.1,5.5-4.8h23c0.3,2.5,2.3,4.4,4.8,4.8v4.9
						H116v-9.6h18.4c0.3,2.7,2.7,4.8,5.5,4.8c1,0,1.9-0.3,2.7-0.7l13.8,13.8v0.7h-13.9c-0.3-2.7-2.7-4.8-5.5-4.8
						c-3,0-5.5,2.5-5.5,5.5c0,2.7,2,5,4.7,5.4l-4.6,22.2c-2.8,0.3-4.9,2.6-4.9,5.5c0,3,2.5,5.5,5.5,5.5c3,0,5.5-2.5,5.5-5.5
						c0-2.8-2-5-4.7-5.4l4.5-22.2c2.5-0.3,4.6-2.3,4.9-4.8h13.9v33.8c-2.7,0.3-4.8,2.7-4.8,5.5c0,3,2.5,5.5,5.5,5.5
						c3,0,5.5-2.5,5.5-5.5c0-2.8-2.1-5.1-4.8-5.5v-33.8h0.7l19,19H190l-2.9,3.5v6.4c-2.7,0.3-4.8,2.7-4.8,5.5c0,3,2.5,5.5,5.5,5.5
						c3,0,5.5-2.5,5.5-5.5c0-2.8-2.1-5.1-4.8-5.5v-5.9l3.3-4h13v-8.6h6.6v-23.2h-6.6v-18.8l27.2,27.2v21.8c-2.8,0.2-5.1,2.6-5.1,5.5
						c0,3,2.5,5.5,5.5,5.5c3,0,5.5-2.5,5.5-5.5c0-2.7-2-5-4.6-5.4v-22.4l-28.5-28.5v-23.3h19v13.8l22,6.6v27.4l-14.9-14.9
						c1.3-1,2.2-2.6,2.2-4.4c0-3-2.5-5.5-5.5-5.5c-3,0-5.5,2.5-5.5,5.5c0,3,2.5,5.5,5.5,5.5c1.1,0,2.2-0.3,3.1-0.9l-0.7,0.7
						l15.9,15.9v8.6c-2.7,0.3-4.8,2.7-4.8,5.5c0,2.9,2.3,5.3,5.2,5.5l8,8l17.4-17.4H284v-13.5c2.5-0.3,4.5-2.3,4.8-4.8h6.9v12.6
						h-8.2v15.2c-2.7,0.3-4.8,2.7-4.8,5.5c0,3,2.5,5.5,5.5,5.5c3,0,5.5-2.5,5.5-5.5c0-2.8-2.1-5.1-4.8-5.5V199h8.2v-15.3h-8.3
						c-0.3-2.7-2.7-4.8-5.5-4.8c-3,0-5.5,2.5-5.5,5.5c0,2.8,2.1,5.1,4.8,5.5V202h-11.7l-16.8,16.8l-6.3-6.3c2.3-0.6,4-2.8,4-5.3
						c0-2.8-2.1-5.1-4.8-5.5v-8.1H264v-18.2c2.5-0.3,4.5-2.3,4.8-4.8H293l13.8,13.8v22.1c-2.7,0.3-4.8,2.7-4.8,5.5
						c0,3,2.5,5.5,5.5,5.5c3,0,5.5-2.5,5.5-5.5c0-2.8-2.1-5.1-4.8-5.5v-20.7l11.9,11.9c-0.7,0.9-1.2,2.1-1.2,3.4
						c0,3,2.5,5.5,5.5,5.5c3,0,5.5-2.5,5.5-5.5C330,198.1,327.6,195.7,324.5,195.7z M320.4,157.8c0-2.3,1.8-4.1,4.1-4.1
						c2.3,0,4.1,1.8,4.1,4.1c0,2.3-1.8,4.1-4.1,4.1C322.3,162,320.4,160.1,320.4,157.8z M312.4,121.6c2.3,0,4.1,1.8,4.1,4.1
						c0,2.3-1.8,4.1-4.1,4.1c-2.3,0-4.1-1.8-4.1-4.1C308.2,123.5,310.1,121.6,312.4,121.6z M294.1,126.5h12.8
						c0.3,2.5,2.3,4.5,4.8,4.8v19.4h-17.6V126.5z M294.1,102.6c0-2.3,1.8-4.1,4.1-4.1c2.3,0,4.1,1.8,4.1,4.1c0,2.3-1.8,4.1-4.1,4.1
						C295.9,106.8,294.1,104.9,294.1,102.6z M228.5,70.3c0-2.3,1.8-4.1,4.1-4.1c2.3,0,4.1,1.8,4.1,4.1c0,2.3-1.8,4.1-4.1,4.1
						C230.3,74.4,228.5,72.5,228.5,70.3z M231.3,93c0-2.3,1.8-4.1,4.1-4.1c2.3,0,4.1,1.8,4.1,4.1c0,2.3-1.8,4.1-4.1,4.1
						C233.1,97.1,231.3,95.3,231.3,93z M186.5,62.6c0-2.3,1.8-4.1,4.1-4.1c2.3,0,4.1,1.8,4.1,4.1c0,2.3-1.8,4.1-4.1,4.1
						C188.3,66.8,186.5,64.9,186.5,62.6z M95.4,86.9c-2.3,0-4.1-1.9-4.1-4.1c0-2.3,1.8-4.1,4.1-4.1c2.3,0,4.1,1.8,4.1,4.1
						C99.5,85,97.7,86.9,95.4,86.9z M80.4,99.1c-2.3,0-4.1-1.8-4.1-4.1c0-2.3,1.8-4.1,4.1-4.1c2.3,0,4.1,1.8,4.1,4.1
						C84.5,97.3,82.7,99.1,80.4,99.1z M70,116.4c-2.3,0-4.1-1.8-4.1-4.1c0-2.3,1.8-4.1,4.1-4.1c2.3,0,4.1,1.8,4.1,4.1
						C74.2,114.5,72.3,116.4,70,116.4z M74.9,142.8c-2.3,0-4.1-1.8-4.1-4.1c0-2.3,1.8-4.1,4.1-4.1c2.3,0,4.1,1.8,4.1,4.1
						C79,141,77.1,142.8,74.9,142.8z M58.7,150.5c-2.3,0-4.1-1.9-4.1-4.1c0-2.3,1.8-4.1,4.1-4.1c2.3,0,4.1,1.8,4.1,4.1
						C62.8,148.6,61,150.5,58.7,150.5z M66.4,183.7c-2.3,0-4.1-1.8-4.1-4.1c0-2.3,1.8-4.1,4.1-4.1c2.3,0,4.1,1.8,4.1,4.1
						C70.5,181.9,68.6,183.7,66.4,183.7z M136.4,232.7c0,2.3-1.8,4.1-4.1,4.1c-2.3,0-4.1-1.8-4.1-4.1c0-2.3,1.8-4.1,4.1-4.1
						C134.5,228.6,136.4,230.4,136.4,232.7z M137,203.7c-2.3,0-4.1-1.8-4.1-4.1c0-2.3,1.8-4.1,4.1-4.1c2.3,0,4.1,1.8,4.1,4.1
						C141.2,201.8,139.3,203.7,137,203.7z M191.9,234.7c0,2.3-1.9,4.1-4.1,4.1c-2.3,0-4.1-1.8-4.1-4.1c0-2.3,1.8-4.1,4.1-4.1
						C190.1,230.6,191.9,232.4,191.9,234.7z M236.4,223.1c0,2.3-1.9,4.1-4.1,4.1s-4.1-1.8-4.1-4.1c0-2.3,1.8-4.1,4.1-4.1
						S236.4,220.8,236.4,223.1z M227.5,176.1c-2.3,0-4.1-1.8-4.1-4.1c0-2.3,1.8-4.1,4.1-4.1s4.1,1.8,4.1,4.1
						C231.6,174.2,229.8,176.1,227.5,176.1z M292.2,218.3c0,2.3-1.8,4.1-4.1,4.1c-2.3,0-4.1-1.8-4.1-4.1c0-2.3,1.8-4.1,4.1-4.1
						C290.4,214.2,292.2,216,292.2,218.3z M279.2,184.4c0-2.3,1.8-4.1,4.1-4.1c2.3,0,4.1,1.8,4.1,4.1c0,2.3-1.8,4.1-4.1,4.1
						C281,188.5,279.2,186.7,279.2,184.4z M213.6,48.7c2.3,0,4.1,1.8,4.1,4.1c0,2.3-1.8,4.1-4.1,4.1c-2.3,0-4.1-1.8-4.1-4.1
						C209.5,50.6,211.4,48.7,213.6,48.7z M209.8,56.8c0.8,0.8,1.9,1.3,3.1,1.5V84h10.4v28.5l12.7,12.7h9.7v16.8h-20.6v-7.7h-20.4
						v-9.3h9.6v-9.4c2.7-0.3,4.8-2.7,4.8-5.5c0-3-2.5-5.5-5.5-5.5c-2.8,0-5,2-5.4,4.7l-10.6-1.8v-7.5l-8.8-8.8L209.8,56.8z
						 M213.6,114.4c-2.3,0-4.1-1.9-4.1-4.1c0-2.3,1.8-4.1,4.1-4.1c2.3,0,4.1,1.8,4.1,4.1C217.8,112.5,215.9,114.4,213.6,114.4z
						 M188.2,92.6l8.1,8.1v6.7l-3-0.5c-0.3-2.8-2.6-4.9-5.5-4.9c-3,0-5.5,2.5-5.5,5.5c0,2.8,2.1,5.1,4.8,5.5v14.8h-13.3L159,112.9
						h9.5v-12.4h14.9L188.2,92.6z M191.9,107.4c0,2.3-1.8,4.1-4.1,4.1c-2.3,0-4.1-1.8-4.1-4.1c0-2.3,1.9-4.1,4.1-4.1
						C190.1,103.3,191.9,105.2,191.9,107.4z M174,52.8c0-2.3,1.8-4.1,4.1-4.1c2.3,0,4.1,1.8,4.1,4.1c0,2-1.5,3.7-3.4,4.1v-1.3
						c1.2-0.3,2.1-1.4,2.1-2.7c0-1.6-1.3-2.8-2.8-2.8c-1.6,0-2.8,1.3-2.8,2.8c0,1.3,0.9,2.4,2.1,2.7v1.3
						C175.5,56.6,174,54.9,174,52.8z M158,77.5h19.4v4.4l9.7,9.7l-4.6,7.5h-15.5v12.4H158V77.5z M143.4,55.7c0-2.3,1.8-4.1,4.1-4.1
						c2.3,0,4.1,1.8,4.1,4.1c0,2.3-1.8,4.1-4.1,4.1C145.2,59.8,143.4,57.9,143.4,55.7z M148.2,76.1v-15c0.7-0.1,1.4-0.3,2-0.7
						l6.5,6.5v9.2H148.2z M148.1,126.5h12.8v6.6l-4.5-4.5h-8.3V126.5z M127.4,63.3c2.3,0,4.1,1.8,4.1,4.1c0,2.3-1.9,4.1-4.1,4.1
						c-2.3,0-4.1-1.8-4.1-4.1C123.3,65.2,125.2,63.3,127.4,63.3z M122.5,69.9c0.9,1.8,2.8,3,4.9,3c1,0,1.9-0.3,2.7-0.7l16.6,16.6
						v22.7h-9V96.1l-14-14h-13.4L122.5,69.9z M132.6,129.9h14.2v19.5l10.1,10.1h-15.8v-21.1L132.6,129.9z M115,117.8
						c1,0,1.9-0.3,2.7-0.7l11.5,11.5h-20.5v-15.6h0.8C109.9,115.7,112.2,117.8,115,117.8z M110.9,112.3c0-2.3,1.8-4.1,4.1-4.1
						c2.3,0,4.1,1.8,4.1,4.1c0,2.3-1.8,4.1-4.1,4.1C112.7,116.4,110.9,114.5,110.9,112.3z M118.8,116.2c0.9-0.8,1.5-2,1.6-3.2h15.9
						v13.5h10.4v2.1h-15.5L118.8,116.2z M137.7,125.1v-12.1h9v12.1H137.7z M94.3,106.4h6.6v-6.9h18.3c0.3,2.7,2.7,4.8,5.5,4.8
						c3,0,5.5-2.5,5.5-5.5c0-3-2.5-5.5-5.5-5.5c-2.8,0-5.1,2.1-5.5,4.8H99.5v6.9h-5.2v-6.9L109,83.4h14.2l13.2,13.2v14.9h-15.9
						c-0.3-2.7-2.7-4.8-5.5-4.8c-2.8,0-5.1,2.1-5.5,4.8h-2.2v17h-13V106.4z M120.5,98.8c0-2.3,1.8-4.1,4.1-4.1
						c2.3,0,4.1,1.8,4.1,4.1c0,2.3-1.8,4.1-4.1,4.1C122.3,102.9,120.5,101.1,120.5,98.8z M94.3,137.8v-7.9h13v6.9h14.6v4.1
						c-2.7,0.3-4.8,2.7-4.8,5.5c0,2.8,2.1,5.1,4.8,5.5v9.2h-21v-23.1H94.3z M122.6,142.2c2.3,0,4.1,1.8,4.1,4.1
						c0,2.3-1.8,4.1-4.1,4.1c-2.3,0-4.1-1.9-4.1-4.1C118.5,144.1,120.3,142.2,122.6,142.2z M90.1,169.9v-7.6h9.5v7.6H90.1z
						 M96.1,179.6c0-2.3,1.8-4.1,4.1-4.1c2.3,0,4.1,1.8,4.1,4.1c0,2.3-1.8,4.1-4.1,4.1C97.9,183.7,96.1,181.9,96.1,179.6z
						 M139.9,183.7c-2.3,0-4.1-1.8-4.1-4.1c0-2.3,1.8-4.1,4.1-4.1c2.3,0,4.1,1.8,4.1,4.1C144,181.9,142.1,183.7,139.9,183.7z
						 M143.7,183.5c1-1,1.7-2.4,1.7-3.9c0-3-2.5-5.5-5.5-5.5c-2.8,0-5.1,2.1-5.5,4.8h-19.8v9.6h-13.7V185c2.7-0.3,4.8-2.7,4.8-5.5
						c0-2.8-2.1-5.1-4.8-5.5v-2.9h23.4l3.4-3.4h28.7v28.3L143.7,183.5z M161.2,239.5c0,2.3-1.8,4.1-4.1,4.1c-2.3,0-4.1-1.9-4.1-4.1
						c0-2.3,1.8-4.1,4.1-4.1C159.3,235.4,161.2,237.2,161.2,239.5z M157.8,197.6v-31.1h-30.6l-3.4,3.4h-22.9v-7.6h22.4v-10.5
						c2.7-0.3,4.8-2.7,4.8-5.5c0-2.8-2.1-5.1-4.8-5.5v-5.5h-14.6v-5.5h21.9l9.1,9.1v22h18.6l4.8,4.8v9.4l20,17
						c-0.4,0.8-0.7,1.7-0.7,2.7c0,2.8,2.1,5.1,4.8,5.5v6.3h-13.4v-7.6h-14.6L157.8,197.6z M183.7,194.8c0-2.3,1.9-4.1,4.1-4.1
						c2.3,0,4.1,1.8,4.1,4.1c0,2.3-1.8,4.1-4.1,4.1C185.5,198.9,183.7,197,183.7,194.8z M203.3,217.9h-10.5l5.9-7.2h4.6V217.9z
						 M203.3,187.5h-3.6v-13.4h-6.5c-0.3-2.7-2.7-4.8-5.5-4.8c-3,0-5.5,2.5-5.5,5.5c0,3,2.5,5.5,5.5,5.5c2.8,0,5.1-2.1,5.5-4.8h5.2
						v13.4h4.9v20.4h-5.3l-7,8.6h-13l-17.7-17.7h11.9v7.6h16.2v-7.7c2.7-0.3,4.8-2.7,4.8-5.5c0-3-2.5-5.5-5.5-5.5
						c-1.6,0-3,0.7-4,1.7l-19.4-16.5v-9.3l-4.2-4.2H197l6.3,6.3V187.5z M191.9,174.8c0,2.3-1.9,4.1-4.1,4.1c-2.3,0-4.1-1.8-4.1-4.1
						c0-2.3,1.8-4.1,4.1-4.1C190.1,170.6,191.9,172.5,191.9,174.8z M203.3,165.3l-5.8-5.8h-38.8l-10.7-10.7v-18.9h7.7l5.1,5.1v16.8
						h21.4c0.3,2.7,2.7,4.8,5.5,4.8c3,0,5.5-2.5,5.5-5.5c0-3-2.5-5.5-5.5-5.5c-2.8,0-5.1,2.1-5.5,4.8h-20.1v-14l7,7h34V165.3z
						 M183.7,151.1c0-2.3,1.9-4.1,4.1-4.1c2.3,0,4.1,1.8,4.1,4.1c0,2.3-1.8,4.1-4.1,4.1C185.5,155.3,183.7,153.4,183.7,151.1z
						 M203.3,142.1h-33.5l-7.6-7.6v-9.4h-14.2v-12.1h9l16.2,16.2h15.2v-16.2c2.4-0.3,4.4-2.2,4.7-4.6l3.1,0.5v27h7.1V142.1z
						 M209.9,188.9v20.4h-5.2v-20.4H209.9z M203.3,123.7v10.7h-5.7V109l10.5,1.8c0.3,2.5,2.3,4.5,4.8,4.9v8H203.3z M223.7,142.1h-19
						v-6.3h19V142.1z M225.1,156.2v-12.7h20.6v18.9L225.1,156.2z M250.5,207.2c0,2.3-1.9,4.1-4.1,4.1c-2.3,0-4.1-1.8-4.1-4.1
						c0-2.3,1.8-4.1,4.1-4.1C248.7,203.1,250.5,204.9,250.5,207.2z M279.2,126.9c0-2.3,1.8-4.1,4.1-4.1c2.3,0,4.1,1.8,4.1,4.1
						c0,2.3-1.8,4.1-4.1,4.1C281,131,279.2,129.2,279.2,126.9z M264,85.7h7.6v28.6H264v-6.3c2.7-0.3,4.8-2.7,4.8-5.5
						c0-2.8-2.1-5.1-4.8-5.5V85.7z M245.1,62.6c0-2.3,1.8-4.1,4.1-4.1c2.3,0,4.1,1.8,4.1,4.1c0,2.3-1.8,4.1-4.1,4.1
						C247,66.8,245.1,64.9,245.1,62.6z M249.9,84.4v-5.5h12.7v5.5H249.9z M263.3,98.5c2.3,0,4.1,1.8,4.1,4.1c0,2.3-1.8,4.1-4.1,4.1
						c-2.3,0-4.1-1.8-4.1-4.1C259.2,100.4,261,98.5,263.3,98.5z M247.1,103.3h10.8c0.3,2.5,2.3,4.4,4.8,4.8v6.3h-15.5V103.3z
						 M247.1,115.8h15.5v8.1h-15.5V115.8z M247.1,125.2H264v-9.5h7.6v19.6l10.9,10.9v3.1h-8.8l-7.4-7.4h-19.3V125.2z M247.1,143.5
						h18.7l6,6h-9.2v15.1c-1.4,0.2-2.6,0.9-3.5,1.9l-12-3.6V143.5z M262.6,192.3h-15.5v-28l11.2,3.4c-0.3,0.7-0.5,1.5-0.5,2.3
						c0,2.8,2.1,5.1,4.8,5.5V192.3z M263.3,174.1c-2.3,0-4.1-1.8-4.1-4.1c0-2.3,1.8-4.1,4.1-4.1c2.3,0,4.1,1.8,4.1,4.1
						C267.4,172.2,265.6,174.1,263.3,174.1z M268.8,169.3c-0.3-2.5-2.3-4.4-4.8-4.8v-13.7h9.2l18.5,18.5H268.8z M275.2,150.8h8.8
						v-3.1l4.3,4.3h4.4v11.4h14.2v5.9h-13.2L275.2,150.8z M295,170.6h11.9v11.9L295,170.6z M311.7,212c0,2.3-1.8,4.1-4.1,4.1
						c-2.3,0-4.1-1.8-4.1-4.1c0-2.3,1.8-4.1,4.1-4.1C309.8,207.9,311.7,209.7,311.7,212z M324.5,205.3c-2.3,0-4.1-1.8-4.1-4.1
						c0-2.3,1.8-4.1,4.1-4.1c2.3,0,4.1,1.9,4.1,4.1C328.7,203.4,326.8,205.3,324.5,205.3z"/>
					<circle class="st6" cx="324.5" cy="201.2" r="2.8"/>
					<circle class="st6" cx="115" cy="112.3" r="2.8"/>
					<circle class="st6" cx="124.6" cy="98.8" r="2.8"/>
					<circle class="st6" cx="80.4" cy="95" r="2.8"/>
					<circle class="st6" cx="95.4" cy="82.8" r="2.8"/>
					<circle class="st6" cx="298.2" cy="102.6" r="2.8"/>
					<circle class="st6" cx="235.4" cy="93" r="2.8"/>
					<circle class="st6" cx="187.8" cy="151.1" r="2.8"/>
					<circle class="st6" cx="288.1" cy="218.3" r="2.8"/>
					<circle class="st6" cx="187.8" cy="234.7" r="2.8"/>
					<circle class="st6" cx="187.8" cy="174.8" r="2.8"/>
					<circle class="st6" cx="139.9" cy="179.6" r="2.8"/>
					<circle class="st6" cx="213.6" cy="110.3" r="2.8"/>
					<circle class="st6" cx="232.6" cy="70.3" r="2.8"/>
					<circle class="st6" cx="213.6" cy="52.8" r="2.8"/>
					<circle class="st6" cx="132.2" cy="232.7" r="2.8"/>
					<circle class="st6" cx="157.1" cy="239.5" r="2.8"/>
					<circle class="st6" cx="74.9" cy="138.7" r="2.8"/>
					<circle class="st6" cx="232.3" cy="223.1" r="2.8"/>
					<circle class="st6" cx="312.4" cy="125.8" r="2.8"/>
					<circle class="st6" cx="127.4" cy="67.5" r="2.8"/>
					<circle class="st6" cx="100.2" cy="179.6" r="2.8"/>
					<circle class="st6" cx="137" cy="199.6" r="2.8"/>
					<circle class="st6" cx="58.7" cy="146.3" r="2.8"/>
					<circle class="st6" cx="249.2" cy="62.6" r="2.8"/>
				</g>
			</g>
		</g>
		<g>
			<g>
				<g>
					<path class="st3" d="M322.9,115.3c2-0.4,3.3-2.3,3-4.4C316.3,46.8,262.5,0,183.2,0C91.2,0,49.6,51.1,34.6,118.4
						c-0.8,3.4-0.8,6.9,0,10.3l4.1,18.4c1.6,7.2,0.3,14.7-3.6,20.9c-6.6,10.4-17.4,26.2-26.6,33.6c-14.3,11.7-6.7,23.6-4.7,25.3
						c1.3,1.1,10.1,2.7,15.7,3.6c2.5,0.4,4,3,3,5.3c-1.7,4.3-4.6,10.5-8.8,14.6c-0.9,0.8-1.4,2-1.6,3.2c-0.4,3-0.5,8.6,3,10.9
						c0,0-2.1,10.3,1.6,16.2c0.4,0.7,1,1.2,1.6,1.6c1.7,1,5.5,3.3,8,5.5c1.4,1.3,2,3.3,1.4,5.1c-1.4,4.4-4,14.5-0.3,23.1
						c0.7,1.5,2.4,2.3,4,1.7c12.4-4.7,66.2-25,93.8-35.4c10.4-3.9,18.5-12.4,21.9-23l16.4-50.4c1.2-3.8-0.3-7.9-3.6-10.1
						c-13-8.5-43.2-34.2-42.2-88.9c1.3-69.6,45.3-81.9,82.9-83.9c37-2,99.4,21.2,111,87.7c0.3,1.9,2.2,3.2,4.1,2.8L322.9,115.3z"/>
					<g>
						<path class="st3" d="M281.3,192.3c9.4,8.9,18.5,14.3,22.5,16.5c1.2,0.6,2.7,0.2,3.4-0.9c3.3-5.6,7.3-14.8,7.3-14.8
							c9.2-21.3,10.5-42.6,10.5-42.6l-23.4-1.3C301.5,149.2,297.7,173.5,281.3,192.3z"/>
						<g>
							<g>
								<line class="st7" x1="265.7" y1="21" x2="253.3" y2="37.5"/>
								<path class="st7" d="M140.2,47.4c0,0-30.7-7.7-54.6-18.1"/>
							</g>
							<g>
								<circle class="st8" cx="108.1" cy="55.1" r="3.8"/>
							</g>
							<g>
								<g>
									<circle class="st8" cx="269.2" cy="34.5" r="0.9"/>
									<circle class="st8" cx="249" cy="24.1" r="0.9"/>
								</g>
								<circle class="st8" cx="135.7" cy="37" r="0.9"/>
							</g>
						</g>
						<g>
							<g>
								<path class="st8" d="M50.7,157.7c0,0,8.8,2.6,15.3,9.4c0,0-5.9,5.7-15.3,6.8C50.7,173.9,47.6,167.4,50.7,157.7z"/>
								<path class="st9" d="M50.7,173.9c-4.2-7.3,0-16.2,0-16.2l2.8,0.9v14.9L50.7,173.9z"/>
							</g>
							<g>
								<path class="st9" d="M32.3,266.7c-1.4,0.4-2.9,0.6-4.3,0.7c-1.5,0.1-2.9,0.2-4.4,0.2c-1.5,0-2.9-0.1-4.4-0.4
									c-1.4-0.2-2.9-0.6-4.2-1.4c1.5,0.2,2.9,0.2,4.3,0.2l4.3,0.1c1.4,0,2.9,0.1,4.3,0.2C29.3,266.3,30.8,266.5,32.3,266.7z"/>
							</g>
							<g>
								<path class="st9" d="M35.6,125.7c4.5,0.5,9,1.2,13.5,2.1c4.5,0.8,8.9,1.8,13.4,3c2.2,0.6,4.4,1.3,6.6,2.1
									c1.1,0.5,2.2,0.9,3.2,1.7c0.9,0.8,1.8,1.6,2.5,2.5c3.1,3.5,5.5,7.4,7.7,11.4c-1.3-1.8-2.7-3.7-4.1-5.5
									c-1.4-1.8-2.9-3.5-4.4-5.1c-0.8-0.8-1.6-1.6-2.5-2.2c-0.8-0.6-1.9-1-2.9-1.4c-2.1-0.8-4.3-1.4-6.5-2
									c-4.4-1.2-8.8-2.3-13.2-3.3C44.5,127.9,40.1,126.9,35.6,125.7z"/>
							</g>
							<g>
								<path class="st9" d="M28.2,232.6c1.4-0.8,2.7-1.6,3.8-2.6c1.1-1,2-2.1,2.5-3.5c0.1-0.2,0.2-0.3,0.2-0.5l0.1-0.5
									c0.1-0.3,0.2-0.7,0.2-1c0-0.4,0.1-0.7,0.1-1.1c0-0.4,0-0.7,0-1.1c0-0.4,0-0.7-0.1-1.1l-0.2-1.1c-0.2-0.7-0.4-1.5-0.5-2.3
									c0.4,0.7,0.8,1.3,1.2,2.1l0.4,1.1c0.1,0.4,0.3,0.8,0.3,1.2c0.4,1.6,0.2,3.4-0.5,4.9c-0.7,1.6-1.8,2.9-3.2,3.8
									C31.4,231.8,29.8,232.5,28.2,232.6z"/>
							</g>
							<g>
								<path class="st9" d="M46.7,157c1.8,0.1,3.7,0.3,5.5,0.8c1.8,0.5,3.6,1.2,5.3,2c1.7,0.8,3.3,1.8,4.8,2.9
									c1.5,1.1,3,2.3,4.4,3.7l0.7,0.8l-0.8,0.7c-1.4,1.2-2.8,2.1-4.3,3c-1.5,0.8-3.1,1.6-4.7,2.1c-3.3,1.2-6.7,1.7-10.1,1.6
									c1.7-0.4,3.3-0.7,4.9-1.2c1.6-0.5,3.1-1.1,4.6-1.8c1.5-0.7,3-1.5,4.4-2.3c1.4-0.9,2.8-1.8,3.9-2.8l0,1.4
									c-1.2-1.2-2.6-2.4-4.1-3.5c-1.4-1.1-2.9-2.1-4.5-3c-1.5-0.9-3.2-1.8-4.8-2.5C50.3,158,48.5,157.5,46.7,157z"/>
							</g>
							<g>
								<path class="st9" d="M21.4,229c-1.4-0.5-2.7-1.1-4.1-1.5c-1.4-0.4-2.7-0.8-4.1-1.1c-1.4-0.3-2.8-0.5-4.2-0.7
									c-1.4-0.2-2.9-0.3-4.3-0.4c1.4-0.5,2.9-0.8,4.4-0.8c1.5-0.1,3,0.1,4.5,0.4c1.5,0.3,2.9,0.8,4.2,1.5
									C19.1,227.1,20.3,228,21.4,229z"/>
							</g>
							<g>
								<path class="st9" d="M69.3,161.1c0.2,0,0.2,0.4,0.1,0.5c-0.1,0.2-0.4,0.2-0.7,0.2c-0.4-0.2-0.7-0.4-1-0.6
									c-0.6-0.5-1.3-0.9-2-1.3c-1.3-0.8-2.7-1.6-4-2.4c-2.8-1.5-5.7-2.6-8.7-3.6c3.2,0.3,6.3,1.3,9.1,2.7c1.4,0.7,2.8,1.6,4,2.6
									c0.6,0.5,1.2,1,1.8,1.6c0.3,0.3,0.6,0.6,0.8,0.8c0.1,0.1,0.3,0.1,0.4,0C69.4,161.5,69.5,161.2,69.3,161.1z"/>
							</g>
						</g>
						<g>
							<g>
								<path class="st10" d="M183.9,7.7c2.7,1,5.2,3.3,5.5,6.2c0.3,2.2-1,4.5-2.8,5.9c-1.8,1.4-4,2.1-6.2,2.6
									c-15.3,3.7-31.5,0.6-47.1,2.8c-6.1,0.9-12,2.6-18,4.1c-2,0.5-4.2,1.1-6.2,0.7c-2.1-0.3-4.1-1.7-4.6-3.8
									c-0.5-2.5,1.5-4.9,3.6-6.4c3-2.2,6.5-3.7,10-5.1c11.3-4.5,23-8.9,35.1-10.1C162.3,3.7,173.8,4,183.9,7.7z"/>
								<path class="st10" d="M82.9,43.4C69.7,58.5,61.6,77.8,59.9,97.8c-0.4,4.4-0.4,8.8-1.8,13c-1.4,4.1-4.4,8.1-8.6,9.2
									c-1.8,0.5-3.7,0.4-5.6,0.3c-1.4-0.1-2.9-0.3-3.7-1.4c-0.9-1.2-0.5-3-0.1-4.4c7.9-27.1,17-55.2,37.2-74.9
									C82.8,34.2,88.5,36.9,82.9,43.4z"/>
								<path class="st11" d="M9.8,209.3c-1.3,0.9-2.7,2.4-2.2,3.9c0.4,1.1,1.8,1.6,2.9,1.2c1.1-0.4,1.8-1.5,2-2.6
									c0.1-0.9-0.1-1.8-0.7-2.4c-0.6-0.6-1.7-0.7-2.3-0.2"/>
								<path class="st10" d="M20,196.8c-0.4,0.7-0.9,1.4-1,2.3c-0.3,1.7,0.8,3.3,2.3,4.2c1.5,0.9,3.2,1.1,4.9,1.4
									c1.1,0.2,2.4,0.3,3.2-0.5c0.4-0.4,0.6-0.8,0.8-1.3c1.1-2.9,7.1-21.4,3.8-22.7C30.2,178.7,21.7,194.1,20,196.8z"/>
								<path class="st10" d="M112.2,128.5c0,0.6,0.1,1.3-0.2,1.9c-0.4,0.8-1.2,1.3-2,1.6c-4.5,1.7-10.1-0.6-12.2-5
									c-0.8-1.8-1.1-3.8-1.3-5.8c-0.2-2.4-0.3-4.8,0.6-7c0.7-1.7,2-3,3.4-4.2c1.8-1.6,3.7-3,5.7-4.3c5.1-3.2,6.5,0.6,6.2,4.9
									C112.1,116.5,111.8,122.4,112.2,128.5z"/>
								<path class="st10" d="M58.3,186.2c-2.5,2.5-3.8,5.9-5,9.2c-2.4,6.9-4.4,14-5.9,21.2c-0.3,1.4-0.4,3.1,0.8,3.8
									c0.5,0.3,1.2,0.4,1.9,0.4c5.3-0.1,10.5-0.8,15.6-2.2c2.7-0.7,5.7-2.1,6.3-4.8c0.3-1.5-0.2-3-0.6-4.5
									c-2.2-7.2-2.6-14.4-2.1-21.8C69.9,178,63.2,181.3,58.3,186.2z"/>
								<path class="st11" d="M32.3,305.1c0,1.6,0,3.2,0,4.8c0,0.3,0,0.6-0.2,0.9c-0.3,0.4-0.9,0.4-1.4,0.2
									c-0.4-0.3-0.7-0.7-0.9-1.2c-0.7-1.6-0.8-3.5-0.4-5.2c0.2-0.9,0.6-1.8,1.5-2.1c0.8-0.3,1.9,0.7,1.4,1.4"/>
								<g>
									<path class="st11" d="M20.4,272.1c-0.4,1.1,0.1,2.4,0.4,3.5c0.3,1.2,0.1,2.7-1,3.1c-0.9,0.3-1.8-0.3-2.2-1.1
										c-0.4-0.8-0.4-1.7-0.4-2.6c0-0.8,0-1.7,0.5-2.4c0.5-0.7,1.6-1,2.1-0.4"/>
									<path class="st11" d="M17.3,253.7c-0.1,1.4-0.2,2.7-0.3,4.1c0,0.5-0.1,1-0.6,1.2c-0.6,0.3-1.1-0.4-1.4-1
										c-0.5-1.4-0.6-2.9-0.1-4.3c0.2-0.5,0.5-1.1,1-1.3c0.5-0.2,1.2,0.4,1,0.9"/>
								</g>
							</g>
							<path class="st10" d="M316.7,173c-0.9,2.8-1.9,5.7-3.7,8c-0.4,0.4-0.8,0.9-1.3,1c-0.8,0.2-1.6-0.3-2-1
								c-0.4-0.7-0.5-1.5-0.5-2.3c0-2.9,1.3-5.7,2.3-8.5c1.3-3.8,2.2-7.7,2.6-11.7c0.1-1.4,0.3-2.9,1.1-3.9c3.1-3.7,5.7,0.8,5.4,3.6
								C320.2,163.1,318.2,168.3,316.7,173z"/>
							<path class="st11" d="M312.1,73.6c-1.1-2.6-2.4-5.2-4.5-7.1c-0.3-0.3-0.6-0.5-1-0.5c-1.1,0-1.1,1.6-0.8,2.6
								c2.2,5.9,5.3,11.4,7,17.4c1.5,5.4,1.5,10.8,2.1,16.3c0.2,2.4-0.1,4,3,3.5c1.7-0.3,2.7-1.3,3.1-2.9c1-3.9-2.3-10.9-3.5-14.6
								C316,83.2,314.2,78.3,312.1,73.6z"/>
						</g>
					</g>
				</g>
			</g>
		</g>
		<g>
			<g>
				<path class="st4" d="M143.3,169.6c9.9,23.7,32.9,40.6,59.9,41.7c1.6,0.1,2.9,1.4,2.9,3v2c0,1.7,1.4,3.1,3.2,3
					c2.2-0.1,4.5-0.3,6.7-0.6c1.2-0.2,2.1-1,2.5-2.1l1.5-5.1c0.3-1,1.2-1.8,2.2-2.1c16.8-4.1,31.2-14.4,40.6-28.3
					c0.6-0.8,1.5-1.4,2.5-1.4l5.9,0c1.1,0,2.2-0.6,2.7-1.6c1.1-2.1,2-4.2,2.9-6.3c0.6-1.5,0-3.2-1.5-3.9l-2.4-1.2
					c-1.3-0.6-2-2.1-1.6-3.6c1.9-6.3,3-13,3-19.9c0-6.8-1-13.3-2.8-19.4c-0.4-1.3,0.1-2.8,1.4-3.5l2.8-1.6c1.3-0.8,1.9-2.4,1.3-3.8
					c-10.8-26.9-36.5-46.2-66.8-47.7c-1.2-0.1-2.3,0.6-2.8,1.6l-2.5,4.9c-0.5,0.9-1.5,1.5-2.5,1.6c-34.2,2-61.6,29.3-63.8,63.5
					c-0.1,1-0.6,2-1.5,2.5l-5.3,3c-1,0.5-1.6,1.6-1.5,2.7c0.1,3.7,0.6,12.4,3.3,19.8c0.5,1.5,2.2,2.3,3.7,1.8l2.8-0.8
					C141.2,167.4,142.7,168.1,143.3,169.6z"/>
				<g>
					<circle class="st1" cx="206.1" cy="143.3" r="51.2"/>
					<circle class="st4" cx="206.1" cy="143.3" r="42.4"/>
					<circle class="st12" cx="206.1" cy="143.3" r="53.9"/>
					<circle class="st4" cx="206.1" cy="143.3" r="38.1"/>
					<circle class="st1" cx="206.1" cy="143.3" r="27.4"/>
					<circle class="st4" cx="206.1" cy="143.3" r="21.7"/>
					<circle class="st8" cx="206.1" cy="143.3" r="11.7"/>
					<circle class="st4" cx="206.1" cy="143.3" r="4.4"/>
					<g>
						<circle class="st13" cx="206.1" cy="143.3" r="33.5"/>
					</g>
				</g>
			</g>
		</g>
	</g>
</g>
</svg>
