<svg xmlns="http://www.w3.org/2000/svg" width="48.295" height="65.021" viewBox="0 0 48.295 65.021">
    <defs>
        <style>
            .cls-1{fill:#d3eee7}
        </style>
    </defs>
    <g id="medal" transform="translate(-62.919)">
        <g id="Group_1729" data-name="Group 1729" transform="translate(62.919)">
            <path id="Path_1793" d="M111.053 29.35L107.877 25a.819.819 0 0 1-.013-.944l3.11-4.386a.815.815 0 0 0-.279-1.183l-4.745-2.539a.794.794 0 0 1-.412-.851l.891-5.3a.81.81 0 0 0-.771-.944l-5.37-.226a.81.81 0 0 1-.744-.585l-1.49-5.182a.81.81 0 0 0-1.1-.518l-4.948 2.126a.841.841 0 0 1-.93-.2l-3.589-4a.819.819 0 0 0-1.223.013l-3.535 4.054a.8.8 0 0 1-.917.213L76.84 2.5a.812.812 0 0 0-1.09.532l-1.422 5.184a.824.824 0 0 1-.731.6l-5.37.306a.818.818 0 0 0-.758.957l.97 5.29a.8.8 0 0 1-.4.851l-4.705 2.605a.816.816 0 0 0-.266 1.183l3.177 4.346a.819.819 0 0 1 .013.944l-3.11 4.386a.815.815 0 0 0 .279 1.183l4.747 2.533a.794.794 0 0 1 .412.851l-.891 5.3a.81.81 0 0 0 .771.944l5.37.226a.81.81 0 0 1 .744.585l1.5 5.17a.81.81 0 0 0 1.1.518l4.945-2.127a.841.841 0 0 1 .93.2l3.589 4a.819.819 0 0 0 1.223-.013L91.403 45a.8.8 0 0 1 .917-.213l4.98 2.055a.812.812 0 0 0 1.09-.532l1.422-5.184a.824.824 0 0 1 .731-.6l5.37-.306a.818.818 0 0 0 .758-.957l-.97-5.29a.8.8 0 0 1 .4-.851l4.699-2.602a.783.783 0 0 0 .253-1.17zm-23.978 9.929a14.594 14.594 0 1 1 14.594-14.594 14.618 14.618 0 0 1-14.594 14.594z" class="cls-1" data-name="Path 1793" transform="translate(-62.919)"/>
            <path id="Path_1794" d="M274.708 366.513a4.209 4.209 0 0 1-3 1.249 4.58 4.58 0 0 1-1.21-.173l-3.429-1.037-2.645 2.419c-.093.08-.173.16-.266.226l4.253 13.185a.6.6 0 0 0 1.05.186l3.1-3.974a.6.6 0 0 1 .638-.213l4.825 1.409a.6.6 0 0 0 .744-.758z" class="cls-1" data-name="Path 1794" transform="translate(-237.407 -317.797)"/>
            <path id="Path_1795" d="M126.86 366.553l-3.429 1.037a4.163 4.163 0 0 1-1.21.173 4.231 4.231 0 0 1-3-1.25l-4.054 12.534a.6.6 0 0 0 .744.758l4.825-1.409a.588.588 0 0 1 .638.213l3.1 3.974a.6.6 0 0 0 1.05-.186l4.253-13.185a2.181 2.181 0 0 1-.266-.226z" class="cls-1" data-name="Path 1795" transform="translate(-108.194 -317.797)"/>
            <path id="Path_1796" d="M189.946 117.833l-5.5-.4-2.073-5.1a1.156 1.156 0 0 0-2.14 0l-2.073 5.1-5.5.4a1.156 1.156 0 0 0-.665 2.034l4.214 3.562-1.316 5.357a1.155 1.155 0 0 0 1.728 1.263l4.679-2.911 4.679 2.911a1.155 1.155 0 0 0 1.728-1.263l-1.316-5.357 4.213-3.562a1.15 1.15 0 0 0-.658-2.034z" class="cls-1" data-name="Path 1796" transform="translate(-157.138 -96.778)"/>
        </g>
    </g>
</svg>
