<svg xmlns="http://www.w3.org/2000/svg" width="120" height="120" viewBox="0 0 120 120">
  <g id="Plan-icon4" transform="translate(-1042 -1830)">
    <circle id="Ellipse_32" data-name="Ellipse 32" cx="60" cy="60" r="60" transform="translate(1042 1830)" fill="#000a1c"/>
    <g id="Group_1910" data-name="Group 1910" transform="translate(1055.246 1734.165)">
      <g id="Group_1909" data-name="Group 1909" transform="translate(19.754 122.835)">
        <g id="Group_1900" data-name="Group 1900" transform="translate(0.991 56.863)">
          <path id="Path_4712" data-name="Path 4712" d="M41.407,200.574H24.084l4.483-4.194H43.059l.18-.457H27.328l-6.3,5.392H41.115Z" transform="translate(-21.027 -195.923)" fill="#edf5d0"/>
          <path id="Path_4713" data-name="Path 4713" d="M74.816,196.754h-14l1.467,3.722h16.36Zm-4.971,2.207a3.184,3.184,0,0,1-2.117-.529c-.163-.281.478-.5,1.427-.5a3.406,3.406,0,0,1,2.1.5C71.473,198.721,70.845,198.961,69.845,198.961Z" transform="translate(-29.861 -196.108)" fill="#edf5d0"/>
          <path id="Path_4714" data-name="Path 4714" d="M26.457,200.476H42.723l1.467-3.722h-13.9Zm11.314-.942H32.185l.2-.253h5.518Zm1.011-.477H31.808l.2-.241H38.9Zm-4-1.357a2.724,2.724,0,0,1,1.679-.4c.765,0,1.281.177,1.15.4a2.571,2.571,0,0,1-1.691.416C35.122,198.116,34.614,197.927,34.782,197.7Zm-3.311.653h8.584l-.1.229H31.267Z" transform="translate(-22.233 -196.108)" fill="#edf5d0"/>
          <path id="Path_4715" data-name="Path 4715" d="M75.258,196.38l4.483,4.194H62.324l.292.741H82.8l-6.3-5.392h-16l.18.457Z" transform="translate(-29.788 -195.923)" fill="#edf5d0"/>
          <path id="Path_4716" data-name="Path 4716" d="M75.309,196.51H60.723l.075.189h14l3.829,3.722H62.264l.111.283H79.792Z" transform="translate(-29.84 -196.054)" fill="#9da88f"/>
          <path id="Path_4717" data-name="Path 4717" d="M26.124,200.422l3.829-3.722h13.9l.075-.189H29.44L24.956,200.7H42.279l.111-.283Z" transform="translate(-21.899 -196.054)" fill="#9da88f"/>
          <path id="Path_4718" data-name="Path 4718" d="M71.119,198.266c-.948,0-1.589.221-1.427.5a3.184,3.184,0,0,0,2.117.529c1,0,1.628-.24,1.409-.529A3.406,3.406,0,0,0,71.119,198.266Z" transform="translate(-31.825 -196.443)" fill="#9da88f"/>
          <path id="Path_4719" data-name="Path 4719" d="M38.286,198.273a2.571,2.571,0,0,0,1.691-.416c.131-.222-.385-.4-1.15-.4a2.724,2.724,0,0,0-1.679.4C36.98,198.084,37.488,198.273,38.286,198.273Z" transform="translate(-24.599 -196.264)" fill="#9da88f"/>
          <path id="Path_4720" data-name="Path 4720" d="M41.428,198.809H32.843l-.2.23h8.686Z" transform="translate(-23.605 -196.564)" fill="#9da88f"/>
          <path id="Path_4721" data-name="Path 4721" d="M33.335,199.645h6.974l.119-.241H33.536Z" transform="translate(-23.759 -196.696)" fill="#9da88f"/>
          <path id="Path_4722" data-name="Path 4722" d="M33.82,200.255h5.586L39.54,200H34.022Z" transform="translate(-23.867 -196.829)" fill="#9da88f"/>
          <rect id="Rectangle_658" data-name="Rectangle 658" width="20.088" height="4.319" transform="translate(0 5.392)" fill="#9da88f"/>
          <rect id="Rectangle_659" data-name="Rectangle 659" width="20.182" height="4.319" transform="translate(32.828 5.392)" fill="#9da88f"/>
          <path id="Path_4723" data-name="Path 4723" d="M61.726,201.315h.748l-.292-.741-.111-.283L60.6,196.569l-.075-.189-.18-.457h-.5Z" transform="translate(-29.646 -195.923)" fill="#ededed"/>
          <path id="Path_4724" data-name="Path 4724" d="M49.058,201.315h9.3l-1.55-5.392h-6.2Z" transform="translate(-27.25 -195.923)" fill="#ededed"/>
          <path id="Path_4725" data-name="Path 4725" d="M48.716,196.569l-1.466,3.722-.111.283-.292.741h.748l1.875-5.392h-.5l-.18.457Z" transform="translate(-26.759 -195.923)" fill="#ededed"/>
          <path id="Path_4726" data-name="Path 4726" d="M47.808,201.315h.973l1.55-5.392h-.648Z" transform="translate(-26.972 -195.923)" fill="#f5b026"/>
          <path id="Path_4727" data-name="Path 4727" d="M60.569,201.315h.973l-1.875-5.392h-.648Z" transform="translate(-29.461 -195.923)" fill="#f5b026"/>
          <rect id="Rectangle_660" data-name="Rectangle 660" width="0.748" height="4.319" transform="translate(20.088 5.392)" fill="#cfcfcf"/>
          <rect id="Rectangle_661" data-name="Rectangle 661" width="0.748" height="4.319" transform="translate(32.08 5.392)" fill="#cfcfcf"/>
          <rect id="Rectangle_662" data-name="Rectangle 662" width="9.3" height="4.319" transform="translate(21.808 5.392)" fill="#cfcfcf"/>
          <rect id="Rectangle_663" data-name="Rectangle 663" width="0.973" height="4.319" transform="translate(20.835 5.392)" fill="#da8108"/>
          <rect id="Rectangle_664" data-name="Rectangle 664" width="0.973" height="4.319" transform="translate(31.108 5.392)" fill="#da8108"/>
        </g>
        <g id="Group_1901" data-name="Group 1901" transform="translate(0 51.151)">
          <path id="Path_4728" data-name="Path 4728" d="M40.1,194.308l-17.314.561,4.345-4.337,14.484-.469.165-.462-15.9.515-6.123,5.593,20.077-.65Z" transform="translate(-19.754 -188.808)" fill="#edf5d0"/>
          <path id="Path_4729" data-name="Path 4729" d="M73.317,189.484l-13.989.454,1.586,3.672,16.352-.53Zm-4.9,2.367a3.182,3.182,0,0,1-2.133-.461c-.172-.275.461-.517,1.41-.548a3.414,3.414,0,0,1,2.115.433C70.04,191.558,69.419,191.819,68.421,191.851Z" transform="translate(-28.539 -188.782)" fill="#edf5d0"/>
          <path id="Path_4730" data-name="Path 4730" d="M25.139,194.736l16.258-.527,1.344-3.768-13.9.45Zm11.278-1.309-5.584.181.194-.259,5.515-.178Zm.994-.509-6.97.226.194-.247,6.887-.223Zm-4.042-1.226a2.722,2.722,0,0,1,1.665-.453c.764-.025,1.286.135,1.162.361a2.57,2.57,0,0,1-1.677.47C33.722,192.1,33.208,191.925,33.369,191.692Zm-3.289.759,8.58-.279-.095.233-8.681.281Z" transform="translate(-20.949 -188.994)" fill="#edf5d0"/>
          <path id="Path_4731" data-name="Path 4731" d="M73.747,189.078l4.617,4.047-17.407.564.316.731,20.171-.653-6.473-5.185-16,.518.195.451Z" transform="translate(-28.461 -188.581)" fill="#edf5d0"/>
          <path id="Path_4732" data-name="Path 4732" d="M73.8,189.219l-14.578.472.081.187,13.99-.453,3.948,3.6-16.352.53.121.279,17.407-.564Z" transform="translate(-28.516 -188.723)" fill="#9da88f"/>
          <path id="Path_4733" data-name="Path 4733" d="M24.808,194.681l3.707-3.844,13.9-.45.068-.192L28,190.664,23.65,195l17.314-.561.1-.286Z" transform="translate(-20.619 -188.94)" fill="#9da88f"/>
          <path id="Path_4734" data-name="Path 4734" d="M69.675,191.23c-.948.03-1.582.273-1.41.548a3.182,3.182,0,0,0,2.133.461c1-.033,1.619-.293,1.391-.575A3.414,3.414,0,0,0,69.675,191.23Z" transform="translate(-30.517 -189.169)" fill="#9da88f"/>
          <path id="Path_4735" data-name="Path 4735" d="M36.86,192.3a2.57,2.57,0,0,0,1.677-.47c.124-.226-.4-.386-1.162-.361a2.722,2.722,0,0,0-1.665.453C35.549,192.152,36.062,192.324,36.86,192.3Z" transform="translate(-23.29 -189.221)" fill="#9da88f"/>
          <path id="Path_4736" data-name="Path 4736" d="M40.015,192.667l-8.58.278-.2.236,8.681-.281Z" transform="translate(-22.304 -189.488)" fill="#9da88f"/>
          <path id="Path_4737" data-name="Path 4737" d="M31.954,193.781l6.97-.226.111-.245-6.887.223Z" transform="translate(-22.462 -189.631)" fill="#9da88f"/>
          <path id="Path_4738" data-name="Path 4738" d="M32.458,194.387l5.583-.181.125-.257-5.515.179Z" transform="translate(-22.574 -189.773)" fill="#9da88f"/>
          <rect id="Rectangle_665" data-name="Rectangle 665" width="20.088" height="4.319" transform="matrix(0.999, -0.032, 0.032, 0.999, 0, 6.901)" fill="#9da88f"/>
          <rect id="Rectangle_666" data-name="Rectangle 666" width="20.182" height="4.319" transform="matrix(0.999, -0.032, 0.032, 0.999, 32.81, 5.838)" fill="#9da88f"/>
          <path id="Path_4739" data-name="Path 4739" d="M60.382,194.591l.747-.024-.316-.731-.121-.279-1.586-3.672-.081-.187-.195-.451-.5.016Z" transform="translate(-28.319 -188.729)" fill="#ededed"/>
          <path id="Path_4740" data-name="Path 4740" d="M47.77,194.935l9.295-.3L55.341,189.3l-6.2.2Z" transform="translate(-25.973 -188.74)" fill="#ededed"/>
          <path id="Path_4741" data-name="Path 4741" d="M47.275,190.25l-1.345,3.767-.1.286-.268.75.747-.024,1.7-5.449-.5.016-.165.462Z" transform="translate(-25.483 -188.803)" fill="#ededed"/>
          <path id="Path_4742" data-name="Path 4742" d="M46.521,195.023l.972-.032,1.375-5.439-.648.021Z" transform="translate(-25.696 -188.797)" fill="#f5b026"/>
          <path id="Path_4743" data-name="Path 4743" d="M59.225,194.628l.972-.031-2.048-5.328-.648.021Z" transform="translate(-28.134 -188.734)" fill="#f5b026"/>
          <rect id="Rectangle_667" data-name="Rectangle 667" width="0.748" height="4.319" transform="matrix(0.999, -0.032, 0.032, 0.999, 20.077, 6.25)" fill="#cfcfcf"/>
          <rect id="Rectangle_668" data-name="Rectangle 668" width="0.748" height="4.319" transform="translate(32.063 5.862) rotate(-1.855)" fill="#cfcfcf"/>
          <rect id="Rectangle_669" data-name="Rectangle 669" width="9.3" height="4.319" transform="matrix(0.999, -0.032, 0.032, 0.999, 21.797, 6.195)" fill="#cfcfcf"/>
          <rect id="Rectangle_670" data-name="Rectangle 670" width="0.973" height="4.319" transform="matrix(0.999, -0.032, 0.032, 0.999, 20.824, 6.226)" fill="#da8108"/>
          <rect id="Rectangle_671" data-name="Rectangle 671" width="0.973" height="4.319" transform="translate(31.091 5.894) rotate(-1.856)" fill="#da8108"/>
        </g>
        <g id="Group_1902" data-name="Group 1902" transform="translate(0.991 46.656)">
          <path id="Path_4744" data-name="Path 4744" d="M41.407,187.455H24.084l4.483-4.194H43.059l.18-.457H27.328l-6.3,5.391H41.115Z" transform="translate(-21.027 -182.805)" fill="#edf5d0"/>
          <path id="Path_4745" data-name="Path 4745" d="M74.816,183.635h-14l1.467,3.722h16.36Zm-4.971,2.207a3.184,3.184,0,0,1-2.117-.529c-.163-.281.478-.5,1.427-.5a3.406,3.406,0,0,1,2.1.5C71.473,185.6,70.845,185.842,69.845,185.842Z" transform="translate(-29.861 -182.989)" fill="#edf5d0"/>
          <path id="Path_4746" data-name="Path 4746" d="M26.457,187.357H42.723l1.467-3.722h-13.9Zm11.314-.942H32.185l.2-.253h5.518Zm1.011-.477H31.808l.2-.24H38.9Zm-4-1.357a2.725,2.725,0,0,1,1.679-.4c.765,0,1.281.176,1.15.4A2.567,2.567,0,0,1,35.92,185C35.122,185,34.614,184.809,34.782,184.581Zm-3.311.653h8.584l-.1.23H31.267Z" transform="translate(-22.233 -182.989)" fill="#edf5d0"/>
          <path id="Path_4747" data-name="Path 4747" d="M75.258,183.261l4.483,4.194H62.324l.292.741H82.8L76.5,182.8h-16l.18.457Z" transform="translate(-29.788 -182.805)" fill="#edf5d0"/>
          <path id="Path_4748" data-name="Path 4748" d="M75.309,183.391H60.723l.075.189h14l3.829,3.722H62.264l.111.283H79.792Z" transform="translate(-29.84 -182.935)" fill="#9da88f"/>
          <path id="Path_4749" data-name="Path 4749" d="M26.124,187.3l3.829-3.722h13.9l.075-.189H29.44l-4.483,4.194H42.279l.111-.283Z" transform="translate(-21.899 -182.935)" fill="#9da88f"/>
          <path id="Path_4750" data-name="Path 4750" d="M71.119,185.147c-.948,0-1.589.221-1.427.5a3.184,3.184,0,0,0,2.117.529c1,0,1.628-.24,1.409-.529A3.406,3.406,0,0,0,71.119,185.147Z" transform="translate(-31.825 -183.325)" fill="#9da88f"/>
          <path id="Path_4751" data-name="Path 4751" d="M38.286,185.154a2.567,2.567,0,0,0,1.691-.416c.131-.222-.385-.4-1.15-.4a2.725,2.725,0,0,0-1.679.4C36.98,184.966,37.488,185.154,38.286,185.154Z" transform="translate(-24.599 -183.145)" fill="#9da88f"/>
          <path id="Path_4752" data-name="Path 4752" d="M41.428,185.69H32.843l-.2.23h8.686Z" transform="translate(-23.605 -183.445)" fill="#9da88f"/>
          <path id="Path_4753" data-name="Path 4753" d="M33.335,186.527h6.974l.119-.241H33.536Z" transform="translate(-23.759 -183.577)" fill="#9da88f"/>
          <path id="Path_4754" data-name="Path 4754" d="M33.82,187.136h5.586l.134-.252H34.022Z" transform="translate(-23.867 -183.71)" fill="#9da88f"/>
          <rect id="Rectangle_672" data-name="Rectangle 672" width="20.088" height="4.319" transform="translate(0 5.391)" fill="#9da88f"/>
          <rect id="Rectangle_673" data-name="Rectangle 673" width="20.182" height="4.319" transform="translate(32.828 5.391)" fill="#9da88f"/>
          <path id="Path_4755" data-name="Path 4755" d="M61.726,188.2h.748l-.292-.741-.111-.283L60.6,183.451l-.075-.189-.18-.457h-.5Z" transform="translate(-29.646 -182.805)" fill="#ededed"/>
          <path id="Path_4756" data-name="Path 4756" d="M49.058,188.2h9.3l-1.55-5.391h-6.2Z" transform="translate(-27.25 -182.805)" fill="#ededed"/>
          <path id="Path_4757" data-name="Path 4757" d="M48.716,183.451l-1.466,3.722-.111.283-.292.741h.748l1.875-5.391h-.5l-.18.457Z" transform="translate(-26.759 -182.805)" fill="#ededed"/>
          <path id="Path_4758" data-name="Path 4758" d="M47.808,188.2h.973l1.55-5.391h-.648Z" transform="translate(-26.972 -182.805)" fill="#f5b026"/>
          <path id="Path_4759" data-name="Path 4759" d="M60.569,188.2h.973L59.667,182.8h-.648Z" transform="translate(-29.461 -182.805)" fill="#f5b026"/>
          <rect id="Rectangle_674" data-name="Rectangle 674" width="0.748" height="4.319" transform="translate(20.088 5.391)" fill="#cfcfcf"/>
          <rect id="Rectangle_675" data-name="Rectangle 675" width="0.748" height="4.319" transform="translate(32.08 5.391)" fill="#cfcfcf"/>
          <rect id="Rectangle_676" data-name="Rectangle 676" width="9.3" height="4.319" transform="translate(21.808 5.391)" fill="#cfcfcf"/>
          <rect id="Rectangle_677" data-name="Rectangle 677" width="0.973" height="4.319" transform="translate(20.835 5.391)" fill="#da8108"/>
          <rect id="Rectangle_678" data-name="Rectangle 678" width="0.973" height="4.319" transform="translate(31.108 5.391)" fill="#da8108"/>
        </g>
        <g id="Group_1908" data-name="Group 1908" transform="translate(10.342)">
          <path id="Path_4760" data-name="Path 4760" d="M54.619,133.341h0a.173.173,0,0,0-.17.17l-1.289,40.376h2.923L54.79,133.511A.173.173,0,0,0,54.619,133.341Z" transform="translate(-37.511 -125.167)" fill="#81b53c" fill-rule="evenodd"/>
          <g id="Group_1903" data-name="Group 1903" transform="translate(0 25.631)">
            <path id="Path_4761" data-name="Path 4761" d="M44.708,159.463c3.061,3.06,1.624,5.2-.579,7.4s-4.338,3.639-7.4.579-3.684-11.661-3.684-11.661S41.648,156.4,44.708,159.463Z" transform="translate(-33.047 -155.78)" fill="#94cc49" fill-rule="evenodd"/>
            <path id="Path_4762" data-name="Path 4762" d="M34.916,157.644l0,0c-.109.109-.065.334.1.5l15.315,15.76.856-.856L35.421,157.746C35.25,157.579,35.025,157.535,34.916,157.644Z" transform="translate(-33.448 -156.181)" fill="#81b53c" fill-rule="evenodd"/>
            <path id="Path_4763" data-name="Path 4763" d="M40.367,170.887l0,0c.051.088.124.142.164.121l4.18-2.173-.4-.689-3.972,2.534C40.305,170.709,40.316,170.8,40.367,170.887Z" transform="translate(-34.662 -158.526)" fill="#81b53c" fill-rule="evenodd"/>
            <path id="Path_4764" data-name="Path 4764" d="M37.745,168.713l0,0c.038.067.1.1.146.08l4.406-2.36-.3-.524-4.248,2.635C37.708,168.572,37.706,168.646,37.745,168.713Z" transform="translate(-34.084 -158.029)" fill="#81b53c" fill-rule="evenodd"/>
            <path id="Path_4765" data-name="Path 4765" d="M36.43,165.953v0c.035.059.09.093.125.074l3.618-1.926-.269-.467-3.478,2.171C36.395,165.829,36.4,165.893,36.43,165.953Z" transform="translate(-33.792 -157.524)" fill="#81b53c" fill-rule="evenodd"/>
            <path id="Path_4766" data-name="Path 4766" d="M35.379,163.053v0c.03.051.075.082.1.069l2.658-1.394-.233-.4-2.536,1.606C35.344,162.948,35.349,163,35.379,163.053Z" transform="translate(-33.559 -157.011)" fill="#81b53c" fill-rule="evenodd"/>
            <path id="Path_4767" data-name="Path 4767" d="M34.335,160.573v0c.02.036.051.058.069.048l1.857-.973-.163-.282-1.772,1.122C34.311,160.5,34.314,160.537,34.335,160.573Z" transform="translate(-33.329 -156.576)" fill="#81b53c" fill-rule="evenodd"/>
            <path id="Path_4768" data-name="Path 4768" d="M48.161,163.094l0,0c.088.051.142.124.121.164l-2.173,4.181-.689-.4,2.535-3.972C47.982,163.032,48.073,163.043,48.161,163.094Z" transform="translate(-35.794 -157.393)" fill="#81b53c" fill-rule="evenodd"/>
            <path id="Path_4769" data-name="Path 4769" d="M45.986,160.471l0,0c.067.039.1.1.08.146l-2.361,4.407-.524-.3,2.636-4.248C45.846,160.434,45.919,160.433,45.986,160.471Z" transform="translate(-35.297 -156.815)" fill="#81b53c" fill-rule="evenodd"/>
            <path id="Path_4770" data-name="Path 4770" d="M43.226,159.157l0,0c.06.034.093.09.075.124L41.377,162.9l-.466-.269,2.171-3.477C43.1,159.122,43.167,159.122,43.226,159.157Z" transform="translate(-34.793 -156.524)" fill="#81b53c" fill-rule="evenodd"/>
            <path id="Path_4771" data-name="Path 4771" d="M40.327,158.1l0,0c.051.03.082.074.069.1L39,160.864l-.4-.233,1.605-2.536C40.222,158.07,40.276,158.075,40.327,158.1Z" transform="translate(-34.28 -156.29)" fill="#81b53c" fill-rule="evenodd"/>
            <path id="Path_4772" data-name="Path 4772" d="M37.847,157.061h0c.037.021.058.052.049.07l-.974,1.857-.282-.163,1.121-1.771C37.773,157.037,37.811,157.04,37.847,157.061Z" transform="translate(-33.845 -156.06)" fill="#81b53c" fill-rule="evenodd"/>
          </g>
          <g id="Group_1904" data-name="Group 1904" transform="translate(2.425 12.841)">
            <path id="Path_4773" data-name="Path 4773" d="M46.192,142.508c2.632,2.632,1.4,4.468-.5,6.363s-3.731,3.13-6.363.5-3.168-10.029-3.168-10.029S43.561,139.876,46.192,142.508Z" transform="translate(-36.164 -139.34)" fill="#94cc49" fill-rule="evenodd"/>
            <path id="Path_4774" data-name="Path 4774" d="M37.771,140.944l0,0c-.093.094-.056.287.088.434l13.172,13.554.736-.736L38.205,141.031C38.058,140.888,37.865,140.85,37.771,140.944Z" transform="translate(-36.509 -139.685)" fill="#81b53c" fill-rule="evenodd"/>
            <path id="Path_4775" data-name="Path 4775" d="M42.46,152.333l0,0c.044.076.107.123.141.105l3.6-1.869-.342-.593-3.416,2.179C42.407,152.179,42.416,152.258,42.46,152.333Z" transform="translate(-37.553 -141.702)" fill="#81b53c" fill-rule="evenodd"/>
            <path id="Path_4776" data-name="Path 4776" d="M40.2,150.463l0,0c.033.058.089.089.125.069l3.79-2.031-.26-.451-3.653,2.267C40.172,150.342,40.171,150.406,40.2,150.463Z" transform="translate(-37.056 -141.274)" fill="#81b53c" fill-rule="evenodd"/>
            <path id="Path_4777" data-name="Path 4777" d="M39.074,148.09v0c.03.051.078.08.107.065l3.112-1.656-.231-.4-2.991,1.866C39.043,147.982,39.044,148.038,39.074,148.09Z" transform="translate(-36.805 -140.84)" fill="#81b53c" fill-rule="evenodd"/>
            <path id="Path_4778" data-name="Path 4778" d="M38.169,145.6l0,0c.025.044.064.071.086.059l2.287-1.2-.2-.347-2.182,1.381C38.139,145.505,38.144,145.552,38.169,145.6Z" transform="translate(-36.604 -140.399)" fill="#81b53c" fill-rule="evenodd"/>
            <path id="Path_4779" data-name="Path 4779" d="M37.272,143.463h0c.018.031.045.05.06.042l1.6-.838-.14-.242-1.523.964C37.251,143.4,37.254,143.432,37.272,143.463Z" transform="translate(-36.406 -140.025)" fill="#81b53c" fill-rule="evenodd"/>
            <path id="Path_4780" data-name="Path 4780" d="M49.162,145.631l0,0c.076.044.123.107.105.141l-1.87,3.6-.592-.342,2.179-3.416C49.008,145.578,49.087,145.587,49.162,145.631Z" transform="translate(-38.527 -140.728)" fill="#81b53c" fill-rule="evenodd"/>
            <path id="Path_4781" data-name="Path 4781" d="M47.292,143.375l0,0c.058.033.089.089.069.125l-2.031,3.79-.451-.26,2.267-3.653C47.171,143.343,47.235,143.343,47.292,143.375Z" transform="translate(-38.099 -140.23)" fill="#81b53c" fill-rule="evenodd"/>
            <path id="Path_4782" data-name="Path 4782" d="M44.919,142.245l0,0c.051.03.08.077.065.107l-1.657,3.112-.4-.232,1.866-2.991C44.811,142.214,44.867,142.215,44.919,142.245Z" transform="translate(-37.665 -139.98)" fill="#81b53c" fill-rule="evenodd"/>
            <path id="Path_4783" data-name="Path 4783" d="M42.425,141.34l0,0c.044.026.071.064.059.086l-1.2,2.287-.347-.2,1.381-2.182C42.334,141.31,42.381,141.315,42.425,141.34Z" transform="translate(-37.224 -139.779)" fill="#81b53c" fill-rule="evenodd"/>
            <path id="Path_4784" data-name="Path 4784" d="M40.292,140.443h0c.031.018.05.044.042.06l-.838,1.6-.242-.139.964-1.524C40.228,140.422,40.261,140.425,40.292,140.443Z" transform="translate(-36.85 -139.581)" fill="#81b53c" fill-rule="evenodd"/>
          </g>
          <g id="Group_1905" data-name="Group 1905" transform="translate(16.75 25.631)">
            <path id="Path_4785" data-name="Path 4785" d="M61.885,159.463c-3.06,3.06-1.624,5.2.579,7.4s4.339,3.639,7.4.579,3.683-11.661,3.683-11.661S64.945,156.4,61.885,159.463Z" transform="translate(-55.809 -155.78)" fill="#94cc49" fill-rule="evenodd"/>
            <path id="Path_4786" data-name="Path 4786" d="M70.844,157.644l0,0c.11.109.065.334-.1.5l-15.316,15.76-.855-.856,15.763-15.311C70.51,157.579,70.735,157.535,70.844,157.644Z" transform="translate(-54.576 -156.181)" fill="#81b53c" fill-rule="evenodd"/>
            <path id="Path_4787" data-name="Path 4787" d="M68.8,170.887l0,0c-.051.088-.124.142-.164.121l-4.181-2.173.4-.689,3.972,2.534C68.861,170.709,68.85,170.8,68.8,170.887Z" transform="translate(-56.769 -158.526)" fill="#81b53c" fill-rule="evenodd"/>
            <path id="Path_4788" data-name="Path 4788" d="M71.368,168.713v0c-.039.067-.1.1-.146.08l-4.407-2.36.3-.524,4.248,2.635C71.406,168.572,71.407,168.646,71.368,168.713Z" transform="translate(-57.293 -158.029)" fill="#81b53c" fill-rule="evenodd"/>
            <path id="Path_4789" data-name="Path 4789" d="M72.914,165.953v0c-.034.059-.09.093-.124.074L69.17,164.1l.269-.467,3.477,2.171C72.95,165.829,72.949,165.893,72.914,165.953Z" transform="translate(-57.816 -157.524)" fill="#81b53c" fill-rule="evenodd"/>
            <path id="Path_4790" data-name="Path 4790" d="M74.247,163.053v0c-.03.051-.074.082-.1.069l-2.659-1.394.233-.4,2.536,1.606C74.282,162.948,74.277,163,74.247,163.053Z" transform="translate(-58.33 -157.011)" fill="#81b53c" fill-rule="evenodd"/>
            <path id="Path_4791" data-name="Path 4791" d="M75.531,160.573v0c-.021.036-.052.058-.07.048l-1.857-.973.163-.282,1.772,1.122C75.555,160.5,75.551,160.537,75.531,160.573Z" transform="translate(-58.8 -156.576)" fill="#81b53c" fill-rule="evenodd"/>
            <path id="Path_4792" data-name="Path 4792" d="M61.442,163.094l0,0c-.088.051-.143.124-.122.164l2.174,4.181.689-.4-2.534-3.972C61.62,163.032,61.53,163.043,61.442,163.094Z" transform="translate(-56.071 -157.393)" fill="#81b53c" fill-rule="evenodd"/>
            <path id="Path_4793" data-name="Path 4793" d="M63.608,160.471l0,0c-.067.039-.1.1-.08.146l2.36,4.407.524-.3-2.636-4.248C63.75,160.434,63.675,160.433,63.608,160.471Z" transform="translate(-56.561 -156.815)" fill="#81b53c" fill-rule="evenodd"/>
            <path id="Path_4794" data-name="Path 4794" d="M66.51,159.157l0,0c-.059.034-.093.09-.075.124l1.926,3.618.467-.269-2.171-3.477C66.634,159.122,66.57,159.122,66.51,159.157Z" transform="translate(-57.207 -156.524)" fill="#81b53c" fill-rule="evenodd"/>
            <path id="Path_4795" data-name="Path 4795" d="M69.58,158.1l0,0c-.051.03-.082.074-.069.1l1.394,2.658.4-.233L69.7,158.1C69.685,158.07,69.631,158.075,69.58,158.1Z" transform="translate(-57.89 -156.29)" fill="#81b53c" fill-rule="evenodd"/>
            <path id="Path_4796" data-name="Path 4796" d="M72.215,157.061h0c-.036.021-.058.052-.048.07l.973,1.857.282-.163L72.3,157.054C72.288,157.037,72.251,157.04,72.215,157.061Z" transform="translate(-58.48 -156.06)" fill="#81b53c" fill-rule="evenodd"/>
          </g>
          <g id="Group_1906" data-name="Group 1906" transform="translate(16.807 12.841)">
            <path id="Path_4797" data-name="Path 4797" d="M60.936,142.508c-2.632,2.632-1.4,4.468.5,6.363s3.731,3.13,6.363.5,3.167-10.029,3.167-10.029S63.568,139.876,60.936,142.508Z" transform="translate(-55.711 -139.34)" fill="#94cc49" fill-rule="evenodd"/>
            <path id="Path_4798" data-name="Path 4798" d="M68.642,140.944l0,0c.094.094.056.287-.087.434L55.385,154.936l-.735-.736,13.557-13.168C68.355,140.888,68.547,140.85,68.642,140.944Z" transform="translate(-54.65 -139.685)" fill="#81b53c" fill-rule="evenodd"/>
            <path id="Path_4799" data-name="Path 4799" d="M66.883,152.333l0,0c-.044.076-.107.123-.142.105l-3.6-1.869.342-.593,3.416,2.179C66.936,152.179,66.927,152.258,66.883,152.333Z" transform="translate(-56.536 -141.702)" fill="#81b53c" fill-rule="evenodd"/>
            <path id="Path_4800" data-name="Path 4800" d="M69.091,150.463v0c-.033.058-.089.089-.126.069l-3.79-2.031.261-.451,3.654,2.267C69.124,150.342,69.125,150.406,69.091,150.463Z" transform="translate(-56.987 -141.274)" fill="#81b53c" fill-rule="evenodd"/>
            <path id="Path_4801" data-name="Path 4801" d="M70.421,148.09v0c-.03.051-.078.08-.107.065L67.2,146.5l.232-.4,2.991,1.866C70.452,147.982,70.451,148.038,70.421,148.09Z" transform="translate(-57.436 -140.84)" fill="#81b53c" fill-rule="evenodd"/>
            <path id="Path_4802" data-name="Path 4802" d="M71.568,145.6v0c-.026.044-.064.071-.086.059l-2.287-1.2.2-.347,2.182,1.381C71.6,145.505,71.593,145.552,71.568,145.6Z" transform="translate(-57.879 -140.399)" fill="#81b53c" fill-rule="evenodd"/>
            <path id="Path_4803" data-name="Path 4803" d="M72.672,143.463h0c-.018.031-.044.05-.06.042l-1.6-.838.14-.242,1.524.964C72.692,143.4,72.69,143.432,72.672,143.463Z" transform="translate(-58.283 -140.025)" fill="#81b53c" fill-rule="evenodd"/>
            <path id="Path_4804" data-name="Path 4804" d="M60.555,145.631l0,0c-.075.044-.123.107-.1.141l1.869,3.6.592-.342-2.179-3.416C60.708,145.578,60.631,145.587,60.555,145.631Z" transform="translate(-55.936 -140.728)" fill="#81b53c" fill-rule="evenodd"/>
            <path id="Path_4805" data-name="Path 4805" d="M62.418,143.375l0,0c-.058.033-.089.089-.068.125l2.03,3.79.451-.26-2.267-3.653C62.539,143.343,62.476,143.343,62.418,143.375Z" transform="translate(-56.357 -140.23)" fill="#81b53c" fill-rule="evenodd"/>
            <path id="Path_4806" data-name="Path 4806" d="M64.913,142.245l0,0c-.051.03-.08.077-.064.107l1.656,3.112.4-.232-1.867-2.991C65.02,142.214,64.964,142.215,64.913,142.245Z" transform="translate(-56.913 -139.98)" fill="#81b53c" fill-rule="evenodd"/>
            <path id="Path_4807" data-name="Path 4807" d="M67.554,141.34l0,0c-.044.026-.072.064-.06.086l1.2,2.287.347-.2-1.381-2.182C67.644,141.31,67.6,141.315,67.554,141.34Z" transform="translate(-57.5 -139.779)" fill="#81b53c" fill-rule="evenodd"/>
            <path id="Path_4808" data-name="Path 4808" d="M69.82,140.443h0c-.031.018-.05.044-.041.06l.837,1.6.243-.139-.965-1.524C69.883,140.422,69.851,140.425,69.82,140.443Z" transform="translate(-58.008 -139.581)" fill="#81b53c" fill-rule="evenodd"/>
          </g>
          <g id="Group_1907" data-name="Group 1907" transform="translate(12.255)">
            <path id="Path_4809" data-name="Path 4809" d="M48.8,132.166c0,3.722,2.172,4.147,4.851,4.147s4.852-.425,4.852-4.147-4.852-9.331-4.852-9.331S48.8,128.444,48.8,132.166Z" transform="translate(-48.799 -122.835)" fill="#94cc49" fill-rule="evenodd"/>
            <path id="Path_4810" data-name="Path 4810" d="M54.883,125.127h.005c.132,0,.242.163.245.369l.27,18.9h-1.04l.275-18.9C54.64,125.29,54.75,125.127,54.883,125.127Z" transform="translate(-50.034 -123.344)" fill="#81b53c" fill-rule="evenodd"/>
            <path id="Path_4811" data-name="Path 4811" d="M59.077,136.917v0c.023.084.012.162-.026.173l-3.864,1.221-.177-.661,3.957-.874C59.006,136.771,59.054,136.833,59.077,136.917Z" transform="translate(-50.178 -125.931)" fill="#81b53c" fill-rule="evenodd"/>
            <path id="Path_4812" data-name="Path 4812" d="M59.3,134.019v0c.017.065,0,.126-.04.138L55.146,135.4l-.135-.5,4.186-.98C59.237,133.91,59.283,133.956,59.3,134.019Z" transform="translate(-50.178 -125.296)" fill="#81b53c" fill-rule="evenodd"/>
            <path id="Path_4813" data-name="Path 4813" d="M58.556,131.459v0c.016.058,0,.111-.03.121l-3.372,1.029-.121-.447,3.435-.8C58.5,131.362,58.541,131.4,58.556,131.459Z" transform="translate(-50.183 -124.729)" fill="#81b53c" fill-rule="evenodd"/>
            <path id="Path_4814" data-name="Path 4814" d="M57.6,128.957v0c.013.049.005.095-.019.1l-2.465.769-.1-.387,2.519-.566C57.554,128.872,57.584,128.908,57.6,128.957Z" transform="translate(-50.178 -124.176)" fill="#81b53c" fill-rule="evenodd"/>
            <path id="Path_4815" data-name="Path 4815" d="M56.858,126.729v0c.009.034,0,.067-.012.072l-1.722.538-.072-.271,1.759-.4C56.827,126.67,56.848,126.695,56.858,126.729Z" transform="translate(-50.187 -123.687)" fill="#81b53c" fill-rule="evenodd"/>
            <path id="Path_4816" data-name="Path 4816" d="M49.821,136.917v0c-.023.084-.011.162.026.173l3.864,1.221.177-.661-3.957-.874C49.892,136.771,49.843,136.833,49.821,136.917Z" transform="translate(-49.023 -125.931)" fill="#81b53c" fill-rule="evenodd"/>
            <path id="Path_4817" data-name="Path 4817" d="M49.535,134.019v0c-.017.065,0,.126.04.138L53.69,135.4l.135-.5-4.186-.98C49.6,133.91,49.552,133.956,49.535,134.019Z" transform="translate(-48.961 -125.296)" fill="#81b53c" fill-rule="evenodd"/>
            <path id="Path_4818" data-name="Path 4818" d="M50.5,131.459v0c-.016.058,0,.111.03.121l3.372,1.029.12-.447-3.435-.8C50.553,131.362,50.514,131.4,50.5,131.459Z" transform="translate(-49.175 -124.729)" fill="#81b53c" fill-rule="evenodd"/>
            <path id="Path_4819" data-name="Path 4819" d="M51.724,128.957v0c-.013.049-.005.095.019.1l2.464.769.1-.387-2.519-.566C51.768,128.872,51.737,128.908,51.724,128.957Z" transform="translate(-49.447 -124.176)" fill="#81b53c" fill-rule="evenodd"/>
            <path id="Path_4820" data-name="Path 4820" d="M52.688,126.729v0c-.009.034,0,.067.013.072l1.722.538.072-.271-1.76-.4C52.718,126.67,52.7,126.695,52.688,126.729Z" transform="translate(-49.661 -123.687)" fill="#81b53c" fill-rule="evenodd"/>
          </g>
        </g>
      </g>
      <path id="Path_4821" data-name="Path 4821" d="M47.2,122.835s-4.851,5.609-4.851,9.331c0,3.528,1.953,4.093,4.439,4.142l-.064,4.4-.262,8.208-4.123-4c1.723-1.793,2.7-3.573.209-6.068-2.631-2.632-10.028-3.168-10.028-3.168s.536,7.4,3.168,10.029c2.5,2.5,4.277,1.512,6.07-.212l4.661,4.8L46,163.559l-4.483-4.354c2-2.084,3.145-4.155.244-7.056-3.06-3.06-11.661-3.683-11.661-3.683s.623,8.6,3.684,11.661c2.9,2.9,4.972,1.758,7.057-.246l5.108,5.256-.139,4.354H27.045l-6.3,5.391V179.2H21.6l-1.845,1.684.14,4.317.85-.027v4.232H47.2Z" fill="#1d1d1b" opacity="0.15"/>
    </g>
  </g>
</svg>
