<svg xmlns="http://www.w3.org/2000/svg" width="120" height="120" viewBox="0 0 120 120">
  <g id="Plan-icon1" transform="translate(-205 -1830)">
    <circle id="Ellipse_29" data-name="Ellipse 29" cx="60" cy="60" r="60" transform="translate(205 1830)" fill="#000a1c"/>
    <g id="Group_1899" data-name="Group 1899" transform="translate(109.773 1730.476)">
      <g id="Group_1866" data-name="Group 1866" transform="translate(141.349 173.842)">
        <g id="Group_1865" data-name="Group 1865" transform="translate(0)">
          <g id="Group_1858" data-name="Group 1858" transform="translate(0.353 10.464)">
            <path id="Path_4634" data-name="Path 4634" d="M156.655,201.359l-.015-1.5a.289.289,0,0,1-.026.116l0,.01a.447.447,0,0,1-.079.115l0,0a.859.859,0,0,1-.121.1l-.038.027c-.038.026-.082.051-.128.077l-.051.029c-.064.033-.135.066-.212.1l-.04.014q-.1.04-.214.078l-.091.029c-.064.021-.132.041-.2.061l-.1.029c-.08.021-.164.042-.25.062l-.078.019c-.115.026-.235.051-.36.074l-.09.016c-.1.018-.2.035-.3.051l-.137.021-.29.041-.14.018c-.121.015-.246.029-.372.043l-.074.008q-.227.023-.463.041l-.137.01-.353.023-.169.009c-.117.006-.235.011-.355.016l-.159.006q-.257.007-.519.011c-3.075.031-5.576-.482-5.584-1.146l.016,1.5c.006.664,2.507,1.176,5.584,1.146.175,0,.347-.006.518-.011l.16-.006c.119,0,.237-.01.354-.016l.169-.009.353-.023.137-.01c.158-.013.313-.026.464-.041l.073-.008c.126-.013.25-.028.372-.043l.14-.018.29-.041.137-.021c.1-.016.2-.033.3-.051l.09-.016c.124-.024.244-.048.359-.074l.078-.019c.086-.02.17-.04.251-.062l.1-.029c.07-.019.137-.04.2-.06l.092-.029c.075-.025.147-.051.213-.078l.04-.015c.077-.032.147-.064.212-.1l.051-.029c.029-.016.061-.032.088-.049s.026-.018.04-.028l.039-.027a.9.9,0,0,0,.12-.1h0l0,0a.456.456,0,0,0,.078-.109l0-.006,0-.01A.277.277,0,0,0,156.655,201.359Z" transform="translate(-145.499 -198.714)" fill="#f5b026"/>
            <path id="Path_4635" data-name="Path 4635" d="M156.62,199.651c0-.006.006-.012.008-.017a.176.176,0,0,0,.01-.063l0-.009c-.007-.667-2.5-1.18-5.581-1.148a16.329,16.329,0,0,0-4.687.6c-.552.193-.875.417-.873.656a.231.231,0,0,0,.013.073c0,.008.009.015.012.023a.36.36,0,0,0,.033.065c.011.017.023.034.036.051a.705.705,0,0,0,.064.065c.018.016.036.032.057.047s.06.043.094.063.048.029.075.044.078.042.122.062l.093.04c.048.02.1.04.15.059l.109.037c.056.019.114.037.175.055l.124.034c.065.017.13.035.2.051l.137.032c.072.016.145.032.222.047l.151.029.242.042.164.025c.086.013.171.026.26.037l.173.021.282.032.172.016c.1.01.2.02.308.028l.167.011c.112.008.223.016.337.022l.149.007c.124.006.249.012.376.016l.082,0q.49.014,1.005.01.532-.006,1.038-.032l.046,0c.141-.007.277-.017.414-.026l.11-.007c.126-.01.249-.021.372-.032l.13-.012c.117-.011.23-.025.342-.038l.135-.015c.109-.013.212-.029.316-.043l.136-.02c.1-.015.2-.032.295-.048l.127-.021c.094-.017.185-.036.275-.055.039-.008.078-.015.115-.024.089-.019.172-.039.254-.059l.1-.025c.08-.021.156-.042.23-.064l.091-.028c.071-.022.138-.045.2-.068l.08-.029c.062-.024.119-.048.173-.072l.067-.031c.051-.025.1-.05.143-.076l.053-.032a1.276,1.276,0,0,0,.11-.078l.041-.035a.615.615,0,0,0,.074-.079.373.373,0,0,0,.027-.038A.36.36,0,0,0,156.62,199.651Z" transform="translate(-145.499 -198.412)" fill="#ffcd2e"/>
          </g>
          <g id="Group_1859" data-name="Group 1859" transform="translate(0.177 8.719)">
            <path id="Path_4636" data-name="Path 4636" d="M156.432,199.158l-.015-1.5a.29.29,0,0,1-.026.116l0,.01a.46.46,0,0,1-.079.115l0,0a.97.97,0,0,1-.121.1l-.038.026c-.039.026-.082.052-.128.078l-.051.029c-.065.033-.135.066-.212.1l-.039.015q-.1.04-.214.078l-.091.029c-.065.021-.132.04-.2.06l-.1.029c-.08.021-.164.042-.25.062l-.079.019c-.115.025-.234.051-.359.074l-.09.016c-.1.017-.2.035-.3.051l-.137.021q-.143.021-.29.04l-.141.019c-.121.015-.245.029-.372.042l-.073.009c-.151.015-.307.029-.464.041l-.136.01c-.116.009-.234.017-.353.023l-.17.01c-.116.006-.234.011-.354.015l-.159.006q-.257.008-.519.011c-3.076.032-5.576-.481-5.584-1.145l.015,1.5c.007.664,2.508,1.176,5.584,1.145.175,0,.348-.006.519-.01l.159-.006c.12,0,.238-.01.355-.015l.169-.01c.119-.006.236-.014.353-.023l.137-.01c.158-.013.312-.026.463-.042l.074-.008c.126-.013.25-.027.372-.042l.14-.019q.147-.019.29-.04l.137-.021c.1-.017.2-.034.3-.051l.09-.016c.124-.024.244-.049.36-.074l.078-.019c.086-.02.17-.041.25-.063.036-.009.071-.019.1-.029.07-.02.137-.04.2-.06l.091-.029c.076-.026.147-.051.214-.078l.039-.015c.078-.032.148-.064.212-.1l.051-.029c.029-.017.061-.032.087-.049s.027-.019.04-.029a.462.462,0,0,0,.038-.027.807.807,0,0,0,.121-.1h0l0,0a.456.456,0,0,0,.078-.109l0-.006,0-.01A.29.29,0,0,0,156.432,199.158Z" transform="translate(-145.276 -196.512)" fill="#f5b026"/>
            <path id="Path_4637" data-name="Path 4637" d="M156.4,197.449a.121.121,0,0,0,.009-.017.211.211,0,0,0,.01-.063l0-.01c-.006-.666-2.5-1.179-5.58-1.148a16.32,16.32,0,0,0-4.687.605c-.552.192-.875.417-.873.656a.2.2,0,0,0,.013.073c0,.007.009.015.011.022a.433.433,0,0,0,.034.066.5.5,0,0,0,.036.05.622.622,0,0,0,.064.066c.017.015.036.031.057.047a1.124,1.124,0,0,0,.093.063c.024.015.049.029.075.044s.079.041.123.062l.093.04c.048.02.1.039.15.059l.109.037c.056.019.114.037.175.055l.123.034c.065.017.131.035.2.051l.136.031c.073.016.146.032.223.048l.151.028c.08.015.159.029.242.043l.164.025.26.037.173.021.283.032.172.016c.1.01.2.019.308.027l.167.012c.111.008.222.016.337.022l.149.006c.124.006.249.013.376.017l.082,0c.327.009.662.014,1.006.01s.7-.015,1.038-.032l.046,0c.14-.007.277-.017.414-.026l.109-.007c.127-.01.25-.021.372-.032l.131-.011c.116-.012.23-.025.342-.038l.135-.016c.108-.013.212-.028.316-.043.045-.006.092-.012.135-.019.1-.015.2-.032.3-.048l.126-.022c.1-.017.185-.035.276-.054l.115-.024c.088-.019.172-.04.254-.059l.1-.025c.08-.021.155-.043.229-.064l.092-.028c.071-.022.138-.045.2-.069l.079-.029c.062-.024.12-.048.174-.073l.067-.03q.077-.038.143-.076l.054-.032a1.145,1.145,0,0,0,.109-.078c.015-.012.029-.024.041-.036a.678.678,0,0,0,.074-.078.426.426,0,0,0,.027-.039A.358.358,0,0,0,156.4,197.449Z" transform="translate(-145.276 -196.21)" fill="#ffcd2e"/>
          </g>
          <g id="Group_1860" data-name="Group 1860" transform="translate(0.354 6.975)">
            <path id="Path_4638" data-name="Path 4638" d="M156.656,196.957l-.016-1.5a.281.281,0,0,1-.025.116l0,.01a.468.468,0,0,1-.08.116v0a.9.9,0,0,1-.121.1l-.038.027c-.039.026-.082.051-.128.077-.017.01-.032.02-.051.029-.065.033-.135.067-.212.1l-.039.015c-.067.026-.139.052-.214.078l-.091.03c-.065.02-.132.04-.2.06l-.1.029c-.08.021-.164.042-.25.063l-.079.019q-.172.038-.359.074l-.09.016c-.1.018-.2.036-.3.052l-.138.021c-.094.014-.191.029-.29.041l-.14.018c-.121.015-.245.029-.372.043l-.073.008c-.151.015-.307.029-.464.041l-.136.01c-.116.009-.234.016-.353.023l-.17.009c-.116.006-.234.011-.354.016l-.159.006q-.257.008-.519.011c-3.076.032-5.576-.482-5.584-1.145l.015,1.5c.007.665,2.508,1.177,5.584,1.146q.263,0,.519-.011l.159-.006.355-.015.169-.01.353-.023.137-.01c.158-.012.312-.026.463-.041l.074-.008q.189-.02.371-.043l.141-.018c.1-.013.195-.027.29-.041l.137-.021c.1-.017.2-.034.3-.052l.09-.016q.187-.036.359-.074l.079-.019c.086-.021.17-.041.25-.063l.1-.029c.07-.02.137-.04.2-.06l.091-.03c.076-.025.147-.051.214-.078l.039-.014c.078-.032.147-.065.212-.1l.051-.029c.029-.016.061-.032.087-.048s.027-.019.04-.029a.462.462,0,0,0,.038-.027.809.809,0,0,0,.121-.1h0l0,0a.517.517,0,0,0,.078-.109l0-.006,0-.01A.3.3,0,0,0,156.656,196.957Z" transform="translate(-145.5 -194.311)" fill="#f5b026"/>
            <path id="Path_4639" data-name="Path 4639" d="M156.62,195.248a.121.121,0,0,0,.009-.017.216.216,0,0,0,.01-.063l0-.009c-.006-.666-2.5-1.18-5.58-1.148a16.353,16.353,0,0,0-4.687.6c-.552.193-.875.417-.873.656a.193.193,0,0,0,.013.073c0,.008.009.015.011.023a.392.392,0,0,0,.034.065.355.355,0,0,0,.036.051.621.621,0,0,0,.064.065.7.7,0,0,0,.057.047c.029.021.059.043.093.064l.075.043c.039.021.079.042.123.062l.093.04c.048.02.1.04.15.059l.109.037c.056.019.113.038.175.055l.123.034c.065.018.131.036.2.052l.136.031c.073.016.146.032.223.047.049.01.1.019.151.029l.242.042.164.025.26.037.173.021c.093.011.186.023.283.032l.172.016c.1.01.2.02.308.028l.167.012c.111.008.222.016.337.022l.149.006c.124.006.249.012.376.016l.082,0q.491.014,1.006.01.532-.006,1.037-.033l.047,0c.14-.008.277-.017.414-.027l.109-.007c.127-.009.25-.021.372-.032l.131-.012c.116-.011.23-.025.342-.037l.135-.016c.108-.013.212-.028.316-.043l.135-.019c.1-.016.2-.032.3-.049l.126-.021c.1-.017.185-.036.275-.054l.116-.024.254-.059.1-.026c.08-.021.155-.042.229-.064l.092-.027c.071-.023.138-.045.2-.069l.079-.029c.062-.024.12-.048.174-.072l.067-.031q.077-.037.143-.076l.054-.032a1.149,1.149,0,0,0,.109-.078.455.455,0,0,0,.041-.035.682.682,0,0,0,.074-.078c.01-.013.018-.026.026-.039A.361.361,0,0,0,156.62,195.248Z" transform="translate(-145.5 -194.009)" fill="#ffcd2e"/>
          </g>
          <g id="Group_1861" data-name="Group 1861" transform="translate(0.353 5.232)">
            <path id="Path_4640" data-name="Path 4640" d="M156.655,194.756l-.015-1.5a.29.29,0,0,1-.026.116l0,.01a.447.447,0,0,1-.079.115l0,0a.86.86,0,0,1-.121.1l-.038.027c-.038.026-.082.051-.128.077l-.051.029q-.1.05-.212.1l-.04.015q-.1.04-.214.078l-.091.029c-.064.021-.132.041-.2.06l-.1.029c-.08.021-.164.042-.25.062l-.078.019c-.115.026-.235.051-.36.074l-.09.016c-.1.018-.2.035-.3.051l-.137.021-.29.041-.14.018c-.121.015-.246.029-.372.043l-.074.008q-.227.023-.463.041l-.137.01-.353.024-.169.009c-.117.006-.235.011-.355.016l-.159.006q-.257.007-.519.011c-3.075.031-5.576-.482-5.584-1.146l.016,1.5c.006.664,2.507,1.176,5.584,1.146.175,0,.347-.006.518-.011l.16-.006c.119,0,.237-.01.354-.016l.169-.009.353-.024.137-.01c.158-.013.313-.026.464-.041l.073-.008c.126-.013.25-.028.372-.043l.14-.018.29-.041.137-.021c.1-.017.2-.033.3-.051l.09-.016c.124-.024.244-.048.359-.074l.078-.019c.086-.02.17-.04.251-.062l.1-.029c.07-.019.137-.04.2-.06l.092-.029c.075-.025.147-.051.213-.078l.04-.015c.077-.032.147-.064.212-.1l.051-.029c.029-.016.061-.032.088-.049s.026-.019.04-.028l.039-.027a.9.9,0,0,0,.12-.1h0l0,0a.455.455,0,0,0,.078-.109l0-.006,0-.01A.276.276,0,0,0,156.655,194.756Z" transform="translate(-145.499 -192.109)" fill="#f5b026"/>
            <path id="Path_4641" data-name="Path 4641" d="M156.62,193.047c0-.006.006-.012.008-.017a.176.176,0,0,0,.01-.063l0-.01c-.007-.666-2.5-1.179-5.581-1.147a16.329,16.329,0,0,0-4.687.6c-.552.193-.875.417-.873.656a.231.231,0,0,0,.013.073.2.2,0,0,0,.012.022.342.342,0,0,0,.033.066c.011.017.023.033.036.051a.821.821,0,0,0,.064.065c.018.016.036.031.057.047s.06.043.094.063.048.029.075.044.078.042.122.062l.093.04c.048.02.1.04.15.059l.109.037c.056.019.114.037.175.055l.124.034c.065.017.13.035.2.051.044.011.091.021.137.031.072.017.145.032.222.048l.151.029.242.042.164.025c.086.013.171.026.26.037l.173.021.282.032.172.016.308.028.167.011c.112.008.223.016.337.022l.149.007c.124.006.249.012.376.016l.082,0q.49.015,1.005.01c.355,0,.7-.015,1.038-.032l.046,0c.141-.007.277-.017.414-.026l.11-.007c.126-.01.249-.021.372-.032l.13-.012c.117-.012.23-.025.342-.038l.135-.015c.109-.013.212-.029.316-.043l.136-.02c.1-.015.2-.032.295-.048l.127-.021c.094-.017.185-.036.275-.055.039-.008.078-.015.115-.024.089-.019.172-.039.254-.059l.1-.025c.08-.021.156-.043.23-.064l.091-.028c.071-.022.138-.045.2-.068l.08-.029c.062-.024.119-.048.173-.073l.067-.03c.051-.025.1-.051.143-.076l.053-.032a1.273,1.273,0,0,0,.11-.078l.041-.036a.563.563,0,0,0,.074-.078.373.373,0,0,0,.027-.038A.36.36,0,0,0,156.62,193.047Z" transform="translate(-145.499 -191.808)" fill="#ffcd2e"/>
          </g>
          <g id="Group_1862" data-name="Group 1862" transform="translate(0.353 3.488)">
            <path id="Path_4642" data-name="Path 4642" d="M156.655,192.554l-.015-1.5a.292.292,0,0,1-.026.116l0,.01a.46.46,0,0,1-.079.115l0,0a.81.81,0,0,1-.121.1.457.457,0,0,1-.038.027c-.038.026-.082.052-.128.078l-.051.029q-.1.05-.212.1l-.04.015c-.067.026-.138.053-.214.078l-.091.029c-.064.021-.132.04-.2.06-.034.01-.069.02-.1.029-.08.021-.164.042-.25.063l-.078.019c-.115.025-.235.051-.36.074-.029.006-.059.011-.09.017-.1.017-.2.035-.3.051l-.137.021c-.1.015-.192.029-.29.041l-.14.019c-.121.015-.246.029-.372.042l-.074.008c-.151.016-.306.029-.463.042l-.137.01c-.116.009-.234.017-.353.023l-.169.01c-.117.006-.235.011-.355.015l-.159.006q-.257.008-.519.011c-3.075.032-5.576-.481-5.584-1.145l.016,1.5c.006.664,2.507,1.176,5.584,1.145.175,0,.347-.006.518-.011l.16-.006c.119,0,.237-.009.354-.015l.169-.01c.12-.006.237-.014.353-.023l.137-.01c.158-.013.313-.026.464-.042l.073-.008c.126-.013.25-.027.372-.042l.14-.019q.149-.019.29-.04l.137-.021.3-.051.09-.016c.124-.024.244-.049.359-.074l.078-.019c.086-.02.17-.041.251-.063l.1-.029c.07-.02.137-.04.2-.06l.092-.029c.075-.026.147-.052.213-.078l.04-.015c.077-.032.147-.064.212-.1l.051-.029c.029-.017.061-.032.088-.049l.04-.029.039-.027a.894.894,0,0,0,.12-.1h0l0,0a.455.455,0,0,0,.078-.109l0-.006,0-.01A.277.277,0,0,0,156.655,192.554Z" transform="translate(-145.499 -189.908)" fill="#f5b026"/>
            <path id="Path_4643" data-name="Path 4643" d="M156.62,190.845c0-.006.006-.011.008-.017a.17.17,0,0,0,.01-.063l0-.009c-.007-.666-2.5-1.179-5.581-1.147a16.334,16.334,0,0,0-4.687.6c-.552.193-.875.417-.873.657a.239.239,0,0,0,.013.073c0,.007.009.014.012.022a.336.336,0,0,0,.033.065.546.546,0,0,0,.036.051.826.826,0,0,0,.064.066c.018.015.036.031.057.047s.06.043.094.063.048.029.075.044.078.041.122.062l.093.04c.048.02.1.039.15.059l.109.037c.056.018.114.037.175.055l.124.034c.065.017.13.035.2.051l.137.031c.072.016.145.032.222.048l.151.028c.079.015.158.029.242.043l.164.025.26.037.173.021c.093.012.185.023.282.032l.172.017c.1.01.2.019.308.027l.167.012c.112.008.223.016.337.022l.149.006c.124.006.249.013.376.017l.082,0c.326.01.661.014,1.005.01s.7-.015,1.038-.032l.046,0c.141-.007.277-.017.414-.026l.11-.007c.126-.01.249-.021.372-.032l.13-.011c.117-.012.23-.025.342-.038l.135-.016c.109-.013.212-.028.316-.043l.136-.019c.1-.015.2-.032.295-.048l.127-.022c.094-.017.185-.036.275-.054l.115-.024c.089-.019.172-.04.254-.059l.1-.025c.08-.021.156-.043.23-.065l.091-.027c.071-.022.138-.045.2-.069l.08-.029c.062-.024.119-.048.173-.073l.067-.031c.051-.025.1-.05.143-.075l.053-.032a1.276,1.276,0,0,0,.11-.078l.041-.036a.667.667,0,0,0,.074-.078.311.311,0,0,0,.027-.039A.361.361,0,0,0,156.62,190.845Z" transform="translate(-145.499 -189.607)" fill="#ffcd2e"/>
          </g>
          <g id="Group_1863" data-name="Group 1863" transform="translate(0 1.744)">
            <path id="Path_4644" data-name="Path 4644" d="M156.209,190.353l-.015-1.5a.3.3,0,0,1-.026.116l0,.01a.464.464,0,0,1-.079.116l0,0a.808.808,0,0,1-.121.1l-.038.027c-.038.026-.082.051-.128.077l-.051.029c-.064.033-.135.066-.212.1l-.039.014c-.067.027-.138.053-.214.078l-.091.029c-.064.021-.132.041-.2.061l-.1.029c-.08.021-.164.042-.25.063l-.079.018c-.115.026-.234.051-.359.074l-.09.016c-.1.018-.2.036-.3.051l-.137.021-.29.041-.14.018c-.121.015-.246.029-.372.043l-.074.008c-.151.015-.306.029-.463.041l-.137.01-.353.023-.169.009c-.117.006-.235.011-.355.016l-.159.006q-.257.008-.519.011c-3.075.031-5.576-.482-5.584-1.146l.016,1.5c.006.664,2.507,1.176,5.583,1.146.175,0,.347-.006.518-.011l.16-.006c.119,0,.237-.01.354-.016l.169-.009.353-.023.137-.01c.158-.012.313-.026.463-.041l.074-.008c.126-.013.25-.028.372-.043l.14-.018.29-.041.137-.021c.1-.017.2-.034.3-.052l.09-.016c.125-.024.245-.048.36-.074l.078-.018c.086-.021.17-.041.251-.063l.1-.029c.07-.02.137-.04.2-.06l.092-.03c.075-.025.147-.051.213-.078l.04-.014c.077-.032.147-.065.212-.1.019-.009.034-.019.051-.029s.061-.032.088-.049.026-.018.04-.028l.039-.027a.9.9,0,0,0,.12-.1h0l0,0a.489.489,0,0,0,.078-.109l0-.006,0-.01A.282.282,0,0,0,156.209,190.353Z" transform="translate(-145.053 -187.707)" fill="#f5b026"/>
            <path id="Path_4645" data-name="Path 4645" d="M156.174,188.644c0-.006.006-.012.008-.017a.193.193,0,0,0,.01-.063l0-.009c-.007-.666-2.5-1.18-5.581-1.148a16.329,16.329,0,0,0-4.687.6c-.552.193-.875.417-.873.656a.231.231,0,0,0,.013.073c0,.008.009.015.012.023a.36.36,0,0,0,.033.065c.011.017.023.034.036.051a.709.709,0,0,0,.064.065c.018.016.036.032.057.047s.06.043.094.064.048.029.075.043.078.042.122.062l.093.04c.048.02.1.04.15.059l.109.037c.056.019.114.037.175.055l.124.034c.065.018.13.036.2.052l.137.031c.072.016.145.032.222.047.049.01.1.019.151.029l.242.042.164.025.26.037.174.021.282.032.172.016c.1.01.2.02.308.028l.167.012c.112.007.223.016.337.021l.149.007c.124.006.249.012.376.016l.082,0q.49.014,1.005.01.532-.006,1.038-.032l.046,0c.14-.008.277-.017.414-.027l.11-.007c.126-.01.249-.021.372-.032l.13-.012c.116-.011.23-.025.342-.037l.135-.016c.109-.013.212-.028.316-.043l.136-.019c.1-.016.2-.032.295-.049l.127-.021c.094-.017.185-.036.275-.054l.115-.024c.088-.02.172-.04.254-.06l.1-.025c.08-.021.155-.042.23-.064l.091-.028c.071-.022.138-.045.2-.068l.08-.029c.062-.024.119-.048.173-.072l.067-.031c.051-.025.1-.05.143-.076l.053-.032c.04-.026.077-.052.11-.078l.041-.035a.617.617,0,0,0,.074-.079c.01-.013.018-.025.027-.038A.36.36,0,0,0,156.174,188.644Z" transform="translate(-145.053 -187.405)" fill="#ffcd2e"/>
          </g>
          <g id="Group_1864" data-name="Group 1864" transform="translate(0.353)">
            <path id="Path_4646" data-name="Path 4646" d="M156.655,188.151l-.015-1.5a.29.29,0,0,1-.026.116l0,.01a.46.46,0,0,1-.079.115l0,0a.86.86,0,0,1-.121.1l-.038.027c-.038.026-.082.051-.128.077l-.051.029q-.1.05-.212.1l-.04.015q-.1.04-.214.078l-.091.029c-.064.021-.132.041-.2.06l-.1.029c-.08.021-.164.042-.25.062l-.078.019c-.115.026-.235.051-.36.074l-.09.016c-.1.018-.2.035-.3.051l-.137.021-.29.041-.14.018c-.121.015-.246.029-.372.042l-.074.009q-.227.023-.463.041l-.137.01-.353.024-.169.009c-.117.006-.235.011-.355.015l-.159.006c-.171,0-.344.009-.519.01-3.075.032-5.576-.481-5.584-1.145l.016,1.5c.006.664,2.507,1.176,5.584,1.145.175,0,.347-.006.518-.01l.16-.006c.119,0,.237-.009.354-.015l.169-.009.353-.024.137-.01c.158-.013.313-.026.464-.041l.073-.009c.126-.013.25-.027.372-.042l.14-.018.29-.041.137-.021.3-.051.09-.016c.124-.024.244-.048.359-.074l.078-.019c.086-.02.17-.04.251-.062l.1-.029c.07-.019.137-.04.2-.06l.092-.029c.075-.025.147-.051.213-.078l.04-.015c.077-.032.147-.064.212-.1l.051-.029c.029-.017.061-.032.088-.049l.04-.028.039-.027a.9.9,0,0,0,.12-.1h0l0,0a.455.455,0,0,0,.078-.109l0-.006,0-.01A.277.277,0,0,0,156.655,188.151Z" transform="translate(-145.499 -185.505)" fill="#f5b026"/>
            <path id="Path_4647" data-name="Path 4647" d="M156.62,186.442c0-.006.006-.011.008-.017a.176.176,0,0,0,.01-.063l0-.009c-.007-.666-2.5-1.179-5.581-1.147a16.329,16.329,0,0,0-4.687.6c-.552.193-.875.417-.873.656a.231.231,0,0,0,.013.073.2.2,0,0,0,.012.022.366.366,0,0,0,.033.066c.011.017.023.033.036.051a.818.818,0,0,0,.064.065c.018.016.036.031.057.047s.06.043.094.063.048.029.075.044.078.041.122.062l.093.04c.048.02.1.04.15.059l.109.037c.056.019.114.037.175.055l.124.034c.065.017.13.035.2.051.044.011.091.021.137.031.072.017.145.032.222.048l.151.028c.079.015.158.029.242.043l.164.025c.086.013.171.026.26.037l.173.021.282.032.172.016.308.028.167.011c.112.008.223.016.337.022l.149.007c.124.006.249.012.376.016l.082,0q.49.015,1.005.01c.355,0,.7-.015,1.038-.032l.046,0c.141-.007.277-.017.414-.026l.11-.007c.126-.01.249-.021.372-.032l.13-.012c.117-.012.23-.025.342-.038l.135-.015c.109-.013.212-.029.316-.044l.136-.019c.1-.015.2-.032.295-.048l.127-.021c.094-.017.185-.036.275-.055.039-.008.078-.015.115-.024.089-.019.172-.039.254-.059l.1-.025c.08-.021.156-.043.23-.064l.091-.028c.071-.022.138-.045.2-.068l.08-.029c.062-.024.119-.048.173-.073l.067-.03c.051-.025.1-.051.143-.076l.053-.032a1.276,1.276,0,0,0,.11-.078l.041-.036a.563.563,0,0,0,.074-.078.375.375,0,0,0,.027-.038A.349.349,0,0,0,156.62,186.442Z" transform="translate(-145.499 -185.204)" fill="#ffcd2e"/>
          </g>
        </g>
        <path id="Path_4648" data-name="Path 4648" d="M150.966,185.206a16.357,16.357,0,0,0-4.687.6c-.552.193-.875.417-.873.656l0,.006.013,1.311c-.23.134-.369.277-.368.427v.006l.016,1.493c0,.143.125.279.34.4l.013,1.34a.277.277,0,0,0,.028.112.3.3,0,0,0-.044.134l0,.006.015,1.493a.274.274,0,0,0,.028.112.3.3,0,0,0-.044.133v.006l.015,1.428a.429.429,0,0,0-.193.31v.006l.015,1.493a.4.4,0,0,0,.162.28l.015,1.465c.006.661,2.486,1.172,5.543,1.145Z" transform="translate(-145.053 -185.205)" fill="#1d1d1b" opacity="0.1"/>
      </g>
      <g id="Group_1879" data-name="Group 1879" transform="translate(155 166.858)">
        <g id="Group_1878" data-name="Group 1878">
          <g id="Group_1867" data-name="Group 1867" transform="translate(0.353 17.448)">
            <path id="Path_4649" data-name="Path 4649" d="M173.887,201.359l-.015-1.5a.289.289,0,0,1-.026.116l0,.01a.447.447,0,0,1-.079.115l0,0a.86.86,0,0,1-.121.1l-.038.027c-.039.026-.082.051-.128.077l-.051.029c-.065.033-.135.066-.212.1l-.039.014c-.067.027-.138.053-.214.078l-.091.029c-.064.021-.132.041-.2.061l-.1.029c-.08.021-.164.042-.25.062l-.079.019c-.115.026-.234.051-.359.074l-.09.016c-.1.018-.2.035-.3.051l-.137.021-.29.041-.141.018c-.121.015-.245.029-.372.043l-.073.008c-.151.015-.307.029-.463.041l-.137.01-.353.023-.169.009c-.117.006-.235.011-.355.016l-.159.006q-.257.007-.519.011c-3.075.031-5.576-.482-5.584-1.146l.016,1.5c.006.664,2.507,1.176,5.583,1.146q.263,0,.519-.011l.16-.006c.119,0,.237-.01.354-.016l.169-.009.353-.023.137-.01q.236-.019.463-.041l.074-.008c.126-.013.25-.028.372-.043l.14-.018.29-.041.137-.021c.1-.016.2-.033.3-.051l.09-.016c.124-.024.245-.048.36-.074l.078-.019c.086-.02.17-.04.251-.062l.1-.029c.07-.019.137-.04.2-.06l.092-.029c.075-.025.147-.051.213-.078l.04-.015q.115-.048.212-.1l.051-.029c.029-.016.061-.032.088-.049s.026-.018.04-.028l.038-.027a.86.86,0,0,0,.121-.1h0l0,0a.456.456,0,0,0,.078-.109l0-.006,0-.01A.29.29,0,0,0,173.887,201.359Z" transform="translate(-162.731 -198.714)" fill="#f5b026"/>
            <path id="Path_4650" data-name="Path 4650" d="M173.851,199.651c0-.006.007-.012.009-.017a.22.22,0,0,0,.009-.063l0-.009c-.007-.667-2.5-1.18-5.581-1.148a16.329,16.329,0,0,0-4.687.6c-.552.193-.875.417-.873.656a.194.194,0,0,0,.013.073c0,.008.009.015.011.023a.428.428,0,0,0,.034.065.5.5,0,0,0,.036.051.7.7,0,0,0,.064.065.691.691,0,0,0,.057.047,1.128,1.128,0,0,0,.093.063c.024.015.049.029.076.044s.078.042.122.062l.093.04c.048.02.1.04.15.059l.109.037c.056.019.114.037.175.055l.124.034c.065.017.13.035.2.051l.137.032c.072.016.145.032.222.047l.151.029.242.042.164.025c.086.013.171.026.26.037l.173.021.282.032.172.016c.1.01.2.02.308.028l.167.011c.111.008.222.016.337.022l.149.007c.124.006.249.012.376.016l.082,0q.49.014,1.005.01.532-.006,1.038-.032l.046,0c.14-.007.277-.017.414-.026l.109-.007c.127-.01.25-.021.372-.032l.13-.012c.116-.011.23-.025.342-.038l.135-.015c.109-.013.212-.029.316-.043l.136-.02c.1-.015.2-.032.295-.048l.126-.021c.1-.017.186-.036.276-.055.038-.008.078-.015.115-.024.088-.019.172-.039.254-.059l.1-.025c.08-.021.155-.042.229-.064l.092-.028c.071-.022.138-.045.2-.068l.08-.029c.061-.024.119-.048.173-.072l.067-.031c.051-.025.1-.05.143-.076l.053-.032a1.146,1.146,0,0,0,.109-.078c.015-.012.029-.023.041-.035a.624.624,0,0,0,.074-.079c.01-.013.018-.025.027-.038A.393.393,0,0,0,173.851,199.651Z" transform="translate(-162.731 -198.412)" fill="#ffcd2e"/>
          </g>
          <g id="Group_1868" data-name="Group 1868" transform="translate(0.177 15.703)">
            <path id="Path_4651" data-name="Path 4651" d="M173.664,199.158l-.016-1.5a.288.288,0,0,1-.025.116l0,.01a.465.465,0,0,1-.08.115v0a1.031,1.031,0,0,1-.121.1l-.038.026c-.039.026-.082.052-.128.078l-.051.029c-.065.033-.135.066-.212.1l-.039.015q-.1.04-.214.078l-.091.029c-.065.021-.132.04-.2.06l-.1.029c-.08.021-.164.042-.25.062l-.079.019c-.115.025-.234.051-.359.074l-.09.016-.3.051-.138.021q-.141.021-.29.04l-.14.019c-.121.015-.245.029-.372.042l-.073.009c-.151.015-.307.029-.464.041l-.136.01c-.116.009-.234.017-.353.023l-.169.01c-.116.006-.235.011-.354.015l-.16.006q-.255.008-.518.011c-3.076.032-5.577-.481-5.584-1.145l.015,1.5c.007.664,2.508,1.176,5.584,1.145.175,0,.348-.006.519-.01l.159-.006c.12,0,.238-.01.355-.015l.169-.01c.119-.006.236-.014.353-.023l.136-.01c.158-.013.313-.026.464-.042l.073-.008c.127-.013.25-.027.372-.042l.141-.019q.147-.019.29-.04l.137-.021c.1-.017.2-.034.3-.051l.09-.016c.124-.024.244-.049.359-.074l.079-.019c.086-.02.17-.041.25-.063.036-.009.07-.019.1-.029.07-.02.136-.04.2-.06l.091-.029c.076-.026.147-.051.214-.078l.039-.015c.078-.032.147-.064.212-.1l.051-.029c.03-.017.062-.032.088-.049s.026-.019.04-.029.026-.017.038-.027a.852.852,0,0,0,.121-.1h0l0,0a.453.453,0,0,0,.077-.109l0-.006,0-.01A.289.289,0,0,0,173.664,199.158Z" transform="translate(-162.508 -196.512)" fill="#f5b026"/>
            <path id="Path_4652" data-name="Path 4652" d="M173.628,197.449a.118.118,0,0,0,.009-.017.21.21,0,0,0,.01-.063l0-.01c-.006-.666-2.5-1.179-5.58-1.148a16.32,16.32,0,0,0-4.687.605c-.552.192-.875.417-.873.656a.213.213,0,0,0,.012.073c0,.007.01.015.012.022a.326.326,0,0,0,.034.066.4.4,0,0,0,.036.05.619.619,0,0,0,.064.066c.017.015.036.031.057.047a1.129,1.129,0,0,0,.093.063c.024.015.049.029.075.044s.079.041.123.062l.093.04c.048.02.1.039.149.059l.109.037c.057.019.114.037.176.055l.123.034c.065.017.131.035.2.051l.136.031c.073.016.146.032.223.048l.151.028c.08.015.159.029.242.043l.164.025.26.037.173.021.283.032.171.016c.1.01.2.019.309.027l.166.012c.112.008.223.016.337.022l.148.006c.125.006.25.013.377.017l.082,0c.327.009.662.014,1.006.01s.7-.015,1.037-.032l.047,0c.14-.007.277-.017.414-.026l.109-.007c.127-.01.25-.021.372-.032l.131-.011c.116-.012.229-.025.342-.038l.135-.016c.108-.013.212-.028.316-.043l.135-.019c.1-.015.2-.032.3-.048l.126-.022c.1-.017.185-.035.275-.054l.116-.024c.088-.019.171-.04.254-.059l.1-.025c.08-.021.155-.043.229-.064l.092-.028q.106-.033.2-.069l.079-.029c.062-.024.119-.048.173-.073l.067-.03q.077-.038.143-.076l.054-.032a1.145,1.145,0,0,0,.109-.078c.015-.012.029-.024.041-.036a.679.679,0,0,0,.074-.078.417.417,0,0,0,.026-.039A.329.329,0,0,0,173.628,197.449Z" transform="translate(-162.508 -196.21)" fill="#ffcd2e"/>
          </g>
          <g id="Group_1869" data-name="Group 1869" transform="translate(0.354 13.96)">
            <path id="Path_4653" data-name="Path 4653" d="M173.888,196.957l-.016-1.5a.282.282,0,0,1-.026.116l0,.01a.469.469,0,0,1-.08.116l0,0a.844.844,0,0,1-.12.1l-.039.027c-.038.026-.082.051-.128.077-.017.01-.032.02-.051.029-.065.033-.135.067-.212.1l-.039.015c-.067.026-.139.052-.214.078l-.091.03-.2.06-.1.029c-.081.021-.164.042-.251.063l-.078.019q-.172.038-.359.074l-.09.016c-.1.018-.2.036-.3.052l-.137.021c-.094.014-.191.029-.29.041l-.14.018c-.121.015-.245.029-.372.043l-.073.008c-.151.015-.307.029-.464.041l-.137.01c-.116.009-.233.016-.353.023l-.169.009c-.116.006-.235.011-.354.016l-.16.006q-.255.008-.518.011c-3.076.032-5.577-.482-5.584-1.145l.015,1.5c.007.665,2.507,1.177,5.584,1.146q.263,0,.519-.011l.159-.006.354-.015.17-.01.353-.023.136-.01c.158-.012.313-.026.464-.041l.073-.008c.127-.013.25-.028.372-.043l.141-.018c.1-.013.195-.027.29-.041l.137-.021c.1-.017.2-.034.3-.052l.09-.016q.187-.036.359-.074l.079-.019c.086-.021.17-.041.25-.063l.1-.029c.07-.02.136-.04.2-.06l.091-.03c.076-.025.147-.051.214-.078l.039-.014c.078-.032.147-.065.212-.1.018-.01.034-.02.051-.029s.062-.032.088-.048.026-.019.04-.029.026-.017.038-.027a.851.851,0,0,0,.121-.1h0l0,0a.511.511,0,0,0,.077-.109l0-.006,0-.01A.3.3,0,0,0,173.888,196.957Z" transform="translate(-162.732 -194.311)" fill="#f5b026"/>
            <path id="Path_4654" data-name="Path 4654" d="M173.852,195.248c0-.006.007-.011.009-.017a.216.216,0,0,0,.01-.063l0-.009c-.006-.666-2.5-1.18-5.58-1.148a16.352,16.352,0,0,0-4.687.6c-.552.193-.875.417-.873.656a.21.21,0,0,0,.012.073c0,.008.009.015.012.023a.3.3,0,0,0,.034.065.353.353,0,0,0,.036.051.551.551,0,0,0,.064.065c.017.016.036.032.056.047s.06.043.094.064l.075.043c.039.021.079.042.123.062l.093.04c.048.02.1.04.149.059l.109.037c.057.019.114.038.176.055l.123.034c.065.018.131.036.2.052l.136.031c.073.016.146.032.223.047.048.01.1.019.151.029l.242.042.164.025.26.037.173.021c.093.011.186.023.283.032l.171.016c.1.01.2.02.308.028l.167.012c.112.008.223.016.337.022l.148.006c.124.006.249.012.377.016l.082,0q.491.014,1.006.01.532-.006,1.037-.033l.047,0c.14-.008.277-.017.414-.027l.109-.007c.127-.009.249-.021.372-.032l.13-.012c.117-.011.23-.025.343-.037l.135-.016c.108-.013.212-.028.316-.043l.135-.019c.1-.016.2-.032.3-.049l.126-.021c.1-.017.185-.036.275-.054l.116-.024.253-.059.1-.026c.08-.021.155-.042.229-.064l.092-.027c.071-.023.137-.045.2-.069l.079-.029c.062-.024.119-.048.173-.072l.067-.031c.051-.025.1-.05.143-.076l.054-.032a1.149,1.149,0,0,0,.109-.078c.014-.011.029-.023.041-.035a.68.68,0,0,0,.074-.078l.026-.039A.361.361,0,0,0,173.852,195.248Z" transform="translate(-162.732 -194.009)" fill="#ffcd2e"/>
          </g>
          <g id="Group_1870" data-name="Group 1870" transform="translate(0.353 12.216)">
            <path id="Path_4655" data-name="Path 4655" d="M173.887,194.756l-.015-1.5a.29.29,0,0,1-.026.116l0,.01a.447.447,0,0,1-.079.115l0,0a.861.861,0,0,1-.121.1l-.038.027c-.039.026-.082.051-.128.077l-.051.029c-.065.033-.135.066-.212.1l-.039.015c-.067.027-.138.053-.214.078l-.091.029c-.064.021-.132.041-.2.06l-.1.029c-.08.021-.164.042-.25.062l-.079.019c-.115.026-.234.051-.359.074l-.09.016c-.1.018-.2.035-.3.051l-.137.021-.29.041-.141.018c-.121.015-.245.029-.372.043l-.073.008c-.151.015-.307.029-.463.041l-.137.01-.353.024-.169.009c-.117.006-.235.011-.355.016l-.159.006q-.257.007-.519.011c-3.075.031-5.576-.482-5.584-1.146l.016,1.5c.006.664,2.507,1.176,5.583,1.146q.263,0,.519-.011l.16-.006c.119,0,.237-.01.354-.016l.169-.009.353-.024.137-.01q.236-.019.463-.041l.074-.008c.126-.013.25-.028.372-.043l.14-.018.29-.041.137-.021c.1-.017.2-.033.3-.051l.09-.016c.124-.024.245-.048.36-.074l.078-.019c.086-.02.17-.04.251-.062l.1-.029c.07-.019.137-.04.2-.06l.092-.029c.075-.025.147-.051.213-.078l.04-.015q.115-.048.212-.1l.051-.029c.029-.016.061-.032.088-.049s.026-.019.04-.028l.038-.027a.859.859,0,0,0,.121-.1h0l0,0a.456.456,0,0,0,.078-.109l0-.006,0-.01A.289.289,0,0,0,173.887,194.756Z" transform="translate(-162.731 -192.109)" fill="#f5b026"/>
            <path id="Path_4656" data-name="Path 4656" d="M173.851,193.047c0-.006.007-.012.009-.017a.22.22,0,0,0,.009-.063l0-.01c-.007-.666-2.5-1.179-5.581-1.147a16.329,16.329,0,0,0-4.687.6c-.552.193-.875.417-.873.656a.194.194,0,0,0,.013.073c0,.008.009.015.011.022a.4.4,0,0,0,.034.066.618.618,0,0,0,.036.051.815.815,0,0,0,.064.065c.017.016.036.031.057.047s.059.043.093.063.049.029.076.044.078.042.122.062l.093.04c.048.02.1.04.15.059l.109.037c.056.019.114.037.175.055l.124.034c.065.017.13.035.2.051.044.011.091.021.137.031.072.017.145.032.222.048l.151.029.242.042.164.025c.086.013.171.026.26.037l.173.021.282.032.172.016.308.028.167.011c.111.008.222.016.337.022l.149.007c.124.006.249.012.376.016l.082,0q.49.015,1.005.01c.355,0,.7-.015,1.038-.032l.046,0c.14-.007.277-.017.414-.026l.109-.007c.127-.01.25-.021.372-.032l.13-.012c.116-.012.23-.025.342-.038l.135-.015c.109-.013.212-.029.316-.043l.136-.02c.1-.015.2-.032.295-.048l.126-.021c.1-.017.186-.036.276-.055.038-.008.078-.015.115-.024.088-.019.172-.039.254-.059l.1-.025c.08-.021.155-.043.229-.064l.092-.028c.071-.022.138-.045.2-.068l.08-.029c.061-.024.119-.048.173-.073l.067-.03c.051-.025.1-.051.143-.076l.053-.032a1.143,1.143,0,0,0,.109-.078c.015-.012.029-.024.041-.036a.57.57,0,0,0,.074-.078c.01-.013.018-.025.027-.038A.393.393,0,0,0,173.851,193.047Z" transform="translate(-162.731 -191.808)" fill="#ffcd2e"/>
          </g>
          <g id="Group_1871" data-name="Group 1871" transform="translate(0.353 10.472)">
            <path id="Path_4657" data-name="Path 4657" d="M173.887,192.554l-.015-1.5a.292.292,0,0,1-.026.116l0,.01a.46.46,0,0,1-.079.115v0a.861.861,0,0,1-.122.1c-.012.01-.025.018-.038.027-.039.026-.082.052-.128.078l-.051.029c-.065.033-.135.066-.212.1l-.039.015c-.067.026-.138.053-.214.078l-.091.029c-.064.021-.132.04-.2.06-.035.01-.069.02-.1.029-.08.021-.164.042-.25.063l-.079.019c-.115.025-.234.051-.359.074l-.09.017c-.1.017-.2.035-.3.051l-.137.021c-.1.015-.192.029-.29.041l-.141.019c-.121.015-.245.029-.372.042l-.073.008c-.151.016-.307.029-.463.042l-.137.01c-.116.009-.234.017-.353.023l-.169.01c-.117.006-.235.011-.355.015l-.159.006q-.257.008-.519.011c-3.075.032-5.576-.481-5.584-1.145l.016,1.5c.006.664,2.507,1.176,5.583,1.145q.263,0,.519-.011l.16-.006c.119,0,.237-.009.354-.015l.169-.01c.12-.006.237-.014.353-.023l.137-.01c.158-.013.312-.026.463-.042l.074-.008c.126-.013.25-.027.372-.042l.14-.019q.147-.019.29-.04l.137-.021c.1-.017.2-.034.3-.051l.09-.016c.124-.024.245-.049.36-.074l.078-.019c.086-.02.17-.041.251-.063l.1-.029c.07-.02.137-.04.2-.06l.092-.029c.075-.026.147-.052.213-.078l.04-.015q.115-.048.212-.1l.051-.029c.029-.017.061-.032.088-.049l.04-.029a.457.457,0,0,0,.038-.027.857.857,0,0,0,.121-.1h0l0,0a.456.456,0,0,0,.078-.109l0-.006,0-.01A.289.289,0,0,0,173.887,192.554Z" transform="translate(-162.731 -189.908)" fill="#f5b026"/>
            <path id="Path_4658" data-name="Path 4658" d="M173.851,190.845a.119.119,0,0,0,.009-.017.211.211,0,0,0,.009-.063l0-.009c-.007-.666-2.5-1.179-5.581-1.147a16.334,16.334,0,0,0-4.687.6c-.552.193-.875.417-.873.657a.2.2,0,0,0,.013.073c0,.007.009.014.011.022a.394.394,0,0,0,.034.065.428.428,0,0,0,.036.051.82.82,0,0,0,.064.066c.017.015.036.031.057.047s.059.043.093.063.049.029.076.044.078.041.122.062l.093.04c.048.02.1.039.15.059l.109.037c.056.018.114.037.175.055l.124.034c.065.017.13.035.2.051l.137.031c.072.016.145.032.222.048l.151.028c.079.015.158.029.242.043l.164.025.26.037.173.021c.093.012.185.023.282.032l.172.017c.1.01.2.019.308.027l.167.012c.111.008.222.016.337.022l.149.006c.124.006.249.013.376.017l.082,0c.326.01.661.014,1.005.01s.7-.015,1.038-.032l.046,0c.14-.007.277-.017.414-.026l.109-.007c.127-.01.25-.021.372-.032l.13-.011c.116-.012.23-.025.342-.038l.135-.016c.109-.013.212-.028.316-.043l.136-.019c.1-.015.2-.032.295-.048l.126-.022c.1-.017.186-.036.276-.054l.115-.024c.088-.019.172-.04.254-.059l.1-.025c.08-.021.155-.043.229-.065l.092-.027c.071-.022.138-.045.2-.069l.08-.029c.061-.024.119-.048.173-.073l.067-.031c.051-.025.1-.05.143-.075l.053-.032a1.146,1.146,0,0,0,.109-.078c.015-.012.029-.024.041-.036a.678.678,0,0,0,.074-.078.426.426,0,0,0,.027-.039A.393.393,0,0,0,173.851,190.845Z" transform="translate(-162.731 -189.607)" fill="#ffcd2e"/>
          </g>
          <g id="Group_1872" data-name="Group 1872" transform="translate(0 8.728)">
            <path id="Path_4659" data-name="Path 4659" d="M173.441,190.353l-.015-1.5a.3.3,0,0,1-.026.116l0,.01a.464.464,0,0,1-.079.116l0,0a.85.85,0,0,1-.121.1l-.038.027c-.039.026-.082.051-.128.077l-.051.029c-.065.033-.135.066-.212.1l-.039.014c-.067.027-.138.053-.214.078l-.091.029c-.065.021-.132.041-.2.061l-.1.029c-.08.021-.164.042-.25.063l-.079.018c-.115.026-.234.051-.359.074l-.09.016c-.1.018-.2.036-.3.051l-.137.021-.29.041-.141.018c-.121.015-.245.029-.372.043l-.073.008c-.151.015-.307.029-.464.041l-.136.01-.353.023-.17.009c-.116.006-.234.011-.354.016l-.159.006q-.257.008-.519.011c-3.076.031-5.576-.482-5.584-1.146l.015,1.5c.007.664,2.508,1.176,5.584,1.146q.263,0,.519-.011l.159-.006c.12,0,.238-.01.355-.016l.169-.009.353-.023.137-.01c.158-.012.312-.026.463-.041l.074-.008c.126-.013.25-.028.372-.043l.14-.018.29-.041.137-.021c.1-.017.2-.034.3-.052l.09-.016c.124-.024.245-.048.36-.074l.078-.018c.086-.021.17-.041.251-.063l.1-.029c.07-.02.137-.04.2-.06l.092-.03c.075-.025.147-.051.213-.078l.04-.014c.077-.032.147-.065.212-.1.018-.009.034-.019.051-.029s.061-.032.088-.049.026-.018.04-.028l.038-.027a.858.858,0,0,0,.121-.1h0l0,0a.49.49,0,0,0,.078-.109l0-.006,0-.01A.3.3,0,0,0,173.441,190.353Z" transform="translate(-162.285 -187.707)" fill="#f5b026"/>
            <path id="Path_4660" data-name="Path 4660" d="M173.405,188.644a.181.181,0,0,0,.009-.017.216.216,0,0,0,.01-.063l0-.009c-.007-.666-2.5-1.18-5.581-1.148a16.325,16.325,0,0,0-4.687.6c-.552.193-.875.417-.873.656a.194.194,0,0,0,.013.073c0,.008.009.015.011.023a.426.426,0,0,0,.034.065.5.5,0,0,0,.036.051.618.618,0,0,0,.064.065.7.7,0,0,0,.057.047c.029.021.059.043.093.064l.075.043c.039.021.079.042.123.062l.093.04c.048.02.1.04.15.059l.109.037c.056.019.114.037.175.055l.124.034c.064.018.13.036.2.052l.137.031c.072.016.145.032.222.047.049.01.1.019.151.029l.242.042.164.025.26.037.173.021.282.032.172.016c.1.01.2.02.308.028l.167.012c.111.007.222.016.337.021l.149.007c.124.006.249.012.376.016l.082,0q.49.014,1.005.01.532-.006,1.038-.032l.046,0c.14-.008.277-.017.414-.027l.109-.007c.127-.01.25-.021.372-.032l.131-.012c.116-.011.23-.025.342-.037l.135-.016c.109-.013.212-.028.316-.043l.136-.019c.1-.016.2-.032.295-.049l.126-.021c.1-.017.185-.036.276-.054l.115-.024c.088-.02.172-.04.254-.06l.1-.025c.08-.021.155-.042.229-.064l.092-.028c.071-.022.138-.045.2-.068l.079-.029c.062-.024.12-.048.174-.072l.067-.031c.051-.025.1-.05.143-.076l.053-.032a1.3,1.3,0,0,0,.109-.078.456.456,0,0,0,.041-.035.626.626,0,0,0,.074-.079c.01-.013.018-.025.027-.038A.4.4,0,0,0,173.405,188.644Z" transform="translate(-162.285 -187.405)" fill="#ffcd2e"/>
          </g>
          <g id="Group_1873" data-name="Group 1873" transform="translate(0.353 6.984)">
            <path id="Path_4661" data-name="Path 4661" d="M173.887,188.151l-.015-1.5a.29.29,0,0,1-.026.116l0,.01a.46.46,0,0,1-.079.115l0,0a.861.861,0,0,1-.121.1l-.038.027c-.039.026-.082.051-.128.077l-.051.029c-.065.033-.135.066-.212.1l-.039.015c-.067.027-.138.053-.214.078l-.091.029c-.064.021-.132.041-.2.06l-.1.029c-.08.021-.164.042-.25.062l-.079.019c-.115.026-.234.051-.359.074l-.09.016c-.1.018-.2.035-.3.051l-.137.021-.29.041-.141.018c-.121.015-.245.029-.372.042l-.073.009c-.151.015-.307.029-.463.041l-.137.01-.353.024-.169.009c-.117.006-.235.011-.355.015l-.159.006c-.171,0-.344.009-.519.01-3.075.032-5.576-.481-5.584-1.145l.016,1.5c.006.664,2.507,1.176,5.583,1.145.175,0,.348-.006.519-.01l.16-.006c.119,0,.237-.009.354-.015l.169-.009.353-.024.137-.01q.236-.019.463-.041l.074-.009c.126-.013.25-.027.372-.042l.14-.018.29-.041.137-.021c.1-.017.2-.034.3-.051l.09-.016c.124-.024.245-.048.36-.074l.078-.019c.086-.02.17-.04.251-.062l.1-.029c.07-.019.137-.04.2-.06l.092-.029c.075-.025.147-.051.213-.078l.04-.015q.115-.048.212-.1l.051-.029c.029-.017.061-.032.088-.049l.04-.028.038-.027a.86.86,0,0,0,.121-.1h0l0,0a.456.456,0,0,0,.078-.109l0-.006,0-.01A.29.29,0,0,0,173.887,188.151Z" transform="translate(-162.731 -185.505)" fill="#f5b026"/>
            <path id="Path_4662" data-name="Path 4662" d="M173.851,186.442a.169.169,0,0,0,.009-.017.22.22,0,0,0,.009-.063l0-.009c-.007-.666-2.5-1.179-5.581-1.147a16.329,16.329,0,0,0-4.687.6c-.552.193-.875.417-.873.656a.194.194,0,0,0,.013.073c0,.008.009.015.011.022a.436.436,0,0,0,.034.066.615.615,0,0,0,.036.051.812.812,0,0,0,.064.065c.017.016.036.031.057.047s.059.043.093.063.049.029.076.044.078.041.122.062l.093.04c.048.02.1.04.15.059l.109.037c.056.019.114.037.175.055l.124.034c.065.017.13.035.2.051.044.011.091.021.137.031.072.017.145.032.222.048l.151.028c.079.015.158.029.242.043l.164.025c.086.013.171.026.26.037l.173.021.282.032.172.016.308.028.167.011c.111.008.222.016.337.022l.149.007c.124.006.249.012.376.016l.082,0q.49.015,1.005.01c.355,0,.7-.015,1.038-.032l.046,0c.14-.007.277-.017.414-.026l.109-.007c.127-.01.25-.021.372-.032l.13-.012c.116-.012.23-.025.342-.038l.135-.015c.109-.013.212-.029.316-.044l.136-.019c.1-.015.2-.032.295-.048l.126-.021c.1-.017.186-.036.276-.055.038-.008.078-.015.115-.024.088-.019.172-.039.254-.059l.1-.025c.08-.021.155-.043.229-.064l.092-.028c.071-.022.138-.045.2-.068l.08-.029c.061-.024.119-.048.173-.073l.067-.03c.051-.025.1-.051.143-.076l.053-.032a1.146,1.146,0,0,0,.109-.078c.015-.012.029-.024.041-.036a.571.571,0,0,0,.074-.078c.01-.013.018-.025.027-.038A.379.379,0,0,0,173.851,186.442Z" transform="translate(-162.731 -185.204)" fill="#ffcd2e"/>
          </g>
          <g id="Group_1874" data-name="Group 1874" transform="translate(0.606 5.24)">
            <path id="Path_4663" data-name="Path 4663" d="M174.206,185.95l-.015-1.5a.3.3,0,0,1-.026.116l0,.01a.45.45,0,0,1-.079.116v0a.86.86,0,0,1-.122.1c-.012.01-.025.018-.038.027-.039.026-.082.052-.128.078l-.051.029c-.065.033-.135.066-.212.1l-.039.015c-.067.026-.138.052-.214.078l-.091.029c-.064.021-.132.04-.2.06l-.1.029c-.08.021-.164.042-.25.063l-.079.019q-.172.038-.359.074l-.09.017c-.1.017-.2.035-.3.051l-.137.021c-.1.014-.192.029-.29.041l-.141.019c-.121.015-.245.029-.371.042l-.074.008c-.151.016-.306.029-.463.042l-.137.01c-.116.009-.234.016-.353.023l-.169.009c-.117.006-.235.011-.355.015l-.159.006q-.257.008-.519.011c-3.075.032-5.576-.481-5.584-1.145l.016,1.5c.006.664,2.507,1.176,5.583,1.145.176,0,.348-.006.519-.011l.16-.006.354-.015.169-.009c.12-.006.237-.014.353-.023l.137-.01c.158-.013.313-.026.463-.042l.074-.008c.126-.013.25-.027.372-.043l.14-.018c.1-.013.2-.026.29-.041l.137-.021c.1-.017.2-.034.3-.051l.09-.017c.125-.023.245-.048.36-.074l.078-.019c.086-.021.17-.041.251-.063l.1-.029c.07-.02.137-.04.2-.06l.092-.029c.075-.026.147-.052.213-.078l.04-.015q.115-.048.212-.1l.051-.029c.029-.017.061-.032.088-.049l.04-.029a.46.46,0,0,0,.038-.027.81.81,0,0,0,.121-.1h0l0,0a.489.489,0,0,0,.078-.109l0-.006,0-.01A.283.283,0,0,0,174.206,185.95Z" transform="translate(-163.05 -183.304)" fill="#f5b026"/>
            <path id="Path_4664" data-name="Path 4664" d="M174.17,184.241a.119.119,0,0,0,.009-.017.211.211,0,0,0,.009-.063l0-.009c-.007-.666-2.5-1.179-5.581-1.148a16.358,16.358,0,0,0-4.687.6c-.552.193-.875.418-.873.657a.217.217,0,0,0,.013.073c0,.007.009.014.011.022a.394.394,0,0,0,.034.065.428.428,0,0,0,.036.051.7.7,0,0,0,.064.065.691.691,0,0,0,.057.047,1.133,1.133,0,0,0,.093.064c.024.014.049.029.076.044s.078.041.122.062l.093.04c.048.02.1.04.15.059l.109.037c.056.018.114.037.175.055l.124.035c.065.017.13.035.2.051l.137.031.222.048.151.028c.079.014.158.029.242.043l.164.025.26.037.173.021c.093.011.185.023.282.032l.172.017c.1.009.2.019.308.027l.167.012c.111.008.222.016.337.022l.149.006.376.017.082,0c.326.009.661.014,1.005.01s.7-.015,1.038-.032l.046,0,.414-.026.109-.007c.127-.009.25-.021.372-.032l.13-.012c.116-.011.23-.024.342-.037l.135-.016c.109-.013.212-.028.316-.043l.136-.019.295-.048.126-.022c.1-.017.186-.036.276-.054l.115-.024c.088-.019.172-.04.254-.059l.1-.025c.08-.021.155-.043.23-.065l.091-.027c.071-.022.138-.045.2-.069l.08-.029c.061-.023.119-.048.173-.072l.067-.031c.051-.025.1-.05.143-.075l.053-.032c.04-.026.077-.051.11-.078l.04-.036a.618.618,0,0,0,.074-.078c.01-.013.018-.026.027-.039A.34.34,0,0,0,174.17,184.241Z" transform="translate(-163.05 -183.002)" fill="#ffcd2e"/>
          </g>
          <g id="Group_1875" data-name="Group 1875" transform="translate(0.353 3.496)">
            <path id="Path_4665" data-name="Path 4665" d="M173.887,183.749l-.015-1.5a.3.3,0,0,1-.026.116l0,.01a.447.447,0,0,1-.079.115l0,0a.86.86,0,0,1-.121.1l-.038.027c-.039.026-.082.051-.128.077-.017.009-.033.02-.051.029-.065.033-.135.066-.212.1l-.039.014c-.067.027-.138.053-.214.078l-.091.029c-.064.021-.132.041-.2.061l-.1.029c-.08.021-.164.042-.25.063l-.079.018c-.115.026-.234.051-.359.074l-.09.016c-.1.018-.2.036-.3.051l-.137.021-.29.041-.141.018c-.121.015-.245.029-.372.043l-.073.008c-.151.015-.307.029-.463.041l-.137.01-.353.023-.169.009c-.117.006-.235.011-.355.016l-.159.006q-.257.007-.519.011c-3.075.031-5.576-.482-5.584-1.146l.016,1.5c.006.664,2.507,1.176,5.583,1.146q.263,0,.519-.011l.16-.006c.119,0,.237-.01.354-.016l.169-.009.353-.023.137-.01c.158-.012.312-.026.463-.041l.074-.008c.126-.013.25-.028.372-.043l.14-.018.29-.041.137-.021c.1-.016.2-.033.3-.051l.09-.016c.124-.024.245-.048.36-.074l.078-.018c.086-.021.17-.041.251-.063l.1-.029c.07-.02.137-.04.2-.061l.092-.029c.075-.025.147-.051.213-.078l.04-.014c.077-.032.147-.065.212-.1l.051-.029c.029-.016.061-.032.088-.049s.026-.018.04-.028l.038-.027a.86.86,0,0,0,.121-.1h0l0,0a.49.49,0,0,0,.078-.109l0-.006,0-.01A.289.289,0,0,0,173.887,183.749Z" transform="translate(-162.731 -181.103)" fill="#f5b026"/>
            <path id="Path_4666" data-name="Path 4666" d="M173.851,182.04c0-.006.007-.012.009-.017a.22.22,0,0,0,.009-.063l0-.009c-.007-.667-2.5-1.18-5.581-1.148a16.329,16.329,0,0,0-4.687.6c-.552.193-.875.417-.873.656a.194.194,0,0,0,.013.073c0,.008.009.015.011.023a.429.429,0,0,0,.034.065.5.5,0,0,0,.036.051.7.7,0,0,0,.064.065.691.691,0,0,0,.057.047c.029.021.059.043.093.064l.076.043c.038.021.078.042.122.062l.093.04c.048.02.1.04.15.059l.109.037c.056.019.114.037.175.055l.124.034c.065.018.13.036.2.051l.137.032c.072.016.145.032.222.047.049.01.1.019.151.029l.242.042.164.025c.086.013.171.026.26.038l.173.021.282.032.172.016c.1.01.2.02.308.028l.167.012.337.021.149.007c.124.006.249.012.376.016l.082,0q.49.014,1.005.01.532-.006,1.038-.032l.046,0c.14-.007.277-.017.414-.026l.109-.007c.127-.01.25-.021.372-.032l.13-.012c.116-.011.23-.025.342-.037l.135-.016c.109-.013.212-.029.316-.043l.136-.019c.1-.016.2-.032.295-.049l.126-.021c.1-.017.186-.036.276-.054l.115-.024c.088-.02.172-.04.254-.06l.1-.025c.08-.021.155-.042.229-.064l.092-.028c.071-.022.138-.045.2-.068l.08-.029c.061-.024.119-.048.173-.072l.067-.031c.051-.025.1-.05.143-.076l.053-.032a1.3,1.3,0,0,0,.109-.078c.015-.012.029-.023.041-.035a.625.625,0,0,0,.074-.079c.01-.013.018-.025.027-.038A.394.394,0,0,0,173.851,182.04Z" transform="translate(-162.731 -180.801)" fill="#ffcd2e"/>
          </g>
          <g id="Group_1876" data-name="Group 1876" transform="translate(0.509 1.747)">
            <path id="Path_4667" data-name="Path 4667" d="M174.1,181.44l-.039-1.5a.292.292,0,0,1-.024.116l0,.01a.446.446,0,0,1-.078.116l0,0a.891.891,0,0,1-.12.105l-.037.028c-.038.027-.082.053-.127.079-.017.01-.033.02-.051.029-.064.034-.134.068-.211.1l-.039.016c-.067.028-.137.055-.212.082l-.091.031c-.064.021-.131.043-.2.063l-.1.03c-.08.023-.163.044-.25.067l-.078.02c-.115.028-.234.054-.358.08l-.09.017c-.1.019-.2.038-.3.056l-.136.023-.289.046-.14.021q-.182.025-.371.048l-.074.01c-.151.017-.306.034-.463.048l-.137.012c-.116.01-.233.021-.352.029l-.169.012c-.117.008-.235.015-.354.021l-.16.009q-.255.012-.518.019c-3.075.079-5.584-.4-5.6-1.058l.038,1.5c.017.664,2.526,1.138,5.6,1.058.175,0,.348-.011.519-.019l.159-.008c.12-.006.238-.013.354-.021l.169-.012.353-.029.136-.012c.158-.015.312-.031.463-.049l.073-.009c.126-.015.25-.031.371-.048l.14-.021c.1-.014.195-.03.289-.046l.137-.023c.1-.018.2-.036.3-.056l.09-.017c.124-.025.243-.052.358-.08l.078-.02c.086-.021.17-.044.25-.066l.1-.031c.069-.021.136-.042.2-.063l.09-.031c.075-.026.146-.054.213-.082l.039-.015c.077-.033.146-.067.21-.1.018-.01.034-.019.051-.029s.061-.033.087-.05.026-.02.04-.029l.038-.027a.842.842,0,0,0,.12-.106h0v0a.483.483,0,0,0,.076-.11l0-.006,0-.01A.293.293,0,0,0,174.1,181.44Z" transform="translate(-162.928 -178.874)" fill="#f5b026"/>
            <path id="Path_4668" data-name="Path 4668" d="M174.047,179.753c0-.006.006-.012.008-.017a.218.218,0,0,0,.009-.063l0-.009c-.017-.666-2.523-1.14-5.6-1.061a16.344,16.344,0,0,0-4.676.677c-.55.2-.869.431-.864.67a.212.212,0,0,0,.014.072.119.119,0,0,0,.012.022.34.34,0,0,0,.034.065.418.418,0,0,0,.038.05.5.5,0,0,0,.065.064.688.688,0,0,0,.057.046c.029.021.061.042.1.063s.05.029.076.042.079.04.124.059l.093.04c.048.019.1.038.151.056l.109.036c.057.017.115.036.177.052l.124.032c.065.017.131.033.2.048l.137.029.223.044.152.026c.079.013.159.026.242.038l.164.022c.086.012.171.023.261.033l.173.018c.093.01.186.02.283.029l.172.013.309.023.167.009.337.017.149,0c.124,0,.249.008.377.01h.082c.327,0,.662,0,1.006-.006s.7-.026,1.037-.048l.046,0c.14-.01.277-.021.413-.033l.11-.009c.126-.011.249-.025.371-.038l.13-.013c.116-.013.23-.028.342-.043l.135-.017c.109-.015.212-.032.316-.048l.135-.021c.1-.017.2-.035.295-.053l.126-.023c.094-.019.185-.039.274-.059.039-.009.078-.017.115-.026.088-.02.171-.041.253-.063l.1-.027c.08-.022.155-.044.228-.067l.091-.029c.071-.023.137-.048.2-.071l.079-.031c.061-.025.118-.049.173-.074l.066-.032c.051-.026.1-.052.142-.078l.053-.033a1.126,1.126,0,0,0,.109-.079c.014-.012.028-.024.04-.036a.616.616,0,0,0,.074-.079c.009-.013.017-.026.025-.039A.362.362,0,0,0,174.047,179.753Z" transform="translate(-162.928 -178.593)" fill="#ffcd2e"/>
          </g>
          <g id="Group_1877" data-name="Group 1877" transform="translate(0.667)">
            <path id="Path_4669" data-name="Path 4669" d="M174.3,179.235l-.038-1.5a.28.28,0,0,1-.025.116l0,.01a.473.473,0,0,1-.078.116l0,0a.9.9,0,0,1-.12.106l-.037.027c-.038.027-.082.053-.127.079-.017.01-.032.02-.051.029-.064.034-.134.068-.211.1l-.039.016c-.067.028-.137.055-.212.082l-.091.031c-.064.021-.131.043-.2.063l-.1.031c-.08.022-.163.044-.25.066l-.078.02c-.115.028-.234.055-.358.08l-.09.017c-.1.019-.2.038-.3.056l-.136.023-.29.046-.14.021-.371.048-.073.009c-.151.017-.306.034-.463.049l-.137.012-.352.029-.17.012-.354.021-.159.008c-.17.008-.343.015-.518.019-3.075.079-5.584-.395-5.6-1.058l.039,1.5c.017.664,2.526,1.138,5.6,1.059q.263-.007.519-.019l.159-.009c.12-.006.238-.013.354-.021l.169-.012.353-.029.136-.012q.236-.023.463-.048l.073-.01c.126-.015.25-.031.371-.048l.14-.021c.1-.014.195-.029.289-.045l.137-.023.3-.056.09-.018c.124-.025.243-.051.357-.079l.079-.02c.086-.022.17-.044.25-.067l.1-.03c.069-.021.136-.042.2-.063l.09-.031c.075-.027.146-.054.212-.082l.04-.016c.076-.033.146-.067.21-.1l.051-.029c.029-.017.061-.034.087-.051l.04-.029.038-.028a.884.884,0,0,0,.119-.105h0l0,0a.466.466,0,0,0,.076-.11l0-.006,0-.01A.274.274,0,0,0,174.3,179.235Z" transform="translate(-163.127 -176.669)" fill="#f5b026"/>
            <path id="Path_4670" data-name="Path 4670" d="M174.246,177.548a.121.121,0,0,0,.009-.017.215.215,0,0,0,.009-.063l0-.009c-.017-.666-2.523-1.14-5.6-1.062a16.318,16.318,0,0,0-4.677.677c-.549.2-.868.431-.863.669a.236.236,0,0,0,.013.073c0,.007.01.014.012.022a.39.39,0,0,0,.035.064.433.433,0,0,0,.037.051.727.727,0,0,0,.066.064q.026.023.057.045c.029.021.061.042.1.063s.05.029.076.042.079.04.124.06l.093.039c.048.019.1.038.151.056l.109.036c.057.018.115.036.177.052.04.012.082.022.124.032.065.017.131.033.2.049l.137.029c.073.015.146.03.223.044.049.01.1.017.152.026l.242.039.164.022c.086.011.171.023.261.033l.173.018.283.028.172.013.309.023.167.009c.111.006.223.013.337.017l.149,0c.124,0,.249.008.377.01h.082q.491.007,1.006-.006c.355-.009.7-.026,1.037-.048l.046,0c.14-.009.277-.021.413-.032l.11-.01c.126-.011.249-.025.371-.037l.13-.014c.116-.013.229-.028.341-.043l.135-.017c.108-.015.212-.032.315-.048l.135-.021.295-.053.126-.024c.094-.019.185-.039.274-.059l.115-.025c.088-.021.171-.042.253-.063l.1-.027c.08-.022.155-.045.228-.068l.091-.029c.071-.023.137-.047.2-.071l.079-.03c.061-.025.118-.05.173-.075l.066-.032c.051-.026.1-.051.142-.078l.053-.032a1.135,1.135,0,0,0,.109-.08l.04-.036a.62.62,0,0,0,.074-.08c.01-.013.017-.026.025-.039A.312.312,0,0,0,174.246,177.548Z" transform="translate(-163.127 -176.388)" fill="#ffcd2e"/>
          </g>
        </g>
        <path id="Path_4671" data-name="Path 4671" d="M163.815,177.079c-.549.2-.868.431-.863.669l0,.006.036,1.42a.436.436,0,0,0-.2.321l0,.006.034,1.341a.431.431,0,0,0-.192.309v.006l.016,1.493a.458.458,0,0,0,.238.342l.013,1.279c-.17.117-.269.241-.268.368v.006l.013,1.312c-.231.134-.369.277-.368.426v.006l.016,1.492c0,.143.124.279.339.4l.014,1.34a.289.289,0,0,0,.027.112.307.307,0,0,0-.044.133v.006l.016,1.493a.277.277,0,0,0,.028.113.3.3,0,0,0-.044.133v.006l.014,1.428a.429.429,0,0,0-.193.311v.006l.015,1.493a.4.4,0,0,0,.162.279l.015,1.465c.006.664,2.507,1.176,5.583,1.146V176.412A15.885,15.885,0,0,0,163.815,177.079Z" transform="translate(-162.285 -176.393)" fill="#1d1d1b" opacity="0.1"/>
      </g>
      <g id="Group_1898" data-name="Group 1898" transform="translate(127.227 130.524)">
        <g id="Group_1895" data-name="Group 1895" transform="translate(41.397 25.797)">
          <g id="Group_1880" data-name="Group 1880" transform="translate(1.385 27.985)">
            <path id="Path_4672" data-name="Path 4672" d="M181.23,201.359l.015-1.5a.289.289,0,0,0,.026.116l0,.01a.447.447,0,0,0,.079.115l0,0a.859.859,0,0,0,.121.1l.038.027c.038.026.082.051.128.077l.051.029c.064.033.135.066.212.1l.039.014q.1.04.214.078l.091.029c.064.021.132.041.2.061l.1.029c.08.021.164.042.25.062l.078.019c.115.026.235.051.36.074l.09.016c.1.018.2.035.3.051l.137.021.29.041.14.018c.121.015.246.029.372.043l.074.008q.227.023.463.041l.137.01.353.023.169.009c.117.006.235.011.355.016l.159.006q.257.007.519.011c3.075.031,5.576-.482,5.584-1.146l-.016,1.5c-.006.664-2.507,1.176-5.584,1.146-.175,0-.347-.006-.518-.011l-.16-.006c-.119,0-.237-.01-.354-.016l-.169-.009-.353-.023-.137-.01c-.158-.013-.313-.026-.463-.041l-.074-.008c-.126-.013-.25-.028-.372-.043l-.14-.018-.29-.041-.137-.021c-.1-.016-.2-.033-.3-.051l-.09-.016c-.124-.024-.244-.048-.359-.074l-.078-.019c-.086-.02-.17-.04-.251-.062l-.1-.029c-.07-.019-.137-.04-.2-.06l-.092-.029c-.075-.025-.147-.051-.213-.078l-.04-.015c-.077-.032-.147-.064-.212-.1l-.051-.029c-.029-.016-.061-.032-.088-.049s-.026-.018-.04-.028l-.039-.027a.9.9,0,0,1-.12-.1h0l0,0a.457.457,0,0,1-.078-.109l0-.006,0-.01A.277.277,0,0,1,181.23,201.359Z" transform="translate(-181.23 -198.714)" fill="#f5b026"/>
            <path id="Path_4673" data-name="Path 4673" d="M181.269,199.651c0-.006-.006-.012-.008-.017a.176.176,0,0,1-.01-.063l0-.009c.007-.667,2.5-1.18,5.581-1.148a16.329,16.329,0,0,1,4.687.6c.552.193.875.417.873.656a.232.232,0,0,1-.013.073c0,.008-.009.015-.012.023a.36.36,0,0,1-.033.065c-.011.017-.023.034-.036.051a.705.705,0,0,1-.064.065c-.018.016-.036.032-.057.047s-.06.043-.094.063-.048.029-.075.044-.078.042-.122.062l-.093.04c-.048.02-.1.04-.15.059l-.109.037c-.056.019-.114.037-.175.055l-.124.034c-.065.017-.13.035-.2.051l-.137.032c-.072.016-.145.032-.222.047l-.151.029-.242.042-.164.025c-.086.013-.171.026-.26.037l-.173.021-.282.032-.172.016c-.1.01-.2.02-.308.028l-.167.011c-.112.008-.223.016-.337.022l-.149.007c-.124.006-.249.012-.376.016l-.082,0q-.49.014-1.005.01-.532-.006-1.038-.032l-.046,0c-.14-.007-.277-.017-.414-.026l-.11-.007c-.126-.01-.249-.021-.372-.032l-.13-.012c-.117-.011-.23-.025-.342-.038l-.135-.015c-.109-.013-.212-.029-.316-.043l-.136-.02c-.1-.015-.2-.032-.295-.048l-.127-.021c-.094-.017-.185-.036-.275-.055-.039-.008-.078-.015-.115-.024-.089-.019-.172-.039-.254-.059l-.1-.025c-.08-.021-.155-.042-.23-.064l-.091-.028c-.071-.022-.138-.045-.2-.068l-.08-.029c-.062-.024-.119-.048-.173-.072l-.067-.031c-.051-.025-.1-.05-.143-.076l-.053-.032a1.273,1.273,0,0,1-.11-.078l-.041-.035a.615.615,0,0,1-.074-.079.373.373,0,0,1-.027-.038A.361.361,0,0,1,181.269,199.651Z" transform="translate(-181.234 -198.412)" fill="#ffcd2e"/>
          </g>
          <g id="Group_1881" data-name="Group 1881" transform="translate(1.561 26.241)">
            <path id="Path_4674" data-name="Path 4674" d="M181.453,199.158l.016-1.5a.276.276,0,0,0,.025.116l0,.01a.461.461,0,0,0,.079.115l0,0a.969.969,0,0,0,.121.1l.038.026c.039.026.082.052.128.078l.051.029c.065.033.135.066.212.1l.039.015q.1.04.214.078l.091.029c.065.021.132.04.2.06l.1.029c.08.021.164.042.25.062l.079.019c.115.025.234.051.359.074l.09.016c.1.017.2.035.3.051l.137.021q.143.021.29.04l.141.019c.121.015.245.029.372.042l.073.009c.151.015.307.029.464.041l.136.01c.116.009.234.017.353.023l.17.01c.116.006.234.011.354.015l.159.006q.257.008.519.011c3.076.032,5.576-.481,5.584-1.145l-.015,1.5c-.007.664-2.508,1.176-5.584,1.145-.175,0-.348-.006-.519-.01l-.159-.006c-.12,0-.238-.01-.355-.015l-.169-.01c-.119-.006-.236-.014-.353-.023l-.137-.01c-.158-.013-.312-.026-.463-.042l-.074-.008c-.126-.013-.25-.027-.372-.042l-.14-.019q-.147-.019-.29-.04l-.137-.021c-.1-.017-.2-.034-.3-.051l-.09-.016c-.124-.024-.244-.049-.36-.074l-.078-.019c-.086-.02-.17-.041-.25-.063-.036-.009-.071-.019-.1-.029-.07-.02-.137-.04-.2-.06l-.091-.029c-.076-.026-.147-.051-.214-.078l-.039-.015c-.078-.032-.148-.064-.212-.1l-.051-.029c-.029-.017-.061-.032-.087-.049s-.027-.019-.04-.029a.457.457,0,0,1-.038-.027.808.808,0,0,1-.121-.1h0l0,0a.456.456,0,0,1-.078-.109l0-.006,0-.01A.29.29,0,0,1,181.453,199.158Z" transform="translate(-181.453 -196.512)" fill="#f5b026"/>
            <path id="Path_4675" data-name="Path 4675" d="M181.493,197.449a.118.118,0,0,1-.009-.017.21.21,0,0,1-.009-.063l0-.01c.006-.666,2.5-1.179,5.58-1.148a16.32,16.32,0,0,1,4.687.605c.552.192.875.417.873.656a.2.2,0,0,1-.013.073c0,.007-.009.015-.011.022a.434.434,0,0,1-.034.066.5.5,0,0,1-.036.05.62.62,0,0,1-.064.066c-.017.015-.036.031-.057.047a1.127,1.127,0,0,1-.093.063c-.024.015-.049.029-.075.044s-.079.041-.123.062l-.093.04c-.048.02-.1.039-.15.059l-.109.037c-.056.019-.114.037-.175.055l-.123.034c-.065.017-.131.035-.2.051l-.136.031c-.073.016-.146.032-.223.048l-.151.028c-.08.015-.159.029-.242.043l-.164.025-.26.037-.173.021-.283.032-.172.016c-.1.01-.2.019-.308.027l-.167.012c-.111.008-.222.016-.337.022l-.149.006c-.124.006-.249.013-.376.017l-.082,0c-.327.009-.662.014-1.006.01s-.7-.015-1.037-.032l-.047,0c-.14-.007-.277-.017-.414-.026l-.109-.007c-.127-.01-.25-.021-.372-.032l-.131-.011c-.116-.012-.23-.025-.342-.038l-.135-.016c-.108-.013-.212-.028-.316-.043-.045-.006-.092-.012-.135-.019-.1-.015-.2-.032-.3-.048l-.126-.022c-.1-.017-.185-.035-.276-.054l-.115-.024c-.088-.019-.171-.04-.254-.059l-.1-.025c-.08-.021-.155-.043-.229-.064l-.092-.028c-.071-.022-.138-.045-.2-.069l-.079-.029c-.062-.024-.12-.048-.174-.073l-.067-.03q-.077-.038-.143-.076l-.054-.032a1.143,1.143,0,0,1-.109-.078c-.015-.012-.029-.024-.041-.036a.679.679,0,0,1-.074-.078.426.426,0,0,1-.027-.039A.357.357,0,0,1,181.493,197.449Z" transform="translate(-181.457 -196.21)" fill="#ffcd2e"/>
          </g>
          <g id="Group_1882" data-name="Group 1882" transform="translate(1.384 24.497)">
            <path id="Path_4676" data-name="Path 4676" d="M181.229,196.957l.016-1.5a.281.281,0,0,0,.025.116l0,.01a.469.469,0,0,0,.08.116v0a.9.9,0,0,0,.121.1l.038.027c.039.026.082.051.128.077.017.01.032.02.051.029.065.033.135.067.212.1l.039.015c.067.026.139.052.214.078l.091.03c.065.02.132.04.2.06l.1.029c.08.021.164.042.25.063l.079.019q.172.038.359.074l.09.016c.1.018.2.036.3.052l.138.021c.094.014.191.029.29.041l.14.018c.121.015.245.029.372.043l.073.008c.151.015.307.029.464.041l.136.01c.116.009.234.016.353.023l.17.009c.116.006.235.011.354.016l.159.006q.257.008.519.011c3.076.032,5.576-.482,5.584-1.145l-.015,1.5c-.007.665-2.508,1.177-5.584,1.146q-.263,0-.519-.011l-.159-.006-.355-.015-.169-.01-.353-.023-.137-.01c-.158-.012-.312-.026-.463-.041l-.074-.008q-.189-.02-.371-.043l-.141-.018c-.1-.013-.195-.027-.29-.041l-.137-.021c-.1-.017-.2-.034-.3-.052l-.09-.016q-.187-.036-.359-.074l-.079-.019c-.086-.021-.17-.041-.25-.063l-.1-.029c-.07-.02-.137-.04-.2-.06l-.091-.03c-.076-.025-.147-.051-.214-.078l-.039-.014c-.078-.032-.147-.065-.212-.1l-.051-.029c-.029-.016-.061-.032-.087-.048s-.027-.019-.04-.029a.457.457,0,0,1-.038-.027.809.809,0,0,1-.121-.1h0l0,0a.518.518,0,0,1-.078-.109l0-.006,0-.01A.3.3,0,0,1,181.229,196.957Z" transform="translate(-181.229 -194.311)" fill="#f5b026"/>
            <path id="Path_4677" data-name="Path 4677" d="M181.269,195.248a.116.116,0,0,1-.009-.017.215.215,0,0,1-.01-.063l0-.009c.006-.666,2.5-1.18,5.58-1.148a16.352,16.352,0,0,1,4.687.6c.552.193.875.417.873.656a.194.194,0,0,1-.013.073c0,.008-.009.015-.011.023a.391.391,0,0,1-.034.065.353.353,0,0,1-.036.051.62.62,0,0,1-.064.065.7.7,0,0,1-.057.047c-.029.021-.059.043-.093.064L192,195.7c-.039.021-.079.042-.123.062l-.093.04c-.048.02-.1.04-.15.059l-.109.037c-.056.019-.113.038-.175.055l-.123.034c-.065.018-.131.036-.2.052l-.136.031c-.073.016-.146.032-.223.047-.049.01-.1.019-.151.029l-.242.042-.164.025-.26.037-.173.021c-.093.011-.186.023-.283.032l-.172.016c-.1.01-.2.02-.308.028l-.167.012c-.111.008-.222.016-.337.022l-.149.006c-.124.006-.249.012-.376.016l-.082,0q-.491.014-1.006.01-.532-.006-1.037-.033l-.047,0c-.14-.008-.277-.017-.414-.027l-.109-.007c-.127-.009-.25-.021-.372-.032l-.131-.012c-.116-.011-.23-.025-.342-.037l-.135-.016c-.108-.013-.212-.028-.316-.043l-.135-.019c-.1-.016-.2-.032-.3-.049l-.126-.021c-.1-.017-.185-.036-.275-.054l-.116-.024-.254-.059-.1-.026c-.08-.021-.155-.042-.229-.064l-.092-.027c-.071-.023-.138-.045-.2-.069l-.079-.029c-.062-.024-.119-.048-.174-.072l-.067-.031q-.077-.037-.143-.076l-.054-.032a1.145,1.145,0,0,1-.109-.078.453.453,0,0,1-.041-.035.68.68,0,0,1-.074-.078c-.01-.013-.018-.026-.026-.039A.361.361,0,0,1,181.269,195.248Z" transform="translate(-181.233 -194.009)" fill="#ffcd2e"/>
          </g>
          <g id="Group_1883" data-name="Group 1883" transform="translate(1.131 22.753)">
            <path id="Path_4678" data-name="Path 4678" d="M180.91,194.756l.016-1.5a.276.276,0,0,0,.025.116l0,.01a.431.431,0,0,0,.08.115v0a.961.961,0,0,0,.121.1l.038.027c.039.026.082.051.128.077l.051.029c.065.033.135.066.212.1l.039.015q.1.04.214.078l.091.029c.065.021.132.041.2.06l.1.029c.08.021.164.042.25.062l.079.019c.115.026.234.051.359.074l.09.016c.1.018.2.035.3.051l.138.021.289.041.141.018c.121.015.245.029.372.043l.073.008c.151.015.307.029.464.041l.136.01.353.024.17.009c.116.006.234.011.354.016l.159.006q.257.007.519.011c3.076.031,5.576-.482,5.584-1.146l-.015,1.5c-.007.664-2.508,1.176-5.584,1.146q-.263,0-.519-.011l-.159-.006c-.12,0-.238-.01-.355-.016l-.169-.009-.353-.024-.137-.01q-.236-.019-.463-.041l-.074-.008q-.189-.02-.371-.043l-.141-.018-.29-.041-.137-.021c-.1-.017-.2-.033-.3-.051l-.09-.016c-.124-.024-.244-.048-.359-.074l-.079-.019c-.086-.02-.17-.04-.25-.062l-.1-.029c-.07-.019-.137-.04-.2-.06l-.091-.029c-.076-.025-.147-.051-.214-.078l-.039-.015c-.078-.032-.147-.064-.212-.1l-.051-.029c-.029-.016-.061-.032-.087-.049s-.027-.019-.04-.028l-.038-.027a.858.858,0,0,1-.121-.1h0l0,0a.456.456,0,0,1-.078-.109l0-.006,0-.01A.289.289,0,0,1,180.91,194.756Z" transform="translate(-180.91 -192.109)" fill="#f5b026"/>
            <path id="Path_4679" data-name="Path 4679" d="M180.95,193.047c0-.006-.007-.012-.009-.017a.219.219,0,0,1-.01-.063l0-.01c.006-.666,2.5-1.179,5.58-1.147a16.325,16.325,0,0,1,4.687.6c.552.193.875.417.873.656a.194.194,0,0,1-.013.073c0,.008-.009.015-.011.022a.4.4,0,0,1-.034.066.473.473,0,0,1-.036.051.7.7,0,0,1-.064.065c-.017.016-.036.031-.057.047a1.126,1.126,0,0,1-.093.063c-.024.015-.049.029-.075.044s-.079.042-.123.062l-.093.04c-.048.02-.1.04-.15.059l-.109.037c-.056.019-.113.037-.175.055l-.123.034c-.065.017-.131.035-.2.051-.044.011-.09.021-.136.031-.073.017-.146.032-.223.048l-.151.029-.242.042-.164.025c-.086.013-.17.026-.26.037l-.173.021-.283.032-.172.016-.308.028-.167.011c-.111.008-.222.016-.337.022l-.149.007c-.124.006-.249.012-.376.016l-.082,0q-.491.015-1.006.01c-.355,0-.7-.015-1.037-.032l-.047,0c-.14-.007-.277-.017-.414-.026l-.109-.007c-.127-.01-.25-.021-.372-.032l-.131-.012c-.116-.012-.23-.025-.342-.038l-.135-.015c-.108-.013-.212-.029-.316-.043l-.135-.02c-.1-.015-.2-.032-.3-.048l-.126-.021c-.1-.017-.185-.036-.276-.055-.038-.008-.078-.015-.115-.024-.088-.019-.171-.039-.254-.059l-.1-.025c-.08-.021-.155-.043-.229-.064l-.092-.028c-.071-.022-.138-.045-.2-.068l-.079-.029c-.062-.024-.12-.048-.174-.073l-.067-.03q-.077-.038-.143-.076l-.054-.032a1.143,1.143,0,0,1-.109-.078c-.015-.012-.029-.024-.041-.036a.57.57,0,0,1-.074-.078.469.469,0,0,1-.065-.116Z" transform="translate(-180.914 -191.808)" fill="#ffcd2e"/>
          </g>
          <g id="Group_1884" data-name="Group 1884" transform="translate(1.385 21.01)">
            <path id="Path_4680" data-name="Path 4680" d="M181.23,192.554l.015-1.5a.292.292,0,0,0,.026.116l0,.01a.46.46,0,0,0,.079.115l0,0a.81.81,0,0,0,.121.1.459.459,0,0,0,.038.027c.038.026.082.052.128.078l.051.029c.064.033.135.066.212.1l.039.015c.067.026.138.053.214.078l.091.029c.064.021.132.04.2.06.034.01.069.02.1.029.08.021.164.042.25.063l.078.019c.115.025.235.051.36.074.029.006.059.011.09.017.1.017.2.035.3.051l.137.021c.1.015.192.029.29.041l.14.019c.121.015.246.029.372.042l.074.008c.151.016.306.029.463.042l.137.01c.116.009.234.017.353.023l.169.01c.117.006.235.011.355.015l.159.006q.257.008.519.011c3.075.032,5.576-.481,5.584-1.145l-.016,1.5c-.006.664-2.507,1.176-5.584,1.145-.175,0-.347-.006-.518-.011l-.16-.006c-.119,0-.237-.009-.354-.015l-.169-.01c-.12-.006-.237-.014-.353-.023l-.137-.01c-.158-.013-.313-.026-.463-.042l-.074-.008c-.126-.013-.25-.027-.372-.042l-.14-.019q-.149-.019-.29-.04l-.137-.021c-.1-.017-.2-.034-.3-.051l-.09-.016c-.124-.024-.244-.049-.359-.074l-.078-.019c-.086-.02-.17-.041-.251-.063l-.1-.029c-.07-.02-.137-.04-.2-.06l-.092-.029c-.075-.026-.147-.052-.213-.078l-.04-.015c-.077-.032-.147-.064-.212-.1l-.051-.029c-.029-.017-.061-.032-.088-.049l-.04-.029-.039-.027a.894.894,0,0,1-.12-.1h0l0,0a.456.456,0,0,1-.078-.109l0-.006,0-.01A.277.277,0,0,1,181.23,192.554Z" transform="translate(-181.23 -189.908)" fill="#f5b026"/>
            <path id="Path_4681" data-name="Path 4681" d="M181.269,190.845c0-.006-.006-.011-.008-.017a.169.169,0,0,1-.01-.063l0-.009c.007-.666,2.5-1.179,5.581-1.147a16.334,16.334,0,0,1,4.687.6c.552.193.875.417.873.657a.24.24,0,0,1-.013.073c0,.007-.009.014-.012.022a.336.336,0,0,1-.033.065.543.543,0,0,1-.036.051.826.826,0,0,1-.064.066c-.018.015-.036.031-.057.047s-.06.043-.094.063-.048.029-.075.044-.078.041-.122.062l-.093.04c-.048.02-.1.039-.15.059l-.109.037c-.056.018-.114.037-.175.055l-.124.034c-.065.017-.13.035-.2.051l-.137.031c-.072.016-.145.032-.222.048l-.151.028c-.079.015-.158.029-.242.043l-.164.025-.26.037-.173.021c-.093.012-.185.023-.282.032l-.172.017c-.1.01-.2.019-.308.027l-.167.012c-.112.008-.223.016-.337.022l-.149.006c-.124.006-.249.013-.376.017l-.082,0c-.326.01-.661.014-1.005.01s-.7-.015-1.038-.032l-.046,0c-.14-.007-.277-.017-.414-.026l-.11-.007c-.126-.01-.249-.021-.372-.032l-.13-.011c-.117-.012-.23-.025-.342-.038l-.135-.016c-.109-.013-.212-.028-.316-.043l-.136-.019c-.1-.015-.2-.032-.295-.048l-.127-.022c-.094-.017-.185-.036-.275-.054l-.115-.024c-.089-.019-.172-.04-.254-.059l-.1-.025c-.08-.021-.155-.043-.23-.065l-.091-.027c-.071-.022-.138-.045-.2-.069l-.08-.029c-.062-.024-.119-.048-.173-.073l-.067-.031c-.051-.025-.1-.05-.143-.075l-.053-.032a1.273,1.273,0,0,1-.11-.078l-.041-.036a.667.667,0,0,1-.074-.078.311.311,0,0,1-.027-.039A.361.361,0,0,1,181.269,190.845Z" transform="translate(-181.234 -189.607)" fill="#ffcd2e"/>
          </g>
          <g id="Group_1885" data-name="Group 1885" transform="translate(1.06 19.265)">
            <path id="Path_4682" data-name="Path 4682" d="M180.82,190.353l.016-1.5a.294.294,0,0,0,.025.116l0,.01a.468.468,0,0,0,.08.116v0a.9.9,0,0,0,.121.1l.038.027c.039.026.082.051.128.077l.051.029c.065.033.135.066.212.1l.039.014q.1.04.214.078l.091.029c.065.021.132.041.2.061l.1.029c.08.021.164.042.25.063l.079.018c.115.026.234.051.359.074l.09.016c.1.018.2.036.3.051l.138.021.29.041.14.018c.121.015.245.029.372.043l.073.008c.151.015.307.029.464.041l.136.01.353.023.169.009c.116.006.235.011.354.016l.16.006q.255.008.518.011c3.076.031,5.577-.482,5.584-1.146l-.015,1.5c-.007.664-2.508,1.176-5.584,1.146q-.263,0-.519-.011l-.159-.006c-.12,0-.238-.01-.354-.016l-.17-.009-.353-.023-.136-.01c-.158-.012-.313-.026-.464-.041l-.073-.008c-.127-.013-.25-.028-.372-.043l-.141-.018-.29-.041-.137-.021c-.1-.017-.2-.034-.3-.052l-.09-.016c-.124-.024-.244-.048-.359-.074l-.079-.018c-.086-.021-.17-.041-.25-.063l-.1-.029c-.07-.02-.136-.04-.2-.06l-.091-.03c-.076-.025-.147-.051-.214-.078l-.039-.014c-.078-.032-.147-.065-.212-.1-.018-.009-.034-.019-.051-.029s-.062-.032-.088-.049-.026-.018-.04-.028l-.038-.027a.9.9,0,0,1-.121-.1h0l0,0a.512.512,0,0,1-.077-.109l0-.006,0-.01A.3.3,0,0,1,180.82,190.353Z" transform="translate(-180.82 -187.707)" fill="#f5b026"/>
            <path id="Path_4683" data-name="Path 4683" d="M180.86,188.644a.178.178,0,0,1-.009-.017.216.216,0,0,1-.01-.063l0-.009c.006-.666,2.5-1.18,5.58-1.148a16.325,16.325,0,0,1,4.687.6c.552.193.875.417.873.656a.21.21,0,0,1-.012.073c0,.008-.009.015-.012.023a.321.321,0,0,1-.034.065.405.405,0,0,1-.036.051.55.55,0,0,1-.064.065.694.694,0,0,1-.057.047c-.029.021-.059.043-.093.064l-.075.043c-.039.021-.079.042-.123.062l-.093.04c-.048.02-.1.04-.149.059l-.109.037c-.057.019-.114.037-.176.055l-.123.034c-.065.018-.131.036-.2.052l-.136.031c-.073.016-.146.032-.223.047-.048.01-.1.019-.151.029l-.242.042-.164.025-.26.037-.173.021-.283.032-.171.016c-.1.01-.2.02-.309.028l-.166.012c-.112.007-.223.016-.337.021l-.148.007c-.124.006-.249.012-.377.016l-.082,0q-.491.014-1.006.01-.532-.006-1.037-.032l-.047,0c-.14-.008-.277-.017-.414-.027l-.109-.007c-.127-.01-.25-.021-.372-.032l-.131-.012c-.116-.011-.229-.025-.342-.037l-.135-.016c-.108-.013-.212-.028-.316-.043l-.135-.019c-.1-.016-.2-.032-.3-.049l-.126-.021c-.1-.017-.185-.036-.275-.054l-.116-.024c-.088-.02-.171-.04-.253-.06l-.1-.025c-.08-.021-.155-.042-.229-.064l-.092-.028c-.071-.022-.137-.045-.2-.068l-.079-.029c-.062-.024-.119-.048-.174-.072l-.067-.031c-.051-.025-.1-.05-.143-.076l-.054-.032a1.3,1.3,0,0,1-.109-.078.456.456,0,0,1-.041-.035.626.626,0,0,1-.074-.079q-.014-.019-.026-.038A.361.361,0,0,1,180.86,188.644Z" transform="translate(-180.824 -187.405)" fill="#ffcd2e"/>
          </g>
          <g id="Group_1886" data-name="Group 1886" transform="translate(1.06 17.521)">
            <path id="Path_4684" data-name="Path 4684" d="M180.82,188.151l.015-1.5a.29.29,0,0,0,.026.116l0,.01a.486.486,0,0,0,.08.115l0,0a.86.86,0,0,0,.121.1l.038.027c.038.026.082.051.128.077l.051.029q.1.05.212.1l.04.015c.067.027.138.053.213.078l.092.029c.064.021.132.041.2.06l.1.029c.08.021.164.042.25.062l.078.019c.115.026.235.051.36.074l.09.016c.1.018.2.035.3.051l.137.021.29.041.14.018c.121.015.246.029.372.042l.074.009q.227.023.463.041l.137.01.353.024.169.009c.117.006.235.011.355.015l.159.006c.171,0,.344.009.519.01,3.075.032,5.576-.481,5.584-1.145l-.016,1.5c-.006.664-2.507,1.176-5.584,1.145-.175,0-.347-.006-.518-.01l-.16-.006c-.119,0-.238-.009-.354-.015l-.169-.009-.353-.024-.137-.01c-.158-.013-.313-.026-.464-.041l-.073-.009c-.126-.013-.25-.027-.372-.042l-.14-.018-.29-.041-.137-.021-.3-.051-.09-.016c-.124-.024-.244-.048-.359-.074l-.078-.019c-.087-.02-.17-.04-.251-.062l-.1-.029c-.07-.019-.137-.04-.2-.06l-.091-.029c-.075-.025-.147-.051-.213-.078l-.04-.015c-.077-.032-.147-.064-.212-.1l-.051-.029c-.029-.017-.061-.032-.088-.049l-.04-.028-.039-.027a.9.9,0,0,1-.12-.1h0l0,0a.456.456,0,0,1-.078-.109l0-.006,0-.01A.277.277,0,0,1,180.82,188.151Z" transform="translate(-180.82 -185.505)" fill="#f5b026"/>
            <path id="Path_4685" data-name="Path 4685" d="M180.859,186.442c0-.006-.006-.011-.008-.017a.176.176,0,0,1-.01-.063l0-.009c.007-.666,2.505-1.179,5.581-1.147a16.329,16.329,0,0,1,4.687.6c.552.193.875.417.873.656a.231.231,0,0,1-.013.073.2.2,0,0,1-.012.022.368.368,0,0,1-.033.066c-.011.017-.023.033-.036.051a.718.718,0,0,1-.065.065c-.017.016-.036.031-.056.047s-.06.043-.094.063-.048.029-.075.044-.078.041-.122.062l-.093.04c-.048.02-.1.04-.15.059l-.109.037c-.056.019-.114.037-.175.055l-.124.034c-.065.017-.13.035-.2.051-.044.011-.091.021-.137.031-.072.017-.145.032-.222.048l-.151.028c-.079.015-.158.029-.242.043l-.163.025c-.086.013-.171.026-.26.037l-.173.021-.282.032-.172.016-.308.028-.167.011c-.112.008-.223.016-.337.022l-.149.007c-.124.006-.249.012-.376.016l-.082,0q-.49.015-1.005.01c-.355,0-.7-.015-1.038-.032l-.046,0c-.141-.007-.277-.017-.414-.026l-.11-.007c-.126-.01-.249-.021-.372-.032l-.13-.012c-.117-.012-.23-.025-.342-.038l-.135-.015c-.109-.013-.212-.029-.316-.044l-.136-.019c-.1-.015-.2-.032-.3-.048l-.126-.021c-.1-.017-.185-.036-.275-.055l-.116-.024c-.088-.019-.171-.039-.254-.059l-.1-.025c-.08-.021-.156-.043-.23-.064l-.091-.028c-.071-.022-.138-.045-.2-.068l-.079-.029c-.062-.024-.119-.048-.173-.073l-.067-.03c-.051-.025-.1-.051-.143-.076l-.053-.032a1.273,1.273,0,0,1-.11-.078l-.041-.036a.565.565,0,0,1-.074-.078.38.38,0,0,1-.027-.038A.35.35,0,0,1,180.859,186.442Z" transform="translate(-180.824 -185.204)" fill="#ffcd2e"/>
          </g>
          <g id="Group_1887" data-name="Group 1887" transform="translate(1.132 15.777)">
            <path id="Path_4686" data-name="Path 4686" d="M180.911,185.95l.015-1.5a.3.3,0,0,0,.026.116l0,.01a.45.45,0,0,0,.079.116l0,0a.809.809,0,0,0,.121.1.463.463,0,0,0,.038.027c.038.026.082.052.128.078l.051.029q.1.05.212.1l.04.015c.067.026.138.052.213.078l.092.029c.064.021.132.04.2.06l.1.029c.08.021.164.042.25.063l.078.019c.115.025.235.05.36.074l.09.017c.1.017.2.035.3.051l.137.021c.1.014.192.029.29.041l.14.019c.121.015.246.029.372.042l.074.008c.151.016.306.029.463.042l.137.01c.116.009.234.016.353.023l.169.009c.117.006.235.011.355.015l.159.006q.257.008.519.011c3.075.032,5.576-.481,5.584-1.145l-.016,1.5c-.006.664-2.507,1.176-5.584,1.145-.175,0-.347-.006-.518-.011l-.16-.006-.354-.015-.169-.009c-.12-.006-.237-.014-.353-.023l-.137-.01c-.158-.013-.313-.026-.464-.042l-.073-.008c-.126-.013-.25-.027-.372-.043l-.14-.018c-.1-.013-.2-.026-.29-.041l-.137-.021-.3-.051-.09-.017c-.124-.023-.244-.048-.359-.074l-.078-.019c-.087-.021-.17-.041-.251-.063l-.1-.029c-.07-.02-.137-.04-.2-.06l-.092-.029c-.075-.026-.147-.052-.213-.078l-.04-.015c-.077-.032-.147-.064-.212-.1l-.051-.029c-.029-.017-.061-.032-.088-.049l-.04-.029-.039-.027a.841.841,0,0,1-.12-.1h0l0,0a.489.489,0,0,1-.078-.109l0-.006,0-.01A.283.283,0,0,1,180.911,185.95Z" transform="translate(-180.911 -183.304)" fill="#f5b026"/>
            <path id="Path_4687" data-name="Path 4687" d="M180.95,184.241c0-.006-.006-.011-.008-.017a.169.169,0,0,1-.01-.063l0-.009c.007-.666,2.5-1.179,5.581-1.148a16.358,16.358,0,0,1,4.687.6c.552.193.875.418.873.657a.24.24,0,0,1-.013.073c0,.007-.009.014-.012.022a.336.336,0,0,1-.033.065.543.543,0,0,1-.036.051.705.705,0,0,1-.064.065c-.018.016-.036.032-.057.047s-.06.043-.094.064-.048.029-.075.044-.078.041-.122.062l-.093.04c-.048.02-.1.04-.15.059l-.109.037c-.056.018-.114.037-.175.055l-.124.035c-.065.017-.13.035-.2.051l-.137.031-.222.048-.151.028c-.079.014-.158.029-.242.043l-.163.025-.26.037-.173.021c-.093.011-.185.023-.282.032l-.172.017c-.1.009-.2.019-.308.027l-.167.012c-.112.008-.223.016-.337.022l-.149.006-.376.017-.082,0c-.326.009-.661.014-1.005.01s-.7-.015-1.038-.032l-.046,0c-.141-.008-.277-.017-.414-.026l-.11-.007c-.126-.009-.249-.021-.372-.032l-.13-.012c-.117-.011-.23-.024-.342-.037l-.135-.016c-.109-.013-.212-.028-.316-.043l-.136-.019-.295-.048-.127-.022c-.094-.017-.185-.036-.275-.054l-.116-.024c-.088-.019-.171-.04-.254-.059l-.1-.025c-.08-.021-.156-.043-.23-.065l-.091-.027c-.071-.022-.138-.045-.2-.069l-.079-.029c-.062-.023-.119-.048-.173-.072l-.067-.031c-.051-.025-.1-.05-.143-.075l-.053-.032c-.04-.026-.077-.051-.11-.078l-.041-.036a.67.67,0,0,1-.074-.078.381.381,0,0,1-.027-.039A.344.344,0,0,1,180.95,184.241Z" transform="translate(-180.915 -183.002)" fill="#ffcd2e"/>
          </g>
          <g id="Group_1888" data-name="Group 1888" transform="translate(1.237 14.033)">
            <path id="Path_4688" data-name="Path 4688" d="M181.044,183.749l.016-1.5a.281.281,0,0,0,.025.116l0,.01a.451.451,0,0,0,.08.115v0a.959.959,0,0,0,.121.1l.038.027c.039.026.082.051.128.077.017.009.032.02.051.029.065.033.135.066.212.1l.039.014q.1.04.214.078l.091.029c.065.021.132.041.2.061l.1.029c.08.021.164.042.25.063l.079.018c.115.026.234.051.359.074l.09.016c.1.018.2.036.3.051l.138.021.29.041.14.018c.121.015.245.029.372.043l.073.008c.151.015.307.029.464.041l.136.01.353.023.17.009c.116.006.234.011.354.016l.159.006q.257.007.519.011c3.076.031,5.576-.482,5.584-1.146l-.015,1.5c-.007.664-2.508,1.176-5.584,1.146q-.263,0-.519-.011l-.159-.006c-.12,0-.238-.01-.355-.016l-.169-.009-.353-.023-.137-.01c-.158-.012-.312-.026-.463-.041l-.074-.008q-.189-.02-.371-.043l-.141-.018-.29-.041-.137-.021c-.1-.016-.2-.033-.3-.051l-.09-.016c-.124-.024-.244-.048-.359-.074l-.079-.018c-.086-.021-.17-.041-.25-.063l-.1-.029c-.07-.02-.137-.04-.2-.061l-.091-.029c-.076-.025-.147-.051-.214-.078l-.039-.014c-.078-.032-.147-.065-.212-.1l-.051-.029c-.029-.016-.061-.032-.087-.049s-.027-.018-.04-.028l-.038-.027a.859.859,0,0,1-.121-.1h0l0,0a.517.517,0,0,1-.078-.109l0-.006,0-.01A.289.289,0,0,1,181.044,183.749Z" transform="translate(-181.044 -181.103)" fill="#f5b026"/>
            <path id="Path_4689" data-name="Path 4689" d="M181.084,182.04c0-.006-.007-.012-.009-.017a.22.22,0,0,1-.01-.063l0-.009c.006-.667,2.5-1.18,5.58-1.148a16.325,16.325,0,0,1,4.687.6c.552.193.875.417.873.656a.194.194,0,0,1-.013.073c0,.008-.009.015-.011.023a.425.425,0,0,1-.034.065.4.4,0,0,1-.036.051.62.62,0,0,1-.064.065.691.691,0,0,1-.057.047c-.029.021-.059.043-.093.064l-.075.043c-.039.021-.079.042-.123.062l-.093.04c-.048.02-.1.04-.15.059l-.109.037c-.056.019-.113.037-.175.055l-.123.034c-.065.018-.131.036-.2.051l-.136.032c-.073.016-.146.032-.223.047l-.151.029-.242.042-.164.025c-.086.013-.17.026-.26.038l-.173.021-.283.032-.172.016c-.1.01-.2.02-.308.028l-.167.012-.337.021-.149.007c-.124.006-.249.012-.376.016l-.082,0q-.491.014-1.006.01-.532-.006-1.037-.032l-.047,0c-.14-.007-.277-.017-.414-.026l-.109-.007c-.127-.01-.25-.021-.372-.032l-.131-.012c-.116-.011-.23-.025-.342-.037l-.135-.016c-.108-.013-.212-.029-.316-.043l-.135-.019c-.1-.016-.2-.032-.3-.049l-.126-.021c-.1-.017-.185-.036-.276-.054l-.115-.024c-.088-.02-.171-.04-.253-.06l-.1-.025c-.08-.021-.155-.042-.229-.064l-.092-.028c-.071-.022-.138-.045-.2-.068l-.079-.029c-.062-.024-.12-.048-.174-.072l-.067-.031c-.051-.025-.1-.05-.143-.076l-.054-.032a1.309,1.309,0,0,1-.109-.078c-.015-.012-.029-.023-.041-.035a.627.627,0,0,1-.074-.079.469.469,0,0,1-.065-.116Z" transform="translate(-181.048 -180.801)" fill="#ffcd2e"/>
          </g>
          <g id="Group_1889" data-name="Group 1889" transform="translate(1.208 12.284)">
            <path id="Path_4690" data-name="Path 4690" d="M181.007,181.44l.039-1.5a.291.291,0,0,0,.024.116l0,.01a.445.445,0,0,0,.078.116l0,0a.847.847,0,0,0,.12.105l.037.028c.038.027.081.053.127.079.017.01.032.02.051.029.064.034.134.068.211.1l.039.016c.067.028.137.055.212.082l.091.031c.064.021.131.043.2.063l.1.03c.08.023.163.044.25.067l.078.02c.114.028.234.054.358.08l.089.017.3.056.137.023.289.046.14.021q.182.025.371.048l.074.01c.151.017.306.034.463.048l.137.012c.116.01.233.021.352.029l.169.012c.117.008.235.015.354.021l.16.009q.255.012.518.019c3.075.079,5.584-.4,5.6-1.058l-.038,1.5c-.017.664-2.526,1.138-5.6,1.058-.175,0-.347-.011-.518-.019l-.159-.008c-.12-.006-.238-.013-.354-.021l-.169-.012-.353-.029-.136-.012c-.158-.015-.312-.031-.463-.049l-.073-.009c-.126-.015-.25-.031-.371-.048l-.14-.021c-.1-.014-.195-.03-.289-.046l-.137-.023c-.1-.018-.2-.036-.3-.056l-.09-.017c-.124-.025-.243-.052-.358-.08l-.078-.02c-.086-.021-.17-.044-.25-.066l-.1-.031c-.07-.021-.136-.042-.2-.063l-.091-.031c-.074-.026-.146-.054-.212-.082l-.039-.015c-.077-.033-.147-.067-.211-.1l-.05-.029c-.029-.017-.061-.033-.087-.05s-.026-.02-.04-.029l-.038-.027a.846.846,0,0,1-.12-.106h0v0a.459.459,0,0,1-.076-.11l0-.006,0-.01A.293.293,0,0,1,181.007,181.44Z" transform="translate(-181.007 -178.874)" fill="#f5b026"/>
            <path id="Path_4691" data-name="Path 4691" d="M181.074,179.753c0-.006-.006-.012-.008-.017a.219.219,0,0,1-.009-.063l0-.009c.017-.666,2.523-1.14,5.6-1.061a16.345,16.345,0,0,1,4.676.677c.55.2.869.431.863.67a.194.194,0,0,1-.013.072.2.2,0,0,1-.012.022.345.345,0,0,1-.035.065.508.508,0,0,1-.037.05.553.553,0,0,1-.065.064.7.7,0,0,1-.058.046c-.029.021-.06.042-.094.063l-.076.042q-.058.031-.124.059l-.093.04c-.048.019-.1.038-.151.056l-.109.036c-.057.017-.115.036-.177.052l-.124.032c-.065.017-.131.033-.2.048l-.137.029-.223.044-.151.026c-.079.013-.159.026-.242.038l-.164.022c-.086.012-.172.023-.261.033l-.173.018c-.093.01-.186.02-.283.029l-.172.013-.309.023-.167.009L188.2,181l-.148,0c-.125,0-.25.008-.377.01H187.6c-.327,0-.662,0-1.006-.006s-.7-.026-1.037-.048l-.046,0-.414-.033-.109-.009c-.126-.011-.249-.025-.371-.038l-.13-.013c-.117-.013-.23-.028-.342-.043l-.135-.017c-.109-.015-.212-.032-.316-.048l-.135-.021c-.1-.017-.2-.035-.294-.053l-.126-.023c-.1-.019-.185-.039-.274-.059-.039-.009-.078-.017-.115-.026-.088-.02-.171-.041-.253-.063l-.1-.027c-.079-.022-.154-.044-.228-.067l-.09-.029c-.071-.023-.137-.048-.2-.071l-.079-.031c-.062-.025-.118-.049-.173-.074l-.066-.032c-.051-.026-.1-.052-.143-.078l-.053-.033a1.115,1.115,0,0,1-.108-.079l-.041-.036a.67.67,0,0,1-.073-.079c-.01-.013-.017-.026-.026-.039A.4.4,0,0,1,181.074,179.753Z" transform="translate(-181.017 -178.593)" fill="#ffcd2e"/>
          </g>
          <g id="Group_1890" data-name="Group 1890" transform="translate(1.584 10.537)">
            <path id="Path_4692" data-name="Path 4692" d="M181.482,179.235l.039-1.5a.291.291,0,0,0,.024.116l0,.01a.473.473,0,0,0,.078.116l0,0a.847.847,0,0,0,.12.106l.037.027c.038.027.081.053.127.079.017.01.032.02.051.029.064.034.134.068.211.1l.039.016c.067.028.137.055.212.082l.091.031c.064.021.131.043.2.063l.1.031c.08.022.163.044.25.066l.078.02c.114.028.234.055.358.08l.089.017.3.056.137.023.289.046.14.021.371.048.074.009c.151.017.306.034.463.049l.137.012.352.029.169.012.354.021.16.008c.17.008.343.015.518.019,3.075.079,5.584-.395,5.6-1.058l-.038,1.5c-.017.664-2.526,1.138-5.6,1.059-.175,0-.347-.011-.518-.019l-.159-.009c-.12-.006-.238-.013-.354-.021l-.169-.012-.353-.029-.136-.012q-.236-.023-.463-.048l-.073-.01c-.126-.015-.25-.031-.371-.048l-.14-.021c-.1-.014-.195-.029-.289-.045l-.137-.023c-.1-.018-.2-.037-.3-.056l-.09-.018c-.124-.025-.243-.051-.358-.079l-.078-.02c-.086-.022-.17-.044-.25-.067l-.1-.03c-.07-.021-.136-.042-.2-.063l-.091-.031c-.074-.027-.146-.054-.212-.082l-.039-.016c-.077-.033-.147-.067-.211-.1l-.05-.029c-.029-.017-.061-.034-.087-.051s-.026-.019-.04-.029l-.038-.028a.9.9,0,0,1-.12-.105h0v0a.444.444,0,0,1-.076-.11l0-.006,0-.01A.287.287,0,0,1,181.482,179.235Z" transform="translate(-181.482 -176.669)" fill="#f5b026"/>
            <path id="Path_4693" data-name="Path 4693" d="M181.549,177.548c0-.006-.006-.011-.008-.017a.215.215,0,0,1-.009-.063l0-.009c.017-.666,2.523-1.14,5.6-1.062a16.312,16.312,0,0,1,4.676.677c.55.2.869.431.863.669a.2.2,0,0,1-.013.073c0,.007-.009.014-.012.022a.338.338,0,0,1-.035.064.437.437,0,0,1-.037.051.714.714,0,0,1-.065.064c-.018.015-.036.03-.058.045s-.06.042-.094.063l-.076.042c-.039.021-.08.04-.124.06l-.093.039c-.048.019-.1.038-.151.056l-.109.036c-.057.018-.115.036-.177.052-.04.012-.082.022-.124.032-.065.017-.131.033-.2.049l-.137.029c-.073.015-.146.03-.223.044-.049.01-.1.017-.151.026l-.242.039-.164.022c-.086.011-.172.023-.261.033l-.173.018-.283.028-.172.013-.309.023-.167.009c-.112.006-.223.013-.337.017l-.148,0c-.125,0-.25.008-.377.01h-.082q-.491.007-1.006-.006c-.355-.009-.7-.026-1.037-.048l-.046,0c-.14-.009-.277-.021-.414-.032l-.109-.01c-.126-.011-.249-.025-.371-.037l-.13-.014c-.117-.013-.23-.028-.342-.043l-.135-.017c-.109-.015-.212-.032-.316-.048l-.135-.021-.294-.053-.126-.024c-.1-.019-.185-.039-.274-.059l-.115-.025c-.088-.021-.171-.042-.253-.063l-.1-.027c-.079-.022-.154-.045-.227-.068l-.091-.029c-.071-.023-.137-.047-.2-.071l-.079-.03c-.062-.025-.118-.05-.173-.075l-.066-.032c-.051-.026-.1-.051-.143-.078l-.052-.032a1.135,1.135,0,0,1-.109-.08l-.041-.036a.672.672,0,0,1-.073-.08c-.01-.013-.017-.026-.026-.039A.376.376,0,0,1,181.549,177.548Z" transform="translate(-181.492 -176.388)" fill="#ffcd2e"/>
          </g>
          <g id="Group_1891" data-name="Group 1891" transform="translate(1.131 8.802)">
            <path id="Path_4694" data-name="Path 4694" d="M180.91,177.145l.016-1.5a.275.275,0,0,0,.025.116l0,.01a.431.431,0,0,0,.08.115v0a.961.961,0,0,0,.121.1l.038.027c.039.026.082.051.128.077l.051.029c.065.033.135.066.212.1l.039.014q.1.04.214.078l.091.029c.065.021.132.041.2.061l.1.029c.08.021.164.042.25.062l.079.019c.115.026.234.051.359.074l.09.016c.1.018.2.035.3.051l.138.021.289.041.141.018c.121.015.245.029.372.043l.073.008c.151.015.307.029.464.041l.136.009.353.024.17.009c.116.006.234.011.354.016l.159.006q.257.007.519.011c3.076.031,5.576-.482,5.584-1.146l-.015,1.5c-.007.664-2.508,1.176-5.584,1.146q-.263,0-.519-.011l-.159-.006c-.12,0-.238-.01-.355-.016l-.169-.009-.353-.023-.137-.01q-.236-.019-.463-.041l-.074-.008q-.189-.02-.371-.043l-.141-.018-.29-.041-.137-.021c-.1-.017-.2-.033-.3-.051l-.09-.016c-.124-.024-.244-.048-.359-.074l-.079-.018c-.086-.021-.17-.041-.25-.063l-.1-.029c-.07-.02-.137-.04-.2-.061l-.091-.029c-.076-.025-.147-.051-.214-.078l-.039-.015c-.078-.032-.147-.064-.212-.1l-.051-.029c-.029-.016-.061-.032-.087-.049s-.027-.018-.04-.028l-.038-.027a.858.858,0,0,1-.121-.1h0l0,0a.469.469,0,0,1-.078-.109l0-.006,0-.01A.289.289,0,0,1,180.91,177.145Z" transform="translate(-180.91 -174.499)" fill="#f5b026"/>
            <path id="Path_4695" data-name="Path 4695" d="M180.95,175.436c0-.006-.007-.012-.009-.017a.219.219,0,0,1-.01-.063l0-.009c.006-.667,2.5-1.18,5.58-1.148a16.324,16.324,0,0,1,4.687.6c.552.193.875.417.873.656a.194.194,0,0,1-.013.073c0,.008-.009.015-.011.022a.4.4,0,0,1-.034.066.4.4,0,0,1-.036.051.7.7,0,0,1-.064.065.691.691,0,0,1-.057.047c-.029.021-.059.043-.093.064l-.075.043c-.039.021-.079.042-.123.062l-.093.04c-.048.02-.1.04-.15.059l-.109.037c-.056.019-.113.037-.175.055l-.123.034c-.065.017-.131.035-.2.052l-.136.032c-.073.016-.146.032-.223.047l-.151.029-.242.042-.164.025c-.086.013-.17.026-.26.038l-.173.021-.283.032-.172.016c-.1.01-.2.02-.308.028l-.167.011c-.111.008-.222.016-.337.022l-.149.007c-.124.006-.249.012-.376.016l-.082,0q-.491.014-1.006.01-.532-.006-1.037-.032l-.047,0c-.14-.008-.277-.017-.414-.027l-.109-.007c-.127-.01-.25-.021-.372-.032l-.131-.012c-.116-.011-.23-.025-.342-.038l-.135-.015c-.108-.013-.212-.029-.316-.043l-.135-.02c-.1-.015-.2-.032-.3-.048l-.126-.021c-.1-.017-.185-.036-.276-.055-.038-.008-.078-.015-.115-.024-.088-.019-.171-.039-.254-.059l-.1-.025c-.08-.021-.155-.042-.229-.064l-.092-.028c-.071-.022-.138-.045-.2-.068l-.079-.029c-.062-.024-.12-.048-.174-.072l-.067-.031q-.077-.037-.143-.076c-.019-.01-.036-.021-.054-.033a1.138,1.138,0,0,1-.109-.078c-.015-.012-.029-.023-.041-.035a.621.621,0,0,1-.074-.079.468.468,0,0,1-.065-.116Z" transform="translate(-180.914 -174.197)" fill="#ffcd2e"/>
          </g>
          <g id="Group_1892" data-name="Group 1892" transform="translate(1.614 7.058)">
            <path id="Path_4696" data-name="Path 4696" d="M181.519,174.943l.016-1.5a.276.276,0,0,0,.025.116l0,.01a.464.464,0,0,0,.08.115v0a.96.96,0,0,0,.121.1l.038.026c.039.026.082.052.128.078l.051.029c.065.033.135.066.212.1l.039.015c.067.026.139.053.214.078l.091.029c.065.021.132.04.2.06l.1.029c.08.021.164.042.25.062l.079.019c.115.025.234.051.359.074l.09.016.3.051.138.021q.141.021.29.04l.14.019c.121.015.245.029.372.042l.073.009c.151.015.307.029.464.041l.136.01c.116.009.234.017.353.023l.17.009c.116.006.235.011.354.015.053,0,.106,0,.159.006q.257.008.519.011c3.076.032,5.576-.481,5.584-1.145l-.015,1.5c-.007.664-2.508,1.176-5.584,1.145-.175,0-.348-.006-.519-.01l-.159-.006c-.12,0-.238-.01-.355-.015l-.169-.009c-.119-.006-.236-.014-.353-.023l-.137-.01c-.158-.013-.312-.026-.463-.042l-.074-.008c-.126-.013-.25-.027-.371-.042l-.141-.019q-.147-.019-.29-.04l-.137-.021c-.1-.017-.2-.034-.3-.051l-.09-.016c-.124-.024-.244-.049-.359-.074l-.079-.019c-.086-.02-.17-.041-.25-.062l-.1-.029c-.07-.02-.137-.04-.2-.06l-.091-.029c-.076-.025-.147-.051-.214-.078l-.039-.015c-.078-.032-.147-.064-.212-.1l-.051-.029c-.029-.017-.061-.032-.087-.049s-.027-.019-.04-.029l-.038-.026a.914.914,0,0,1-.121-.1h0l0,0a.48.48,0,0,1-.078-.109l0-.006,0-.01A.29.29,0,0,1,181.519,174.943Z" transform="translate(-181.519 -172.297)" fill="#f5b026"/>
            <path id="Path_4697" data-name="Path 4697" d="M181.559,173.234a.167.167,0,0,1-.009-.017.22.22,0,0,1-.01-.063l0-.009c.006-.666,2.5-1.179,5.58-1.147a16.3,16.3,0,0,1,4.687.6c.552.192.875.417.873.656a.2.2,0,0,1-.013.073c0,.007-.009.015-.011.022a.434.434,0,0,1-.034.066.4.4,0,0,1-.036.05.62.62,0,0,1-.064.066c-.017.016-.036.031-.057.047a1.129,1.129,0,0,1-.093.063c-.024.015-.049.029-.075.044s-.079.041-.123.062l-.093.04c-.048.02-.1.039-.15.059l-.109.037c-.056.018-.113.037-.175.055l-.123.034c-.065.017-.131.035-.2.051-.044.011-.09.021-.136.031-.073.016-.146.032-.223.048l-.151.028c-.08.015-.159.029-.242.043l-.164.025-.26.037-.173.021c-.093.012-.186.023-.283.033l-.172.016-.308.028-.167.011c-.111.008-.222.016-.337.022l-.149.006c-.124.006-.249.013-.376.017l-.082,0c-.327.009-.662.014-1.006.01s-.7-.015-1.037-.032l-.047,0c-.14-.007-.277-.017-.414-.026l-.109-.007c-.127-.01-.25-.021-.372-.032l-.131-.011c-.116-.012-.23-.025-.342-.038l-.135-.015c-.108-.013-.212-.029-.316-.044l-.135-.019c-.1-.015-.2-.032-.3-.048l-.126-.022c-.1-.017-.185-.036-.275-.054l-.116-.024c-.088-.019-.171-.039-.254-.059l-.1-.025c-.08-.021-.155-.043-.229-.064l-.092-.028c-.071-.022-.138-.045-.2-.069l-.079-.029c-.062-.024-.119-.048-.174-.073l-.067-.03q-.077-.038-.143-.076l-.054-.032a1.143,1.143,0,0,1-.109-.078c-.015-.012-.029-.024-.041-.036a.678.678,0,0,1-.074-.078.3.3,0,0,1-.026-.039A.329.329,0,0,1,181.559,173.234Z" transform="translate(-181.523 -171.996)" fill="#ffcd2e"/>
          </g>
          <g id="Group_1893" data-name="Group 1893" transform="translate(1.385 5.314)">
            <path id="Path_4698" data-name="Path 4698" d="M181.23,172.742l.015-1.5a.3.3,0,0,0,.026.116l0,.01a.464.464,0,0,0,.079.116l0,0a.809.809,0,0,0,.121.1l.038.027c.038.026.082.051.128.078l.051.029c.064.032.135.066.212.1l.039.015q.1.039.214.078l.091.029c.064.02.132.04.2.06l.1.029c.08.021.164.042.25.063l.078.018c.115.026.235.051.36.074l.09.017c.1.017.2.035.3.051l.137.021.29.041.14.018c.121.015.246.029.372.043l.074.008c.151.015.306.029.463.041l.137.01c.116.009.234.016.353.023l.169.009c.117.006.235.011.355.016l.159.006q.257.008.519.011c3.075.032,5.576-.481,5.584-1.145l-.016,1.5c-.006.664-2.507,1.176-5.584,1.145-.175,0-.347-.006-.518-.011l-.16-.006-.354-.015-.169-.01c-.12-.007-.237-.014-.353-.023l-.137-.01c-.158-.012-.313-.026-.463-.041l-.074-.008c-.126-.013-.25-.028-.372-.043l-.14-.018c-.1-.013-.2-.027-.29-.041l-.137-.021c-.1-.017-.2-.034-.3-.052l-.09-.016q-.187-.036-.359-.074l-.078-.019c-.086-.021-.17-.041-.251-.063l-.1-.029c-.07-.02-.137-.04-.2-.06l-.092-.03c-.075-.025-.147-.051-.213-.078l-.04-.014c-.077-.032-.147-.065-.212-.1-.018-.009-.033-.018-.051-.029s-.061-.032-.088-.048l-.04-.029-.039-.027a.843.843,0,0,1-.12-.1h0l0,0a.49.49,0,0,1-.078-.109l0-.006,0-.01A.283.283,0,0,1,181.23,172.742Z" transform="translate(-181.23 -170.096)" fill="#f5b026"/>
            <path id="Path_4699" data-name="Path 4699" d="M181.269,171.033c0-.006-.006-.012-.008-.017a.173.173,0,0,1-.01-.063l0-.009c.007-.666,2.5-1.179,5.581-1.148a16.357,16.357,0,0,1,4.687.6c.552.193.875.417.873.656a.241.241,0,0,1-.013.074c0,.007-.009.014-.012.022a.336.336,0,0,1-.033.065.543.543,0,0,1-.036.051.705.705,0,0,1-.064.065c-.018.016-.036.032-.057.047s-.06.043-.094.064-.048.029-.075.044-.078.041-.122.061-.061.027-.093.04c-.048.02-.1.04-.15.059l-.109.037c-.056.019-.114.038-.175.055l-.124.034c-.065.018-.13.036-.2.052l-.137.031-.222.048-.151.028-.242.043-.164.025-.26.037-.173.021c-.093.011-.185.023-.282.032l-.172.016c-.1.01-.2.02-.308.028l-.167.012c-.112.008-.223.016-.337.022l-.149.006-.376.017-.082,0q-.49.014-1.005.01-.532-.006-1.038-.032l-.046,0c-.14-.008-.277-.017-.414-.027l-.11-.007c-.126-.01-.249-.021-.372-.032l-.13-.012c-.117-.011-.23-.025-.342-.037l-.135-.016c-.109-.013-.212-.028-.316-.043l-.136-.019c-.1-.016-.2-.032-.295-.049l-.127-.021c-.094-.017-.185-.036-.275-.054l-.115-.024c-.089-.019-.172-.04-.254-.06l-.1-.025c-.08-.021-.155-.042-.23-.064l-.091-.027c-.071-.023-.138-.045-.2-.069l-.08-.029c-.062-.024-.119-.048-.173-.072l-.067-.031c-.051-.025-.1-.05-.143-.076l-.053-.032a1.265,1.265,0,0,1-.11-.078c-.014-.011-.028-.023-.041-.035a.665.665,0,0,1-.074-.078c-.01-.013-.019-.026-.027-.039A.361.361,0,0,1,181.269,171.033Z" transform="translate(-181.234 -169.794)" fill="#ffcd2e"/>
          </g>
          <g id="Group_1894" data-name="Group 1894">
            <path id="Path_4700" data-name="Path 4700" d="M180.074,169.039l-.566-1.386a.281.281,0,0,0,.069.1l.007.007a.444.444,0,0,0,.118.075l0,0a.871.871,0,0,0,.151.048l.046.01c.045.009.1.016.147.021l.059.006c.072.006.15.009.233.008l.042,0c.072,0,.148,0,.227-.01l.1-.009c.067-.006.137-.013.209-.022l.107-.014c.082-.011.168-.025.255-.04l.08-.013c.116-.021.236-.044.36-.07l.089-.021q.145-.032.3-.069l.135-.033.283-.075.137-.037q.176-.05.359-.105l.07-.021q.217-.068.444-.142l.13-.044c.11-.037.221-.075.334-.116l.159-.057q.165-.059.333-.124l.149-.056c.16-.062.32-.125.482-.192,2.847-1.165,4.953-2.607,4.7-3.222l.567,1.386c.252.615-1.855,2.058-4.7,3.223-.162.067-.322.129-.482.191l-.149.057q-.168.063-.333.123l-.159.058-.334.115-.13.044q-.225.075-.444.142l-.07.021c-.121.037-.241.072-.359.105l-.136.038-.283.074-.135.033c-.1.025-.2.048-.3.07l-.089.02c-.124.026-.244.05-.36.071l-.08.013c-.088.015-.173.029-.255.04l-.108.014c-.072.009-.141.017-.209.022l-.1.009c-.08.006-.155.01-.227.01l-.042,0q-.125,0-.233-.007l-.059-.007c-.033,0-.069-.006-.1-.011s-.032-.007-.048-.01l-.046-.009a.88.88,0,0,1-.152-.049h0a.482.482,0,0,1-.114-.071l0,0-.008-.008A.293.293,0,0,1,180.074,169.039Z" transform="translate(-179.487 -163.159)" fill="#f5b026"/>
            <path id="Path_4701" data-name="Path 4701" d="M179.556,167.656s-.011-.007-.015-.013a.21.21,0,0,1-.033-.054l0-.008c-.253-.617,1.851-2.059,4.7-3.224a16.316,16.316,0,0,1,4.554-1.262c.584-.037.969.045,1.059.266a.214.214,0,0,1,.017.072c0,.007,0,.017,0,.025a.4.4,0,0,1-.006.074.6.6,0,0,1-.014.06.618.618,0,0,1-.034.086c-.01.021-.021.043-.034.065s-.039.063-.062.1-.034.046-.053.07-.056.068-.089.1-.045.048-.07.073-.074.074-.115.113-.056.051-.086.077c-.044.039-.09.078-.14.119l-.1.079c-.053.041-.107.083-.165.125l-.114.082c-.06.043-.121.086-.186.13l-.128.085c-.067.044-.135.088-.207.133l-.141.086c-.074.044-.147.09-.225.135-.049.029-.1.058-.151.086-.082.047-.162.093-.248.14l-.152.081c-.09.048-.18.1-.273.145l-.15.076c-.1.05-.2.1-.3.151l-.134.064c-.112.054-.225.108-.341.161l-.075.034c-.3.135-.6.269-.923.4s-.652.258-.969.373l-.044.017c-.132.048-.261.092-.391.136l-.1.036c-.12.04-.238.078-.355.115l-.125.04c-.112.035-.221.067-.33.1l-.132.038c-.1.03-.206.057-.307.083l-.133.035c-.1.025-.195.048-.291.07l-.124.029c-.094.021-.185.039-.275.057l-.116.023-.257.044-.1.016c-.082.012-.16.021-.236.03l-.1.01c-.074.007-.145.011-.213.015l-.085,0c-.066,0-.128,0-.188,0l-.074,0c-.057,0-.11-.008-.161-.014l-.062-.01a1.116,1.116,0,0,1-.132-.029l-.051-.016a.676.676,0,0,1-.1-.044.33.33,0,0,1-.04-.025A.334.334,0,0,1,179.556,167.656Z" transform="translate(-179.482 -163.087)" fill="#ffcd2e"/>
          </g>
        </g>
        <g id="Group_1897" data-name="Group 1897">
          <g id="Group_1896" data-name="Group 1896" transform="translate(18.544 7.69)">
            <path id="Path_4702" data-name="Path 4702" d="M186.989,144.934c.023.012.04.029.062.04a2.162,2.162,0,0,1,.2.129c.055.039.109.078.159.12s.1.094.147.144a2.131,2.131,0,0,1,.154.174c.015.021.035.036.05.057l4.951,6.9a2.2,2.2,0,0,1,.219.382,2.16,2.16,0,0,0-.032-2.96l-5.9-6.108c-.017-.019-.039-.032-.057-.049a2.156,2.156,0,0,0-.178-.151,2.025,2.025,0,0,0-.166-.121,1.965,1.965,0,0,0-.175-.1,2.249,2.249,0,0,0-.218-.1c-.023-.009-.043-.022-.067-.03l-8.039-2.73c-.025-.006-.048-.006-.072-.013Z" transform="translate(-156.328 -140.291)" fill="#ebae73"/>
            <path id="Path_4703" data-name="Path 4703" d="M192.614,152.465l-4.951-6.9c-.015-.021-.035-.036-.05-.057a2.137,2.137,0,0,0-.154-.174c-.048-.05-.1-.1-.147-.144s-.1-.082-.159-.12a2.162,2.162,0,0,0-.2-.129c-.021-.012-.039-.029-.062-.04l-8.955-4.414-.017-.008c-.132-.048-.247-.075-.366-.107l7.775,5.634-.02.006,1.8,1.192c.021.014.036.032.057.048a2.21,2.21,0,0,1,.184.15c.051.045.1.09.145.139s.088.1.13.159.093.125.134.191c.013.022.03.04.043.063l4.134,7.415c.033.059.052.124.08.185.025-.016.051-.026.075-.043l.036-.026a2.167,2.167,0,0,0,.715-2.64A2.2,2.2,0,0,0,192.614,152.465Z" transform="translate(-156.228 -140.261)" fill="#ebae73"/>
            <path id="Path_4704" data-name="Path 4704" d="M176.228,140.272l.516-.023A1.783,1.783,0,0,0,176.228,140.272Z" transform="translate(-155.953 -140.233)" fill="#f4d3b0"/>
            <path id="Path_4705" data-name="Path 4705" d="M182.2,147.927c-.013-.023-.03-.04-.043-.063-.04-.066-.086-.128-.134-.191s-.083-.109-.13-.159-.094-.093-.145-.139a2.21,2.21,0,0,0-.184-.15c-.021-.015-.036-.033-.057-.048l-1.8-1.192.02-.006-7.775-5.634-.158-.114-.374.016-.516.023-17.849.779-2.427,9.3,4.752,1.718,5.762,7.57.007-.011,0,.006c.033.042.063.086.1.126a2.561,2.561,0,0,0,.312.288c.019.015.032.033.052.048l.029.022c.018.013.036.029.055.041l7.9,5.93a2.616,2.616,0,0,0,3.664-.522l.032-.042a2.617,2.617,0,0,0-.521-3.665l-6.622-4.972-1.035-3.966,1.651-4.234,6.512-1.122,5.393,3.027,3.835,6.88a2.166,2.166,0,0,0,2.946.837l.038-.021a2.159,2.159,0,0,0,.917-2.762c-.028-.061-.047-.125-.08-.185Z" transform="translate(-150.635 -140.231)" fill="#ffcf9f"/>
          </g>
          <rect id="Rectangle_657" data-name="Rectangle 657" width="13.172" height="7.6" transform="matrix(0.311, -0.95, 0.95, 0.311, 13.212, 17.665)" fill="#ededed"/>
          <path id="Path_4706" data-name="Path 4706" d="M131.829,130.524l-4.6,14.054,3.089,1.047,11.676,3.963,4.627-14.128Z" transform="translate(-127.227 -130.524)" fill="#28324e"/>
          <path id="Path_4707" data-name="Path 4707" d="M137.477,148.281a.813.813,0,1,1-.814-.814A.814.814,0,0,1,137.477,148.281Z" transform="translate(-129.019 -134.044)" fill="#ededed"/>
          <path id="Path_4708" data-name="Path 4708" d="M140.584,149.478a.813.813,0,1,1-.813-.813A.813.813,0,0,1,140.584,149.478Z" transform="translate(-129.664 -134.293)" fill="#ededed"/>
          <path id="Path_4709" data-name="Path 4709" d="M143.72,150.5a.813.813,0,1,1-.814-.813A.814.814,0,0,1,143.72,150.5Z" transform="translate(-130.316 -134.507)" fill="#ededed"/>
        </g>
        <path id="Path_4710" data-name="Path 4710" d="M167.916,161.682l-6.622-4.973-1.035-3.966,1.015-2.6-11.588-3.931-5.386-1.828-14.765-5.009-2.307,7.044,3.09,1.047,11.676,3.963.263-.8,5.406,1.769.45-1.374,2.411.872,5.762,7.57.007-.011,0,.006c.033.042.063.086.1.126a2.627,2.627,0,0,0,.313.288c.019.015.032.033.052.048l.029.022c.018.013.036.029.055.041l7.9,5.93a2.616,2.616,0,0,0,3.664-.522l.032-.042A2.616,2.616,0,0,0,167.916,161.682Z" transform="translate(-127.227 -132.362)" fill="#1d1d1b" opacity="0.1"/>
        <path id="Path_4711" data-name="Path 4711" d="M184.349,168.6l.207-.072.159-.057q.165-.059.333-.124l.149-.056c.16-.062.32-.125.482-.192.255-.1.5-.212.744-.319V163.7a23.278,23.278,0,0,0-2.222.785c-2.847,1.165-4.951,2.606-4.7,3.224l0,.006,0-.006.566,1.386a.292.292,0,0,0,.069.1l.008.007,0,0a.484.484,0,0,0,.114.071h0a.9.9,0,0,0,.152.048l.046.01c.016,0,.03.008.048.01s.067.008.1.011l.058.006c.073.006.151.009.234.008l.042,0c.045,0,.094,0,.142-.006a.436.436,0,0,0-.2.315l-.015,1.5a.276.276,0,0,0,.026.116l0,.01,0,.006a.469.469,0,0,0,.078.109l0,0h0a.9.9,0,0,0,.12.1l.012.008-.012,1.158c-.3.145-.467.306-.469.477l-.016,1.5a.289.289,0,0,0,.026.116l0,.01,0,.006a.456.456,0,0,0,.078.109l0,0a.858.858,0,0,0,.121.1l.038.026c.013.009.025.019.04.029s.058.032.087.049l.051.029.034.016-.026,1.012c-.214.122-.338.255-.341.4l-.039,1.5a.293.293,0,0,0,.025.116l0,.01,0,.006a.472.472,0,0,0,.048.071.291.291,0,0,0-.033.128l-.016,1.5a.219.219,0,0,0,.007.031.344.344,0,0,0-.1.216v0l-.015,1.5a.279.279,0,0,0,.014.066.325.325,0,0,0-.071.181l0,.01h0s0-.006,0-.01l-.015,1.5a.277.277,0,0,0,.026.116l0,.01,0,.006.009.013a.276.276,0,0,0-.025.1l-.016,1.5a.289.289,0,0,0,.026.116l0,.01,0,.006a.476.476,0,0,0,.077.109l0,0h0a.9.9,0,0,0,.121.1l.038.027c.014.009.025.018.04.028s.018.01.028.016l-.013,1.23a.458.458,0,0,0-.238.343l-.016,1.5a.29.29,0,0,0,.026.116l0,.01,0,.006a.456.456,0,0,0,.078.109l0,0h0a.858.858,0,0,0,.121.1l.035.024-.014,1.373a.289.289,0,0,0,.026.116l0,.01,0,.006a.517.517,0,0,0,.078.109l0,0h0a.732.732,0,0,0,.082.07l-.014,1.4a.4.4,0,0,0-.162.28l0,.01h0s0-.006,0-.01l-.015,1.5a.277.277,0,0,0,.026.116l0,.01,0,.006a.456.456,0,0,0,.078.109l0,0h0a.9.9,0,0,0,.12.1l.039.026.04.029c.027.017.059.032.088.049l.051.029c.065.033.135.066.212.1l.04.015c.067.027.138.053.213.078l.092.029c.064.021.132.04.2.06l.1.029c.081.021.165.042.251.062l.078.019c.115.026.234.051.359.074l.09.016.3.051.137.021.29.041.14.018c.121.015.246.029.372.042l.074.009c.151.015.306.029.463.041l.137.009.353.024.169.009c.117.006.235.011.354.015l.16.006c.171,0,.343.009.518.01V168.532C185.689,168.526,184.989,168.55,184.349,168.6Z" transform="translate(-138.085 -137.418)" fill="#1d1d1b" opacity="0.1"/>
      </g>
    </g>
  </g>
</svg>
