<svg xmlns="http://www.w3.org/2000/svg" width="120" height="120" viewBox="0 0 120 120">
  <g id="Plan-icon2" transform="translate(-484 -1830)">
    <circle id="Ellipse_30" data-name="Ellipse 30" cx="60" cy="60" r="60" transform="translate(484 1830)" fill="#000a1c"/>
    <g id="Group_1806" data-name="Group 1806" transform="translate(382.465 1837.824)">
      <g id="Group_1805" data-name="Group 1805" transform="translate(128.535 33.176)">
        <g id="Group_1795" data-name="Group 1795" transform="translate(8.879 19.265)">
          <g id="Group_1792" data-name="Group 1792">
            <path id="Path_4510" data-name="Path 4510" d="M156.1,65.423a.706.706,0,0,1-.69.846H140.06a.707.707,0,0,1-.7-.846l.214-1.068,1.445-7.144a.712.712,0,0,1,.7-.575h12.022a.712.712,0,0,1,.7.575l1.445,7.144Z" transform="translate(-139.347 -56.636)" fill="#ffcd2e"/>
            <path id="Path_4511" data-name="Path 4511" d="M156.1,67.1a.706.706,0,0,1-.69.846H140.06a.707.707,0,0,1-.7-.846l.214-1.068h16.309Z" transform="translate(-139.347 -58.317)" fill="#ffb700"/>
          </g>
          <g id="Group_1793" data-name="Group 1793" transform="translate(17.759)">
            <path id="Path_4512" data-name="Path 4512" d="M177.723,65.423a.706.706,0,0,1-.69.846H161.685a.707.707,0,0,1-.7-.846l.214-1.068,1.445-7.144a.712.712,0,0,1,.7-.575h12.022a.712.712,0,0,1,.7.575l1.445,7.144Z" transform="translate(-160.972 -56.636)" fill="#ffcd2e"/>
            <path id="Path_4513" data-name="Path 4513" d="M177.723,67.1a.706.706,0,0,1-.69.846H161.685a.707.707,0,0,1-.7-.846l.214-1.068h16.309Z" transform="translate(-160.972 -58.317)" fill="#ffb700"/>
          </g>
          <g id="Group_1794" data-name="Group 1794" transform="translate(35.517)">
            <path id="Path_4514" data-name="Path 4514" d="M199.348,65.423a.706.706,0,0,1-.69.846H183.31a.707.707,0,0,1-.7-.846l.214-1.068,1.445-7.144a.712.712,0,0,1,.7-.575h12.022a.712.712,0,0,1,.7.575l1.445,7.144Z" transform="translate(-182.597 -56.636)" fill="#ffcd2e"/>
            <path id="Path_4515" data-name="Path 4515" d="M199.348,67.1a.706.706,0,0,1-.69.846H183.31a.707.707,0,0,1-.7-.846l.214-1.068h16.309Z" transform="translate(-182.597 -58.317)" fill="#ffb700"/>
          </g>
        </g>
        <g id="Group_1796" data-name="Group 1796" transform="translate(26.637)">
          <path id="Path_4516" data-name="Path 4516" d="M177.723,41.963a.706.706,0,0,1-.69.846H161.685a.707.707,0,0,1-.7-.846L161.2,40.9l1.445-7.144a.712.712,0,0,1,.7-.575h12.022a.712.712,0,0,1,.7.575l1.445,7.144Z" transform="translate(-160.972 -33.176)" fill="#ffcd2e"/>
          <path id="Path_4517" data-name="Path 4517" d="M177.723,43.644a.706.706,0,0,1-.69.846H161.685a.707.707,0,0,1-.7-.846l.214-1.068h16.309Z" transform="translate(-160.972 -34.857)" fill="#ffb700"/>
        </g>
        <g id="Group_1799" data-name="Group 1799" transform="translate(17.759 9.633)">
          <g id="Group_1797" data-name="Group 1797">
            <path id="Path_4518" data-name="Path 4518" d="M166.911,53.693a.706.706,0,0,1-.69.846H150.873a.707.707,0,0,1-.7-.846l.214-1.068,1.445-7.144a.712.712,0,0,1,.7-.575h12.022a.712.712,0,0,1,.7.575l1.445,7.144Z" transform="translate(-150.16 -44.906)" fill="#ffcd2e"/>
            <path id="Path_4519" data-name="Path 4519" d="M166.911,55.374a.706.706,0,0,1-.69.846H150.873a.707.707,0,0,1-.7-.846l.214-1.068H166.7Z" transform="translate(-150.16 -46.587)" fill="#ffb700"/>
          </g>
          <g id="Group_1798" data-name="Group 1798" transform="translate(17.759)">
            <path id="Path_4520" data-name="Path 4520" d="M188.536,53.693a.706.706,0,0,1-.69.846H172.5a.707.707,0,0,1-.7-.846l.214-1.068,1.445-7.144a.712.712,0,0,1,.7-.575h12.022a.712.712,0,0,1,.7.575l1.445,7.144Z" transform="translate(-171.785 -44.906)" fill="#ffcd2e"/>
            <path id="Path_4521" data-name="Path 4521" d="M188.536,55.374a.706.706,0,0,1-.69.846H172.5a.707.707,0,0,1-.7-.846l.214-1.068h16.309Z" transform="translate(-171.785 -46.587)" fill="#ffb700"/>
          </g>
        </g>
        <g id="Group_1804" data-name="Group 1804" transform="translate(0 28.898)">
          <g id="Group_1800" data-name="Group 1800">
            <path id="Path_4522" data-name="Path 4522" d="M145.286,77.153a.706.706,0,0,1-.69.846H129.248a.707.707,0,0,1-.7-.846l.214-1.068,1.445-7.144a.712.712,0,0,1,.7-.575h12.022a.712.712,0,0,1,.7.575l1.445,7.144Z" transform="translate(-128.535 -68.366)" fill="#ffcd2e"/>
            <path id="Path_4523" data-name="Path 4523" d="M145.286,78.834a.706.706,0,0,1-.69.846H129.248a.707.707,0,0,1-.7-.846l.214-1.068h16.309Z" transform="translate(-128.535 -70.047)" fill="#ffb700"/>
          </g>
          <g id="Group_1801" data-name="Group 1801" transform="translate(17.759)">
            <path id="Path_4524" data-name="Path 4524" d="M166.911,77.153a.706.706,0,0,1-.69.846H150.873a.707.707,0,0,1-.7-.846l.214-1.068,1.445-7.144a.712.712,0,0,1,.7-.575h12.022a.712.712,0,0,1,.7.575l1.445,7.144Z" transform="translate(-150.16 -68.366)" fill="#ffcd2e"/>
            <path id="Path_4525" data-name="Path 4525" d="M166.911,78.834a.706.706,0,0,1-.69.846H150.873a.707.707,0,0,1-.7-.846l.214-1.068H166.7Z" transform="translate(-150.16 -70.047)" fill="#ffb700"/>
          </g>
          <g id="Group_1802" data-name="Group 1802" transform="translate(35.517)">
            <path id="Path_4526" data-name="Path 4526" d="M188.536,77.153a.706.706,0,0,1-.69.846H172.5a.707.707,0,0,1-.7-.846l.214-1.068,1.445-7.144a.712.712,0,0,1,.7-.575h12.022a.712.712,0,0,1,.7.575l1.445,7.144Z" transform="translate(-171.785 -68.366)" fill="#ffcd2e"/>
            <path id="Path_4527" data-name="Path 4527" d="M188.536,78.834a.706.706,0,0,1-.69.846H172.5a.707.707,0,0,1-.7-.846l.214-1.068h16.309Z" transform="translate(-171.785 -70.047)" fill="#ffb700"/>
          </g>
          <g id="Group_1803" data-name="Group 1803" transform="translate(53.276)">
            <path id="Path_4528" data-name="Path 4528" d="M210.161,77.153a.706.706,0,0,1-.69.846H194.123a.707.707,0,0,1-.7-.846l.214-1.068,1.445-7.144a.712.712,0,0,1,.7-.575H207.8a.712.712,0,0,1,.7.575l1.445,7.144Z" transform="translate(-193.41 -68.366)" fill="#ffcd2e"/>
            <path id="Path_4529" data-name="Path 4529" d="M210.161,78.834a.706.706,0,0,1-.69.846H194.123a.707.707,0,0,1-.7-.846l.214-1.068h16.309Z" transform="translate(-193.41 -70.047)" fill="#ffb700"/>
          </g>
        </g>
      </g>
      <path id="Path_4530" data-name="Path 4530" d="M161.386,62.649a.712.712,0,0,0-.7-.575h2.868V52.441h-1.2a.706.706,0,0,0,.69-.846l-.214-1.068-1.445-7.144a.712.712,0,0,0-.7-.575h2.868V33.176h-6.011a.712.712,0,0,0-.7.575L155.4,40.9l-.214,1.068a.707.707,0,0,0,.7.846h-7.22a.712.712,0,0,0-.7.575l-1.445,7.144-.214,1.068a.707.707,0,0,0,.7.846h-7.221a.712.712,0,0,0-.7.575l-1.445,7.144-.214,1.068a.707.707,0,0,0,.7.846h-7.22a.712.712,0,0,0-.7.575l-1.445,7.144-.214,1.068a.707.707,0,0,0,.7.846H144.6a.706.706,0,0,0,.69-.846l-.214-1.068-1.445-7.144a.712.712,0,0,0-.7-.575h5.736a.712.712,0,0,0-.7.575l-1.445,7.144-.214,1.068a.707.707,0,0,0,.7.846h15.348a.706.706,0,0,0,.69-.846l-.214-1.068Zm-4.54-9.633L155.4,60.161l-.214,1.068a.707.707,0,0,0,.7.846h-2.41a.706.706,0,0,0,.69-.846l-.214-1.068-1.445-7.144a.712.712,0,0,0-.7-.575h5.736A.712.712,0,0,0,156.846,53.016Z" fill="#1d1d1b" opacity="0.1"/>
    </g>
  </g>
</svg>
