<svg xmlns="http://www.w3.org/2000/svg" xmlns:xlink="http://www.w3.org/1999/xlink" width="144.619" height="197.82" viewBox="0 0 144.619 197.82">
  <defs>
    <linearGradient id="linear-gradient" x1="0.5" y1="1" x2="0.5" gradientUnits="objectBoundingBox">
      <stop offset="0" stop-color="#7dccc0"/>
      <stop offset="0.996" stop-color="#54546f"/>
    </linearGradient>
    <linearGradient id="linear-gradient-2" x1="0.5" y1="1" x2="0.5" gradientUnits="objectBoundingBox">
      <stop offset="0" stop-color="#46667a"/>
      <stop offset="0.996" stop-color="#3c3341"/>
    </linearGradient>
    <linearGradient id="linear-gradient-3" y1="0.5" x2="1" y2="0.5" gradientUnits="objectBoundingBox">
      <stop offset="0"/>
      <stop offset="0.996" stop-color="#cebda2"/>
    </linearGradient>
    <linearGradient id="linear-gradient-4" x1="0.5" y1="1" x2="0.5" gradientUnits="objectBoundingBox">
      <stop offset="0" stop-color="#f17038"/>
      <stop offset="1" stop-color="#ffa031"/>
    </linearGradient>
    <linearGradient id="linear-gradient-5" x1="0.5" y1="1" x2="0.5" gradientUnits="objectBoundingBox">
      <stop offset="0" stop-color="#ffa031"/>
      <stop offset="1" stop-color="#ffd638"/>
    </linearGradient>
    <linearGradient id="linear-gradient-6" x1="0.5" y1="1" x2="0.5" y2="0" xlink:href="#linear-gradient"/>
    <linearGradient id="linear-gradient-7" x1="0.5" y1="1" x2="0.5" y2="0" xlink:href="#linear-gradient-2"/>
    <linearGradient id="linear-gradient-9" x1="0" y1="0.5" x2="1" y2="0.5" xlink:href="#linear-gradient-3"/>
    <linearGradient id="linear-gradient-12" x1="0.5" y1="1" x2="0.5" gradientUnits="objectBoundingBox">
      <stop offset="0.004" stop-color="#cebda2"/>
      <stop offset="1"/>
    </linearGradient>
    <linearGradient id="linear-gradient-16" x1="0.5" y1="1" x2="0.5" y2="0" xlink:href="#linear-gradient-3"/>
    <linearGradient id="linear-gradient-22" x1="0.5" y1="1" x2="0.5" gradientUnits="objectBoundingBox">
      <stop offset="0.004" stop-color="#54546f"/>
      <stop offset="1" stop-color="#7dccc0"/>
    </linearGradient>
    <linearGradient id="linear-gradient-23" x1="0" y1="0.5" x2="1" y2="0.5" xlink:href="#linear-gradient-4"/>
    <linearGradient id="linear-gradient-24" x1="0.5" y1="1" x2="0.5" gradientUnits="objectBoundingBox">
      <stop offset="0" stop-color="#861878"/>
      <stop offset="1" stop-color="#bd3992"/>
    </linearGradient>
    <linearGradient id="linear-gradient-25" x1="3.405" y1="2.667" x2="3.405" y2="1.623" gradientUnits="objectBoundingBox">
      <stop offset="0" stop-color="#5a185b"/>
      <stop offset="1" stop-color="#7f237c"/>
    </linearGradient>
    <linearGradient id="linear-gradient-26" x1="6.889" y1="3.105" x2="6.889" y2="2.098" xlink:href="#linear-gradient-4"/>
    <linearGradient id="linear-gradient-27" x1="6.789" y1="3.306" x2="6.789" y2="2.316" xlink:href="#linear-gradient-5"/>
    <linearGradient id="linear-gradient-28" x1="16.089" y1="2.811" x2="17.403" y2="2.811" xlink:href="#linear-gradient-3"/>
    <radialGradient id="radial-gradient" cx="192.969" cy="-2760.53" r="13.952" gradientTransform="matrix(0.452, 0.043, -0.043, 0.452, 51.355, -2180.268)" gradientUnits="userSpaceOnUse">
      <stop offset="0" stop-color="#00e0a1"/>
      <stop offset="1" stop-color="#40ffb3"/>
    </radialGradient>
    <radialGradient id="radial-gradient-2" cx="-130.529" cy="-1675.211" r="6.618" gradientTransform="matrix(0.606, 0.058, -0.058, 0.606, -142.066, -1130.175)" xlink:href="#radial-gradient"/>
    <linearGradient id="linear-gradient-29" x1="0.5" y1="1" x2="0.5" y2="0" xlink:href="#linear-gradient-25"/>
    <radialGradient id="radial-gradient-3" cx="-1385.276" cy="8359.247" r="10.698" gradientTransform="translate(1165.915 -7057.442) scale(1.986 1.986)" gradientUnits="userSpaceOnUse">
      <stop offset="0" stop-color="#cebda2"/>
      <stop offset="1"/>
    </radialGradient>
    <radialGradient id="radial-gradient-4" cx="-2809.704" cy="19388.736" r="5.564" gradientTransform="translate(6606.863 -45636.666) scale(3.51 3.51)" xlink:href="#radial-gradient-3"/>
    <linearGradient id="linear-gradient-36" x1="0.5" y1="1" x2="0.5" gradientUnits="objectBoundingBox">
      <stop offset="0" stop-color="#ffd638"/>
      <stop offset="1" stop-color="#ffa031"/>
    </linearGradient>
    <linearGradient id="linear-gradient-38" x1="0.5" y1="1" x2="0.5" gradientUnits="objectBoundingBox">
      <stop offset="0.004" stop-color="#66667e"/>
      <stop offset="1" stop-color="#7dccc0"/>
    </linearGradient>
    <linearGradient id="linear-gradient-44" x1="81.5" y1="4.389" x2="79.212" y2="3.4" xlink:href="#linear-gradient-3"/>
    <linearGradient id="linear-gradient-45" x1="0" y1="0.5" x2="1" y2="0.5" xlink:href="#linear-gradient-12"/>
    <linearGradient id="linear-gradient-46" x1="0.5" y1="1.002" x2="0.5" y2="0.003" xlink:href="#linear-gradient"/>
    <linearGradient id="linear-gradient-51" x1="0" y1="0.5" x2="1" y2="0.5" xlink:href="#linear-gradient-3"/>
    <linearGradient id="linear-gradient-52" x1="0" y1="0.5" x2="1" y2="0.5" xlink:href="#linear-gradient-3"/>
  </defs>
  <g id="Robo2" transform="translate(261.106 -1176.437)">
    <path id="Path_3659" data-name="Path 3659" d="M-175.416,1357.013l-10.216.464a69.123,69.123,0,0,1-.741-26.316,58.712,58.712,0,0,1,2.786-11.028v-.009l7.555,4.161a63.474,63.474,0,0,0-1.072,9.261A108.186,108.186,0,0,0-175.416,1357.013Z" fill="url(#linear-gradient)"/>
    <path id="Path_3660" data-name="Path 3660" d="M-185.632,1357.477l-6.545-5.929c.33-13.939,2.134-22.307,3.983-27.272,2.143-5.777,4.357-6.947,4.357-6.947l.25,2.8v.009l.09,1.027a54.353,54.353,0,0,0-2.572,11.127v.008A94.215,94.215,0,0,0-185.632,1357.477Z" fill="url(#linear-gradient-2)"/>
    <path id="Path_3661" data-name="Path 3661" d="M-185.63,1357.477l10.214-.466s14.249,4.762,17.477,5.646l-20.1,4.233Z" fill="#ffe800"/>
    <path id="Path_3662" data-name="Path 3662" d="M-178.03,1362.345v10.8s2.051-7.571,2.051-11.19l-7.134-2.864Z" opacity="0.58" fill="url(#linear-gradient-3)"/>
    <path id="Path_3663" data-name="Path 3663" d="M-192.176,1351.549s-2.83,14.224-2.83,21.591h16.966s1.117-6.968,0-10.8l-7.59-4.868Z" fill="url(#linear-gradient-4)"/>
    <path id="Path_3664" data-name="Path 3664" d="M-178.04,1362.345s10.837-2.59,20.1.312c0,0,5.015,5.721,5.908,11.6l-26.009-1.117A49.809,49.809,0,0,0-178.04,1362.345Z" fill="url(#linear-gradient-5)"/>
    <path id="Path_3665" data-name="Path 3665" d="M-176.714,1364.467c0,1-.371,1.811-.829,1.811s-.83-.811-.83-1.811.371-1.81.83-1.81S-176.714,1363.467-176.714,1364.467Z" fill="#fff"/>
    <path id="Path_3666" data-name="Path 3666" d="M-176.032,1324.285a63.474,63.474,0,0,0-1.072,9.261l-8.965-1.251v-.008l-.3-1.126-1.821-6.885c2.143-5.777,4.357-6.947,4.357-6.947l.25,2.8Z" fill="#9f4f66" opacity="0.32"/>
    <path id="Path_3667" data-name="Path 3667" d="M-211.582,1357.013l-10.206.464a68.677,68.677,0,0,1-.795-25.967,58.175,58.175,0,0,1,2.831-11.377v-.009l7.554,4.161a65.694,65.694,0,0,0-1.116,10.529A108.364,108.364,0,0,0-211.582,1357.013Z" fill="url(#linear-gradient-6)"/>
    <path id="Path_3668" data-name="Path 3668" d="M-221.788,1357.477l-6.555-5.929c.322-13.77,2.09-22.1,3.911-27.084,2.17-5.938,4.43-7.135,4.43-7.135l.25,2.8v.009l.089,1.027a54.587,54.587,0,0,0-2.608,11.5h-.009A94.372,94.372,0,0,0-221.788,1357.477Z" fill="url(#linear-gradient-7)"/>
    <path id="Path_3669" data-name="Path 3669" d="M-212.2,1324.285a65.694,65.694,0,0,0-1.116,10.529l-8.957-2.152h-.009l-.3-1.152-1.849-7.019v-.027c2.17-5.938,4.43-7.135,4.43-7.135l.25,2.8Z" fill="#9f4f66" opacity="0.32"/>
    <path id="Path_3670" data-name="Path 3670" d="M-221.793,1357.477l10.214-.466s14.249,4.762,17.477,5.646l-20.1,4.233Z" fill="#ffe800"/>
    <path id="Path_3671" data-name="Path 3671" d="M-214.2,1362.345s10.837-2.59,20.1.312c0,0,5.015,5.721,5.908,11.6l-26.009-1.117A49.809,49.809,0,0,0-214.2,1362.345Z" fill="url(#linear-gradient-5)"/>
    <path id="Path_3672" data-name="Path 3672" d="M-214.2,1362.345v10.8s2.052-7.571,2.052-11.19l-7.134-2.864Z" opacity="0.58" fill="url(#linear-gradient-9)"/>
    <path id="Path_3673" data-name="Path 3673" d="M-228.34,1351.549s-2.829,14.224-2.829,21.591H-214.2s1.117-6.968,0-10.8l-7.59-4.868Z" fill="url(#linear-gradient-4)"/>
    <path id="Path_3674" data-name="Path 3674" d="M-212.575,1365.4c0,1-.372,1.81-.83,1.81s-.83-.81-.83-1.81.372-1.811.83-1.811S-212.575,1364.4-212.575,1365.4Z" fill="#fff"/>
    <path id="Path_3675" data-name="Path 3675" d="M-128.979,1321.961l-4.3-3.292s3.962-6.642,4.688-9.209l2.907,1.793S-125.881,1318.864-128.979,1321.961Z" fill="#1b1a31"/>
    <path id="Path_3676" data-name="Path 3676" d="M-116.979,1306.792l-9.305,4.768-16.369-57.445s1.411-.134,3.43-.277c4.366-.312,11.564-.687,13.314.081,1.911.839,7.394,15.323,8.983,33.352A102.657,102.657,0,0,1-116.979,1306.792Z" fill="url(#linear-gradient-5)"/>
    <path id="Path_3677" data-name="Path 3677" d="M-116.926,1287.271a103.968,103.968,0,0,1-13.823-4.152l-8.474-29.281c4.366-.312,11.564-.687,13.314.081C-124,1254.758-118.515,1269.242-116.926,1287.271Z" opacity="0.3" fill="url(#linear-gradient-12)"/>
    <path id="Path_3678" data-name="Path 3678" d="M-179.546,1331.762h7.088a20.933,20.933,0,0,0,1.674-22.3l-8.762-.968Z" fill="url(#linear-gradient-6)"/>
    <path id="Path_3679" data-name="Path 3679" d="M-174.356,1320.127c0,6.426-2.324,11.635-5.19,11.635s-5.19-5.209-5.19-11.635,2.323-11.635,5.19-11.635S-174.356,1313.7-174.356,1320.127Z" fill="url(#linear-gradient-7)"/>
    <path id="Path_3680" data-name="Path 3680" d="M-165.449,1325.961l-7.419-4.465-.3-5.135,9.612,2.9Z" fill="#283353"/>
    <path id="Path_3681" data-name="Path 3681" d="M-173.165,1316.362l7.9.26,7.9,1.377-6.184,1.265Z" fill="#1b1a31"/>
    <path id="Path_3682" data-name="Path 3682" d="M-153.993,1329.956l-8.457.92a93.588,93.588,0,0,0-1.518-11.27,127.04,127.04,0,0,0-5.858-20.6l7.135-1c4.813,5.51,6.983,13.564,7.948,20.217A69.841,69.841,0,0,1-153.993,1329.956Z" fill="url(#linear-gradient-6)"/>
    <path id="Path_3683" data-name="Path 3683" d="M-162.45,1330.876a168.474,168.474,0,0,0-2.963-22.384s3.413,8.316,4.008,22.381Z" opacity="0.58" fill="url(#linear-gradient-16)"/>
    <path id="Path_3684" data-name="Path 3684" d="M-169.825,1299l-6.528-1s11.373,15.157,8.546,29.147l5.357,3.721S-162.45,1308.492-169.825,1299Z" fill="url(#linear-gradient-7)"/>
    <path id="Path_3685" data-name="Path 3685" d="M-132.49,1255.16l1.558-.262s11.656,29.442,5.251,56.355Z" opacity="0.58" fill="url(#linear-gradient-3)"/>
    <path id="Path_3686" data-name="Path 3686" d="M-215.709,1331.762h7.088a20.933,20.933,0,0,0,1.674-22.3l-8.762-.968Z" fill="url(#linear-gradient-6)"/>
    <path id="Path_3687" data-name="Path 3687" d="M-210.519,1320.127c0,6.426-2.324,11.635-5.19,11.635s-5.19-5.209-5.19-11.635,2.323-11.635,5.19-11.635S-210.519,1313.7-210.519,1320.127Z" fill="url(#linear-gradient-7)"/>
    <path id="Path_3688" data-name="Path 3688" d="M-201.612,1325.961l-7.419-4.465-.3-5.135,9.612,2.9Z" fill="#283353"/>
    <path id="Path_3689" data-name="Path 3689" d="M-209.328,1316.362l7.9.26,7.9,1.377-6.184,1.265Z" fill="#1b1a31"/>
    <path id="Path_3690" data-name="Path 3690" d="M-125.681,1311.253a33.2,33.2,0,0,1-3.3,10.708s6.7-1.841,8.484-3.627c0,0,2.79-6.865,2.12-11.721S-125.681,1311.253-125.681,1311.253Z" fill="#283353"/>
    <path id="Path_3691" data-name="Path 3691" d="M-126.284,1311.56s-19.2-2.375-27.531-14.153a128.581,128.581,0,0,0,8.242-22.673,85.813,85.813,0,0,0,2.894-19.083c.018-.509.026-1.027.026-1.536,0,0,5.7-.857,10.163,1.045C-132.49,1255.16-120.033,1283.923-126.284,1311.56Z" fill="url(#linear-gradient-4)"/>
    <path id="Path_3692" data-name="Path 3692" d="M-136.25,1264.938l-9.323,9.8a85.813,85.813,0,0,0,2.894-19.083l.4-.223Z" fill="#db2e4f" opacity="0.32"/>
    <path id="Path_3693" data-name="Path 3693" d="M-145.577,1243.283l2.154-3.079s6.724,9.276,9.4,17.751l-2.233,6.986Z" fill="#283353"/>
    <path id="Path_3694" data-name="Path 3694" d="M-145.577,1243.283s7.538,10.049,9.324,21.658h-3.125s-5.633-13.4-13.458-19.2Z" fill="#1b1a31"/>
    <path id="Path_3695" data-name="Path 3695" d="M-149.251,1218.655a61.6,61.6,0,0,1,10.84,11.278,47.39,47.39,0,0,1-14.425,20.891C-163.638,1259.583-149.251,1218.655-149.251,1218.655Z" fill="url(#linear-gradient-22)"/>
    <path id="Path_3696" data-name="Path 3696" d="M-153.815,1259.3c-8.188,6.269-20.413,9.948-20.413,9.948-19.217,2.384-41.863.643-41.863.643a1.064,1.064,0,0,0,.1-.089,52.584,52.584,0,0,1,16.842-11.3c.071-.027.151-.063.223-.09,12.8-2.009,30.433-.687,39.389.232.25.027.491.045.732.072.027,0,.063.009.09.009,2.393.25,4.045.455,4.643.536C-153.984,1259.276-153.9,1259.294-153.815,1259.3Z" fill="url(#linear-gradient-23)"/>
    <path id="Path_3697" data-name="Path 3697" d="M-168.844,1262.473a31.665,31.665,0,0,1-6.84,3.8,41.5,41.5,0,0,1-4.018,1.491,99.639,99.639,0,0,1-10.314.652h-.268c-1.947.035-3.777.018-5.385-.018-3.741-.09-6.286-.286-6.286-.286q.375-.375.75-.723c.259-.241.527-.474.786-.7s.518-.446.776-.643c.2-.16.393-.312.59-.455.259-.206.518-.393.768-.563.187-.134.366-.268.553-.384s.367-.241.545-.357c.4-.259.795-.5,1.161-.7v-.009c.205-.116.393-.224.581-.322.517-.286.973-.518,1.357-.7.107-.054.214-.1.312-.143.081-.036.152-.072.224-.107a.128.128,0,0,0,.053-.018c.429-.2.67-.277.67-.277.705-.107,1.438-.205,2.2-.277a.142.142,0,0,1,.062,0,64.281,64.281,0,0,1,6.76-.286h.473c2.572.036,5.072.161,7.269.322,2.045.143,3.813.321,5.081.455a1.847,1.847,0,0,1,.313.036c.205.018.393.045.562.063.25.026.474.053.661.08Z" fill="#3f004a"/>
    <path id="Path_3698" data-name="Path 3698" d="M-169.451,1262.4a35.251,35.251,0,0,1-6.26,3.268c-.928.393-1.759.7-2.384.92-.786.277-1.268.42-1.268.42a92.855,92.855,0,0,1-9.5.634,1.458,1.458,0,0,1-.2.009c-.33.009-.661.009-.982.009-.089.008-.179.008-.259.008-.973.009-1.9.009-2.795,0-.929-.008-1.813-.026-2.625-.053-2.661-.063-4.662-.179-5.483-.232.259-.241.527-.474.786-.7s.518-.446.776-.643c.2-.16.393-.312.59-.455.259-.206.518-.393.768-.563.187-.134.366-.268.553-.384s.367-.241.545-.357c.4-.259.795-.5,1.161-.7v-.009c.205-.116.393-.224.581-.322.517-.286.973-.518,1.357-.7.107-.054.214-.1.312-.143.081-.036.152-.072.224-.107a.128.128,0,0,0,.053-.018c.429-.2.67-.277.67-.277.741-.089,1.473-.17,2.206-.241h.062c.384-.036.768-.072,1.152-.1,1.92-.143,3.813-.215,5.6-.224h.473c1.679,0,3.278.045,4.769.116.875.045,1.7.1,2.491.152,2.081.152,3.813.349,5.09.509a1.847,1.847,0,0,1,.313.036c.205.018.393.045.562.063C-169.862,1262.348-169.638,1262.375-169.451,1262.4Z" fill="#390300"/>
    <path id="Path_3699" data-name="Path 3699" d="M-155.449,1203.207s-10.95,6.657-21.237,9.489c0,0-36.532,2.125-49.369-2.8l26.384-14.473Z" fill="#4e074f"/>
    <path id="Path_3700" data-name="Path 3700" d="M-155.449,1203.206a175.339,175.339,0,0,0-19.217-2.214l-.295-.027c-12.68-.9-25.119-1.152-25.119-1.152-4.563-20.5-9.323-22.307-9.323-22.307.375-.062.75-.125,1.125-.178a86.71,86.71,0,0,1,16.753-.8,152.306,152.306,0,0,1,24.432,3,22.037,22.037,0,0,1,5.554,6.716l-.991,1.089,1.437,5.3,2.6.161h.009c.884,2.3,1.554,4.51,2.045,6.287C-155.761,1201.545-155.449,1203.206-155.449,1203.206Z" fill="url(#linear-gradient-24)"/>
    <path id="Path_3701" data-name="Path 3701" d="M-174.666,1200.992l-25.414-1.179c-4.563-20.5-9.323-22.307-9.323-22.307l1.116-.187.009.009a37.9,37.9,0,0,1,9.35,21.744l23.967,1.893Z" fill="#fff"/>
    <path id="Path_3702" data-name="Path 3702" d="M-209.4,1177.51l-4.979,1.656a60.516,60.516,0,0,0-11.675,30.731s14.774-6.777,25.966-10.084C-200.089,1199.813-201.02,1183.69-209.4,1177.51Z" fill="url(#linear-gradient-25)"/>
    <path id="Path_3703" data-name="Path 3703" d="M-218.163,1205.243a8.726,8.726,0,0,0,2.435-.3c.327-.27,2.943-3.1,3.726-11.318s-2.368-13.036-2.824-13.587-5.282,1.15-8.016,3.408S-218.163,1205.243-218.163,1205.243Z" fill="url(#linear-gradient-26)"/>
    <path id="Path_3704" data-name="Path 3704" d="M-219.584,1182.261c-1.21-.958-8.22,3.763-8.073,9.794s6.57,13.56,9.494,13.188S-214.362,1186.4-219.584,1182.261Z" fill="url(#linear-gradient-27)"/>
    <path id="Path_3705" data-name="Path 3705" d="M-219.584,1182.261a.976.976,0,0,0-.788-.083l.016.009c5.222,4.135,4.344,22.611,1.42,22.983h-.033a2.16,2.16,0,0,0,.806.072C-215.24,1204.871-214.362,1186.4-219.584,1182.261Z" opacity="0.58" fill="url(#linear-gradient-28)"/>
    <path id="Path_3706" data-name="Path 3706" d="M-215.78,1192.612c.013.809-.218,1.47-.518,1.475s-.553-.648-.566-1.457.218-1.471.518-1.476S-215.794,1191.8-215.78,1192.612Z" fill="#fff"/>
    <path id="Path_3707" data-name="Path 3707" d="M-204.565,1183.317a161.3,161.3,0,0,1,16.716,1.012s1.688,4.644.919,8.2l-14.262.115A25.361,25.361,0,0,0-204.565,1183.317Z" fill="#4e074f"/>
    <path id="Path_3708" data-name="Path 3708" d="M-162.53,1187.331l1.433,5.295-8.714-.526c-.38-3.355-1.132-6.755-1.132-6.755l9.4.9Z" fill="#4e074f"/>
    <path id="Path_3709" data-name="Path 3709" d="M-158.484,1192.785h-.009a.013.013,0,0,0,0-.018A.028.028,0,0,1-158.484,1192.785Z" fill="#4e074f"/>
    <path id="Path_3710" data-name="Path 3710" d="M-158.484,1192.785h-.009a.013.013,0,0,0,0-.018A.028.028,0,0,1-158.484,1192.785Z" fill="#4e074f"/>
    <path id="Path_3711" data-name="Path 3711" d="M-203.462,1185.57l14.657.555a28.848,28.848,0,0,1,.932,6.409l-13.319.108A24.011,24.011,0,0,0-203.462,1185.57Z" fill="url(#radial-gradient)"/>
    <path id="Path_3712" data-name="Path 3712" d="M-170.6,1186.843l8.069.488,1.433,5.294-8.714-.525Z" fill="url(#radial-gradient-2)"/>
    <path id="Path_3713" data-name="Path 3713" d="M-198.928,1258.419c-.072.027-.152.063-.223.09-8.207,3.393-15.9,10.421-16.842,11.3a1.064,1.064,0,0,1-.1.089,84.808,84.808,0,0,1-12.252-15.636,85.99,85.99,0,0,1-9.707-21.691c7.885-17.484,20.253-24.941,20.253-24.941l.054.054c14.68,13.707,17.958,34.523,18.654,44.7C-198.839,1256.115-198.928,1258.419-198.928,1258.419Z" fill="url(#linear-gradient-29)"/>
    <path id="Path_3714" data-name="Path 3714" d="M-146.85,1235.764a56.812,56.812,0,0,1-1.134,8.448h-.009a45.835,45.835,0,0,1-5.822,15.091c-.089-.009-.169-.027-.259-.035-1.473-.206-3.027-.384-4.643-.536-.027,0-.063-.009-.09-.009-.241-.027-.482-.045-.732-.072-16.886-1.473-39.389-.232-39.389-.232q0-3.108-.241-6.045c-2.09-26.933-17.538-43.6-18.574-44.694l-.054-.054,2.893-.625.081-.017c2.491-.509,4.983-.929,7.447-1.268,29.62-4.046,56.106,3.563,56.106,3.563A62.525,62.525,0,0,1-146.85,1235.764Z" fill="url(#linear-gradient-24)"/>
    <path id="Path_3715" data-name="Path 3715" d="M-198.928,1258.419q0-3.108-.241-6.045c-2.09-26.933-17.538-43.6-18.574-44.694l-.054-.054,2.893-.625.081-.017S-196.928,1228.085-198.928,1258.419Z" fill="#fff"/>
    <path id="Path_3716" data-name="Path 3716" d="M-229.346,1293.219l4.018-1.514,4.316,9.747-5.581-1.493Z" fill="#1b1a31"/>
    <path id="Path_3717" data-name="Path 3717" d="M-152.429,1303.916l9.376,7.069h2.679l-2.084-.931s-1.222-7.18.877-12.463l-7.648-2.577S-153.1,1299.525-152.429,1303.916Z" fill="#283353"/>
    <path id="Path_3718" data-name="Path 3718" d="M-149.229,1295.014l4.167-.735,6.7,1.953.781,11.051-2.79,3.7s-2.735.149-3.46-1.525,1.766-12.034,1.766-12.034Z" fill="#1b1a31"/>
    <path id="Path_3719" data-name="Path 3719" d="M-131.98,1316.566s-7.092,0-10.3-2.336a60.018,60.018,0,0,1,1.385-11.877l7.367,1.563S-134.741,1313.805-131.98,1316.566Z" fill="#283353"/>
    <path id="Path_3720" data-name="Path 3720" d="M-199.534,1258.084s3.515-11.388,10.757-18.63,13.963-8.956,13.963-8.956-2.9-15.838-7.367-26.1l.821.045,8.853,24.387-.67,6.6Z" fill="url(#radial-gradient-3)"/>
    <path id="Path_3721" data-name="Path 3721" d="M-198.924,1258.419s3.514-11.388,10.756-18.63,13.964-8.956,13.964-8.956-2.9-15.838-7.367-26.1l.82.045,8.853,24.387-.669,6.6Z" fill="#ac2219"/>
    <path id="Path_3722" data-name="Path 3722" d="M-140.9,1302.353l3.765-1.935,7.081.968.562,8.55s.1,6.63-2.493,6.63-2.422-12.576-2.422-12.576Z" fill="#1b1a31"/>
    <path id="Path_3723" data-name="Path 3723" d="M-189.293,1323.428a63.966,63.966,0,0,1-.866,6.528l-8.457.92c.242-2.036.4-4.09.483-6.117a126.593,126.593,0,0,0-1.581-24.8l6.831-1.956C-188.7,1306.1-188.712,1316.7-189.293,1323.428Z" fill="url(#linear-gradient-6)"/>
    <path id="Path_3724" data-name="Path 3724" d="M-199.716,1299.958l-5.7-.3s4.273,13.5,1.446,27.491l5.357,3.721S-196.206,1312.353-199.716,1299.958Z" fill="url(#linear-gradient-7)"/>
    <path id="Path_3725" data-name="Path 3725" d="M-167.433,1205.684s2.884,8,2.884,26.207c0,0,9.06,4.158,10.734,26.911l-13.618-18.932-1.516-13.513Z" fill="url(#radial-gradient-4)"/>
    <path id="Path_3726" data-name="Path 3726" d="M-167.935,1206.019s2.884,8,2.884,26.207c0,0,9.562,4.324,11.236,27.077l-14.12-19.1-1.516-13.512Z" fill="#ac2219"/>
    <path id="Path_3727" data-name="Path 3727" d="M-198.924,1258.419s8.343-23.364,25.759-26.5,19.35,27.388,19.35,27.388S-170.767,1257.851-198.924,1258.419Z" fill="url(#linear-gradient-5)"/>
    <path id="Path_3728" data-name="Path 3728" d="M-147.993,1244.212a45.835,45.835,0,0,1-5.822,15.091c-8.188,6.269-20.413,9.948-20.413,9.948-19.217,2.384-41.863.643-41.863.643a84.808,84.808,0,0,1-12.252-15.636v-16.252l13.52-8.841,15.654,23.209.009.009h.071C-197.249,1252.365-161.039,1251.865-147.993,1244.212Z" fill="#d02e4f" opacity="0.32"/>
    <path id="Path_3729" data-name="Path 3729" d="M-146.85,1235.764c-30.12-6.6-60.526-30.048-60.526-30.048,29.62-4.046,56.106,3.563,56.106,3.563A62.525,62.525,0,0,1-146.85,1235.764Z" opacity="0.3" fill="url(#linear-gradient-3)"/>
    <path id="Path_3730" data-name="Path 3730" d="M-156.44,1199.072c-15.083-1.867-33.648-21.039-35.085-22.548a152.306,152.306,0,0,1,24.432,3,22.037,22.037,0,0,1,5.554,6.716l-.991,1.089,1.437,5.3,2.6.161h.009C-157.6,1195.089-156.931,1197.3-156.44,1199.072Z" opacity="0.3" fill="url(#linear-gradient-3)"/>
    <path id="Path_3731" data-name="Path 3731" d="M-180.751,1204.778s5.5,14.352,7.586,27.137l7.317.864s-.431-17.369-2.087-26.76A91.675,91.675,0,0,0-180.751,1204.778Z" fill="url(#linear-gradient-36)"/>
    <path id="Path_3732" data-name="Path 3732" d="M-218.893,1286.635l-22.442,22.027-8.3,4.62,18.2-22.693Z" fill="#db5100"/>
    <path id="Path_3733" data-name="Path 3733" d="M-215.091,1259.375s-4.8-13.7-13.931-21.173c-5.715-4.688-13.126-6.929-22.128-1.839.081-.233,1.652-4.269,6.394-9.234h.009c4.295-4.518,11.216-9.805,22.03-13.7a30.548,30.548,0,0,1,4.411,6.572,45.593,45.593,0,0,1,3.911,10.484C-212.609,1237.836-212.046,1247.507-215.091,1259.375Z" fill="url(#linear-gradient-22)"/>
    <path id="Path_3734" data-name="Path 3734" d="M-215.091,1259.375s-4.8-13.7-13.931-21.173l-.321-1.152,14.948-6.563C-212.609,1237.836-212.046,1247.507-215.091,1259.375Z" fill="#db2e4f" opacity="0.16"/>
    <path id="Path_3735" data-name="Path 3735" d="M-251.157,1236.372c-4.608,15.31,32.359,27.876,36.07,23C-211.568,1254.753-244.013,1212.634-251.157,1236.372Z" fill="url(#linear-gradient-38)"/>
    <path id="Path_3736" data-name="Path 3736" d="M-216.431,1258.294a2.956,2.956,0,0,1-2.027.9c-3.982.563-12.439-1.688-19.618-5.6a42.089,42.089,0,0,1-4.153-2.572c-.1-.062-.187-.134-.286-.2a25.761,25.761,0,0,1-4.9-4.5,11.772,11.772,0,0,1-2.715-5.8,8.54,8.54,0,0,1,.3-3.527c1.875-6.233,5.644-7.564,9.992-6.162a17.056,17.056,0,0,1,3.135,1.393c.169.1.339.2.518.295a34.351,34.351,0,0,1,4.491,3.25C-222.833,1243.221-214.645,1255.955-216.431,1258.294Z" fill="url(#linear-gradient-7)"/>
    <path id="Path_3737" data-name="Path 3737" d="M-236.182,1232.52l-6.045,18.5-.96,2.926-7.006.949s.956-3.661,2.777-8.572a76.592,76.592,0,0,1,7.582-15.493,16.918,16.918,0,0,1,3.134,1.393C-236.53,1232.324-236.361,1232.422-236.182,1232.52Z" fill="#283353"/>
    <path id="Path_3738" data-name="Path 3738" d="M-231.69,1235.771c-2.76,5.429-5.126,13.27-6.385,17.824-.607,2.214-.956,3.652-.956,3.652l-4.156-3.3c.143-.839.513-2.328.674-3.123a79.859,79.859,0,0,1,5.813-18.6c.17.1.339.2.518.294A34.424,34.424,0,0,1-231.69,1235.771Z" fill="#1b1a31"/>
    <path id="Path_3739" data-name="Path 3739" d="M-230.325,1291.7c-6.01,6.018-19.315,21.583-19.315,21.583-8.082-12.9-10.814-24.387-11.359-33.165-.67-10.886,2.027-17.592,2.027-17.592,2.795-5.465,9.332-9.573,9.332-9.573,2.937,11.537,8.4,21.994,12.769,29.129A105.164,105.164,0,0,0-230.325,1291.7Z" fill="url(#linear-gradient-4)"/>
    <path id="Path_3740" data-name="Path 3740" d="M-239.243,1303.934l2.9-1.414,9.753,5.73-8.26,2.493Z" fill="#1b1a31"/>
    <path id="Path_3741" data-name="Path 3741" d="M-246.1,1311.313l6.856-7.379a16.419,16.419,0,0,0,12.65,4.316s-6.7,5.135-8.781,5.954S-246.1,1311.313-246.1,1311.313Z" fill="#283353"/>
    <path id="Path_3742" data-name="Path 3742" d="M-237.68,1302.3a14.954,14.954,0,0,0,11.087,6.611l6.7-6.611s-7.144-5.209-9.451-9.078Z" fill="#283353"/>
    <path id="Path_3743" data-name="Path 3743" d="M-219.9,1305.423l-2.621-.539-5.824-12.045,1.149-2.523S-218.165,1301.107-219.9,1305.423Z" fill="#1b1a31"/>
    <path id="Path_3744" data-name="Path 3744" d="M-216.431,1258.294a2.956,2.956,0,0,1-2.027.9,39.586,39.586,0,0,0-9.885-11.073,37.215,37.215,0,0,0-21.789-7.6,8.54,8.54,0,0,1,.3-3.527c1.875-6.233,5.644-7.564,9.992-6.162a17.056,17.056,0,0,1,3.135,1.393c.169.1.339.2.518.295a34.351,34.351,0,0,1,4.491,3.25C-222.833,1243.221-214.645,1255.955-216.431,1258.294Z" fill="#562e4f" opacity="0.35"/>
    <path id="Path_3745" data-name="Path 3745" d="M-236.871,1282.083A111.763,111.763,0,0,1-261,1280.119c-.67-10.886,2.027-17.592,2.027-17.592,2.795-5.465,9.332-9.573,9.332-9.573C-246.7,1264.491-241.238,1274.948-236.871,1282.083Z" opacity="0.3" fill="url(#linear-gradient-3)"/>
    <path id="Path_3746" data-name="Path 3746" d="M-199.451,1197.593c.074.653-.109,1.211-.408,1.245s-.6-.469-.677-1.122.109-1.211.409-1.245S-199.525,1196.939-199.451,1197.593Z" fill="#fff"/>
    <path id="Path_3747" data-name="Path 3747" d="M-202.866,1228.842c.389.921.363,1.812-.059,1.991s-1.08-.423-1.47-1.344-.363-1.812.059-1.99S-203.256,1227.922-202.866,1228.842Z" fill="#fff"/>
    <ellipse id="Ellipse_16" data-name="Ellipse 16" cx="0.618" cy="1.349" rx="0.618" ry="1.349" transform="translate(-233.53 1233.596) rotate(-42.828)" fill="#fff"/>
    <ellipse id="Ellipse_17" data-name="Ellipse 17" cx="0.524" cy="1.143" rx="0.524" ry="1.143" transform="translate(-165.207 1229.956)" fill="#fff"/>
    <path id="Path_3748" data-name="Path 3748" d="M-249.638,1252.953l-1.4.969s1.351,18.418,20.716,37.782Z" opacity="0.58" fill="url(#linear-gradient-3)"/>
    <path id="Path_3749" data-name="Path 3749" d="M-249.638,1252.953s8.275-.132,11.032,2.625c0,0,11.831,23.174,19.713,31.057l-11.428,5.069S-248.119,1269.534-249.638,1252.953Z" fill="url(#linear-gradient-5)"/>
    <path id="Path_3750" data-name="Path 3750" d="M-242.795,1273.214c.39.921.363,1.812-.059,1.991s-1.08-.423-1.47-1.344-.363-1.812.059-1.991S-243.185,1272.293-242.795,1273.214Z" fill="#fff"/>
    <path id="Path_3751" data-name="Path 3751" d="M-124.42,1281.026c.06.87-.18,1.595-.536,1.619s-.694-.66-.754-1.529.18-1.595.536-1.619S-124.48,1280.157-124.42,1281.026Z" fill="#fff"/>
    <path id="Path_3752" data-name="Path 3752" d="M-162.093,1323.4c.033.481-.1.882-.3.9s-.384-.365-.417-.846.1-.882.3-.9S-162.126,1322.923-162.093,1323.4Z" fill="#fff"/>
    <path id="Path_3753" data-name="Path 3753" d="M-198.581,1330.9a168.484,168.484,0,0,0,.343-22.576s2.036,8.551.568,22.552Z" opacity="0.58" fill="url(#linear-gradient-44)"/>
    <path id="Path_3754" data-name="Path 3754" d="M-197.135,1323.557c-.037.481-.227.858-.424.843s-.326-.417-.289-.9.228-.858.424-.843S-197.1,1323.077-197.135,1323.557Z" fill="#fff"/>
    <path id="Path_3755" data-name="Path 3755" d="M-218.306,1220c-.062.054-.116.1-.178.143-6.519,4.742-25.763,6.93-26.263,6.983,4.295-4.518,11.216-9.805,22.03-13.7A30.548,30.548,0,0,1-218.306,1220Z" opacity="0.3" fill="url(#linear-gradient-45)"/>
    <path id="Path_3756" data-name="Path 3756" d="M-172.4,1304.493l4.647-2.14,8.113.047-3.052-4.4-11.884,2.663Z" fill="#d02e4f" opacity="0.32"/>
    <path id="Path_3757" data-name="Path 3757" d="M-190.237,1305.423l-8.262.515-5.861-2-1.056-4.274,13.928,1.8Z" fill="#d02e4f" opacity="0.32"/>
    <path id="Path_3758" data-name="Path 3758" d="M-190.731,1280.467c0-.027.545-.045.706-.072l-.17.036-.321.072-.045.009a.543.543,0,0,1-.178.017C-190.739,1280.512-190.731,1280.494-190.731,1280.467Z" fill="url(#linear-gradient-46)"/>
    <path id="Path_3759" data-name="Path 3759" d="M-176.291,1280.128l-13.689.259c.089-1.045.142-2.108.169-3.188,0-.063.009-.134.009-.206a119.423,119.423,0,0,0-.625-13.055c-.062-.732-.134-1.456-.2-2.17h.062c0-.018,0-.027-.009-.036a92.449,92.449,0,0,1,14.493-.018c0,.17.045.527.1,1.072A72.793,72.793,0,0,1-176.291,1280.128Z" fill="url(#linear-gradient-6)"/>
    <path id="Path_3760" data-name="Path 3760" d="M-189.8,1276.993c0,.072-.009.143-.009.206-.071,1.75-.169,2.884-.169,3.188l-.045.008-.17.036-.321.072-.045.009-4.626,1.026c0-4.929-.294-10.349-.535-13.921-.17-2.456-.3-4.045-.3-4.045a25.15,25.15,0,0,1,2.474-1.268s.3-.322,2.92-.572a.054.054,0,0,1,.009.036h.062c.107.732.206,1.455.286,2.161A85.2,85.2,0,0,1-189.8,1276.993Z" fill="url(#linear-gradient-7)"/>
    <path id="Path_3761" data-name="Path 3761" d="M-159.637,1293.219a20.516,20.516,0,0,1-1.92,5.509c-4.759,2.152-29.182,2.724-29.182,2.724.026-.241.053-.482.071-.714h.009a42.792,42.792,0,0,0-2.84-21.048.25.25,0,0,0-.036-.071c14.288-1.518,32.871,1.393,32.871,1.393A21.182,21.182,0,0,1-159.637,1293.219Z" fill="url(#linear-gradient-24)"/>
    <path id="Path_3762" data-name="Path 3762" d="M-193.532,1279.621h1.356s5.031,10.64,1.436,21.83Z" fill="#fff"/>
    <path id="Path_3763" data-name="Path 3763" d="M-190.623,1300.738c-.063.464-.116.714-.116.714-3.992.125-17.1-2.206-17.1-2.206a25.022,25.022,0,0,1-1.215-5.581,47.125,47.125,0,0,1,.429-12.127l15.091-1.919a.25.25,0,0,1,.036.071C-189.016,1287.512-190.2,1297.942-190.623,1300.738Z" fill="url(#linear-gradient-29)"/>
    <path id="Path_3764" data-name="Path 3764" d="M-159.637,1293.219a20.516,20.516,0,0,1-1.92,5.509c-4.759,2.152-29.182,2.724-29.182,2.724-3.992.125-17.1-2.206-17.1-2.206a25.022,25.022,0,0,1-1.215-5.581l.009-.009s15.217,7.073,18.378,7.082h.045C-189.525,1300.595-163.629,1297.21-159.637,1293.219Z" fill="#d02e4f" opacity="0.32"/>
    <path id="Path_3765" data-name="Path 3765" d="M-189.514,1290.271c.06.87-.18,1.595-.536,1.619s-.694-.66-.754-1.529.179-1.595.536-1.619S-189.575,1289.4-189.514,1290.271Z" fill="#fff"/>
    <path id="Path_3766" data-name="Path 3766" d="M-175.979,1262.786l-14.3,1.143-.152.009-5.295,3.679c-.17-2.456-.3-4.045-.3-4.045a25.15,25.15,0,0,1,2.474-1.268s.3-.322,2.92-.572a.054.054,0,0,1,.009.036h.062c0-.018,0-.027-.009-.036a92.449,92.449,0,0,1,14.493-.018C-176.077,1261.884-176.032,1262.241-175.979,1262.786Z" fill="#d02e4f" opacity="0.32"/>
    <path id="Path_3767" data-name="Path 3767" d="M-197.808,1324.759l8.515-1.331a63.966,63.966,0,0,1-.866,6.528l-8.457.92C-198.374,1328.84-197.888,1326.786-197.808,1324.759Z" fill="#fff" opacity="0.2"/>
    <path id="Path_3768" data-name="Path 3768" d="M-153.993,1329.956l-8.457.92c-.268-3.858-.081-7.68-.777-11.27l8.484-1.384A69.841,69.841,0,0,1-153.993,1329.956Z" fill="#fff" opacity="0.2"/>
    <path id="Path_3769" data-name="Path 3769" d="M-221.793,1357.477a65.278,65.278,0,0,1-.926-20.074s.2,13.341,2.321,20.074Z" opacity="0.58" fill="url(#linear-gradient-51)"/>
    <path id="Path_3770" data-name="Path 3770" d="M-185.63,1357.477s-1-6.134-1-18.676c0,0,.44,13.724,2.284,18.618Z" opacity="0.58" fill="url(#linear-gradient-52)"/>
    <path id="Path_3771" data-name="Path 3771" d="M-228.789,1272.975c-1.563.553-2.786-2.465-2.376-2.465l.777-.116-.134-.223-7.742-.063c-.286.84-.848,2.117-1.5,1.867-.536-.206-.563-1.117-.491-1.885l-3.849-.035c-5,4.991-10.466,13-13.323,17.395.223.509.419,1.1.25,1.268-.125.125-.527.018-.956-.161-.812,1.259-1.277,2.027-1.277,2.027.313,1.483.661,2.769.965,3.76a1.65,1.65,0,0,1,1.045-.527,1.117,1.117,0,0,1,1.062.813c.706-1.027,1.411-2,2.1-2.956v-.009c-.152-.84-.25-1.768,0-2.018.285-.286.785.1,1.143.464,2.982-4.009,5.733-7.322,7.885-9.787-.554-.143-1.161-.375-.884-.652a3.321,3.321,0,0,1,1.786-.375c2.241-2.509,3.634-3.875,3.634-3.875l13.663.428Zm-27.852,18.181c-.322-.313.062-.741.3-.5S-256.329,1291.468-256.641,1291.156Zm.526,1.446c-.321-.312.063-.741.3-.5S-255.8,1292.915-256.115,1292.6Zm.688-6.786c-.188-.188,1.036-2.152,1.036-1.679C-254.391,1284.735-255.239,1286-255.427,1285.816Zm2.152-2.7c-.625,0,1.143-3.375,1.527-2.991C-251.516,1280.351-252.641,1283.119-253.275,1283.119Zm1.938,2.715c-.25-.25,1.7-2.545,1.7-1.768C-249.64,1284.7-251.087,1286.084-251.337,1285.834Zm2.679-5.733c-.322-.313.062-.741.3-.5S-248.346,1280.413-248.658,1280.1Zm1.455-5.706c-.241-.242,1.492-2.358,1.492-1.751C-245.711,1272.939-246.962,1274.636-247.2,1274.4Zm1.492,2.527c-.322-.313.946-1.134,1.187-.893S-245.4,1277.234-245.711,1276.922Zm2.911-4.688a.337.337,0,0,1-.116-.313.253.253,0,0,1,.419-.187c.206.2.072.634-.16.58A.215.215,0,0,1-242.8,1272.234Zm7.778-1.483c.241.241-1.134.268-1.447-.044S-235.264,1270.51-235.022,1270.751Zm-2.3,3.973c.241.241-1.134.268-1.447-.045S-237.559,1274.483-237.318,1274.724Zm1.054-.312c0-.642,3.715-.5,3.715,0C-232.549,1274.412-236.264,1275.064-236.264,1274.412Zm3.572-3.232c-.321-.313.063-.741.3-.5S-232.379,1271.492-232.692,1271.18Zm1.125,3.969c-.322-.312.062-.741.3-.5S-231.255,1275.462-231.567,1275.149Zm2.635-.21c-.322-.312.062-.741.3-.5S-228.62,1275.252-228.932,1274.939Z" fill="#1b1a31"/>
    <path id="Path_3772" data-name="Path 3772" d="M-240.675,1275.422s-1.393,1.366-3.634,3.875a3.321,3.321,0,0,0-1.786.375c-.277.277.33.509.884.652-2.152,2.465-4.9,5.778-7.885,9.787-.358-.366-.858-.75-1.143-.464-.25.25-.152,1.178,0,2.018v.009c-.688.955-1.393,1.929-2.1,2.956a1.117,1.117,0,0,0-1.062-.813,1.65,1.65,0,0,0-1.045.527c-.3-.991-.652-2.277-.965-3.76,0,0,.465-.768,1.277-2.027.429.179.831.286.956.161.169-.17-.027-.759-.25-1.268,2.857-4.393,8.322-12.4,13.323-17.395l1.188,1.866.259.393Z" fill="#fff" opacity="0.43"/>
    <path id="Path_3773" data-name="Path 3773" d="M-117.5,1281.949c-.652-.232-1.634-.7-1.634-1.366,0-.634.777-.563,1.357-.42l-.08-.544-4.546-.081c.045.473.009,1.045-.33,1.045-.411,0-.482-.589-.491-1.054l-1.956-.035-.652-.081-13.091-1.563c-.509.76-1.313,1.652-1.991.974a1.591,1.591,0,0,1-.465-1.268l-4.8-.572-1.563,5.144,14.494,3.286c.1-.723.4-1.482,1.268-1.232a3.689,3.689,0,0,1,1.911,1.955l5.009,1.134,8.135-1.571Zm-26.45-3.8c0,.2-.795.116-.795-.134S-143.947,1277.958-143.947,1278.145Zm-1.045,1.786c0-.25,2.089-.134,2.089.2S-144.992,1280.19-144.992,1279.931Zm10.3,4.2c-.268.268-3.715-.527-3.715-1.054C-138.411,1282.619-134.428,1283.86-134.7,1284.128Zm2.009-3.777c0-.5,4.045-.607,4.045,0S-132.687,1280.86-132.687,1280.351Zm5.045,5.027c0-.25.92-.25.92,0S-127.642,1285.628-127.642,1285.378Zm-10.769-6.935c0-.25.92-.25.92,0S-138.411,1278.693-138.411,1278.443Zm16.114,7.123c0-.25.92-.25.92,0S-122.3,1285.816-122.3,1285.566Zm-16.875-3.053c0-.25.92-.25.92,0S-139.172,1282.763-139.172,1282.513Zm6.485-2.912c0-.25.92-.25.92,0S-132.687,1279.851-132.687,1279.6Zm-13.294,1.971c0-.25.46-.25.46,0S-145.981,1281.822-145.981,1281.572Zm15.087.187c0-.25.46-.25.46,0S-130.894,1282.009-130.894,1281.759Zm9.688-.995c0-.25.459-.25.459,0S-121.206,1281.014-121.206,1280.764Zm-8.364,4.75c0-.25.46-.25.46,0S-129.57,1285.764-129.57,1285.514Zm2.571-4.443c0-.384.893-.434.893,0S-127,1281.464-127,1281.071Zm6.5,3.057c-.151-.152,1.367-1.473,1.367-1.054C-119.131,1283.869-120.346,1284.28-120.5,1284.128Zm.679,1.25c-.384-.384,1.527-1,1.527-.643C-118.292,1285.262-119.435,1285.762-119.819,1285.378Z" fill="#1b1a31"/>
    <path id="Path_3774" data-name="Path 3774" d="M-116.926,1285.7l-8.135,1.571-.768-7.858.652.081,1.956.035c.009.465.08,1.054.491,1.054.339,0,.375-.572.33-1.045l4.546.081.08.544c-.58-.143-1.357-.214-1.357.42,0,.67.982,1.134,1.634,1.366Z" fill="#fff" opacity="0.43"/>
    <path id="Path_3775" data-name="Path 3775" d="M-189.366,1217.714v-.01a.805.805,0,0,1-.207-.031c-.258-.062-.872-.295-.841-.388s.676-.016.934.046c.031.011.063.021.083.031l-.093-1.044-.806-.3a.5.5,0,0,1-.447.251c-.155-.041-.153-.313-.122-.406a.074.074,0,0,1,.021-.041l-4.973-1.82c.36.844-.509.474-.652.331a.794.794,0,0,1-.165-.631l-8.633-3.163.538,2.874,9.987,4.218c0-.031.021-.041.072-.041.4,0,1.644.155,1.251.6l1.127.475c-.4-.4-.327-1.347-.165-1.38.855-.177.62,1.142.7,1.608l2.6,1.1Zm-14.454-6.121c.021-.134.362-.155.724-.051.362.072.62.258.6.413-.052.135-.362.155-.724.052C-203.592,1211.935-203.871,1211.717-203.82,1211.593Zm.28,1.727c0-.2,1.8.548,1.8.7S-203.54,1213.661-203.54,1213.32Zm3.422.93a.114.114,0,0,1-.114-.113.115.115,0,0,1,.114-.114,2.03,2.03,0,0,1,.63.331C-199.488,1214.416-200.056,1214.25-200.118,1214.25Zm3.664,1.937c-.418-.113-.741-.3-.711-.415s.4-.112.823,0,.892.3.861.408S-196.036,1216.3-196.454,1216.187Zm1.5,1.2c-.209-.056-.37-.151-.355-.207s.2-.056.411,0,.217.147.2.2S-194.747,1217.445-194.955,1217.389Zm3.418,1.106a.115.115,0,0,1-.114-.114.115.115,0,0,1,.114-.114c.062,0,.134.027.134.089A.158.158,0,0,1-191.537,1218.495Zm1.467.113a.114.114,0,0,1-.114-.113.115.115,0,0,1,.114-.114c.062,0,.134.027.134.089A.157.157,0,0,1-190.07,1218.608Zm-.684-1.323a.114.114,0,0,1-.113-.114.114.114,0,0,1,.113-.114c.062,0,.135.028.135.09A.158.158,0,0,1-190.754,1217.285Zm-7.86-2.79a.115.115,0,0,1-.114-.114.115.115,0,0,1,.114-.114c.062,0,.134.028.134.09A.157.157,0,0,1-198.614,1214.495Zm0-.98a.115.115,0,0,1-.114-.114.115.115,0,0,1,.114-.114c.062,0,.134.027.134.089A.157.157,0,0,1-198.614,1213.515Zm-3.891-.95a.115.115,0,0,1-.114-.114.114.114,0,0,1,.114-.113c.062,0,.134.027.134.089A.157.157,0,0,1-202.505,1212.565Zm4.9,1.551c-.145-.031-.258-.114-.238-.165s.145-.062.29-.021a3.3,3.3,0,0,1,.858.444A5.3,5.3,0,0,1-197.606,1214.116Zm4.27,1.665a.115.115,0,0,1-.114-.114.115.115,0,0,1,.114-.114,4.388,4.388,0,0,1,.951.4A6.268,6.268,0,0,1-193.336,1215.781Z" fill="#1b1a31"/>
    <path id="Path_3776" data-name="Path 3776" d="M-188.415,1226.771l-.206-2.275v-.01a.759.759,0,0,1-.207-.031,4.279,4.279,0,0,1-1.232-.479,4.5,4.5,0,0,1,1.325.138.591.591,0,0,1,.083.031l-.093-1.044-.807-.3c-.021.093-.56.551-.711.473-.738-.377.111-.535.142-.628a.083.083,0,0,1,.021-.042l-4.973-1.819c-.176.3-.71.849-1.2.248-.13-.158.367-.3.387-.548l-8.746-3.733.558,2.978,4.632,2.151a1.485,1.485,0,0,1,.858-.124c.186.082-.114.217-.424.32l5.014,2.337c0-.031.021-.042.073-.042.4,0,1.644.155,1.251.6Zm-15.012-8.612c-.062,0-.434-.166-.434-.228s.372,0,.434,0a.115.115,0,0,1,.114.114A.115.115,0,0,1-203.427,1218.159Zm.889,1.83c0-.2.993.434.993.589S-202.538,1220.33-202.538,1219.989Zm3.164,1.044a.115.115,0,0,1-.114-.114.115.115,0,0,1,.114-.114.115.115,0,0,1,.114.114A.115.115,0,0,1-199.374,1221.033Zm-4.166-1.766a.115.115,0,0,1-.114-.114.115.115,0,0,1,.114-.114c.062,0,.537.166.537.228S-203.478,1219.267-203.54,1219.267Zm6.327,1.993a8.249,8.249,0,0,1-.821-.3c-.622-.341.759.075.821.075a1.41,1.41,0,0,1,.513.3C-196.7,1221.4-197.151,1221.26-197.213,1221.26Zm1.9,1.8c0-.2.993.279.993.434S-195.311,1223.4-195.311,1223.059Zm-6.111-4.518c0-.2.992.28.992.435S-201.422,1218.883-201.422,1218.541Zm11.1,6.617a5.208,5.208,0,0,1,1.075.558,9.419,9.419,0,0,1-1.127-.372c-.145-.031-.258-.114-.238-.165S-190.472,1225.117-190.327,1225.158Zm-1.034-1.282a.114.114,0,0,1,.113.114.114.114,0,0,1-.113.113c-.062,0-.445-.165-.445-.227S-191.423,1223.876-191.361,1223.876Zm-1.344-1.427a.114.114,0,0,1,.113-.114c.062,0,.383.166.383.228s-.321,0-.383,0A.114.114,0,0,1-192.705,1222.449Zm-4.452-.554c0-.25.132-.337.29-.337s.973.545.973.794-.816,0-.973,0S-197.157,1222.144-197.157,1221.9Zm2.042-.669c0-.063.352,0,.414,0s.383.165.383.227-.321,0-.383,0S-195.115,1221.288-195.115,1221.226Z" fill="#1b1a31"/>
    <path id="Path_3777" data-name="Path 3777" d="M-162.924,1218.474v-.01a.466.466,0,0,0,.16-.031c.2-.062.673-.3.649-.388s-.522-.015-.721.047a.384.384,0,0,0-.064.031l.072-1.044.622-.3c.016.093.218.292.345.25s.118-.312.094-.405a.091.091,0,0,0-.016-.042l3.839-1.819c-.279.844.392.473.5.33a.963.963,0,0,0,.128-.63l6.663-3.164-.415,2.874-7.708,4.219c0-.031-.016-.042-.056-.042-.311,0-1.269.155-.966.6l-.87.475a1.616,1.616,0,0,0,.128-1.38c-.66-.176-.479,1.143-.543,1.608l-2,1.1Zm11.156-6.12c-.016-.135-.279-.155-.558-.052-.28.072-.479.258-.463.413.04.135.279.156.558.052C-151.943,1212.695-151.728,1212.478-151.768,1212.354Zm-.215,1.726c0-.2-1.389.548-1.389.7S-151.983,1214.421-151.983,1214.08Zm-2.642.931a.1.1,0,0,0,.088-.114.1.1,0,0,0-.088-.114,1.491,1.491,0,0,0-.487.331C-155.112,1215.176-154.673,1215.011-154.625,1215.011Zm-2.828,1.936c.323-.113.572-.3.549-.414s-.313-.113-.635,0-.689.3-.665.408S-157.776,1217.06-157.453,1216.947Zm-1.157,1.2c.161-.056.286-.15.274-.207s-.156-.056-.317,0-.168.147-.156.2S-158.771,1218.206-158.61,1218.149Zm-2.638,1.106a.1.1,0,0,0,.088-.114.1.1,0,0,0-.088-.114.1.1,0,0,0-.1.09C-161.352,1219.179-161.3,1219.255-161.248,1219.255Zm-1.132.114a.1.1,0,0,0,.087-.114.1.1,0,0,0-.087-.114.094.094,0,0,0-.1.089C-162.484,1219.293-162.428,1219.369-162.38,1219.369Zm.527-1.324a.1.1,0,0,0,.088-.114.1.1,0,0,0-.088-.113.094.094,0,0,0-.1.089C-161.957,1217.969-161.9,1218.045-161.853,1218.045Zm6.067-2.79a.1.1,0,0,0,.088-.114.1.1,0,0,0-.088-.113.094.094,0,0,0-.1.089C-155.89,1215.179-155.834,1215.255-155.786,1215.255Zm0-.98a.1.1,0,0,0,.088-.114.1.1,0,0,0-.088-.114.1.1,0,0,0-.1.09C-155.89,1214.2-155.834,1214.275-155.786,1214.275Zm3-.95a.1.1,0,0,0,.088-.113.1.1,0,0,0-.088-.114.094.094,0,0,0-.1.089C-152.886,1213.249-152.83,1213.325-152.782,1213.325Zm-3.782,1.551c.112-.031.2-.113.184-.165s-.112-.062-.224-.021a2.409,2.409,0,0,0-.662.445A3.413,3.413,0,0,0-156.564,1214.876Zm-3.3,1.665a.1.1,0,0,0,.088-.114.1.1,0,0,0-.088-.114,3.035,3.035,0,0,0-.734.4C-160.594,1216.779-159.908,1216.541-159.86,1216.541Z" fill="#1b1a31"/>
    <path id="Path_3778" data-name="Path 3778" d="M-162.971,1226.78l.159-2.275v-.01a.466.466,0,0,0,.16-.031c.2-.062.974-.386.951-.479s-.823.076-1.023.138a.375.375,0,0,0-.064.031l.072-1.044.623-.3c.016.093.432.551.549.474.569-.378-.087-.536-.111-.629a.089.089,0,0,0-.015-.042l3.838-1.819c.136.3.548.849.93.248.1-.158-.284-.3-.3-.548l6.751-3.733-.43,2.978-3.575,2.151c-.224-.1-.519-.207-.663-.124s.088.217.327.32l-3.87,2.337c0-.031-.016-.042-.056-.042-.311,0-1.269.155-.965.6Zm11.587-8.612c.048,0,.335-.166.335-.228s-.287,0-.335,0a.1.1,0,0,0-.088.114A.1.1,0,0,0-151.384,1218.168Zm-.686,1.83c0-.2-.767.434-.767.589S-152.07,1220.339-152.07,1220Zm-2.442,1.044a.1.1,0,0,0,.087-.114.1.1,0,0,0-.087-.114.1.1,0,0,0-.088.114A.1.1,0,0,0-154.512,1221.042Zm3.216-1.766a.1.1,0,0,0,.087-.114.1.1,0,0,0-.087-.114c-.048,0-.415.166-.415.228S-151.344,1219.276-151.3,1219.276Zm-4.884,1.993a5.725,5.725,0,0,0,.634-.3c.48-.342-.586.074-.634.074s-.4.242-.4.3S-156.228,1221.269-156.18,1221.269Zm-1.468,1.8c0-.2-.767.279-.767.434S-157.648,1223.409-157.648,1223.068Zm4.717-4.518c0-.2-.767.28-.767.435S-152.931,1218.892-152.931,1218.55Zm-8.564,6.617a3.784,3.784,0,0,0-.83.558,6.193,6.193,0,0,0,.87-.372c.112-.031.2-.114.184-.165S-161.383,1225.126-161.495,1225.167Zm.8-1.282a.1.1,0,0,0-.088.114.1.1,0,0,0,.088.113c.048,0,.343-.165.343-.227S-160.649,1223.885-160.7,1223.885Zm1.038-1.427a.1.1,0,0,0-.088-.113c-.048,0-.3.165-.3.227s.248,0,.3,0A.1.1,0,0,0-159.659,1222.458Zm3.435-.554c0-.25-.1-.337-.223-.337s-.751.545-.751.794.629,0,.751,0S-156.224,1222.153-156.224,1221.9Zm-1.576-.669c0-.062-.271,0-.319,0s-.3.165-.3.227.248,0,.3,0S-157.8,1221.3-157.8,1221.235Z" fill="#1b1a31"/>
    <path id="Path_3779" data-name="Path 3779" d="M-227.191,1290.316s7.3,9.079,7.3,15.107l6.49-3.455s-2.884-10.7-6.893-14.71C-225.462,1283.8-227.078,1284.361-227.191,1290.316Z" fill="#283353"/>
  </g>
</svg>
