<svg xmlns="http://www.w3.org/2000/svg" xmlns:xlink="http://www.w3.org/1999/xlink" width="118.936" height="151.8" viewBox="0 0 118.936 151.8">
  <defs>
    <linearGradient id="linear-gradient" y1="0.5" x2="1" y2="0.5" gradientUnits="objectBoundingBox">
      <stop offset="0" stop-color="#7dccd4"/>
      <stop offset="0.996" stop-color="#54546f"/>
    </linearGradient>
    <linearGradient id="linear-gradient-2" y1="0.5" x2="1" y2="0.5" gradientUnits="objectBoundingBox">
      <stop offset="0" stop-color="#46667a"/>
      <stop offset="0.996" stop-color="#3c3341"/>
    </linearGradient>
    <linearGradient id="linear-gradient-3" x1="0.5" y1="1" x2="0.5" gradientUnits="objectBoundingBox">
      <stop offset="0" stop-color="#ffa031"/>
      <stop offset="1" stop-color="#ffd638"/>
    </linearGradient>
    <linearGradient id="linear-gradient-4" y1="0.5" x2="1" y2="0.5" gradientUnits="objectBoundingBox">
      <stop offset="0"/>
      <stop offset="0.996" stop-color="#cebda2"/>
    </linearGradient>
    <linearGradient id="linear-gradient-5" x1="0.5" y1="1" x2="0.5" gradientUnits="objectBoundingBox">
      <stop offset="0" stop-color="#f17038"/>
      <stop offset="1" stop-color="#ffa031"/>
    </linearGradient>
    <linearGradient id="linear-gradient-6" x1="0.5" y1="1" x2="0.5" y2="0" xlink:href="#linear-gradient-2"/>
    <linearGradient id="linear-gradient-7" x1="0.5" y1="1" x2="0.5" gradientUnits="objectBoundingBox">
      <stop offset="0" stop-color="#7dccc0"/>
      <stop offset="0.996" stop-color="#54546f"/>
    </linearGradient>
    <linearGradient id="linear-gradient-8" x1="0.5" y1="1" x2="0.5" gradientUnits="objectBoundingBox">
      <stop offset="0" stop-color="#13002f"/>
      <stop offset="1" stop-color="#00585e"/>
    </linearGradient>
    <linearGradient id="linear-gradient-9" x1="0" y1="0.5" x2="1" y2="0.5" xlink:href="#linear-gradient-3"/>
    <linearGradient id="linear-gradient-10" x1="0" y1="0.5" x2="1" y2="0.5" xlink:href="#linear-gradient-5"/>
    <linearGradient id="linear-gradient-11" x1="0.5" y1="1" x2="0.5" gradientUnits="objectBoundingBox">
      <stop offset="0" stop-color="#5a185b"/>
      <stop offset="1" stop-color="#7f237c"/>
    </linearGradient>
    <linearGradient id="linear-gradient-12" x1="0.5" y1="1" x2="0.5" gradientUnits="objectBoundingBox">
      <stop offset="0" stop-color="#861878"/>
      <stop offset="1" stop-color="#bd3992"/>
    </linearGradient>
    <radialGradient id="radial-gradient" cx="646.375" cy="-4718.596" r="70.791" gradientTransform="translate(370.251 -4234.558) scale(0.679 0.29)" gradientUnits="userSpaceOnUse">
      <stop offset="0" stop-color="#00726a"/>
      <stop offset="0.028" stop-color="#006e68"/>
      <stop offset="1" stop-color="#13002f"/>
    </radialGradient>
    <radialGradient id="radial-gradient-2" cx="-1836.418" cy="4581.629" r="5.76" gradientTransform="translate(488.741 -1225.732) scale(1.37 1.37)" gradientUnits="userSpaceOnUse">
      <stop offset="0" stop-color="#00e0a1"/>
      <stop offset="1" stop-color="#40ffb3"/>
    </radialGradient>
    <radialGradient id="radial-gradient-3" cx="-1320.735" cy="3502.201" r="4.74" gradientTransform="translate(207.24 -554.194) scale(1.249 1.249)" xlink:href="#radial-gradient-2"/>
    <linearGradient id="linear-gradient-13" x1="0.5" y1="1" x2="0.5" gradientUnits="objectBoundingBox">
      <stop offset="0" stop-color="#463168"/>
      <stop offset="0.996" stop-color="#322941"/>
    </linearGradient>
    <linearGradient id="linear-gradient-14" x1="0.5" y1="1" x2="0.5" y2="0" xlink:href="#linear-gradient"/>
    <radialGradient id="radial-gradient-4" cx="-11152.807" cy="29066.247" r="4.626" gradientTransform="translate(32047.502 -83572.498) scale(4.012 4.012)" gradientUnits="userSpaceOnUse">
      <stop offset="0.004" stop-color="#cebda2"/>
      <stop offset="1"/>
    </radialGradient>
    <radialGradient id="radial-gradient-5" cx="5.071" cy="7.49" r="4.331" gradientTransform="matrix(1.45, 0.28, -0.28, 1.45, -0.187, -4.792)" xlink:href="#radial-gradient-2"/>
    <linearGradient id="linear-gradient-18" x1="0.5" y1="1" x2="0.5" gradientUnits="objectBoundingBox">
      <stop offset="0"/>
      <stop offset="0.996" stop-color="#9093a2"/>
    </linearGradient>
    <linearGradient id="linear-gradient-21" x1="0.004" y1="0.499" x2="0.996" y2="0.499" xlink:href="#linear-gradient-4"/>
    <linearGradient id="linear-gradient-22" x1="0.001" y1="0.498" x2="0.999" y2="0.498" xlink:href="#linear-gradient-4"/>
    <linearGradient id="linear-gradient-28" y1="0.5" x2="1" y2="0.5" gradientUnits="objectBoundingBox">
      <stop offset="0" stop-color="#f17038"/>
      <stop offset="1" stop-color="#e06c31"/>
    </linearGradient>
    <radialGradient id="radial-gradient-6" cx="1747.969" cy="-5682.819" r="42.666" gradientTransform="translate(1609.838 -5235.866) scale(0.256 0.256)" xlink:href="#radial-gradient-4"/>
    <radialGradient id="radial-gradient-7" cx="2372.13" cy="-6860.346" r="122.467" gradientTransform="translate(2466.894 -7137.328) scale(0.131 0.131)" xlink:href="#radial-gradient-4"/>
  </defs>
  <g id="Robo4" transform="translate(-1041.064 -2714)">
    <path id="Path_3514" data-name="Path 3514" d="M-439.4,1377.308h7.931s3.5-1.126,4.756-2.382h-7.255Z" transform="translate(1581.407 1488.492)" fill="#283353"/>
    <path id="Path_3536" data-name="Path 3536" d="M-510.037,1230.375c0,.828-5.526-1.73-6.2-4.13S-510.037,1227.864-510.037,1230.375Z" transform="translate(1581.407 1488.492)" fill="#00ffb0"/>
    <rect id="Rectangle_78" data-name="Rectangle 78" width="15.522" height="1.265" transform="translate(1141.853 2858.06)" fill="#ff7f17"/>
    <path id="Path_3550" data-name="Path 3550" d="M-424.032,1370.834l-1-.409-14.517-.223v.633Z" transform="translate(1581.407 1488.492)" fill="#ffcc17"/>
    <path id="Path_3505" data-name="Path 3505" d="M-517.337,1301.059s-8.464,11.582-7.419,19.619,11.872,5.916,11.872,5.916v-.893s-10.213,2.456-11.218-5.47,8.091-19.172,8.091-19.172Z" transform="translate(1581.407 1488.492)" fill="#280436"/>
    <path id="Path_3506" data-name="Path 3506" d="M-519.363,1282.334l-2.339,5.7s-1.791,16.845,6.921,23.046l5.612-6.241Z" transform="translate(1581.407 1488.492)" fill="url(#linear-gradient)"/>
    <path id="Path_3507" data-name="Path 3507" d="M-491.91,1311.971s-20.9.871-22.871-.893l5.612-6.241,25.984-.542S-488.338,1310.52-491.91,1311.971Z" transform="translate(1581.407 1488.492)" fill="url(#linear-gradient-2)"/>
    <path id="Path_3508" data-name="Path 3508" d="M-461.686,1377.308h7.931s3.5-1.126,4.756-2.382h-7.255Z" transform="translate(1581.407 1488.492)" fill="#283353"/>
    <path id="Path_3509" data-name="Path 3509" d="M-421.407,1373.14h-21.976c-.482-2.768-1.081-5.474-1.75-8.1-.751-2.956-1.608-5.8-2.492-8.483a140.572,140.572,0,0,0-9.8-22.816.47.47,0,0,1-.027-.045h16.833c6.081,6.082,10.394,13.734,13.368,20.682a95.516,95.516,0,0,1,3.5,9.555A82.215,82.215,0,0,1-421.407,1373.14Z" transform="translate(1581.407 1488.492)" fill="url(#linear-gradient-3)"/>
    <path id="Path_3510" data-name="Path 3510" d="M-457.448,1333.7s11.234,20.691,14.065,39.443a83.179,83.179,0,0,0-12.871-39.443Z" transform="translate(1581.407 1488.492)" opacity="0.58" fill="url(#linear-gradient-4)"/>
    <path id="Path_3511" data-name="Path 3511" d="M-443.383,1373.14h-31.174s0-2.571.446-6.6c.875-7.894,3.474-21.36,11.163-31.951l5.5-.893a.47.47,0,0,0,.027.045c.545.75,8.278,11.832,12.547,31.281Q-444.018,1368.868-443.383,1373.14Z" transform="translate(1581.407 1488.492)" fill="url(#linear-gradient-5)"/>
    <path id="Path_3512" data-name="Path 3512" d="M-471.1,1373.14l2.009,1.786h44.537l1.451-1.786Z" transform="translate(1581.407 1488.492)" fill="#394361"/>
    <path id="Path_3513" data-name="Path 3513" d="M-467.416,1374.926a9.965,9.965,0,0,0,5.73,2.382,8.669,8.669,0,0,0,5.432-2.382Z" transform="translate(1581.407 1488.492)" fill="#1b1a31"/>
    <path id="Path_3515" data-name="Path 3515" d="M-445.135,1374.926a9.965,9.965,0,0,0,5.73,2.382,8.669,8.669,0,0,0,5.432-2.382Z" transform="translate(1581.407 1488.492)" fill="#1b1a31"/>
    <path id="Path_3516" data-name="Path 3516" d="M-527.469,1377.308h7.931s3.5-1.126,4.757-2.382h-7.256Z" transform="translate(1581.407 1488.492)" fill="#283353"/>
    <path id="Path_3517" data-name="Path 3517" d="M-498.894,1366.145h-19.924c-1.6-12.8-.16-21.953.744-34.249l12.855-2.288C-504.569,1329.317-497.943,1354.514-498.894,1366.145Z" transform="translate(1581.407 1488.492)" fill="url(#linear-gradient-6)"/>
    <path id="Path_3518" data-name="Path 3518" d="M-461.761,1331.505a167.085,167.085,0,0,1,7.479,32.147s-32.222,2.493-44.612,2.493a162.329,162.329,0,0,0-6.325-36.537Z" transform="translate(1581.407 1488.492)" fill="url(#linear-gradient-7)"/>
    <path id="Path_3519" data-name="Path 3519" d="M-505.188,1334.956l1.6.551s15.669,11.287,23.836,29.874h2.425s-9.178-24.5-16.359-31.681-24.423-1.348-24.423-1.348l-.1,1.348Z" transform="translate(1581.407 1488.492)" fill="#db2e4f" opacity="0.32"/>
    <path id="Path_3520" data-name="Path 3520" d="M-474.557,1338.984v27.164h-2.384a94.539,94.539,0,0,0-10.493-16.707c-9.724-12.359-18.967-17.449-18.967-17.449l-11.993.366-2.527-2.009,13.609-9.894,1.688-1.233Z" transform="translate(1581.407 1488.492)" fill="#4e074f"/>
    <path id="Path_3521" data-name="Path 3521" d="M-494.375,1259.354a51.982,51.982,0,0,0-19.892-31.323v-1.786s12.546,7.058,21.029,33.109Z" transform="translate(1581.407 1488.492)" fill="url(#linear-gradient-8)"/>
    <path id="Path_3522" data-name="Path 3522" d="M-476.031,1264.063h-28.441l2.527-4.706a28.313,28.313,0,0,1,7.09-1.456,46.344,46.344,0,0,1,14.574,1.331,9.9,9.9,0,0,1,3.027,2.991C-476.531,1263.223-476.031,1264.063-476.031,1264.063Z" transform="translate(1581.407 1488.492)" fill="url(#linear-gradient-9)"/>
    <path id="Path_3523" data-name="Path 3523" d="M-501.945,1259.354s-5.718,4.306-6.809,5.4l5.693-.665Z" transform="translate(1581.407 1488.492)" fill="url(#linear-gradient-10)"/>
    <path id="Path_3524" data-name="Path 3524" d="M-461.761,1298.725a30.2,30.2,0,0,1-10.432,7.553s-22.387,4.276-42.074-.468l3.1-6.043Z" transform="translate(1581.407 1488.492)" fill="#4e074f"/>
    <path id="Path_3525" data-name="Path 3525" d="M-513.405,1265.047a141.69,141.69,0,0,0-5.5,13.257s-3.279,19.592,4.634,27.506l3.1-6.043Z" transform="translate(1581.407 1488.492)" fill="url(#linear-gradient-11)"/>
    <path id="Path_3526" data-name="Path 3526" d="M-461.761,1298.728s-8.287,1.295-19.19,1.956a.669.669,0,0,0-.134.009h-.071c-1.554.1-3.152.17-4.8.232a130.946,130.946,0,0,1-25.217-1.161,52.843,52.843,0,0,1-3.215-30.388v-.009c.259-1.411.58-2.857.982-4.322a123.46,123.46,0,0,1,50.954,1.554S-457.519,1285.521-461.761,1298.728Z" transform="translate(1581.407 1488.492)" fill="url(#linear-gradient-12)"/>
    <path id="Path_3527" data-name="Path 3527" d="M-511.172,1266.355a137.015,137.015,0,0,1,46.063,1.786s5.084,17.1,1.2,29.194c0,0-26.162,4.087-45.238.953A49.341,49.341,0,0,1-511.172,1266.355Z" transform="translate(1581.407 1488.492)" fill="url(#radial-gradient)"/>
    <path id="Path_3528" data-name="Path 3528" d="M-510.258,1266.206c.187-.036.383-.063.6-.089C-509.883,1266.152-510.089,1266.179-510.258,1266.206Z" transform="translate(1581.407 1488.492)" fill="#4e074f"/>
    <path id="Path_3529" data-name="Path 3529" d="M-463.9,1297.335s.1-.009.116-.009c-.044.009-.268.045-.92.134,3.733-12.091-1.223-29.343-1.223-29.343-16.815-3.724-34.764-3.072-42.613-2.152,6.8-.92,25.834-2.795,45.149,1.473C-463.395,1267.438-460.028,1285.244-463.9,1297.335Z" transform="translate(1581.407 1488.492)" fill="#4e074f"/>
    <path id="Path_3530" data-name="Path 3530" d="M-501.052,1272.68c-4.356.551-6.217,11.9-4.96,15.352,1.488,4.093,10.79,2.918,12.4.052C-492.122,1285.428-495.173,1271.936-501.052,1272.68Z" transform="translate(1581.407 1488.492)" fill="url(#radial-gradient-2)"/>
    <path id="Path_3531" data-name="Path 3531" d="M-473.954,1274.963c-2.578,0-5.524,7.927-4.358,10.309,1.65,3.37,7.854,3.317,9.531,1.64C-466.787,1284.918-469.444,1274.963-473.954,1274.963Z" transform="translate(1581.407 1488.492)" fill="url(#radial-gradient-3)"/>
    <path id="Path_3532" data-name="Path 3532" d="M-481.451,1304.72c-.009,2.688-16.065,2.563-16.368.447-.018-.134.143-.259.446-.384,2.385-.947,13.663-1.367,15.627-.384C-481.558,1304.488-481.451,1304.595-481.451,1304.72Z" transform="translate(1581.407 1488.492)" fill="#3f004a"/>
    <path id="Path_3533" data-name="Path 3533" d="M-481.746,1304.4c-1.946,1.866-13.225,1.83-15.627.384C-494.988,1303.836-483.71,1303.416-481.746,1304.4Z" transform="translate(1581.407 1488.492)" fill="#390300"/>
    <path id="Path_3534" data-name="Path 3534" d="M-492.889,1305.112l.971,11.325h.986l-.521-12.055Z" transform="translate(1581.407 1488.492)" fill="url(#linear-gradient-13)"/>
    <path id="Path_3535" data-name="Path 3535" d="M-487.322,1304.381h-4.13l.521,12.055h2.6S-486.725,1309.3-487.322,1304.381Z" transform="translate(1581.407 1488.492)" fill="url(#linear-gradient-14)"/>
    <path id="Path_3537" data-name="Path 3537" d="M-454.282,1363.652l-9.934,9.488H-474.56l.633-8.26Z" transform="translate(1581.407 1488.492)" fill="#db2e4f" opacity="0.32"/>
    <path id="Path_3538" data-name="Path 3538" d="M-460.975,1327.536v.053a152.006,152.006,0,0,1-1.161,16.842c-1.339,11.466-3.348,21.717-3.348,21.717h-9.073a57.833,57.833,0,0,0-4.286-9.054h-.009a1.38,1.38,0,0,0-.108-.2,66.507,66.507,0,0,0-4.572-6.795,86.224,86.224,0,0,0-22.869-20.619l-.125-1.242-.786-7.786-.285-2.831c24.181-5.653,42.157,0,42.157,0,.482.893.929,1.768,1.34,2.6.41.849.785,1.652,1.125,2.4.473,1.054.866,1.992,1.17,2.76C-461.261,1326.714-460.975,1327.536-460.975,1327.536Z" transform="translate(1581.407 1488.492)" fill="url(#linear-gradient-12)"/>
    <path id="Path_3539" data-name="Path 3539" d="M-506.4,1329.483l-14.52.866a54.515,54.515,0,0,1,1.384-7.68l11.94-5.045,1.071,10.617Z" transform="translate(1581.407 1488.492)" fill="url(#linear-gradient-11)"/>
    <path id="Path_3540" data-name="Path 3540" d="M-487.193,1373.14h-21.976q-.416-2.411-.956-4.75a140.469,140.469,0,0,0-13.073-34.648.465.465,0,0,1-.027-.045H-506.4a57.565,57.565,0,0,1,8.85,11.69,92.308,92.308,0,0,1,8.992,21.9C-487.586,1370.872-487.193,1373.14-487.193,1373.14Z" transform="translate(1581.407 1488.492)" fill="url(#linear-gradient-3)"/>
    <path id="Path_3541" data-name="Path 3541" d="M-536.883,1373.14l2.009,1.786h44.537l1.451-1.786Z" transform="translate(1581.407 1488.492)" fill="#394361"/>
    <path id="Path_3542" data-name="Path 3542" d="M-533.2,1374.926a9.965,9.965,0,0,0,5.73,2.382,8.67,8.67,0,0,0,5.432-2.382Z" transform="translate(1581.407 1488.492)" fill="#1b1a31"/>
    <path id="Path_3543" data-name="Path 3543" d="M-505.188,1377.308h7.931s3.5-1.126,4.757-2.382h-7.256Z" transform="translate(1581.407 1488.492)" fill="#283353"/>
    <path id="Path_3544" data-name="Path 3544" d="M-510.918,1374.926a9.965,9.965,0,0,0,5.73,2.382,8.669,8.669,0,0,0,5.432-2.382Z" transform="translate(1581.407 1488.492)" fill="#1b1a31"/>
    <path id="Path_3545" data-name="Path 3545" d="M-469.4,1366.145s-3.661-34.73-11.5-50.926l.551.028s7.084,13.1,12.144,50.9Z" transform="translate(1581.407 1488.492)" opacity="0.54" fill="url(#radial-gradient-4)"/>
    <path id="Path_3546" data-name="Path 3546" d="M-469.946,1366.145s-3.662-34.73-11.5-50.926l.551.028s7.084,13.1,12.144,50.9Z" transform="translate(1581.407 1488.492)" fill="#4e074f"/>
    <path id="Path_3547" data-name="Path 3547" d="M-469.273,1332.789c.918,4.757-.948,9.117-4.168,9.738s-6.575-2.731-7.493-7.487.948-9.117,4.169-9.738S-470.19,1328.033-469.273,1332.789Z" transform="translate(1581.407 1488.492)" fill="#4e074f"/>
    <ellipse id="Ellipse_15" data-name="Ellipse 15" cx="5.071" cy="7.49" rx="5.071" ry="7.49" transform="matrix(0.982, -0.189, 0.189, 0.982, 1099.164, 2816.063)" fill="url(#radial-gradient-5)"/>
    <path id="Path_3548" data-name="Path 3548" d="M-507.987,1267.74l12.591-1.311s4.613,5.636,23.217,30.277h-1.163S-489.321,1280.27-507.987,1267.74Z" transform="translate(1581.407 1488.492)" opacity="0.3" fill="url(#linear-gradient-18)"/>
    <path id="Path_3549" data-name="Path 3549" d="M-493.238,1266.429l9.456.49L-470.1,1295.6h-1.563Z" transform="translate(1581.407 1488.492)" opacity="0.3" fill="url(#linear-gradient-18)"/>
    <rect id="Rectangle_77" data-name="Rectangle 77" width="14.629" height="1.265" transform="translate(1076.07 2858.06)" fill="#ff7f17"/>
    <path id="Path_3551" data-name="Path 3551" d="M-490.708,1370.834l-.912-.633h-13.717v.633Z" transform="translate(1581.407 1488.492)" fill="#ffcc17"/>
    <path id="Path_3552" data-name="Path 3552" d="M-487.189,1306.747l-4.177-.357-1.271,1.658-.252-2.936,1.436-.731h4.13Z" transform="translate(1581.407 1488.492)" fill="#562e4f" opacity="0.35"/>
    <path id="Path_3553" data-name="Path 3553" d="M-460.975,1327.536c-18.092,8.751-46.622-9.912-46.622-9.912,24.181-5.653,42.157,0,42.157,0A74.606,74.606,0,0,1-460.975,1327.536Z" transform="translate(1581.407 1488.492)" opacity="0.3" fill="url(#linear-gradient-4)"/>
    <path id="Path_3554" data-name="Path 3554" d="M-478.96,1356.9c-10.305-17.592-27.441-27.414-27.441-27.414l-14.52.866,14.288-2.152s.036.018.107.044C-505.142,1328.911-490.658,1336.269-478.96,1356.9Z" transform="translate(1581.407 1488.492)" fill="#fff"/>
    <path id="Path_3555" data-name="Path 3555" d="M-478.843,1357.094h-.009a1.38,1.38,0,0,0-.108-.2A2.27,2.27,0,0,1-478.843,1357.094Z" transform="translate(1581.407 1488.492)" opacity="0.3" fill="url(#linear-gradient-21)"/>
    <path id="Path_3556" data-name="Path 3556" d="M-491.193,1340.054c.5.543.743,1.133.542,1.318s-.768-.106-1.268-.649-.743-1.132-.542-1.317S-491.692,1339.512-491.193,1340.054Z" transform="translate(1581.407 1488.492)" fill="#fff"/>
    <path id="Path_3557" data-name="Path 3557" d="M-485.952,1300.925a130.946,130.946,0,0,1-25.217-1.161,52.843,52.843,0,0,1-3.215-30.388c-.027.491-.964,19.5,3.956,29.352A138.245,138.245,0,0,0-485.952,1300.925Z" transform="translate(1581.407 1488.492)" fill="#fff"/>
    <path id="Path_3558" data-name="Path 3558" d="M-480.906,1300.675l-.045.009a.669.669,0,0,0-.134.009C-481.022,1300.684-480.969,1300.684-480.906,1300.675Z" transform="translate(1581.407 1488.492)" fill="url(#linear-gradient-22)"/>
    <path id="Path_3559" data-name="Path 3559" d="M-511.005,1297.62c.3.676.334,1.312.084,1.422s-.692-.349-.989-1.025-.334-1.312-.084-1.422S-511.3,1296.944-511.005,1297.62Z" transform="translate(1581.407 1488.492)" fill="#fff"/>
    <path id="Path_3560" data-name="Path 3560" d="M-506.4,1333.7a57.565,57.565,0,0,1,8.85,11.69,216.735,216.735,0,0,1-25.665-11.681l-.009-.009Z" transform="translate(1581.407 1488.492)" opacity="0.3" fill="url(#linear-gradient-4)"/>
    <path id="Path_3561" data-name="Path 3561" d="M-427.247,1354.379a72.653,72.653,0,0,1-20.378,2.179,139.553,139.553,0,0,0-9.823-22.861h16.833C-434.534,1339.779-430.221,1347.431-427.247,1354.379Z" transform="translate(1581.407 1488.492)" opacity="0.3" fill="url(#linear-gradient-4)"/>
    <path id="Path_3562" data-name="Path 3562" d="M-523.225,1333.7h1.411a95.384,95.384,0,0,1,11.848,34.7Z" transform="translate(1581.407 1488.492)" opacity="0.58" fill="url(#linear-gradient-4)"/>
    <path id="Path_3563" data-name="Path 3563" d="M-509.169,1373.14h-31.174a67.5,67.5,0,0,1,.491-6.992c.92-7.938,3.554-21.136,11.118-31.558l5.509-.893a.465.465,0,0,0,.027.045c.572.8,9.162,13.109,13.234,34.657Q-509.535,1370.7-509.169,1373.14Z" transform="translate(1581.407 1488.492)" fill="url(#linear-gradient-5)"/>
    <path id="Path_3564" data-name="Path 3564" d="M-516.589,1343.722c.27.687.283,1.324.029,1.424s-.678-.376-.948-1.063-.283-1.324-.029-1.424S-516.858,1343.035-516.589,1343.722Z" transform="translate(1581.407 1488.492)" fill="#fff"/>
    <path id="Path_3565" data-name="Path 3565" d="M-448.865,1347.875c.27.687.283,1.325.029,1.424s-.678-.376-.948-1.063-.283-1.324-.029-1.424S-449.135,1347.188-448.865,1347.875Z" transform="translate(1581.407 1488.492)" fill="#fff"/>
    <path id="Path_3566" data-name="Path 3566" d="M-462.136,1344.431c-1.339,11.466-3.348,21.717-3.348,21.717h-11.457a94.539,94.539,0,0,0-10.493-16.707l3.9.661,8.975-2.376Z" transform="translate(1581.407 1488.492)" fill="#d02e4f" opacity="0.32"/>
    <path id="Path_3567" data-name="Path 3567" d="M-488.559,1367.291c.973,3.581,1.366,5.849,1.366,5.849h-53.15s2.9-.081,14.511-3.572c11.051-3.321,14.867-5.916,14.867-5.916Z" transform="translate(1581.407 1488.492)" fill="#db2e4f" opacity="0.2"/>
    <path id="Path_3568" data-name="Path 3568" d="M-421.407,1373.14h-53.15c11.624-.33,21.965-2.517,29.424-8.1l.259-.018,21.127-1.089A82.215,82.215,0,0,1-421.407,1373.14Z" transform="translate(1581.407 1488.492)" fill="#db2e4f" opacity="0.2"/>
    <path id="Path_3569" data-name="Path 3569" d="M-477.254,1262.223c-6.867.715-14.011-2.429-17.6-4.322a46.344,46.344,0,0,1,14.574,1.331A9.9,9.9,0,0,1-477.254,1262.223Z" transform="translate(1581.407 1488.492)" opacity="0.3" fill="url(#linear-gradient-4)"/>
    <path id="Path_3570" data-name="Path 3570" d="M-463.395,1267.438l-2.536.679c-16.815-3.724-34.764-3.072-42.613-2.152C-501.739,1265.045-482.71,1263.17-463.395,1267.438Z" transform="translate(1581.407 1488.492)" fill="#562e4f" opacity="0.35"/>
    <path id="Path_3571" data-name="Path 3571" d="M-536.418,1350.146l21.2-.5,1.7,4.828H-493l.207.488-21.04.327-1.878-5.143-20.807.309Z" transform="translate(1581.407 1488.492)" fill="url(#linear-gradient-28)"/>
    <path id="Path_3572" data-name="Path 3572" d="M-456.366,1351.189l6.585.164,2.252,7.221,21.643-.84-.091-.235-20.667.533-2.681-7.551-7.1.439Z" transform="translate(1581.407 1488.492)" fill="url(#linear-gradient-28)"/>
    <path id="Path_3573" data-name="Path 3573" d="M-425.886,1357.734l-21.643.84-2.252-7.221-5.561.317,5.19.263,2.4,7.032,22.184-.391Z" transform="translate(1581.407 1488.492)" opacity="0.58" fill="url(#radial-gradient-6)"/>
    <path id="Path_3574" data-name="Path 3574" d="M-536.518,1350.455l20.807-.309,1.878,5.143,21.04-.327-21.51.9-1.78-5.12Z" transform="translate(1581.407 1488.492)" opacity="0.58" fill="url(#radial-gradient-7)"/>
    <path id="Path_3575" data-name="Path 3575" d="M-513.984,1354.8c.18.459.189.885.019.952s-.453-.252-.634-.711-.188-.885-.019-.952S-514.164,1354.337-513.984,1354.8Z" transform="translate(1581.407 1488.492)" fill="#fff"/>
    <path id="Path_3576" data-name="Path 3576" d="M-447.549,1358.232c.181.46.189.886.02.952s-.454-.251-.634-.71-.189-.886-.02-.952S-447.729,1357.773-447.549,1358.232Z" transform="translate(1581.407 1488.492)" fill="#fff"/>
    <path id="Path_3577" data-name="Path 3577" d="M-489.742,1325.764v-.011a.759.759,0,0,1-.207-.031c-.259-.062-.872-.294-.841-.387s.676-.016.934.046c.031.011.062.021.083.031l-.093-1.044-.807-.3a.5.5,0,0,1-.447.251c-.155-.042-.152-.313-.121-.406a.079.079,0,0,1,.02-.041l-4.973-1.82c.36.844-.508.474-.651.331a.8.8,0,0,1-.166-.631l-8.633-3.163.538,2.874,9.987,4.218c0-.031.021-.041.073-.041.4,0,1.644.155,1.251.6l1.127.476c-.4-.4-.328-1.347-.166-1.38.855-.177.621,1.142.7,1.607l2.6,1.1Zm-14.454-6.121c.021-.134.362-.155.724-.051.361.072.62.258.6.413-.051.134-.362.155-.723.052C-503.969,1319.984-504.248,1319.767-504.2,1319.643Zm.279,1.727c0-.2,1.8.548,1.8.7S-503.917,1321.711-503.917,1321.37Zm3.422.93a.114.114,0,0,1-.114-.113.115.115,0,0,1,.114-.114,2.036,2.036,0,0,1,.631.331C-499.864,1322.466-500.433,1322.3-500.495,1322.3Zm3.664,1.937c-.418-.113-.741-.3-.71-.415s.4-.112.822,0,.893.3.862.408S-496.412,1324.35-496.831,1324.237Zm1.5,1.2c-.208-.057-.369-.151-.354-.207s.2-.056.41,0,.217.147.2.2S-495.123,1325.495-495.332,1325.439Zm3.419,1.1a.114.114,0,0,1-.114-.113.115.115,0,0,1,.114-.114c.062,0,.134.027.134.089A.157.157,0,0,1-491.913,1326.544Zm1.467.114a.115.115,0,0,1-.114-.114.114.114,0,0,1,.114-.113c.062,0,.134.027.134.089A.157.157,0,0,1-490.446,1326.658Zm-.684-1.323a.115.115,0,0,1-.114-.114.115.115,0,0,1,.114-.114c.062,0,.134.028.134.09A.157.157,0,0,1-491.13,1325.335Zm-7.86-2.79a.115.115,0,0,1-.114-.114.115.115,0,0,1,.114-.114c.062,0,.134.028.134.09A.157.157,0,0,1-498.99,1322.545Zm0-.981a.114.114,0,0,1-.114-.113.115.115,0,0,1,.114-.114c.062,0,.134.027.134.089A.157.157,0,0,1-498.99,1321.564Zm-3.892-.949a.115.115,0,0,1-.114-.114.114.114,0,0,1,.114-.113c.062,0,.134.027.134.089A.157.157,0,0,1-502.882,1320.615Zm4.9,1.551c-.145-.031-.259-.114-.238-.166s.145-.062.289-.02a3.3,3.3,0,0,1,.858.444A5.289,5.289,0,0,1-497.982,1322.166Zm4.27,1.664a.114.114,0,0,1-.114-.113.115.115,0,0,1,.114-.114,4.387,4.387,0,0,1,.951.4A6.265,6.265,0,0,1-493.712,1323.83Z" transform="translate(1581.407 1488.492)" fill="#1b1a31"/>
    <path id="Path_3578" data-name="Path 3578" d="M-488.791,1334.821l-.207-2.275v-.01a.805.805,0,0,1-.207-.031,4.283,4.283,0,0,1-1.231-.479,4.5,4.5,0,0,1,1.324.138.59.59,0,0,1,.083.031l-.093-1.045-.806-.3c-.021.093-.56.551-.712.473-.738-.377.112-.535.143-.628a.073.073,0,0,1,.021-.042l-4.973-1.819c-.176.3-.71.849-1.2.248-.13-.158.367-.3.388-.548l-8.747-3.733.558,2.978,4.632,2.15a1.5,1.5,0,0,1,.858-.124c.186.083-.113.217-.424.321l5.015,2.336c0-.031.021-.041.072-.041.4,0,1.644.155,1.251.6Zm-15.012-8.613c-.062,0-.434-.165-.434-.227s.372,0,.434,0a.114.114,0,0,1,.113.114A.114.114,0,0,1-503.8,1326.208Zm.889,1.83c0-.2.992.435.992.59S-502.914,1328.38-502.914,1328.038Zm3.164,1.045a.115.115,0,0,1-.114-.114.115.115,0,0,1,.114-.114.114.114,0,0,1,.113.114A.114.114,0,0,1-499.75,1329.083Zm-4.167-1.766a.115.115,0,0,1-.114-.114.115.115,0,0,1,.114-.114c.062,0,.538.166.538.228S-503.855,1327.317-503.917,1327.317Zm6.327,1.993a8.374,8.374,0,0,1-.821-.3c-.622-.341.759.075.821.075a1.4,1.4,0,0,1,.513.3C-497.077,1329.449-497.527,1329.31-497.59,1329.31Zm1.9,1.8c0-.2.992.279.992.434S-495.687,1331.45-495.687,1331.109Zm-6.112-4.518c0-.2.993.279.993.435S-501.8,1326.932-501.8,1326.591Zm11.1,6.617a5.176,5.176,0,0,1,1.075.558,9.412,9.412,0,0,1-1.126-.372c-.145-.031-.259-.114-.238-.165S-490.849,1333.167-490.7,1333.208Zm-1.034-1.282a.115.115,0,0,1,.114.114.114.114,0,0,1-.114.113c-.062,0-.444-.165-.444-.227S-491.8,1331.926-491.738,1331.926Zm-1.344-1.427a.115.115,0,0,1,.114-.114c.062,0,.383.166.383.228s-.321,0-.383,0A.115.115,0,0,1-493.082,1330.5Zm-4.451-.554c0-.25.131-.337.289-.337s.973.544.973.794-.815,0-.973,0S-497.533,1330.194-497.533,1329.945Zm2.042-.67c0-.062.352,0,.414,0s.382.166.382.228-.32,0-.382,0S-495.491,1329.337-495.491,1329.275Z" transform="translate(1581.407 1488.492)" fill="#1b1a31"/>
    <path id="Path_3579" data-name="Path 3579" d="M-464.1,1320.222l-3.126,2.4.027.027c.054.072.142.348.017.419s-.4-.07-.446-.142l-.589.455.2.885c.018-.009.036-.027.063-.045.2-.116.393-.161.429-.089.053.071-.072.232-.268.348a.677.677,0,0,1-.161.08v.009l.42,1.929,1.857-1.581c-.054-.4-.1-1.062.063-1.116.289-.289.726.449.321.8l.8-.688c-.438-.268-.074-1.335.875-.812.045-.018.062-.018.071.009l.572-.483C-463.315,1321.874-463.69,1321.071-464.1,1320.222Zm-3.045,4.9a.133.133,0,0,1-.143-.081c-.018-.053.035-.089.089-.107a.1.1,0,0,1,.125.063A.11.11,0,0,1-467.145,1325.125Zm.223-1.268a.127.127,0,0,1-.143-.081c-.018-.053.036-.089.089-.107a.087.087,0,0,1,.116.063A.1.1,0,0,1-466.922,1323.857Zm2.394-2.515a.127.127,0,0,1-.143-.08c-.018-.054.036-.089.09-.107s.488-.18.5-.126S-464.474,1321.324-464.528,1321.342Zm0,.854a.129.129,0,0,1-.143-.081c-.018-.053.036-.089.09-.107s.631-.336.64-.282A2.616,2.616,0,0,1-464.528,1322.2Zm-1.439,2.456a.134.134,0,0,1-.143-.081c-.017-.053.036-.089.09-.107a.1.1,0,0,1,.125.063A.11.11,0,0,1-465.967,1324.652Zm.786-2.706a5.061,5.061,0,0,1-.741.393,3.508,3.508,0,0,1,.679-.581c.053-.018.676-.243.125.063A.1.1,0,0,1-465.181,1321.946Z" transform="translate(1581.407 1488.492)" fill="#1b1a31"/>
    <path id="Path_3580" data-name="Path 3580" d="M-461.8,1325.384a.445.445,0,0,1-.027.339c-.134.259-.547.777-.625-.1l-3.626,2.786a.04.04,0,0,1,.027.027c.054.071.692.312.576.393a2.294,2.294,0,0,1-1-.116l-.589.455.2.884a.151.151,0,0,1,.062-.045,3.584,3.584,0,0,1,1.057-.45c.053.063-.7.584-.9.7a.673.673,0,0,1-.161.081v.009l.42,1.929,3.045-2.581c-.674-.866.544-.715.875-.822.045-.018.062-.009.071.018l1.429-1.3v-.053S-461.261,1326.714-461.8,1325.384Zm-3.34,5.206a7.3,7.3,0,0,1-.831.6,4.768,4.768,0,0,1,.742-.732c.107-.072.223-.1.241-.063C-464.958,1330.429-465.029,1330.527-465.145,1330.59Zm.491-1.277a.1.1,0,0,1-.125-.063.1.1,0,0,1,.063-.125c.053-.009.348-.16.366-.107S-464.6,1329.3-464.654,1329.313Zm.616-1.581c-.053.009-.3.143-.321.1a.664.664,0,0,1,.259-.286.1.1,0,0,1,.125.062A.1.1,0,0,1-464.038,1327.732Zm1.661.313c-.045-.125.652-.768.706-.607C-461.582,1327.714-462.341,1328.17-462.377,1328.045Z" transform="translate(1581.407 1488.492)" fill="#1b1a31"/>
  </g>
</svg>
