<svg xmlns="http://www.w3.org/2000/svg" xmlns:xlink="http://www.w3.org/1999/xlink" width="139.382" height="140.75" viewBox="0 0 139.382 140.75">
  <defs>
    <linearGradient id="linear-gradient" x1="0.5" y1="1" x2="0.5" gradientUnits="objectBoundingBox">
      <stop offset="0" stop-color="#ffa031"/>
      <stop offset="1" stop-color="#ffd638"/>
    </linearGradient>
    <linearGradient id="linear-gradient-2" x1="0.5" y1="1" x2="0.5" gradientUnits="objectBoundingBox">
      <stop offset="0" stop-color="#f17038"/>
      <stop offset="1" stop-color="#ffa031"/>
    </linearGradient>
    <linearGradient id="linear-gradient-5" x1="0.5" y1="1" x2="0.5" gradientUnits="objectBoundingBox">
      <stop offset="0" stop-color="#861878"/>
      <stop offset="1" stop-color="#bd3992"/>
    </linearGradient>
    <linearGradient id="linear-gradient-6" y1="0.5" x2="1" y2="0.5" gradientUnits="objectBoundingBox">
      <stop offset="0"/>
      <stop offset="0.996" stop-color="#cebda2"/>
    </linearGradient>
    <linearGradient id="linear-gradient-7" x1="0.5" y1="1" x2="0.5" gradientUnits="objectBoundingBox">
      <stop offset="0" stop-color="#5a185b"/>
      <stop offset="1" stop-color="#7f237c"/>
    </linearGradient>
    <linearGradient id="linear-gradient-8" x1="0.5" y1="1" x2="0.5" gradientUnits="objectBoundingBox">
      <stop offset="0" stop-color="#7dccd4"/>
      <stop offset="0.996" stop-color="#54546f"/>
    </linearGradient>
    <linearGradient id="linear-gradient-9" x1="0.5" y1="1" x2="0.5" gradientUnits="objectBoundingBox">
      <stop offset="0" stop-color="#463168"/>
      <stop offset="0.996" stop-color="#322941"/>
    </linearGradient>
    <linearGradient id="linear-gradient-10" x1="0.5" y1="1" x2="0.5" gradientUnits="objectBoundingBox">
      <stop offset="0" stop-color="#7dccc0"/>
      <stop offset="0.996" stop-color="#54546f"/>
    </linearGradient>
    <linearGradient id="linear-gradient-11" x1="0.5" y1="1" x2="0.5" gradientUnits="objectBoundingBox">
      <stop offset="0" stop-color="#46667a"/>
      <stop offset="0.996" stop-color="#3c3341"/>
    </linearGradient>
    <radialGradient id="radial-gradient" cx="-4324.724" cy="14008.564" r="3.543" gradientTransform="translate(4759.755 -15441.216) scale(2.216 2.216)" gradientUnits="userSpaceOnUse">
      <stop offset="0" stop-color="#00e0a1"/>
      <stop offset="1" stop-color="#40ffb3"/>
    </radialGradient>
    <linearGradient id="linear-gradient-17" x1="0.5" y1="1" x2="0.5" y2="0" xlink:href="#linear-gradient-6"/>
    <radialGradient id="radial-gradient-2" cx="-6053.117" cy="22192.123" r="4.949" gradientTransform="translate(11603.101 -42569.087) scale(3.036 3.036)" gradientUnits="userSpaceOnUse">
      <stop offset="0.004" stop-color="#cebda2"/>
      <stop offset="1"/>
    </radialGradient>
    <radialGradient id="radial-gradient-3" cx="-1431.659" cy="5768.833" r="4.466" gradientTransform="translate(478.418 -1935.866) scale(1.432 1.432)" xlink:href="#radial-gradient"/>
    <radialGradient id="radial-gradient-4" cx="1724.786" cy="-6319.399" r="69.302" gradientTransform="translate(1563.278 -5737.476) scale(0.242 0.242)" xlink:href="#radial-gradient"/>
    <radialGradient id="radial-gradient-5" cx="-4387.968" cy="13406.855" r="3.092" gradientTransform="translate(4828.725 -14778.751) scale(2.216 2.216)" xlink:href="#radial-gradient"/>
    <linearGradient id="linear-gradient-33" x1="-1.476" y1="-87.631" x2="-0.478" y2="-87.631" xlink:href="#linear-gradient-7"/>
    <linearGradient id="linear-gradient-34" x1="-1.482" y1="-87.93" x2="-0.484" y2="-87.93" xlink:href="#linear-gradient-7"/>
  </defs>
  <g id="Robo3" transform="translate(407.375 -1235.505)">
    <path id="Path_3581" data-name="Path 3581" d="M-331.213,1337.633a.028.028,0,0,0-.018.009l-.563.188v.009l-16.189,5.6-6.76,12.876-9.877,18.824a73,73,0,0,1,.831-15.913,137.5,137.5,0,0,1,6.608-25.244c1.1-3.027,1.866-4.831,1.866-4.831,4.983,0,15.226,3.581,18.637,4.831.714.259,1.134.42,1.134.42l3.831,2.857v.009Z" fill="url(#linear-gradient)"/>
    <path id="Path_3582" data-name="Path 3582" d="M-331.213,1337.633a.028.028,0,0,0-.018.009c-.054.036-.259.161-.589.375a89.645,89.645,0,0,0-18.565,16.654,64.13,64.13,0,0,0-11.85,20.467h-2.385a81.056,81.056,0,0,1,1.51-15.663c1.553-8.17,4.732-17.993,11.144-25.494.6-.7,1.223-1.375,1.875-2.027,0,0,4.653.705,9.591,2.027a36.892,36.892,0,0,1,8.787,3.331C-331.535,1337.419-331.374,1337.526-331.213,1337.633Z" fill="url(#linear-gradient-2)"/>
    <path id="Path_3583" data-name="Path 3583" d="M-331.213,1333.981l-.5,3.277v.054l-.081.518v.009l-.026.178a89.645,89.645,0,0,0-18.565,16.654l-4.358,1.643-8.367,3.161-.679-.25a137.5,137.5,0,0,1,6.608-25.244Z" fill="#7f0034" opacity="0.35"/>
    <path id="Path_3584" data-name="Path 3584" d="M-268.133,1375.138l-6.251-11.912-10.385-19.788-16.753-5.8a.027.027,0,0,0-.017-.009l4.339-3.232s13.734-5.251,19.762-5.251a143.3,143.3,0,0,1,7.581,25.021A80.119,80.119,0,0,1-268.133,1375.138Z" fill="url(#linear-gradient)"/>
    <path id="Path_3585" data-name="Path 3585" d="M-268.133,1375.138h-2.384a57.565,57.565,0,0,0-4.68-10.278c-9.7-16.85-25.735-26.852-26.325-27.218a.027.027,0,0,0-.017-.009c5.447-3.652,18.877-5.679,18.877-5.679,6.572,6.572,10.18,15.493,12.154,23.521A82.425,82.425,0,0,1-268.133,1375.138Z" fill="url(#linear-gradient-2)"/>
    <path id="Path_3586" data-name="Path 3586" d="M-314.118,1347.828l23.769-8.893s1.154-3.385-1.3-4.539L-311,1340.759Z" fill="#1b1a31"/>
    <path id="Path_3587" data-name="Path 3587" d="M-309.139,1277.851s-23.071,5.129-29.743,6.481c0,0-34.558,1.375-48.4,0l22.554-23.86Z" fill="#4e074f"/>
    <path id="Path_3588" data-name="Path 3588" d="M-334.365,1279.06c-.013,3.679-21.991,3.508-22.406.611-.025-.183.2-.355.611-.526,3.264-1.3,18.7-1.87,21.391-.525C-334.512,1278.742-334.365,1278.889-334.365,1279.06Z" fill="#3f004a"/>
    <path id="Path_3589" data-name="Path 3589" d="M-334.769,1278.62c-2.665,2.554-18.1,2.506-21.391.525C-352.9,1277.85-337.458,1277.275-334.769,1278.62Z" fill="#390300"/>
    <path id="Path_3590" data-name="Path 3590" d="M-308.639,1270.115a64.972,64.972,0,0,1-.5,7.733,48.089,48.089,0,0,0-8.831-2.339c-.027-.009-.045-.009-.072-.018-7.929-1.536-21.628-3.161-42.89-2.6,0,0-7.59-26.1-12.492-36.38l-.009-.009a54.209,54.209,0,0,1,5.992-.714c9.2-.688,28.5-.715,54.507,6.965A91.978,91.978,0,0,1-308.639,1270.115Z" fill="url(#linear-gradient-5)"/>
    <path id="Path_3591" data-name="Path 3591" d="M-308.639,1270.115c-24.583,1.089-58.8-34.326-58.8-34.326,9.2-.688,28.5-.715,54.507,6.965A91.978,91.978,0,0,1-308.639,1270.115Z" opacity="0.3" fill="url(#linear-gradient-6)"/>
    <path id="Path_3592" data-name="Path 3592" d="M-328.624,1271.972c-1.009-.66-2.527-1.8-1.946-2.375.446-.446,1.205-.143,1.8.232-.116-1.777-.277-4-.483-6.483v-.009c-.714-.643-2.036-1.92-1.446-2.25.419-.232.92.053,1.3.384-.509-5.876-1.224-12.725-2.126-17.913a14.81,14.81,0,0,0-3.715-3.251c0-.213,2.215.8,3.43,1.679a36.292,36.292,0,0,0-.974-3.965s-2.866-.482-6.072-.955a2.086,2.086,0,0,1-1.648,1.558,3.674,3.674,0,0,1-2.621-2.148c-1.018-.116-1.946-.223-2.687-.276,0,0,.625,1.41,1.553,4.018a7.466,7.466,0,0,1,1.753,1.413c0,.732-.235,1.444-.815,1.337a136.732,136.732,0,0,1,4.849,20.28c.982.75,1.875,1.518,1.875,1.831,0,.285-.75.089-1.625-.242.4,2.653.75,5.448,1.027,8.386l8.689.723S-328.543,1273.223-328.624,1271.972Zm-9.063-12.437c-.249-.249-.42-3.208.491-2.3C-336.875,1257.56-337.395,1259.827-337.687,1259.535Zm3.629,6.24a.422.422,0,1,1-.031-.839A.422.422,0,1,1-334.058,1265.775Zm2.992-6.282a.422.422,0,1,1-.031-.84A.422.422,0,1,1-331.066,1259.493Zm-5.516-20.03a.422.422,0,1,1-.03-.839A.422.422,0,1,1-336.582,1239.463Zm-1.642,6.238s-.478-1.313-.03-1.313C-337.611,1244.388-337.634,1245.7-338.224,1245.7Zm5.04,27.663s-.478-1.313-.03-1.313C-332.571,1272.051-332.594,1273.364-333.184,1273.364Zm1.06-4.015s-.478-1.312-.03-1.312C-331.511,1268.037-331.534,1269.349-332.124,1269.349Zm2.426-3.573s-.307-.841-.02-.841C-329.306,1264.935-329.321,1265.776-329.7,1265.776Zm-11.65-20.968s-.306-.84-.019-.84C-340.955,1243.968-340.97,1244.808-341.348,1244.808Zm9.758,27.358c-.59,0-.558-.542.085-.542S-331,1272.166-331.59,1272.166Zm-1.784-25.956c-.607,0-1.447-1.822-.509-1.822C-333.142,1244.388-332.767,1246.21-333.374,1246.21Z" fill="#1b1a31"/>
    <path id="Path_3593" data-name="Path 3593" d="M-318.042,1275.491c-7.929-1.536-21.628-3.161-42.89-2.6,0,0-7.59-26.1-12.492-36.38.268.4,7.879,13.609,13.662,34.817C-359.762,1271.329-334.91,1271.195-318.042,1275.491Z" fill="#fff"/>
    <path id="Path_3594" data-name="Path 3594" d="M-360.932,1272.892a92.645,92.645,0,0,0-12.957,3.751c-.562.214-1.134.437-1.7.669-4.385,1.777-8.787,4.108-11.689,7.019a66.9,66.9,0,0,1-.858-15.145,103.3,103.3,0,0,1,3.081-21.217c.259-1.045.536-2.1.84-3.17l10.787-8.3S-365.173,1250.791-360.932,1272.892Z" fill="url(#linear-gradient-7)"/>
    <path id="Path_3595" data-name="Path 3595" d="M-312.264,1260.471c-.634-.179-1.259-.348-1.893-.518-20.646-5.465-42.194-4.6-44.667-4.474-.08,0-.161.009-.241.009l-1.179-6.447v-.018l-.688-3.742c21.637,0,36.9,3.456,43.48,5.287l.116.035c2.027.563,3.206.974,3.456,1.063l.053.018A25.589,25.589,0,0,1-312.264,1260.471Z" fill="#3f004a"/>
    <path id="Path_3596" data-name="Path 3596" d="M-349.1,1279.219l1.117,9.858h6.139l.783-10.188S-346.186,1278.209-349.1,1279.219Z" fill="url(#linear-gradient-8)"/>
    <path id="Path_3597" data-name="Path 3597" d="M-349.1,1279.219l-1.414.623v9.235h2.53Z" fill="url(#linear-gradient-9)"/>
    <path id="Path_3598" data-name="Path 3598" d="M-304.54,1326.283a78.912,78.912,0,0,1-7.126,21.5l-33.308.474-9.912.143c-2.9-40.578-14.734-60.67-14.734-60.67,36.612-4.75,64.276,1.349,64.276,1.349A87.834,87.834,0,0,1-304.54,1326.283Z" fill="url(#linear-gradient-10)"/>
    <path id="Path_3599" data-name="Path 3599" d="M-354.886,1348.4h-18.753a78.774,78.774,0,0,1-14.841-21.852c-.482-1.027-.938-2.018-1.348-2.973a86.024,86.024,0,0,1-3.9-10.743c8.707-19.431,24.111-25.1,24.111-25.1a90.5,90.5,0,0,1,5.5,10.8,109.815,109.815,0,0,1,6.341,19.905A119.764,119.764,0,0,1-354.886,1348.4Z" fill="url(#linear-gradient-11)"/>
    <path id="Path_3600" data-name="Path 3600" d="M-302.656,1315.282s-4.241,12.314-24.191,12.314-30.423-8.09-30.423-8.09l-.509-1.063-3.956-8.233-26.745,16.341c-.482-1.027-.938-2.018-1.348-2.973l25.708-25.04,2.081-2.027Z" fill="#db2e4f" opacity="0.32"/>
    <path id="Path_3601" data-name="Path 3601" d="M-392.067,1324.507l2.986.749,28.462-17.391,4.459,9.3s10.484,8.094,30.427,8.094,24.192-12.311,24.192-12.311l-59.391-18.77Z" fill="#4e074f"/>
    <path id="Path_3602" data-name="Path 3602" d="M-300.995,1309.719c-.053.437-.107.83-.16,1.187l-.009.009c-.188,1.286-.375,2.027-.375,2.027s-3.858,7.2-15.261,9.385h-.009a36.683,36.683,0,0,1-6.832.617c-15.859,0-25.468-5.09-28.673-7.251a9.705,9.705,0,0,1-1.143-.867c-.866-.875-6.3-12.412-6.3-12.412l-9.224,6.313-1.108.75-9.331,6.385-12.645,8.644a59.128,59.128,0,0,1-3.214-12.18c.294-.75.625-1.491.982-2.232.241-.474.482-.947.732-1.411a45.189,45.189,0,0,1,5.126-7.448c.214-.259.428-.518.652-.768a76.828,76.828,0,0,1,13.591-12.082c2.982-2.116,5.09-3.322,5.286-3.429l2.152-1.08c1.554-.3,3.117-.554,4.68-.768,28.709-3.992,57.6,5.456,57.6,5.456C-300.164,1296.377-300.432,1305.129-300.995,1309.719Z" fill="url(#linear-gradient-5)"/>
    <path id="Path_3603" data-name="Path 3603" d="M-377.639,1302.2c-1.811-1.172-13.194,7.491-12.189,15.863s13.309,17.243,17.212,15.925C-366.587,1331.956-369.826,1307.266-377.639,1302.2Z" fill="#db2e4f" opacity="0.32"/>
    <path id="Path_3604" data-name="Path 3604" d="M-316.809,1322.327a36.683,36.683,0,0,1-6.832.617c-15.859,0-25.468-5.09-28.673-7.251a9.705,9.705,0,0,1-1.143-.867c-.866-.875-6.3-12.412-6.3-12.412l-9.224,6.313-2.215-2.455-3-17.887,1.872-1.29,5.566-3.219,14.449,30.433S-342.331,1322.327-316.809,1322.327Z" fill="#fff"/>
    <path id="Path_3605" data-name="Path 3605" d="M-373.889,1276.643a2.538,2.538,0,0,1-.9.544,2.472,2.472,0,0,1-.8.125c-2.983.081-8.7-3.464-12.547-8.126a103.3,103.3,0,0,1,3.081-21.217c2.34-1.973,4.527-3.036,5.242-2.572C-372.433,1250.184-369.129,1272.508-373.889,1276.643Z" fill="#562e4f" opacity="0.35"/>
    <path id="Path_3606" data-name="Path 3606" d="M-359.762,1302.414l-32.308,22.092a59.128,59.128,0,0,1-3.214-12.18c.294-.75.625-1.491.982-2.232.232-.474.473-.938.732-1.411,7.555-13.949,24.1-23.414,24.655-23.727l2.152-1.08Z" fill="url(#linear-gradient-7)"/>
    <path id="Path_3607" data-name="Path 3607" d="M-374.567,1331.264s2.93-.319,3.348-.738,3.684-4.706,3.684-16.241-5.023-17.822-5.73-18.529-7.2,2.3-10.7,5.805S-374.567,1331.264-374.567,1331.264Z" fill="url(#linear-gradient-2)"/>
    <path id="Path_3608" data-name="Path 3608" d="M-379.59,1299.477c-1.811-1.173-10.939,6.325-9.935,14.7s10.939,17.995,14.958,17.09S-371.777,1304.537-379.59,1299.477Z" fill="url(#linear-gradient)"/>
    <path id="Path_3609" data-name="Path 3609" d="M-376.237,1325.542a.97.97,0,0,1-.491.34c-2.661.6-9.234-5.769-9.9-11.315s5.376-10.5,6.573-9.724a4.754,4.754,0,0,1,.6.464C-375.148,1309.227-374.282,1323.149-376.237,1325.542Z" fill="url(#linear-gradient-2)"/>
    <path id="Path_3610" data-name="Path 3610" d="M-376.237,1325.542c-3.072-1.384-7.546-6.447-8.091-10.975-.491-4.1,2.688-7.885,4.867-9.26C-375.148,1309.227-374.282,1323.149-376.237,1325.542Z" fill="url(#radial-gradient)"/>
    <path id="Path_3611" data-name="Path 3611" d="M-379.59,1299.477a1.116,1.116,0,0,0-.8-.085.687.687,0,0,1,.191.085c7.813,5.06,9.041,30.882,5.023,31.787a2.532,2.532,0,0,1-.281.039,2.83,2.83,0,0,0,.9-.039C-370.549,1330.359-371.777,1304.537-379.59,1299.477Z" opacity="0.58" fill="url(#linear-gradient-17)"/>
    <path id="Path_3612" data-name="Path 3612" d="M-377.3,1272.935s2.684-.292,3.068-.675,3.374-4.312,3.374-14.879-4.6-16.327-5.249-16.975-6.593,2.107-9.8,5.318S-377.3,1272.935-377.3,1272.935Z" fill="url(#linear-gradient-2)"/>
    <path id="Path_3613" data-name="Path 3613" d="M-381.9,1243.815c-1.659-1.075-10.022,5.794-9.1,13.464s10.021,16.486,13.7,15.656S-374.743,1248.45-381.9,1243.815Z" fill="url(#linear-gradient)"/>
    <path id="Path_3614" data-name="Path 3614" d="M-381.9,1243.815a1.255,1.255,0,0,0-1.016-.01l.022.01c7.158,4.635,8.282,28.291,4.6,29.12-.013,0-.028,0-.042.006a2.764,2.764,0,0,0,1.036-.006C-373.619,1272.106-374.743,1248.45-381.9,1243.815Z" opacity="0.58" fill="url(#linear-gradient-6)"/>
    <path id="Path_3615" data-name="Path 3615" d="M-368.41,1348.4l-2.791-6.3,9.823-1.339,1.616,7.642Z" fill="#1b1a31"/>
    <path id="Path_3616" data-name="Path 3616" d="M-336.274,1348.135l.9-7.376h14.623l-1.339,7.174Z" fill="#1b1a31"/>
    <path id="Path_3617" data-name="Path 3617" d="M-324.691,1340.759l-.519,7.218,3.124-.044,1.339-7.174Z" fill="url(#linear-gradient-11)"/>
    <path id="Path_3618" data-name="Path 3618" d="M-365.481,1348.4l-2.054-6.8-3.666.5,2.791,6.3Z" fill="#283353"/>
    <path id="Path_3619" data-name="Path 3619" d="M-358.4,1348.4v6.274l-4.614,1.339-16-11.434,2.528-1.748.434-3.19,12.335,8.493Z" fill="#1b1a31"/>
    <path id="Path_3620" data-name="Path 3620" d="M-358.4,1354.674l-18.085-11.842.434-3.19,12.335,8.493,5.316.265Z" fill="#283353"/>
    <path id="Path_3621" data-name="Path 3621" d="M-379.023,1333.508a82.176,82.176,0,0,0-8.243,9.813c-10.822,14.9-18.216,32.934-18.216,32.934h-1.893c0-15.878,4.875-34.353,7.626-39.068a2.6,2.6,0,0,1,.964-1.117C-396.436,1335.177-379.023,1333.508-379.023,1333.508Z" fill="url(#linear-gradient)"/>
    <path id="Path_3622" data-name="Path 3622" d="M-379.023,1333.508l-2.06.2s-18.829,18.767-24.4,42.543Z" opacity="0.58" fill="url(#linear-gradient-6)"/>
    <path id="Path_3623" data-name="Path 3623" d="M-405.481,1376.255h1.451s12.893-22.185,31.7-36.083l-6.7-6.666S-400.458,1355.158-405.481,1376.255Z" fill="url(#linear-gradient-2)"/>
    <path id="Path_3624" data-name="Path 3624" d="M-333.807,1347.977l1.9,4.5,16.185-14.846V1334.4Z" fill="#283353"/>
    <path id="Path_3625" data-name="Path 3625" d="M-331.91,1352.479h5.023l13.506-14.511-2.344-.335Z" fill="#1b1a31"/>
    <path id="Path_3626" data-name="Path 3626" d="M-335.94,1282.582s8.457,7.128,12.633,40.362l.662-.008s-.9-24.122-10.9-40.106Z" opacity="0.54" fill="url(#radial-gradient-2)"/>
    <path id="Path_3627" data-name="Path 3627" d="M-300.995,1309.719c-29.879,7.947-61.088-26.611-61.088-26.611,28.709-3.992,57.6,5.456,57.6,5.456C-300.164,1296.377-300.432,1305.129-300.995,1309.719Z" opacity="0.3" fill="url(#linear-gradient-6)"/>
    <path id="Path_3628" data-name="Path 3628" d="M-336.274,1282.582s8.457,7.128,12.633,40.362l.662-.008s-1.787-24.371-11.79-40.354Z" fill="#4e074f"/>
    <path id="Path_3629" data-name="Path 3629" d="M-304.54,1326.283a78.912,78.912,0,0,1-7.126,21.5l-33.308.474C-333.2,1332.641-314.979,1327.784-304.54,1326.283Z" opacity="0.3" fill="url(#linear-gradient-6)"/>
    <path id="Path_3630" data-name="Path 3630" d="M-304.049,1298.23c.918,4.757-.949,9.117-4.169,9.738s-6.575-2.731-7.493-7.488.949-9.116,4.169-9.738S-304.967,1293.473-304.049,1298.23Z" fill="#4e074f"/>
    <path id="Path_3631" data-name="Path 3631" d="M-305.643,1298.444c.784,4.062-.81,7.785-3.559,8.315s-5.615-2.332-6.4-6.393.81-7.785,3.559-8.315S-306.427,1294.383-305.643,1298.444Z" fill="url(#radial-gradient-3)"/>
    <path id="Path_3632" data-name="Path 3632" d="M-313.827,1251.684l-2.232,1.268-44.185-3.911h0l-.688-3.76c21.637,0,36.9,3.456,43.48,5.287l.116.035,3.456,1.063Z" fill="#562e4f" opacity="0.35"/>
    <path id="Path_3633" data-name="Path 3633" d="M-314.157,1259.953c-20.646-5.465-42.194-4.6-44.667-4.474-.08,0-.161.009-.241.009l-1.179-6.447v-.018a165.981,165.981,0,0,1,44.185,3.929C-315.238,1253.773-314.354,1258.792-314.157,1259.953Z" fill="url(#radial-gradient-4)"/>
    <path id="Path_3634" data-name="Path 3634" d="M-301.164,1310.915c-.188,1.286-.375,2.027-.375,2.027s-5.358,10-22.1,10c-15.859,0-25.468-5.09-28.673-7.251a67.88,67.88,0,0,0,18.5,2.375C-308.764,1317.371-301.388,1311.1-301.164,1310.915Z" fill="#d02e4f" opacity="0.32"/>
    <path id="Path_3635" data-name="Path 3635" d="M-360.127,1270.332c.33.983.3,1.879-.06,2s-.925-.576-1.256-1.559-.3-1.878.06-2S-360.458,1269.349-360.127,1270.332Z" fill="#fff"/>
    <path id="Path_3636" data-name="Path 3636" d="M-352.9,1312.768c.33.983.3,1.879-.06,2s-.925-.576-1.256-1.559-.3-1.878.06-2S-353.233,1311.785-352.9,1312.768Z" fill="#fff"/>
    <path id="Path_3637" data-name="Path 3637" d="M-373.108,1312.912c.116,1.031-.1,1.9-.48,1.943s-.784-.758-.9-1.788.1-1.9.48-1.943S-373.223,1311.882-373.108,1312.912Z" fill="#fff"/>
    <path id="Path_3638" data-name="Path 3638" d="M-375.8,1256.546c.116,1.03-.1,1.9-.48,1.943s-.783-.758-.9-1.788.1-1.9.481-1.944S-375.912,1255.515-375.8,1256.546Z" fill="#fff"/>
    <path id="Path_3639" data-name="Path 3639" d="M-398.785,1336.07c2.349-.893,19.762-2.562,19.762-2.562a82.176,82.176,0,0,0-8.243,9.813c-4.813-2.214-9.028-4.322-12.483-6.134A2.6,2.6,0,0,1-398.785,1336.07Z" opacity="0.3" fill="url(#linear-gradient-6)"/>
    <path id="Path_3640" data-name="Path 3640" d="M-290.349,1338.936l-1.993,5.644-4.117-3.358Z" fill="#db2e4f" opacity="0.32"/>
    <path id="Path_3641" data-name="Path 3641" d="M-297.592,1362.235a100.673,100.673,0,0,1-1.947,13.8l-3.393.224a108.07,108.07,0,0,0-3.385-13.359c-2.7-8.528-7.242-19.61-14.43-28.495,0,0,14.359-1.536,22.7,1.294A147.972,147.972,0,0,1-297.592,1362.235Z" fill="url(#linear-gradient)"/>
    <path id="Path_3642" data-name="Path 3642" d="M-320.747,1334.4l1.791-.155s16.025,19.461,16.025,42.009l-6.877-18.793Z" opacity="0.58" fill="url(#linear-gradient-6)"/>
    <path id="Path_3643" data-name="Path 3643" d="M-297.592,1362.235q-4.327.522-8.725.661c-2.7-8.528-7.242-19.61-14.43-28.495,0,0,14.359-1.536,22.7,1.294A147.972,147.972,0,0,1-297.592,1362.235Z" opacity="0.3" fill="url(#linear-gradient-6)"/>
    <path id="Path_3644" data-name="Path 3644" d="M-320.747,1334.4l-2.232,3.981s11.98,10.27,18.677,37.654l1.371.224S-305.79,1351.4-320.747,1334.4Z" fill="url(#linear-gradient-2)"/>
    <path id="Path_3645" data-name="Path 3645" d="M-308,1353.326c.33.983.3,1.879-.06,2s-.925-.576-1.256-1.559-.3-1.878.06-2S-308.328,1352.343-308,1353.326Z" fill="#fff"/>
    <path id="Path_3646" data-name="Path 3646" d="M-392.261,1349.541c-.518.9-1.207,1.47-1.539,1.279s-.181-1.075.337-1.973,1.208-1.471,1.54-1.279S-391.742,1348.643-392.261,1349.541Z" fill="#fff"/>
    <path id="Path_3647" data-name="Path 3647" d="M-379.949,1266.919a.84.84,0,0,1-.429.3c-2.322.523-8.059-5.035-8.643-9.875s4.692-9.165,5.736-8.487a4.072,4.072,0,0,1,.522.405C-379,1252.68-378.242,1264.83-379.949,1266.919Z" fill="url(#linear-gradient-2)"/>
    <path id="Path_3648" data-name="Path 3648" d="M-379.949,1266.919c-2.681-1.208-6.586-5.627-7.061-9.579-.429-3.577,2.346-6.882,4.247-8.082C-379,1252.68-378.242,1264.83-379.949,1266.919Z" fill="url(#radial-gradient-5)"/>
    <path id="Path_3649" data-name="Path 3649" d="M-319.229,1321.97a1.765,1.765,0,0,1-1.518-.75c-.313-.589.6-1.062,1.339-1.348a150.108,150.108,0,0,0-2.625-16.913c-.322-.2-.617-.465-.617-.75a3.459,3.459,0,0,1,.215-1.018c-.607-2.653-1.34-5.367-2.206-8.037v-.009c-.562-.268-1.277-.714-1.277-1.241a1.735,1.735,0,0,1,.5-1.027,57.892,57.892,0,0,0-3.2-7.466l-9.421-.964s.322.571.858,1.625a7.057,7.057,0,0,1,2.813,2.456,6.865,6.865,0,0,1,.08,3.786,107.436,107.436,0,0,1,4.956,14.207v.009a10.673,10.673,0,0,1,2.59,2.019c0,.241-1.179-.251-2.26-.751a76.552,76.552,0,0,1,1.974,10.761c.875.3,1.813.7,1.813,1.009,0,.339-.911.286-1.688.187q.228,2.559.232,5.126a27.245,27.245,0,0,0,7.483-.268S-319.194,1322.39-319.229,1321.97Zm-13.163-31.29c-.446.447-1.152-.893-.973-1.08C-333.062,1289.305-331.945,1290.234-332.392,1290.68Zm2.768,5.831c-.625.3-1.821-2.393-1.589-2.634C-330.561,1293.234-329.008,1296.217-329.624,1296.511Zm.652-9.072c-.678,0-1-1.822-.509-1.822S-328.3,1287.439-328.972,1287.439Zm1.992,11.5c-.313,0-.6-1.08-.447-1.232S-326.668,1298.94-326.98,1298.94Zm2.223,15.44c-.187,0-.866-1.643-.1-1.643C-324.516,1312.737-324.569,1314.38-324.757,1314.38Zm2.867-6.555c.392,0,.25,1.51.25,1.894S-322.283,1307.825-321.89,1307.825Zm.25,6.2c-.893,0-.67-2.563,0-2.563S-320.747,1314.023-321.64,1314.023Z" fill="#1b1a31"/>
    <path id="Path_3650" data-name="Path 3650" d="M-315.529,1336.392l1.412,1.152,14.77.581.673-.885Z" fill="#ff7f17"/>
    <path id="Path_3651" data-name="Path 3651" d="M-315.529,1336.392l.735.6,15.218.641.9-.394Z" fill="#842e4f" opacity="0.32"/>
    <path id="Path_3652" data-name="Path 3652" d="M-359,1288.257l1.456,1.321,14.785.2.639-1.073Z" fill="url(#linear-gradient-33)"/>
    <path id="Path_3653" data-name="Path 3653" d="M-359,1288.257l.758.688,15.234.26.886-.5Z" fill="#562e4f" opacity="0.54"/>
    <path id="Path_3654" data-name="Path 3654" d="M-358.123,1291.279l1.456,1.321,14.785.2.638-1.073Z" fill="url(#linear-gradient-34)"/>
    <path id="Path_3655" data-name="Path 3655" d="M-358.123,1291.279l.758.688,15.234.26.886-.5Z" fill="#562e4f" opacity="0.54"/>
    <path id="Path_3656" data-name="Path 3656" d="M-398.213,1337.271l14.679-1.576-1.507,1.576-13.507.983Z" fill="#ff7f17"/>
    <path id="Path_3657" data-name="Path 3657" d="M-398.213,1337.271l.725.362,13.1-1.05.849-.888Z" fill="#842e4f" opacity="0.32"/>
    <path id="Path_3658" data-name="Path 3658" d="M-268.133,1375.138h-2.384a57.565,57.565,0,0,0-4.68-10.278l.813-1.634,3.876-7.751.651-1.3A80.119,80.119,0,0,1-268.133,1375.138Z" fill="#d02e4f" opacity="0.32"/>
  </g>
</svg>
