<svg xmlns="http://www.w3.org/2000/svg" xmlns:xlink="http://www.w3.org/1999/xlink" width="203.581" height="269.591" viewBox="0 0 203.581 269.591">
  <defs>
    <linearGradient id="linear-gradient" x1="0.5" y1="1" x2="0.5" gradientUnits="objectBoundingBox">
      <stop offset="0" stop-color="#861878"/>
      <stop offset="1" stop-color="#bd3992"/>
    </linearGradient>
    <linearGradient id="linear-gradient-2" x1="0.5" y1="1" x2="0.5" gradientUnits="objectBoundingBox">
      <stop offset="0" stop-color="#5a185b"/>
      <stop offset="1" stop-color="#7f237c"/>
    </linearGradient>
    <linearGradient id="linear-gradient-5" x1="0.5" y1="1" x2="0.5" gradientUnits="objectBoundingBox">
      <stop offset="0" stop-color="#ffa031"/>
      <stop offset="1" stop-color="#ffd638"/>
    </linearGradient>
    <linearGradient id="linear-gradient-6" y1="0.5" x2="1" y2="0.5" gradientUnits="objectBoundingBox">
      <stop offset="0.004" stop-color="#cebda2"/>
      <stop offset="1"/>
    </linearGradient>
    <linearGradient id="linear-gradient-7" y1="0.5" x2="1" y2="0.5" gradientUnits="objectBoundingBox">
      <stop offset="0"/>
      <stop offset="0.996" stop-color="#cebda2"/>
    </linearGradient>
    <linearGradient id="linear-gradient-8" x1="0.5" y1="1" x2="0.5" gradientUnits="objectBoundingBox">
      <stop offset="0" stop-color="#f17038"/>
      <stop offset="1" stop-color="#ffa031"/>
    </linearGradient>
    <linearGradient id="linear-gradient-9" x1="-2.898" y1="0.07" x2="-2.898" y2="-0.937" gradientUnits="objectBoundingBox">
      <stop offset="0.004" stop-color="#3c3341"/>
      <stop offset="1" stop-color="#46667a"/>
    </linearGradient>
    <linearGradient id="linear-gradient-10" x1="-2.295" y1="0.079" x2="-2.295" y2="-0.924" gradientUnits="objectBoundingBox">
      <stop offset="0.004" stop-color="#54546f"/>
      <stop offset="1" stop-color="#7dccc0"/>
    </linearGradient>
    <linearGradient id="linear-gradient-13" x1="-0.05" y1="0.608" x2="-0.05" y2="-0.378" xlink:href="#linear-gradient-8"/>
    <linearGradient id="linear-gradient-14" x1="0.083" y1="0.072" x2="0.083" y2="-0.927" xlink:href="#linear-gradient-5"/>
    <linearGradient id="linear-gradient-15" x1="0.5" y1="1" x2="0.5" y2="0" xlink:href="#linear-gradient-10"/>
    <linearGradient id="linear-gradient-16" x1="0.5" y1="1" x2="0.5" y2="0" xlink:href="#linear-gradient-9"/>
    <linearGradient id="linear-gradient-21" x1="0.5" y1="1" x2="0.5" gradientUnits="objectBoundingBox">
      <stop offset="0.004" stop-color="#66667e"/>
      <stop offset="1" stop-color="#7dccc0"/>
    </linearGradient>
    <linearGradient id="linear-gradient-22" x1="0.5" y1="1" x2="0.5" gradientUnits="objectBoundingBox">
      <stop offset="0" stop-color="#46667a"/>
      <stop offset="0.996" stop-color="#3c3341"/>
    </linearGradient>
    <linearGradient id="linear-gradient-24" x1="0.5" y1="1" x2="0.5" gradientUnits="objectBoundingBox">
      <stop offset="0" stop-color="#7dccc0"/>
      <stop offset="0.996" stop-color="#54546f"/>
    </linearGradient>
    <radialGradient id="radial-gradient" cx="-7.521" cy="-3184.463" r="14.392" gradientTransform="translate(-6.492 -2064.752) scale(0.521 0.521)" gradientUnits="userSpaceOnUse">
      <stop offset="0" stop-color="#00e0a1"/>
      <stop offset="1" stop-color="#40ffb3"/>
    </radialGradient>
    <radialGradient id="radial-gradient-2" cx="-27.518" cy="-1087.32" r="6.777" gradientTransform="translate(-15.421 -544.906) scale(0.754 0.754)" xlink:href="#radial-gradient"/>
    <radialGradient id="radial-gradient-3" cx="55.216" cy="21118.92" r="4.506" gradientTransform="translate(-117.894 -44832.938) scale(3.241 3.241)" gradientUnits="userSpaceOnUse">
      <stop offset="0" stop-color="#cebda2"/>
      <stop offset="1"/>
    </radialGradient>
    <radialGradient id="radial-gradient-4" cx="-22.719" cy="3386.022" r="6.737" gradientTransform="translate(2.832 -514.658) scale(1.233 1.233)" xlink:href="#radial-gradient"/>
    <radialGradient id="radial-gradient-5" cx="125.453" cy="2924.98" r="6.472" gradientTransform="translate(-14.168 -319.931) scale(1.184 1.184)" xlink:href="#radial-gradient"/>
    <radialGradient id="radial-gradient-6" cx="-200.968" cy="10006.4" r="6.098" gradientTransform="translate(142.944 -7167.961) scale(1.825 1.825)" xlink:href="#radial-gradient"/>
    <radialGradient id="radial-gradient-7" cx="96.753" cy="2371.335" r="11.674" gradientTransform="translate(-4.959 -105.921) scale(1.1 1.1)" xlink:href="#radial-gradient"/>
    <linearGradient id="linear-gradient-48" x1="0.5" y1="1" x2="0.5" y2="0" xlink:href="#linear-gradient-7"/>
  </defs>
  <g id="Robo1" transform="translate(89.886 -1113.987)">
    <g id="Group_1604" data-name="Group 1604">
      <path id="Path_3780" data-name="Path 3780" d="M79.3,1354.83c-6.5,0-9.48-4.334-9.48,7.436,0,.546.015,1.086.037,1.622L54,1366.55l-4.763,17.028H81.585c6.5,0,11.767-9.542,11.767-21.312S85.8,1354.83,79.3,1354.83Z" fill="url(#linear-gradient)"/>
      <ellipse id="Ellipse_18" data-name="Ellipse 18" cx="11.767" cy="21.312" rx="11.767" ry="21.312" transform="translate(36.492 1340.954)" fill="url(#linear-gradient-2)"/>
    </g>
    <g id="Group_1605" data-name="Group 1605">
      <path id="Path_3781" data-name="Path 3781" d="M-9.06,1356.747c-6.5,0-5.465-6.251-5.465,5.519,0,.546.016,1.086.038,1.622l-15.851,2.662-4.764,17.028H-2.757c6.5,0,11.767-9.542,11.767-21.312C9.01,1354.05-2.561,1356.747-9.06,1356.747Z" fill="url(#linear-gradient)"/>
      <ellipse id="Ellipse_19" data-name="Ellipse 19" cx="11.768" cy="21.312" rx="11.768" ry="21.312" transform="translate(-47.851 1340.954)" fill="url(#linear-gradient-2)"/>
    </g>
    <g id="Group_1606" data-name="Group 1606">
      <path id="Path_3782" data-name="Path 3782" d="M101.565,1300.858l-7.218,4.539-.744-26.715,7.962-.509Z" fill="#283353"/>
      <path id="Path_3783" data-name="Path 3783" d="M77.6,1303.908h7.144l.819-22.176-6.623.521Z" fill="#283353"/>
      <path id="Path_3784" data-name="Path 3784" d="M94.347,1305.4H82.962s2.6-20.688,2.6-27.683l8.037.968Z" fill="#1b1a31"/>
      <path id="Path_3785" data-name="Path 3785" d="M77.6,1303.908l-10.642-1.116s2.382-16.942,2.382-24.619l9.6,4.081S80.283,1298.327,77.6,1303.908Z" fill="#1b1a31"/>
      <path id="Path_3786" data-name="Path 3786" d="M113.692,1272.8c-3.715,6.251-16.368,10.153-16.368,10.153l-1.947-12.439-2.161-13.8-6.9-43.988h5.653c8.43,11.877,14.127,28.638,17.556,41.434,1.009,3.751,1.822,7.162,2.456,10.011C113.147,1269.451,113.692,1272.8,113.692,1272.8Z" fill="url(#linear-gradient-5)"/>
      <path id="Path_3787" data-name="Path 3787" d="M64.889,1181.5s13.012,19.185,17.7,32.1l-4.763,1.449-19.015-30.786Z" fill="#283353"/>
      <path id="Path_3788" data-name="Path 3788" d="M54.1,1190.128s9.668,13.548,13.091,29.691c0,0,5.134,5.343,7.962,5.343s2.679-10.114,2.679-10.114-11.981-22.464-16.892-30.278Z" fill="#1b1a31"/>
      <path id="Path_3789" data-name="Path 3789" d="M105.472,1289.7H100l-1.622-7.1,3.3-2.422Z" fill="#1b1a31"/>
      <path id="Path_3790" data-name="Path 3790" d="M93.872,1236.623c.4-.079.934.929,1.2,2.252s.152,2.46-.246,2.539-.934-.929-1.2-2.252S93.473,1236.7,93.872,1236.623Z" fill="#fff"/>
      <path id="Path_3791" data-name="Path 3791" d="M109.522,1254.163c-5.537,1.081-10.975,1.92-16.306,2.554l-6.9-43.988h5.653C100.4,1224.606,106.093,1241.367,109.522,1254.163Z" opacity="0.3" fill="url(#linear-gradient-6)"/>
      <path id="Path_3792" data-name="Path 3792" d="M86.31,1212.733h2.344s13.135,36.606,8.67,70.216Z" opacity="0.58" fill="url(#linear-gradient-7)"/>
      <path id="Path_3793" data-name="Path 3793" d="M97.324,1282.953s-11.609,5.376-33.335,3.01c0,0,.125-3.242.205-8.252.188-10.323.241-28.155-1.179-40.693a46.735,46.735,0,0,0-2.3-11.207s11.314-13.082,25.6-13.082a178.2,178.2,0,0,1,6.85,23.307,175.924,175.924,0,0,1,4.429,32.665A129.334,129.334,0,0,1,97.324,1282.953Z" fill="url(#linear-gradient-8)"/>
      <path id="Path_3794" data-name="Path 3794" d="M113.692,1272.8c-3.715,6.251-16.368,10.153-16.368,10.153s-11.609,5.376-33.335,3.01c0,0,.125-3.242.205-8.252,0,0,21.191-.339,31.183-7.2a15.923,15.923,0,0,0,2.206-1.813h.009l14.386-4.527C113.147,1269.451,113.692,1272.8,113.692,1272.8Z" fill="#d02e4f" opacity="0.32"/>
      <path id="Path_3795" data-name="Path 3795" d="M105.472,1289.695l8.223-3.134s-3.535-18.855-6.883-19.86-5.135,13.472-5.135,13.472Z" fill="#283353"/>
      <path id="Path_3796" data-name="Path 3796" d="M93.163,1236.036c-7.921.116-18.342.473-30.148.982a46.735,46.735,0,0,0-2.3-11.207s11.314-13.082,25.6-13.082A178.2,178.2,0,0,1,93.163,1236.036Z" fill="#fff" opacity="0.2"/>
    </g>
    <path id="Path_3797" data-name="Path 3797" d="M34.1,1242.05l-5.08,2.859s8.2,33.844,8.768,52.2l7.579-.367C45.559,1274.027,38.636,1261.082,34.1,1242.05Z" fill="url(#linear-gradient-9)"/>
    <path id="Path_3798" data-name="Path 3798" d="M34.1,1242.388l8.48-.72s9.9,22.519,11.419,54.461l-8.632.617S41.065,1264.676,34.1,1242.388Z" fill="url(#linear-gradient-10)"/>
    <g id="Group_1607" data-name="Group 1607">
      <path id="Path_3799" data-name="Path 3799" d="M54.005,1342.783,34.1,1366.876c-3.634-20.226-4.063-53.195-4-70.3.018-6.777.107-11.064.107-11.064l.009.009c.366.134,8.751,3.26,8.956,5.751.027.33.3,1.465.759,3.17,2.921,10.939,13.288,45.712,14.029,48.194C53.987,1342.73,54.005,1342.783,54.005,1342.783Z" fill="url(#linear-gradient-8)"/>
      <path id="Path_3800" data-name="Path 3800" d="M78.115,1342.381l-24.11.4s-.018-.053-.045-.143c-.92-2.7-14.43-42.479-17.377-49.614a8.969,8.969,0,0,0-.429-.955c-1.527-2.7-5.679-6.323-5.938-6.546l-.009-.009,6.242-2.464s4.652,3.313,5.6,4.688c.8,1.2,3.17,8.528,3.313,8.983l.009.027,8.635-.956-1.116-12.742s4.331,9.849,5.545,12.787C59.166,1297.625,78.115,1342.381,78.115,1342.381Z" fill="url(#linear-gradient-5)"/>
    </g>
    <path id="Path_3801" data-name="Path 3801" d="M54,1342.78l7.674,13.967-.665,9.686-26.908.446Z" fill="url(#linear-gradient-13)"/>
    <path id="Path_3802" data-name="Path 3802" d="M61.678,1356.747l34.11,1.37,1.8,7.71-36.572.606Z" fill="url(#linear-gradient-14)"/>
    <path id="Path_3803" data-name="Path 3803" d="M95.787,1358.117l-17.676-15.736-24.107.4,7.674,13.967A105.579,105.579,0,0,0,95.787,1358.117Z" fill="#ffe800"/>
    <path id="Path_3804" data-name="Path 3804" d="M41.709,1246.439c-.947,4.117-3.055,9.243-7.7,12.02l-9.269-.893a21.933,21.933,0,0,0,7.581-13.555,23.3,23.3,0,0,0-.544-9.1s7.974,2.509,10.715,5.242A29.676,29.676,0,0,1,41.709,1246.439Z" fill="url(#linear-gradient-15)"/>
    <path id="Path_3805" data-name="Path 3805" d="M41.709,1246.439l-9.386-2.428a23.3,23.3,0,0,0-.544-9.1s7.974,2.509,10.715,5.242A29.676,29.676,0,0,1,41.709,1246.439Z" fill="#fff" opacity="0.5"/>
    <path id="Path_3806" data-name="Path 3806" d="M31.775,1234.908c-1.9-1.9-9.153,3.907-10.269,9.935s-.335,11.608,3.237,12.725S38.441,1241.574,31.775,1234.908Z" fill="url(#linear-gradient-16)"/>
    <path id="Path_3807" data-name="Path 3807" d="M56,1229.873s-22.694,8.892-27.508,8.892c0,0-51.576,2.033-70.929,0l29.141-17.8Z" fill="#4e074f"/>
    <path id="Path_3808" data-name="Path 3808" d="M90.108,1173.634a73.136,73.136,0,0,1-6.213,13.7,79.118,79.118,0,0,1-18.544,22.151c-2.853,2.322-4.892,2.5-6.295,1.144-7.722-7.368,3.655-60.843,3.655-60.843S80.724,1161.185,90.108,1173.634Z" fill="url(#linear-gradient-15)"/>
    <path id="Path_3809" data-name="Path 3809" d="M83.895,1187.333a79.118,79.118,0,0,1-18.544,22.151c-2.853,2.322-4.892,2.5-6.295,1.144l7.745-39.422Z" fill="#db2e4f" opacity="0.16"/>
    <path id="Path_3810" data-name="Path 3810" d="M56,1229.873s-44.9-4.5-69.456-4.5c0,0,3.1-49.62-14.563-85.935,0,0,50.568-5.065,90.724,5.933C62.708,1145.374,75.946,1187.844,56,1229.873Z" fill="url(#linear-gradient)"/>
    <path id="Path_3811" data-name="Path 3811" d="M-13.453,1225.376s1.132-52.567-14.563-85.935c0,0,18.5,29.223,17.119,85.951Z" fill="#fff"/>
    <path id="Path_3812" data-name="Path 3812" d="M-28.016,1139.441s-23.849,2.159-39.469,52.328c0,0,9.612,31.558,25.051,47l28.981-13.389S-8.588,1178.114-28.016,1139.441Z" fill="url(#linear-gradient-2)"/>
    <path id="Path_3813" data-name="Path 3813" d="M-29.883,1220.961s-7.7-21.946-22.319-33.921c-9.156-7.511-21.031-11.1-35.452-2.948.129-.372,2.646-6.838,10.243-14.793h.015c6.881-7.239,17.969-15.709,35.3-21.947a48.979,48.979,0,0,1,7.068,10.53,73.17,73.17,0,0,1,6.266,16.8C-25.906,1186.453-25,1201.947-29.883,1220.961Z" fill="url(#linear-gradient-15)"/>
    <path id="Path_3814" data-name="Path 3814" d="M-29.883,1220.961s-7.7-21.946-22.319-33.921l-.515-1.846,23.95-10.516C-25.906,1186.453-25,1201.947-29.883,1220.961Z" fill="#db2e4f" opacity="0.16"/>
    <path id="Path_3815" data-name="Path 3815" d="M-87.667,1184.108c-7.381,24.528,51.845,44.662,57.791,36.852C-24.239,1213.556-76.221,1146.075-87.667,1184.108Z" fill="url(#linear-gradient-21)"/>
    <path id="Path_3816" data-name="Path 3816" d="M-32.027,1219.236a4.8,4.8,0,0,1-3.25,1.437c-3.126.447-7.966-.2-13.458-1.7-2.116-.581-4.331-1.3-6.572-2.117-.036-.017-.08-.026-.116-.044-.2-.072-.411-.152-.616-.232-1.59-.6-3.2-1.259-4.795-1.983-.581-.25-1.161-.518-1.733-.8-.366-.169-.723-.348-1.08-.526-1.036-.5-2.054-1.018-3.063-1.572-1.527-.822-3.036-1.724-4.474-2.661-.75-.465-1.465-.956-2.17-1.456-.17-.1-.313-.205-.464-.312a41.563,41.563,0,0,1-7.859-7.207,18.866,18.866,0,0,1-4.34-9.3,13.373,13.373,0,0,1,.483-5.661c3.009-9.984,9.046-12.118,16.011-9.867a27.855,27.855,0,0,1,5.018,2.223c.277.17.545.322.831.473a50.5,50.5,0,0,1,5.643,3.947c.518.4,1.036.831,1.554,1.268,1.259,1.054,2.518,2.188,3.751,3.367.161.143.312.286.464.437,1.411,1.367,2.8,2.8,4.135,4.269.214.223.419.455.625.679.482.535.955,1.071,1.428,1.607l.09.107c.964,1.116,1.9,2.25,2.8,3.384C-35.313,1206.841-30.125,1216.735-32.027,1219.236Z" fill="url(#linear-gradient-22)"/>
    <path id="Path_3817" data-name="Path 3817" d="M-56.5,1179.9c.811.876,1.144,1.887.742,2.259s-1.384-.036-2.2-.911-1.144-1.887-.743-2.259S-57.313,1179.023-56.5,1179.9Z" fill="#fff"/>
    <path id="Path_3818" data-name="Path 3818" d="M-35.033,1157.882c-.1.086-.186.158-.287.229-10.444,7.6-41.275,11.1-42.076,11.188,6.881-7.239,17.969-15.709,35.3-21.947A48.979,48.979,0,0,1-35.033,1157.882Z" opacity="0.3" fill="url(#linear-gradient-6)"/>
    <path id="Path_3819" data-name="Path 3819" d="M22.765,1230.028c-.014,4.276-25.56,4.077-26.043.71-.029-.213.227-.412.71-.611,3.794-1.506,21.738-2.174,24.864-.611C22.594,1229.658,22.765,1229.829,22.765,1230.028Z" fill="#3f004a"/>
    <path id="Path_3820" data-name="Path 3820" d="M22.3,1229.516c-3.1,2.97-21.042,2.913-24.864.611C1.226,1228.621,19.17,1227.953,22.3,1229.516Z" fill="#390300"/>
    <path id="Path_3821" data-name="Path 3821" d="M2.565,1229.14l.971,6.694H18.787l.65-6.942S13.578,1228.075,2.565,1229.14Z" fill="url(#linear-gradient-24)"/>
    <path id="Path_3822" data-name="Path 3822" d="M2.565,1229.141l-4.3.863.426,5.954,4.841-.124Z" fill="url(#linear-gradient-16)"/>
    <path id="Path_3823" data-name="Path 3823" d="M30.269,1240.064a40,40,0,0,1-6.8,13.868H6.2s-.822-18.36-7.207-25.879l-.009-.009a296.354,296.354,0,0,1,32.773,1.456A37.98,37.98,0,0,1,30.269,1240.064Z" fill="url(#linear-gradient)"/>
    <path id="Path_3824" data-name="Path 3824" d="M-1.024,1228.041a67.4,67.4,0,0,0-15.031,6.846s5.506,13.758,12.33,19.046H6.2S7.778,1235.386-1.024,1228.041Z" fill="url(#linear-gradient-2)"/>
    <path id="Path_3825" data-name="Path 3825" d="M.9,1259.763l-7.331,3.036c-.652-8.948-2.688-15.252-4.9-19.6-3.375-6.608-7.179-8.707-7.179-8.707l13.171-1.571A28.314,28.314,0,0,1,.346,1242,27.148,27.148,0,0,1,.9,1259.763Z" fill="url(#linear-gradient-15)"/>
    <path id="Path_3826" data-name="Path 3826" d="M-5.343,1232.92A28.314,28.314,0,0,1,.346,1242l-11.35-.018-.331,1.215c-3.375-6.608-7.179-8.707-7.179-8.707Z" fill="#fff" opacity="0.5"/>
    <path id="Path_3827" data-name="Path 3827" d="M-17.3,1234.657c-4.032-1.352-8.817,5.595-7.311,14.227s13.94,15.671,18.176,13.915S-11.342,1236.652-17.3,1234.657Z" fill="url(#linear-gradient-16)"/>
    <path id="Path_3828" data-name="Path 3828" d="M-25.757,1239.948l-5.3,2.418s5.3,34.417,4.318,52.759l4.361,2.878C-20.271,1275.381-21.99,1259.37-25.757,1239.948Z" fill="url(#linear-gradient-16)"/>
    <path id="Path_3829" data-name="Path 3829" d="M-14.023,1257.62h2.953s1.044-11.539-5.315-14.752Z" fill="#1b1a31"/>
    <path id="Path_3830" data-name="Path 3830" d="M-13.406,1297.161l-7.3.634-1.679.152-.634.053s.152-2.259.286-6.01v-.017c.321-8.618.589-25.066-1.089-39.961a117.434,117.434,0,0,0-1.938-12.064h8.51a94.025,94.025,0,0,1,2.849,11.724A140.116,140.116,0,0,1-13.406,1297.161Z" fill="url(#linear-gradient-15)"/>
    <path id="Path_3831" data-name="Path 3831" d="M-32.029,1219.23a4.739,4.739,0,0,1-3.248,1.445,63.422,63.422,0,0,0-15.837-17.74c-13.52-10.716-29.158-12.075-34.909-12.176a13.685,13.685,0,0,1,.486-5.651c3.005-9.986,9.042-12.118,16.01-9.872a27.312,27.312,0,0,1,5.021,2.232c.272.158.544.315.83.472a55.094,55.094,0,0,1,7.2,5.208C-42.287,1195.08-29.168,1215.482-32.029,1219.23Z" fill="#562e4f" opacity="0.35"/>
    <path id="Path_3832" data-name="Path 3832" d="M-26.971,1296.7c-.607,12.77-2.848,48.141-2.848,48.141l-20.3,23.762c2.831-23.164,9.886-59.624,12.957-75.01l.009-.054c.893-4.5,1.447-7.179,1.447-7.179l.009.009c.366.134,8.7,3.411,8.867,5.9C-26.8,1292.678-26.855,1294.285-26.971,1296.7Z" fill="url(#linear-gradient-8)"/>
    <path id="Path_3833" data-name="Path 3833" d="M-29.819,1344.846s1.179-37.612.411-48.828a10.626,10.626,0,0,0-.456-2.992c-1.491-2.732-5.572-6.42-5.831-6.652l-.009-.009,8.367-3.144s4.4,5.171,4.483,6.653.473,8.126.473,8.126l8.975-.839.955-8.367s4.8,6.447,4.8,8.367,1.938,47.685,1.938,47.685Z" fill="url(#linear-gradient-5)"/>
    <path id="Path_3834" data-name="Path 3834" d="M-29.822,1344.845l7.441,14.092-.826,9.674H-50.118Z" fill="url(#linear-gradient-8)"/>
    <path id="Path_3835" data-name="Path 3835" d="M-22.381,1358.937l34.082,1.935,3.668,7.739H-23.207Z" fill="url(#linear-gradient-5)"/>
    <path id="Path_3836" data-name="Path 3836" d="M11.7,1360.872l-17.413-16.027h-24.11l7.441,14.092A105.594,105.594,0,0,0,11.7,1360.872Z" fill="#ffe800"/>
    <path id="Path_3837" data-name="Path 3837" d="M-13.453,1225.376s17.82-27.157,41.526-27.157S56,1229.873,56,1229.873s-3.694-33.027-27.93-33.027S-13.453,1225.376-13.453,1225.376Z" fill="#4e074f"/>
    <path id="Path_3838" data-name="Path 3838" d="M-12.911,1224.589s17.278-25.03,40.984-25.03S56,1229.873,56,1229.873s-3.694-31.687-27.93-31.687S-12.911,1224.589-12.911,1224.589Z" fill="#fff"/>
    <path id="Path_3839" data-name="Path 3839" d="M31.271,1199.014c0,.412-1.1.746-2.448.746s-2.449-.334-2.449-.746,1.1-.747,2.449-.747S31.271,1198.6,31.271,1199.014Z" fill="#fff"/>
    <ellipse id="Ellipse_20" data-name="Ellipse 20" cx="0.746" cy="2.448" rx="0.746" ry="2.448" transform="translate(-13.178 1198.891)" fill="#fff"/>
    <path id="Path_3840" data-name="Path 3840" d="M12.152,1169.307l-33.5-12.712-6.664-17.154,24.978-1.244Z" fill="#d02e4f" opacity="0.32"/>
    <g id="Group_1608" data-name="Group 1608">
      <path id="Path_3841" data-name="Path 3841" d="M2.441,1114.277s-9.45.633-12.2,1.377l-6.3,23.2,13.028-.659,4.252-3.157,11.051,13.632L9.7,1118.407Z" fill="url(#linear-gradient-2)"/>
      <path id="Path_3842" data-name="Path 3842" d="M47.822,1142.875c-.053,3.045-.232,5-.232,5l-34.987,2.8c-3.018-16.074-10.162-36.4-10.162-36.4,5.528-.259,10.448-.322,14.788-.268,18.27.25,26.289,2.732,26.289,2.732C47.465,1124.935,47.93,1136.392,47.822,1142.875Z" fill="url(#linear-gradient)"/>
      <path id="Path_3843" data-name="Path 3843" d="M45.974,1163.056l-6.251,5.358s-18.752.893-27.571.893l-15.515-31.775,4.632-4.018,12.223,20.054Z" fill="url(#linear-gradient-8)"/>
      <path id="Path_3844" data-name="Path 3844" d="M1.269,1133.514H2.441l9.823,15.157,35.328-.795,3.46,1.619-5.079,13.562h-32.3l-2.969-13.562Z" fill="url(#linear-gradient-5)"/>
      <path id="Path_3845" data-name="Path 3845" d="M51.053,1149.494H10.709l-9.44-15.981H2.441l9.823,15.157,35.328-.795Z" fill="#fff" opacity="0.64"/>
      <path id="Path_3846" data-name="Path 3846" d="M6.328,1126.244l18.02,3.549.789,6.251H9.163Z" fill="url(#radial-gradient)"/>
      <path id="Path_3847" data-name="Path 3847" d="M36.151,1130.239l10.568-2.9.971,8.7H36.151Z" fill="url(#radial-gradient-2)"/>
      <path id="Path_3848" data-name="Path 3848" d="M47.822,1142.875c-12.689-3.5-24.539-19.467-30.593-28.87,18.27.25,26.289,2.732,26.289,2.732C47.465,1124.935,47.93,1136.392,47.822,1142.875Z" opacity="0.3" fill="url(#linear-gradient-7)"/>
      <path id="Path_3849" data-name="Path 3849" d="M2.441,1114.273l2.243,0s6.257,18.222,8.37,34.394h-.79S5.12,1118.733,2.441,1114.273Z" fill="url(#radial-gradient-3)"/>
    </g>
    <path id="Path_3850" data-name="Path 3850" d="M-11.162,1174.422l2.031,11.668,16.061,12.8-.146-9.788Z" fill="#4e074f"/>
    <path id="Path_3851" data-name="Path 3851" d="M-10.435,1178.6l14.469,12.747.331,5.5-13.5-10.757Z" fill="url(#radial-gradient-4)"/>
    <path id="Path_3852" data-name="Path 3852" d="M47.717,1190.363l16.243-13.557v7.351l-16.243,14.111Z" fill="#4e074f"/>
    <path id="Path_3853" data-name="Path 3853" d="M47.717,1193.064,61.7,1181.718v4.323l-13.984,12.227Z" fill="url(#radial-gradient-5)"/>
    <path id="Path_3854" data-name="Path 3854" d="M61.7,1181.718l2.26-4.912-16.243,13.557v2.7Z" fill="#562e4f" opacity="0.35"/>
    <path id="Path_3855" data-name="Path 3855" d="M4.034,1191.343l2.751-2.24-17.946-14.681.727,4.174Z" fill="#562e4f" opacity="0.35"/>
    <path id="Path_3856" data-name="Path 3856" d="M34.7,1290.041,54,1342.78l7.674,13.967-.665,9.686,2.773-9.245-7.435-14.807L37.4,1291.08Z" opacity="0.58" fill="url(#linear-gradient-7)"/>
    <path id="Path_3857" data-name="Path 3857" d="M-35.7,1286.364s5.5,4.931,5.844,6.66.037,51.821.037,51.821l7.441,14.092-.826,9.674,2.5-9.287-7.5-14.479s-.2-51.031-.817-52.57S-35.7,1286.364-35.7,1286.364Z" opacity="0.58" fill="url(#linear-gradient-7)"/>
    <path id="Path_3858" data-name="Path 3858" d="M-21.367,1356.507c.405.04.623,1.161.489,2.5s-.57,2.4-.975,2.357-.623-1.161-.488-2.5S-21.771,1356.467-21.367,1356.507Z" fill="#fff"/>
    <path id="Path_3859" data-name="Path 3859" d="M62.726,1355.391c.4.04.623,1.161.488,2.5s-.57,2.4-.974,2.357-.623-1.161-.489-2.5S62.321,1355.35,62.726,1355.391Z" fill="#fff"/>
    <path id="Path_3860" data-name="Path 3860" d="M45.37,1296.75l-5.439-2.3-3.348-1.42L30.1,1296.58c.018-6.777.107-11.064.107-11.064l6.242-2.464s4.652,3.313,5.6,4.688c.8,1.2,3.17,8.528,3.313,8.983Z" fill="#d02e4f" opacity="0.32"/>
    <path id="Path_3861" data-name="Path 3861" d="M-22.381,1298l-4.59-1.3-2.437-.687-.349-.1-7.4-2.322.009-.054c.893-4.5,1.447-7.179,1.447-7.179l8.367-3.144s4.4,5.171,4.483,6.653S-22.381,1298-22.381,1298Z" fill="#d02e4f" opacity="0.32"/>
    <path id="Path_3862" data-name="Path 3862" d="M-25.757,1332.259l16.622-21.543v7.59l-17.686,24.477Z" fill="url(#linear-gradient-8)"/>
    <path id="Path_3863" data-name="Path 3863" d="M-11.694,1315.181v6.668l-15.127,20.934.955-9.443Z" fill="url(#radial-gradient-6)"/>
    <path id="Path_3864" data-name="Path 3864" d="M46.379,1308.644,72.126,1332.3l2.769,8.186L49.241,1319.5Z" fill="url(#linear-gradient-8)"/>
    <path id="Path_3865" data-name="Path 3865" d="M46.925,1310.716,69.74,1331.3l1.617,6.283L49.241,1319.5Z" fill="url(#radial-gradient-7)"/>
    <g id="Group_1609" data-name="Group 1609">
      <path id="Path_3866" data-name="Path 3866" d="M-86.6,1287.924l-1.346,17.99,9.573,2.2,1.092-18.049Z" fill="#283353"/>
      <path id="Path_3867" data-name="Path 3867" d="M-47.5,1191.9l-4.537,14.493-3.268,10.456-1.768,5.644-9.224,1.179s.785-4.126,2.652-10.4c.955-3.215,2.2-7,3.768-11.082a129.465,129.465,0,0,1,7.153-15.672c.161.143.312.286.464.437,1.411,1.367,2.8,2.8,4.135,4.269C-47.913,1191.446-47.708,1191.678-47.5,1191.9Z" fill="#283353"/>
      <path id="Path_3868" data-name="Path 3868" d="M-43.18,1197c-2.527,7.85-4.6,17.306-5.555,21.968-.366,1.8-.571,2.893-.571,2.893l-7.769.634q.443-3.027,1.036-5.92a133.1,133.1,0,0,1,7.912-25.352c.214.223.419.455.625.679.482.535.955,1.071,1.428,1.607l.09.107C-45.02,1194.732-44.082,1195.866-43.18,1197Z" fill="#1b1a31"/>
      <path id="Path_3869" data-name="Path 3869" d="M-78.371,1308.113l8.886-3.45.351-19.141-8.145,4.543Z" fill="#1b1a31"/>
      <path id="Path_3870" data-name="Path 3870" d="M-74.569,1291.565l.985,17.648,10.988.695L-64.514,1293Z" fill="#283353"/>
      <path id="Path_3871" data-name="Path 3871" d="M-62.6,1309.908l6.62-4.431-3.585-18.748L-64.514,1293Z" fill="#1b1a31"/>
      <path id="Path_3872" data-name="Path 3872" d="M-55.573,1287.69l-4.053,4.305,1.946,11.379,5.995.919S-52.305,1292.907-55.573,1287.69Z" fill="#1b1a31"/>
      <path id="Path_3873" data-name="Path 3873" d="M-46.37,1272.512c-.063,10.626.357,17.154.357,17.154l-10.028,3.974c-.188-1.616-.358-3.224-.491-4.813v-.063q-.255-2.946-.393-5.822a185.3,185.3,0,0,1,4.4-49.051,138.014,138.014,0,0,1,3.992-14.5c.018-.045.026-.072.026-.072l5.787,2.072c-.839,5.867-1.5,11.6-2,17.074C-45.96,1251.741-46.335,1263.582-46.37,1272.512Z" fill="url(#linear-gradient-5)"/>
      <path id="Path_3874" data-name="Path 3874" d="M-48.5,1219.313l1.4.937s-10.362,37.667-8.939,73.388L-69.194,1253.7Z" opacity="0.58" fill="url(#linear-gradient-7)"/>
      <path id="Path_3875" data-name="Path 3875" d="M-48.505,1219.317s-.008.027-.026.072a196.706,196.706,0,0,0-6.341,31.12c-.509,4.1-.928,8.456-1.187,12.993-.482,8.51-.625,14.734-.616,19.244.009,2.509.062,4.482.143,6.018v.063a28.784,28.784,0,0,0,.491,4.813s-22.718,3.527-33.818-8.635a144.521,144.521,0,0,1,3.313-32.478c2.322-10.716,6.251-22.557,12.868-32.978C-73.678,1219.549-60.122,1217.719-48.505,1219.317Z" fill="url(#linear-gradient-8)"/>
      <path id="Path_3876" data-name="Path 3876" d="M-53.958,1248.75c.4.041.623,1.161.489,2.5s-.571,2.4-.975,2.356-.623-1.161-.489-2.5S-54.362,1248.71-53.958,1248.75Z" fill="#fff"/>
      <path id="Path_3877" data-name="Path 3877" d="M-46.013,1289.666l-10.028,3.974s-22.718,3.527-33.818-8.635c0,0,24.173.6,32.934-2.063a.212.212,0,0,0,.071-.018l.179-.178,10.3-10.314.009.08C-46.433,1283.138-46.013,1289.666-46.013,1289.666Z" fill="#d02e4f" opacity="0.32"/>
      <path id="Path_3878" data-name="Path 3878" d="M-54.987,1293.219l3.3,11.074,7.677-3.505s-.178-10.692-2.5-14.393C-50.795,1279.546-54.987,1293.219-54.987,1293.219Z" fill="#283353"/>
      <path id="Path_3879" data-name="Path 3879" d="M-48.505,1219.317s-.008.027-.026.072a196.706,196.706,0,0,0-6.341,31.12c-14.787.92-26.289,1.67-31.674,2.018,2.322-10.716,6.251-22.557,12.868-32.978C-73.678,1219.549-60.122,1217.719-48.505,1219.317Z" fill="#fff" opacity="0.2"/>
      <path id="Path_3880" data-name="Path 3880" d="M-57.938,1242.357l.005-.012a.993.993,0,0,1-.225-.149c-.269-.215-.862-.824-.775-.916s.8.352,1.071.566a1,1,0,0,1,.08.082l.463-1.276-.782-.794a.645.645,0,0,1-.662.049c-.159-.133-.007-.45.08-.542a.108.108,0,0,1,.047-.038l-4.838-4.86c-.039,1.188-.856.277-.945.032a1.023,1.023,0,0,1,.152-.831l-8.4-8.442-.944,3.666,9.406,10.422c.017-.036.047-.037.108-.009.473.221,1.844,1.083,1.139,1.39l1.062,1.175c-.249-.685.354-1.759.562-1.71,1.1.261.1,1.68-.056,2.272l2.444,2.707Zm-13.6-15.1c.1-.146.509.016.877.336.385.283.586.643.477.814-.134.129-.509-.017-.877-.336C-71.462,1227.781-71.671,1227.373-71.542,1227.256Zm-.619,2.179c.108-.231,1.811,1.628,1.726,1.81S-72.348,1229.835-72.161,1229.435Zm3.505,2.967a.149.149,0,0,1-.071-.2.149.149,0,0,1,.2-.071,2.627,2.627,0,0,1,.559.734C-68.006,1232.941-68.583,1232.436-68.656,1232.4Zm3.238,4.28c-.428-.362-.7-.761-.607-.876s.537.09.965.451.886.835.788.951S-64.989,1237.044-65.418,1236.682Zm1.1,2.231c-.214-.18-.351-.379-.3-.437s.268.045.482.226.174.291.125.349S-64.1,1239.094-64.318,1238.913Zm3.405,3.171a.149.149,0,0,1-.071-.2.148.148,0,0,1,.195-.071c.073.034.143.1.109.178A.2.2,0,0,1-60.913,1242.084Zm1.658.937a.149.149,0,0,1-.071-.2.148.148,0,0,1,.2-.071c.073.034.143.106.109.178A.2.2,0,0,1-59.255,1243.021Zm-.076-1.927a.149.149,0,0,1-.071-.2.148.148,0,0,1,.195-.071c.073.034.143.1.109.178A.2.2,0,0,1-59.331,1241.094Zm-7.694-7.581a.149.149,0,0,1-.071-.2.149.149,0,0,1,.2-.071c.073.034.143.106.109.178A.2.2,0,0,1-67.025,1233.513Zm.538-1.15a.149.149,0,0,1-.072-.2.149.149,0,0,1,.2-.071c.073.034.143.106.109.178A.2.2,0,0,1-66.487,1232.363Zm-4.046-3.247a.148.148,0,0,1-.071-.195.149.149,0,0,1,.2-.071c.073.034.142.1.108.178A.2.2,0,0,1-70.533,1229.116Zm4.9,4.505c-.153-.116-.241-.275-.189-.325s.2.007.351.135a4.248,4.248,0,0,1,.763.992A6.9,6.9,0,0,1-65.634,1233.621Zm4.1,4.293a.148.148,0,0,1-.071-.2.149.149,0,0,1,.2-.071,5.666,5.666,0,0,1,.9.994C-60.551,1238.714-61.464,1237.948-61.537,1237.914Z" fill="#1b1a31"/>
      <path id="Path_3881" data-name="Path 3881" d="M-62.135,1255.461l1-2.782.006-.012a1,1,0,0,1-.226-.15c-.269-.214-1.27-1.144-1.182-1.237s1.209.674,1.478.888a.749.749,0,0,1,.08.082l.463-1.276-.781-.794c-.076.1-.959.34-1.1.166-.659-.847.425-.567.512-.66a.112.112,0,0,1,.047-.037l-4.837-4.86c-.371.256-1.3.608-1.549-.369-.066-.256.595-.15.755-.43l-8.217-9.172-.977,3.8,4.256,5.061a1.937,1.937,0,0,1,1.075.325c.173.2-.252.193-.673.144l4.6,5.489c.017-.036.047-.037.107-.009.474.221,1.844,1.083,1.14,1.389Zm-12.893-18.331c-.073-.034-.419-.432-.385-.5s.437.2.509.237a.149.149,0,0,1,.072.2A.149.149,0,0,1-75.028,1237.13Zm.04,2.635c.108-.231.927,1.053.842,1.235S-75.175,1240.165-74.988,1239.765Zm3.14,2.958a.148.148,0,0,1-.071-.2.148.148,0,0,1,.195-.071.148.148,0,0,1,.072.195A.149.149,0,0,1-71.848,1242.723Zm-3.921-4.355a.147.147,0,0,1-.071-.2.148.148,0,0,1,.2-.071c.072.034.54.488.506.561S-75.7,1238.4-75.769,1238.368Zm6.331,5.806a10.984,10.984,0,0,1-.8-.8c-.543-.741.85.5.923.538s.469.565.435.638S-69.365,1244.208-69.438,1244.174Zm1.246,3.153c.108-.23,1.012.872.927,1.054S-68.378,1247.728-68.192,1247.327Zm-4.694-8.649c.108-.23,1.011.871.926,1.053S-73.073,1239.078-72.886,1238.678Zm9.391,13.843a6.678,6.678,0,0,1,.956,1.244,12.286,12.286,0,0,1-1.119-1.054c-.152-.116-.24-.275-.188-.325S-63.642,1252.393-63.495,1252.521Zm-.51-2.071a.15.15,0,0,1,.071.2.149.149,0,0,1-.2.071c-.073-.034-.431-.438-.4-.511S-64.078,1250.416-64,1250.45Zm-.8-2.41a.148.148,0,0,1,.195-.072c.073.034.358.4.324.477s-.376-.176-.448-.21A.148.148,0,0,1-64.8,1248.04Zm-4.919-3.09c.136-.293.339-.324.524-.237s.843,1.172.706,1.465-.956-.447-1.142-.533S-69.856,1245.242-69.719,1244.95Zm2.762.333c.034-.072.413.193.486.227s.358.4.324.477-.376-.176-.449-.21S-66.991,1245.356-66.957,1245.283Z" fill="#1b1a31"/>
    </g>
    <path id="Path_3882" data-name="Path 3882" d="M-20.7,1297.8v.009l-1.679.2v-.053l-.348-5.957v-.017c.411-11.056.741-35.005-3.027-52.025C-20.255,1261.995-20.693,1297.134-20.7,1297.8Z" opacity="0.58" fill="url(#linear-gradient-48)"/>
    <ellipse id="Ellipse_21" data-name="Ellipse 21" cx="0.735" cy="2.442" rx="0.735" ry="2.442" transform="translate(-22.345 1272.827)" fill="#fff"/>
    <path id="Path_3883" data-name="Path 3883" d="M42.81,1274.341c.406,0,.735,1.093.735,2.442s-.329,2.442-.735,2.442-.736-1.093-.736-2.442S42.4,1274.341,42.81,1274.341Z" fill="#fff"/>
    <path id="Path_3884" data-name="Path 3884" d="M45.37,1296.75s-3.867-25.891-6.675-36.938c0,0,6.913,22.988,8.23,36.766Z" opacity="0.58" fill="url(#linear-gradient-48)"/>
    <path id="Path_3885" data-name="Path 3885" d="M-17.246,1239.948a94.025,94.025,0,0,1,2.849,11.724l-9.421.34a117.434,117.434,0,0,0-1.938-12.064Z" fill="#fff" opacity="0.5"/>
    <path id="Path_3886" data-name="Path 3886" d="M30.269,1240.064a17.2,17.2,0,0,1-6.715.062c-10.394-1.9-24.137-11.769-24.566-12.073l-.009-.009a296.354,296.354,0,0,1,32.773,1.456A37.98,37.98,0,0,1,30.269,1240.064Z" fill="#562e4f" opacity="0.35"/>
    <path id="Path_3887" data-name="Path 3887" d="M-46.477,1372.262H7.636l.844-3.654-55.763.206Z" fill="#562e4f" opacity="0.35"/>
    <path id="Path_3888" data-name="Path 3888" d="M36.771,1366.88l.585,3.4,55.1.152.723-4.535Z" fill="#562e4f" opacity="0.35"/>
  </g>
</svg>
